<?xml version="1.0" encoding="utf-8"?>
<!-- Generator: Adobe Illustrator 22.1.0, SVG Export Plug-In . SVG Version: 6.00 Build 0)  -->
<svg version="1.1"
	 xmlns="http://www.w3.org/2000/svg" xmlns:xlink="http://www.w3.org/1999/xlink" x="0px" y="0px" viewBox="0 0 841.9 595.3"
	 style="enable-background:new 0 0 841.9 595.3;" xml:space="preserve">
<style type="text/css">
	.st0{fill:#A6A6A6;}
	.st1{fill:#A6F2FF;}
	.st2{fill:#D9F9FF;}
	.st3{fill:#FFFFFF;}
	.st4{fill:#FFA3B6;}
	.st5{fill:#FFBAC8;}
	.st6{fill:#FFC7D2;}
	.st7{fill:#FF0032;}
</style>
<metadata>
	<sfw>
		<slices></slices>
		<sliceSourceBounds  bottomLeftOrigin="true" height="191.3" width="275" x="231.4" y="-333.3"></sliceSourceBounds>
	</sfw>
</metadata>
<g id="Слой_2">
	<g>
		<g>
			<path class="st0" d="M267.7,277.9c-4.9,3-8.9,6.7-12.2,11.4c-1.5,2.1,0.4,3.6,2.3,4.1c2.8,0.7,6.6-0.2,8.9-1.8
				c5.3-3.7,9.5-8,12.3-13.8c-4.7,0.6-9.3,1.2-14,1.8c0.2,1.3,0.4,2.7,0.5,4c0.2,1.8,3.1,2.1,4.4,2.2c6.4,0.4,12.8-0.9,18.6-3.8
				c4.4-2.2,6.3-6.5-0.1-7.1c-4.5-0.4-8.6,1.2-12,3.9c-1.9,1.5-1.8,3.4,0.1,4.7c7.1,5,16,6.3,24.5,4.7c3.2-0.6,13.1-5.7,5.4-8
				c-7-2.1-14.2-3-21.5-2.7c-3,0.1-7.1,0.8-9.1,3.4c-1.5,2-1,4.3,1.8,4.6c6.6,0.9,12.6-0.1,19.1-0.1c6.4-0.1,12.8,1,19.3,0.4
				c0.7-2.7,1.3-5.4,2-8.1c-3.5,0.3-7,0.7-10.5,1c-2.5,0.2-6.4,1.5-7.7,3.9c-1.1,2,0.1,3.8,2.3,4.1c11.4,1.5,22.8,3.1,34.2,4.6
				c3.3,0.4,6.9-0.2,9.6-2.3c1.5-1.1,3.6-4.2,0.6-5.2c-7.5-2.5-14.9-3.3-22.7-2.1c-2.5,0.4-6.3,1.4-7.7,3.9c-1.1,2,0.1,3.8,2.3,4.1
				c12.2,1.7,24.4,2.4,36.7,2.2c3.1-0.1,7.8-1,9.6-4c1.7-2.9-1.4-4.3-3.9-4.3c-4.6,0-9.2,0-13.9,0c-3,0-7.1,0.9-9.1,3.4
				c-1.6,2.1-1,4.1,1.8,4.6c9.4,1.7,18.8,3.4,28.1,5.1c2.4-2.7,4.8-5.4,7.2-8.1c-4.9-0.5-9.8-1-14.8-1.4c-3-0.3-8,1.2-9.6,4
				c-1.8,3,1.5,4,3.9,4.3c7.4,0.7,14.7,1.5,22.1,2.2c5.6,0.6,15.4-7.2,5.6-8.3c-2.4-0.3-4.5-1.5-6.5-2.8c-3.4,2.5-6.8,5-10.2,7.5
				c7.5,1.2,19.3,5.1,26.2,0.1c1.1-0.8,3.4-2.3,2.7-4.1c-0.6-1.6-1.8-2.1-3.4-2.5c-3.1-0.8-9.5,0.6-11.2,3.8c0,0.1-0.1,0.2-0.1,0.3
				c-1.2,2.3,0.1,3.5,2.3,4.1c5.9,1.7,8.9,9,11,14.2c2.1,5,16.3,0.8,14.5-3.9c-0.7-1.8-1.5-3.7-2.2-5.5c-2-5.1-16.3-0.8-14.5,3.9
				c2,5,3.9,10,5.9,15c4.8-1.3,9.7-2.6,14.5-3.9c-1.4-2.5-2.8-4.9-4.2-7.4c-2.7-4.9-16.7-0.2-14.5,3.9c1.5,2.8,3,5.5,4.6,8.3
				c1,1.8,1.7,3.9,3.7,4.6c4.1,1.4,9.8,0.3,12.5-3.4c0.6-0.9,0.9-1.7,0.6-2.8c-0.6-1.7-2.9-2.3-4.4-2.2c-0.1,0-0.2,0-0.3,0
				c-2.4,0.1-11.5,1.8-10.1,6.1c0.9,2.5,2,4.5,3.9,6.4c3.4,3.6,17.2-1.4,13.5-5.7c-3.9-4.4-9.2-9.1-15.4-9.5
				c-5.7-0.4-12.4,2.1-14.6,7.8c4.8-0.9,9.7-1.9,14.5-2.8c-1.6-8.6-13.4-8.1-18.6-3c-1.9,1.8-3.2,5-1.3,7.3
				c2.7,3.2,9.1,1.7,12.1,0.3c2.6-1.3,6.1-3.9,5.1-7.3c-1-3.5-5.7-3.7-8.6-3.3c-3.5,0.5-8.5,2.2-9.9,5.8c-1.5,3.9,2,6.3,5.3,7
				c3.1,0.7,9.5-0.5,11.2-3.8c6.2-12.5-16.4-12.6-18.6-3.2c-2.2,9.5,21.7,6.8,18-3.1c-3.4-9.1-24.6-4.2-23.4,5.5
				c1.2,9.8,22.9,4.4,19.6-4.3c-3.4-9-26.4-3.4-21.9,4.7c2.1,3.7,8.5,3,11.8,2c4.8-1.5,9.9-5.2,10.3-10.6c0.4-4.7-3.2-8.7-7.6-9.6
				c-4.5-0.9-12.8,0.7-14.6,5.7c-1.6,4.3,3.7,7.7,7.2,8.8c5.6,1.7,12.6,0.2,17-3.6c9.8-8.5-3.7-20.2-13.3-17.8
				c-5,1.3-8.9,4.4-7.6,9.9c1,4.3,4.4,9.2,9,10.1c4.9,0.9,12.3-1.7,13.3-7.3c0.8-4.9-2.3-10.5-6.7-12.7c-4.5-2.3-10.3-1.9-14.8,0.3
				c-5.3,2.5-7.5,7.4-8.2,13c-1.3,12.4,15.3,14.7,22,6.3c6.9-8.5-5.6-19.9-14-20.2c-5.1-0.2-11.3,2.2-13.5,7.1
				c-2.2,4.7-0.4,10.8,3.1,14.3c7.8,7.9,24,0.6,19.1-10.9c-5-11.7-22.2-16.1-31-6c-3.8,4.4-2.4,9.4,2.4,12.4
				c5.4,3.3,13.3,2.2,18.1-1.9c5.6-4.8,1.4-10.2-3-13.9c-5-4.2-10.8-7.3-17.5-6.3c-5.6,0.9-12,4.6-10.3,11.2
				c1.5,5.8,6.9,10.4,11.9,13.2c2.8,1.6,7.8,0.3,10.3-1.3c8.5-5.6,0-14.4-5.9-18.5c-3.7-2.6-7.5-4.2-12.2-3.5c-4,0.6-9.5,3-9.7,7.6
				c-0.3,7.3,10.9,15,17.1,16.7c4,1.1,9.1,0.4,12.5-2.2c4.1-3.2,2.4-6.3-0.5-9.7c-5.4-6.4-15.1-13-23.8-12.3
				c-3.7,0.3-8.4,1.8-10.2,5.4c-1.8,3.7,0.5,7.4,2.7,10.4c5.3,7.3,15,13.3,24.1,10.1c9.7-3.4,7.2-12.3,1.8-18.5
				c-6.2-7.1-18.6-12-26.5-4.4c-7.7,7.4,7,17.6,12.8,20.6c3.5,1.8,11.9-0.1,13-4.4c2.5-9.7-7.1-17.9-14.8-22
				c-4.5-2.4-9.3-3.8-14.4-2.1c-4.8,1.7-8.1,4.7-6.4,10c2.4,7.5,9.3,18.8,18.2,18.4c3.9-0.2,9.7-2.4,10.3-6.8
				c0.6-4.1-2.8-9.2-5.1-12.3c-5.8-7.9-15.1-12.7-24.6-8.7c-11,4.6-7,15.7-0.4,22.4c3,3,7,5.9,11.1,7.1c4.4,1.2,11.2,0.2,14-3.8
				c2.4-3.4-0.6-7.3-2.3-10.3c-2.7-4.5-6-8.7-9.9-12.3c-3.7-3.5-7.5-6.6-12.9-6.5c-4.2,0.1-11.4,2.2-11.4,7.4
				c-0.1,4.4,4.7,9.8,7.6,12.8c3.7,3.8,8.3,6.8,13.3,8.8c3.4,1.4,13.8-0.1,13-5.5c-1.4-9.4-8.8-17-16-22.6c-7.8-6.1-21-1.9-21.6,8.6
				c-0.5,8.3,5.1,16.1,12.9,18.7c6.8,2.3,21.2-0.6,17.2-10.5c-1.7-4.3-5.1-8.4-8.1-11.8c-3.3-3.7-6.9-7.3-12.2-7.5
				c-11.1-0.4-17,9.7-12.8,19.5c3.9,9,14.2,13,22.9,8c9.9-5.7,0.7-15.6-5.3-20.3c-4.4-3.5-9.5-6.8-15.3-6.6
				c-5.2,0.2-11.3,2.6-13.1,7.9c-3.3,9.6,6.1,19.5,14.2,22.9c3.4,1.4,8.9,0.3,11.6-2.3c4.7-4.7,1-9.1-2.5-13.3
				c-4-4.9-8.7-9.2-14.8-11.3c-3-1.1-14.4,0-13,5.5c1.7,6.9,5.3,13.3,10.5,18.1c5.5,5,13.9,8,20.2,1.9c5.3-5.2-3.3-13.4-7.3-16.7
				c-5.3-4.4-12.1-8.1-19.2-7.2c-7.6,1-13.4,6.2-9.8,14c2.8,5.9,8.7,10.9,15.4,11.3c7.3,0.4,14-4.1,11.4-11.8
				c-2.2-6.5-6.8-15-13-18.6c-6.2-3.6-17.6-0.2-17.4,7.9c0.2,8.3,5.8,15.3,13.2,18.6c3.5,1.5,13.6-0.2,13-5.5
				c-1.3-12.6-13.1-28.3-27.1-20.3c-5.4,3.1-6.9,9.5-5.5,15.2c1.6,6.7,8.2,8.7,14.4,7.4c6.5-1.4,11.8-6.1,9.1-13.1
				c-2.3-6-7.8-10.9-13.9-12.8c-6.1-1.8-15.3-0.2-18.4,6c-3.1,6.2,2.9,11,6,15.6c2.7,4,16.8-0.8,13.5-5.7c-0.6-1-7.8-9-5.7-10.1
				c-1.8,0.6-3.7,1.2-5.5,1.9c1.8-0.4,4.8,2.6,5.9,3.6c2,2,2.7,4.3,4.1,6.6c0.1,0.4,0.2,0.8,0.3,1.3c2-0.6,4-1.1,6-1.7
				c0,0.1-1.2-3-1.3-3.5c-0.2-1.2-0.3-2.4-0.2-3.7c0.3-2.7,1.7-2.3-2.2-1.4c-1.8,0.1-3.6,0.2-5.4,0.3c3.3,0.4,6.5,4.9,8.1,7.5
				c2,3.3,3,7,3.4,10.8c4.3-1.8,8.7-3.6,13-5.5c-3.2-1.4-6-3.6-7.8-6.7c-1.3-2.1-3.6-7.3-1.9-9.5c-1.3,0.9-2.6,1.9-3.9,2.8
				c0.4-0.1,0.7-0.3,1.1-0.4c-2.4,0.3-4.9,0.6-7.3,1c3,0.5,6.4,6.5,7.9,8.9c1,1.7,1.9,3.5,2.6,5.4c0.9,2.2,0.3,4.7,2.7,3.2
				c3-0.6,6-1.2,8.9-1.8c-3.4-0.4-6.3-2.9-8.1-5.7c-0.9-1.4-1.3-2.6-1.9-4.1c0-3.6-2-3.3-6.2,0.7c0.7,0.3,1.3,0.5,1.9,0.8
				c3.2,1.5,6,3.4,8.5,5.9c1.7,1.7,6.4,6.1,5.4,8.6c1.5-1.3,2.9-2.6,4.4-3.9c-0.4,0.2-0.7,0.3-1.1,0.5c2.4-0.3,4.9-0.6,7.3-1
				c-3.3-0.6-6.9-5.4-8.8-8c-2.5-3.4-4-7.2-5-11.3c-4.3,1.8-8.7,3.6-13,5.5c4.2,1.5,7.4,3.9,10.4,7.1c1.4,1.5,2.6,3,3.9,4.6
				c0.6,0.7,1.1,1.6,1.7,2.3c0.6,0.7,0.2,2.1,1.2,1.1c3.9-0.8,7.7-1.5,11.6-2.3c-4-1.7-7.2-4.3-9.5-8c-1-1.6-1.8-3.5-2.1-5.4
				c-0.1-0.9,0-1.7-0.1-2.6c-0.1-1.7,1.6-1.7-0.9-0.7c-1.9,0.4-3.8,0.8-5.7,1.1c3.4-0.1,7.5,3.9,9.9,6c1.3,1.2,2.6,2.6,3.7,4
				c0.9,1.1,1.6,3.6,2.5,4.4c6.5-0.3,8.2-1.4,5.1-3.1c-0.3-0.3-0.7-0.6-1-0.9c-1.4-1.4-2.3-3-3-4.9c-1-3.1-1.4-7,0.9-9.6
				c-1.3,0.9-2.6,1.9-3.9,2.8c0.4-0.2,0.8-0.3,1.2-0.5c-1.9,0.4-3.8,0.8-5.7,1.1c-0.2,0,2.6,2.5,3.3,3.2c1.5,1.6,2.9,3.2,4.3,4.9
				c1.3,1.7,2.7,3.5,3.7,5.4c0.5,0.8,0.9,1.6,1.2,2.5c-0.1,1.4,0.4,1.5,1.5,0.2c1.8-0.6,3.7-1.2,5.5-1.9c1.6-0.2,1.4,0.6,0.2-0.2
				c-1-0.6-2-0.9-2.9-1.6c-1.7-1.3-3.1-3-4.1-4.8c-0.8-1.5-1.4-3.3-1.6-5c-0.1-1.2,0-2.3,0.1-3.6c0.1-1,1.2-2,0-1.3
				c-1.8,0.6-3.7,1.2-5.5,1.9c-1.4,0.1,2.9,3.8,3.4,4.3c1.7,1.5,3.3,3.1,4.7,4.8c3,3.5,5,7.4,5.7,12c4.3-1.8,8.7-3.6,13-5.5
				c-4.1-1.7-7.7-3.8-10.8-6.9c-1.4-1.4-2.7-2.9-3.9-4.5c-0.5-0.7-3.7-5-3.2-5.8c-1.3,0.9-2.6,1.9-3.9,2.8c-2.3,1.2-6.3-0.7-2.8,2.1
				c0.8,0.6,1.6,1.3,2.4,2.1c2,1.8,3.8,3.7,5.5,5.7c1.9,2.3,8.2,9.4,6.8,12.5c1.5-1.3,2.9-2.6,4.4-3.9c-0.3,0.1-0.6,0.3-0.9,0.4
				c1.9-0.4,3.8-0.8,5.7-1.1c-2.9-0.1-7.3-5.2-8.9-7.4c-1-1.3-1.9-2.8-2.6-4.4c-0.4-0.9-0.7-1.8-0.9-2.8c0.4-3-1.1-3.1-4.8-0.4
				c0.2,0.6,4.2,2.8,5,3.5c1.1,1,2.1,2.2,3.1,3.4c1.8,2.3,5.4,7.4,4.1,10.4c0.9-1,1.8-2,2.7-3.1c-0.3,0.2-0.5,0.3-0.8,0.5
				c3-0.6,6-1.2,8.9-1.8c-2.1-0.3-5.4-5.4-6.4-6.9c-0.9-1.4-5.1-7.7-4.1-9.5c-1.3,0.9-2.6,1.9-3.9,2.8c0.4-0.2,0.7-0.3,1.1-0.5
				c-1.9,0.4-3.8,0.8-5.7,1.1c3.4,0.1,8,4.2,10.3,6.4c3.4,3.2,6.5,7.1,5.3,12c4.3-1.5,8.7-2.9,13-4.4c-2.8-1.4-5.3-3.2-7.5-5.4
				c-1-1-2.1-2.2-2.9-3.4c-0.3-0.4-0.6-0.8-0.9-1.2c-0.3-2.1-1.3-2.2-2.9-0.2c-1.9,0.4-3.8,0.8-5.7,1.1c3.2-0.2,6.6,3.3,8.5,5.5
				c1.2,1.4,2.2,2.9,3,4.6c0.7,1.6,0.3,4.2,2.3,2.8c1.8-0.6,3.7-1.2,5.5-1.9c0.4,0-3.5-2.3-3.9-2.6c-1.2-0.9-2.3-1.9-3.4-3
				c-1-1.1-2-2.2-2.8-3.5c-1-1.5-1.2-4.5-3.2-3.2c-1.8,0.6-3.7,1.2-5.5,1.9c-2.3,0.2,2.6,1.4,3.5,1.9c1.7,0.9,3.4,1.9,5,3.1
				c2.4,1.8,6.9,5.3,7.1,8.4c0.2-0.7,0.3-1.4,0.5-2.1c-0.2,0.2-0.4,0.5-0.5,0.7c1.9-1.2,3.8-2.3,5.8-3.5c4-1.2,1.9-0.7-0.2-1.9
				c-1.6-1-3-2.2-4.3-3.5c-1.7-1.7-5.2-5.1-4-7.6c-0.9,1-1.8,2-2.7,3.1c0.3-0.2,0.7-0.4,1-0.7c-1.8,0.6-3.7,1.2-5.5,1.9
				c-2.2,0.2,1.2,1.4,2,2c1.3,0.9,2.4,2.1,3.5,3.2c1.5,1.6,4.5,4.6,3.5,6.9c0.9-1,1.8-2,2.7-3.1c-0.2,0.2-0.5,0.3-0.7,0.5
				c3.4-0.4,6.8-0.9,10.3-1.3c-2.1-1.2-4-2.7-5.6-4.5c-0.9-1.1-1.9-2.2-2.5-3.5c-1.3-2.6,0.2-3.1-3.8-1.9c-4.2,1.2-2.9,0.8-0.7,2
				c1.3,0.7,2.5,1.6,3.7,2.5c0.7,0.6,5.2,5.4,4.9,5.6c1.8-0.6,3.7-1.2,5.5-1.9c1.2,0.3,1,0-0.6-0.8c-0.7-0.6-1.2-1.2-1.5-2.1
				c0.9-2.5-0.1-2.6-3-0.2c1.1,0.5,2.2,1.2,3.1,2c1.5,1.3,7.1,7.5,5.1,9.8c1.6-0.8,3.2-1.6,4.8-2.4c-0.4,0.1-0.8,0.2-1.2,0.3
				c1.8-0.1,3.6-0.2,5.4-0.3c-1.8-0.5-3.2-3.6-3.6-5.2c-0.2-0.7-1-4.6-0.3-5c-1.8,0.6-3.7,1.2-5.5,1.9c-1.1,0.2,1.6,1.3,2.3,1.9
				c1.2,1.1,2.4,2.5,3.1,4c0.6,1.3,0.5,3.4,1,4.4c6.1,0.3,8.2-0.5,6.2-2.6c-0.5-0.5-0.8-1.2-0.8-2c-0.4-1.7,0.1-3.5,0.5-5.1
				c0.1-0.5,0.3-1,0.4-1.5c1.2-2.5-0.2-2.5-4.1,0.1c0,0.4,2.3,2.4,2.6,3c0.7,1.4,1.7,3.9,0.8,5.4c1.3-0.9,2.6-1.9,3.9-2.8
				c-0.3,0.1-0.6,0.3-0.9,0.4c2.4-0.3,4.9-0.6,7.3-1c1.1,0.7,1,0.5-0.4-0.6c-0.8-0.8-1.4-1.7-2-2.7c-0.9-1.7-1.3-3.6-1.4-5.5
				c-0.2,0.7-0.3,1.4-0.5,2.1c0.2-0.4,0.4-0.8,0.6-1.1c-1.3,0.9-2.6,1.9-3.9,2.8c0.4-0.1,0.7-0.2,1.1-0.4c-2.4,0.3-4.9,0.6-7.3,1
				c1.8,0.4,4.1,2.7,5,4.2c0.8,1.5-0.1,2.7,2,1.7c2.2-1,0.3-1.9-0.6-1.2c-1.6,0.8-3.2,1.6-4.8,2.4c-4.1,1.1-1.7,0.8-1.3,3.3
				c0,0.5,0,1-0.1,1.5c-1.7,3.1,0.5,3.4,6.6,1.1c-1.3,0.9-2.6,1.9-3.9,2.8c-2.4-0.4-3.3,0.1-2.9,1.5c1.3-0.9,2.6-1.9,3.9-2.8
				c4.1,1.7,6,1.3,5.7-1.4c-5.1-0.2-6.9,0.8-5.5,2.8c1.3-0.9,2.6-1.9,3.9-2.8c-0.3,0.1-0.6,0.2-0.9,0.4c2.4-0.3,4.9-0.6,7.3-1
				c0.6,0.6,0.8,0.3,0.5-0.7c-0.2,0.7-0.3,1.4-0.5,2.1c-1.1,0.6-2.2,1.2-3.4,1.8c-1.8,0.1-3.6,0.2-5.4,0.3c0,0.5-0.1,1-0.1,1.4
				c3.7-1.3,7.5-2.5,11.2-3.8c-0.4,0.4-0.9,0.9-1.3,1.3c-1.8,0.6-3.7,1.2-5.5,1.9c-0.7-0.8-1.5-1.5-2.2-2.3c2.4-0.7,4.9-1.3,7.3-2
				c0.4,0,0.9,0.1,1.3,0.1c0.5,0.5,1,1,1.5,1.6c-0.3-0.8-0.4-1-0.3-0.7c-1.6,0.8-3.2,1.6-4.8,2.4c0.3-0.1,0.6-0.2,0.9-0.2
				c-1.8,0.1-3.6,0.2-5.4,0.3c0.8,0.6,1.2,1.5,1.2,2.5c1.1,5.6,13.2,0.6,14.5-2.8c-6.4,0.8-8,1.9-4.6,3.3c0.9,0.5,1.7,1.2,2.4,1.8
				c1.5,1.3,2.9,2.7,4.2,4.1c4.5-1.9,9-3.8,13.5-5.7c-1.4-1.4-2.2-2.7-2.8-4.6c-3.4,2-6.7,4-10.1,6.1c0.1,0,0.2,0,0.3,0
				c-1.5-0.7-3-1.5-4.4-2.2c0,0.1,0.1,0.2,0.1,0.4c0.2-0.7,0.3-1.4,0.5-2.1c-0.1,0.1-0.1,0.2-0.2,0.3c4.2-1.1,8.3-2.2,12.5-3.4
				c-1.4-0.5-4.6-8.4-5.3-9.7c-4.8,1.3-9.7,2.6-14.5,3.9c1.4,2.5,2.8,4.9,4.2,7.4c2.5,4.5,16.4,1,14.5-3.9c-2-5-3.9-10-5.9-15
				c-4.8,1.3-9.7,2.6-14.5,3.9c0.7,1.8,1.5,3.7,2.2,5.5c4.8-1.3,9.7-2.6,14.5-3.9c-3.5-8.2-7.6-15.5-16.7-18.2
				c0.8,1.4,1.5,2.7,2.3,4.1c0-0.1,0.1-0.2,0.1-0.3c-3.7,1.3-7.5,2.5-11.2,3.8c0.1,0,0.3,0.1,0.4,0.1c-0.9-0.7-1.9-1.3-2.8-2
				c0,0.1,0.1,0.2,0.1,0.4c0.9-1.4,1.8-2.7,2.7-4.1c-0.2,0.1-0.4,0.3-0.6,0.4c2.4-0.7,4.9-1.3,7.3-2c-4.9,0-10.2-1.3-15-2.1
				c-3.2-0.5-7,0.3-9.6,2.3c-2,1.5-3.1,3.6-0.6,5.2c3.9,2.5,7.9,3.5,12.4,4c1.9-2.8,3.8-5.5,5.6-8.3c-7.4-0.7-14.7-1.5-22.1-2.2
				c-1.9,2.8-3.8,5.5-5.6,8.3c4.9,0.5,9.8,1,14.8,1.4c2.9,0.3,7.3-1.1,9.1-3.4c1.6-2.1,1-4.1-1.8-4.6c-9.4-1.7-18.8-3.4-28.1-5.1
				c-2.4,2.7-4.8,5.4-7.2,8.1c4.6,0,9.2,0,13.9,0c1.9-2.8,3.8-5.5,5.6-8.3c-11.2,0.2-22.4-0.4-33.5-1.9c-1.8,2.7-3.6,5.3-5.4,8
				c4.5-0.7,8.8-0.4,13.1,1c3.4-2.5,6.8-5,10.2-7.5c-11.4-1.5-22.8-3.1-34.2-4.6c-1.8,2.7-3.6,5.3-5.4,8c3.5-0.3,7-0.7,10.5-1
				c2.5-0.2,7.8-1.9,8.2-4.9c0.4-3.3-4.2-3.3-6.3-3.1c-5.4,0.4-10.4-0.7-15.8-0.8c-5.3-0.1-10.3,1.4-15.7,0.7
				c-2.4,2.7-4.8,5.4-7.2,8.1c6.3-0.3,12.3,0.5,18.3,2.3c1.8-2.7,3.6-5.3,5.4-8c-5.6,1.1-10.3-0.5-14.9-3.7c0,1.6,0,3.1,0.1,4.7
				c0.3-0.3,0.6-0.5,1-0.8c-1.6,0.8-3.2,1.6-4.8,2.4c-0.5,0.1-0.9,0.2-1.4,0.2c0-2.4,0-4.7-0.1-7.1c-2.5,1.3-4.4,1.7-7.2,1.6
				c1.5,0.7,3,1.5,4.4,2.2c-0.2-1.3-0.4-2.7-0.5-4c-0.7-5-12.6-1.1-14,1.8c-1.9,3.9-4.3,7.3-7.8,9.8c3.7,0.8,7.5,1.6,11.2,2.3
				c2.1-3.1,4.5-5.5,7.7-7.4c2.2-1.3,4.1-4,1.3-5.7C275.2,274.9,270.1,276.4,267.7,277.9L267.7,277.9z"/>
		</g>
	</g>
	<g>
		<g>
			<path class="st0" d="M254.9,289.8c-1.2,0.7-2.4,1.4-3.6,2c3.3,0.8,6.7,1.5,10,2.3c0.8-0.6,1.5-1.3,2.3-1.9
				c2.2-1.9,1.7-3.6-1.1-4.2c-3.3-0.6-7.5,0.9-10.2,2.7c-2.5,1.8-4.7,3.8-6.6,6.2c-1.5,1.9,0.3,3,2.1,3.3c2.9,0.5,6.4-0.6,8.9-1.9
				c2.9-1.5,5.4-3.4,7.1-6.3c3.4-5.5-9.3-2.2-11-1.4c-2.1,1-3.8,2.3-5.3,4.1c-1.8,2.3,1,3.2,2.9,3.3c3,0.2,7.1-0.8,9.5-2.8
				c3.1-2.6,6.1-5.2,9.2-7.8c-4.1-0.2-8.2-0.3-12.3-0.5c-4.3,4.1-8.5,8.2-12.8,12.3c4.4-0.1,8.9-0.3,13.3-0.4c0.7-0.8,1.3-1.5,2-2.3
				c1.6-1.9-0.4-3-2.1-3.3c-2.9-0.5-6.4,0.5-8.9,1.9c-3.7,2-6.9,4.5-9.3,8c-1.6,2.3,0.8,3.2,2.9,3.3c3,0.2,7.1-0.8,9.5-2.8
				c0.7-0.6,1.5-1.2,2.2-1.8c2.2-1.9,1.7-3.6-1.1-4.2c-3.1-0.6-7.8,0.7-10.2,2.7c-2,1.6-4,3.2-5.9,4.8c-2.3,1.9-1.7,3.6,1.1,4.2
				c3.4,0.6,7.5-0.9,10.2-2.7c0.6-0.4,1.3-0.9,1.9-1.3c-3.8-0.5-7.6-0.9-11.4-1.4c-1.3,1-2.6,1.9-3.9,2.9c-3.4,2.5-0.3,4.5,2.7,4.2
				c3.1-0.3,6.3-0.5,9.4-0.8c1.4-2.3,2.8-4.6,4.1-6.9c-1.2,0.2-2.3,0.4-3.5,0.6c-2.4,0.4-5.6,1.2-7.3,3.1c-1,1.1-1.8,2.8,0.3,3.4
				c4,1.1,7.5,1.2,11.6,0.7c1.7-0.2,12.4-4.8,7-6.5c-0.9-0.3-1.9-0.6-2.8-0.9c-3.5,2.2-6.9,4.4-10.4,6.6c3.5,0.6,6.9,1.1,10.4,1.7
				c2.5-2.3,5-4.7,7.5-7c-2.2,0-4.3,0-6.5,0c-2.8,0-6.5,1-8.7,2.8c-1.2,1-2.6,3.2-0.2,3.9c2.5,0.6,4.9,1.1,7.4,1.2
				c3.4,0.2,7.5-0.5,10.2-2.7c2.2-1.8,1.9-3.7-1.1-4.2c-1.2-0.2-2.5-0.4-3.7-0.5c-3,2.3-6.1,4.6-9.1,6.9c5.1,0.7,10.2,1,15.4,0.9
				c2.7,0,5.7-0.9,8-2.4c0.7-0.5,3.6-2.8,1.8-3.8c-2.8-1.5-5.3-2.4-8.5-2.7c-3.4-0.3-7.6,0.5-10.2,2.7c-2.1,1.7-2,3.9,1.1,4.2
				c4.3,0.4,8.2,0,12.4-1.1c1.7-0.5,9.8-4.1,5.1-6.1c-5-2.2-10.1-4-15.4-5.4c-3.3-0.9-7.3-0.1-10.2,1.6c-1.6,0.9-4.8,3.6-1.5,4.7
				c5.9,2.1,11.7,1.8,17.7,0.2c0.7-0.2,9.1-3.5,6-5.6c-4.7-3.2-9.4-4.3-15-4.6c-2.4-0.1-12.4,2.4-9.8,6.2c3.6,5.1,13,2.6,17.3-0.1
				c4.6-3,4.9-8.8-0.6-10.9c-3.1-1.2-13.3,0.5-13.1,5.1c0.5,9.6,13.8,12,21.1,9.6c2.8-0.9,8.6-3.5,6.6-7.2c-2.2-4.1-9.3-2.9-12.7-2
				c-1.3,0.3-7.5,2.5-6.5,4.9c2.5,5.7,7.1,8.7,13.1,9.9c2.5-2.3,5-4.7,7.5-7c-3.3,0.2-6.6,0.3-9.9,0.5c-1.8,0.1-14.6,4-8.8,6.7
				c4.6,2.2,9.2,2.3,14.2,1.8c2.6-0.3,13.2-5.6,5.7-6.8c-5.1-0.8-10.3-0.7-15.4,0.3c-1.1,0.2-11.4,3.4-7.9,6c4,3.1,8.5,3,13.4,3.2
				c6.1,0.4,12.1,2.1,18.3,2.4c12.8,0.6,25.6,0.6,38.4,1.5c12.6,0.9,25.1,2.3,37.5,4c6.1,0.8,12.2,1.7,18.3,2.5
				c3.1,0.4,6.1,0.8,9.2,1.2c1.5,0.2,3.1,0.4,4.6,0.6c0.6,0.1,1.2,0.2,1.8,0.2c2.2,0.3,2.5,0.3,0.8,0c0.2-0.6,0.4-1.2,0.6-1.8
				c6.8-1.7,8.2-2.6,4.1-2.8c-0.7-0.1-1.3-0.2-2-0.3c-2-0.3-3.9-0.5-5.9-0.8c-3.9-0.5-7.9-1-11.8-1.6c-8.2-1.1-16.4-2.2-24.5-3.2
				c-16-2.1-32.1-4.2-48.1-6.3c-2.5,2.3-5,4.7-7.5,7c5.6-0.1,11.2-0.1,16.7,1.4c0.5-1.6,1-3.2,1.5-4.7c0.7-0.4,1.4-0.8,2-1.2
				c-3.5,2.2-6.9,4.4-10.4,6.6c6.8,1,13.5,0.9,20.3-0.1c2.2-0.3,7.9-1.6,8.4-4.4c0.4-2.9-4.4-2.5-6-2.3c-4.6,0.7-8.9,0.6-13.5-0.1
				c-3.1-0.5-7,0.6-9.6,2.3c-1.5,1-3.7,3.3-0.8,4.3c6.2,2.2,12.6,0.8,18.4-2c1.5-0.7,4.8-3.8,1.5-4.7c-7.4-2.1-14.8-2.3-22.5-2.2
				c-2.9,0-7.1,1-9.1,3.3c-1.7,1.9-1.1,3.4,1.6,3.7c18.3,2.4,36.7,4.8,55,7.2c9.2,1.2,18.3,2.4,27.5,3.6c7.8,1,16.3,3.5,23.8,0
				c1.9-0.9,5.5-2.7,4.8-5.3c-0.6-2.6-4.9-2.6-7-2.8c-8.4-1.1-16.8-2.2-25.3-3.3c-17.9-2.4-35.9-4.6-54-5.6
				c-9.8-0.6-19.6-0.6-29.4-1c-4.9-0.2-9.5-1.1-14.4-2c-4-0.7-9.8,0.5-13.2-2.1c-2.6,2-5.3,4-7.9,6c3-0.6,5.6-0.6,8.6-0.1
				c1.9-2.3,3.8-4.5,5.7-6.8c-1.6,0.2-3.4-0.7-4.8-1.4c-2.9,2.2-5.9,4.5-8.8,6.7c3.3-0.2,6.6-0.3,9.9-0.5c2.9-0.1,7.1-1,9.1-3.3
				c1.8-2,1-3.2-1.6-3.7c-3.7-0.7-6.3-3.6-7.8-6.9c-2.2,1.6-4.3,3.3-6.5,4.9c0.4-0.1,0.8-0.2,1.1-0.3c-1.8,0.2-3.6,0.3-5.4,0.5
				c1.1,0.6,2,0.3,2.7-1c1.8-0.6,3.7-1.2,5.5-1.8c-0.1,0-3.2-2-3.8-2.6c-1.6-1.5-2.1-2.8-2.2-4.9c-4.4,1.7-8.7,3.4-13.1,5.1
				c1.2,0.5,0.8,1.8,1.4,2.3c-0.2,1.8,1.1,1.6,3.9-0.7c3.7,0.1,4.8-0.6,3.3-2.2c-3.3,2.1-6.5,4.1-9.8,6.2c2.7,0.1,5.2,1.3,7.4,2.8
				c2-1.9,4-3.7,6-5.6c-1.5,0.4-3-0.2-4.4-0.7c-3.9,2.1-7.8,4.2-11.7,6.3c5.3,1.4,10.4,3.2,15.4,5.4c1.7-2,3.4-4.1,5.1-6.1
				c-0.6,0-1.1,0.1-1.7,0.1c-3,2.3-6.1,4.6-9.1,6.9c1.5-0.1,2.8,0.3,4.1,1.1c3.3-2.1,6.5-4.1,9.8-6.2c-4.1,0.1-8.1-0.2-12.2-0.7
				c-3.3-0.4-7.7,0.6-10.2,2.7c-2.2,1.8-1.9,3.7,1.1,4.2c1.2,0.2,2.5,0.4,3.7,0.5c3-2.3,6.1-4.6,9.1-6.9c-1.7-0.1-3.2-0.2-4.9-0.6
				c-2.9,2.2-5.9,4.5-8.8,6.7c2.2,0,4.3,0,6.5,0c2.9,0,7.2-1,9.1-3.3c1.7-1.9,1-3.3-1.6-3.7c-3.5-0.6-6.9-1.1-10.4-1.7
				c-3.1-0.5-7,0.6-9.6,2.3c-1.4,0.9-3.8,3.4-0.8,4.3c0.9,0.3,1.9,0.6,2.8,0.9c2.3-2.2,4.7-4.3,7-6.5c-0.7-0.1-1.5-0.2-2.2-0.3
				c-2.3,2.2-4.7,4.3-7,6.5c1.2-0.2,2.3-0.4,3.5-0.6c2.3-0.4,7.2-1.4,8.1-4c0.9-2.4-1.9-3.1-4-2.9c-3.1,0.3-6.3,0.5-9.4,0.8
				c0.9,1.4,1.8,2.8,2.7,4.2c1.3-1,2.6-1.9,3.9-2.9c2.4-1.8,1.6-3.7-1.1-4.2c-3.4-0.6-7.5,0.9-10.2,2.7c-0.6,0.4-1.3,0.9-1.9,1.3
				c3.8,0.5,7.6,0.9,11.4,1.4c2-1.6,4-3.2,5.9-4.8c-3.8-0.5-7.6-0.9-11.4-1.4c-0.7,0.6-1.5,1.2-2.2,1.8c4.1,0.2,8.2,0.3,12.3,0.5
				c1.3-1.9,2.6-3.4,4.6-4.5c-3.7-0.5-7.3-0.9-11-1.4c-0.7,0.8-1.3,1.5-2,2.3c-2.2,2.6,1.9,3.3,3.7,3.3c3.4,0,7.2-1.3,9.6-3.7
				c4.3-4.1,8.5-8.2,12.8-12.3c2.2-2.1-1.4-3.2-2.9-3.3c-3-0.2-7.1,0.8-9.5,2.8c-3.1,2.6-6.1,5.2-9.2,7.8c4.1,0.2,8.2,0.3,12.3,0.5
				c0.2-0.2,0.5-0.4,0.7-0.6c-3.7-0.5-7.3-0.9-11-1.4c-0.7,1.2-1.3,2.1-2.5,2.8c3.7,0.5,7.3,0.9,11,1.4c1.4-1.8,2.8-3.1,4.7-4.4
				c-3.8-0.5-7.6-0.9-11.4-1.4c-0.8,0.6-1.5,1.3-2.3,1.9c-1.9,1.6-2.1,3.2,0.5,4c2.9,0.9,7.1-0.4,9.5-1.7c1.2-0.7,2.4-1.4,3.6-2
				c2.1-1.2,4.2-3.1,1.5-4.7C262.5,286.7,257.1,288.6,254.9,289.8L254.9,289.8z"/>
		</g>
	</g>
	<g>
		<g>
			<path class="st0" d="M280.5,311.2c3.5,0.7,6.9,1.3,10.4,2c3.5,0.7,7.7,0,10.2-2.7c2-2.2,1.6-5.7-1.7-6.3c-3.5-0.7-6.9-1.3-10.4-2
				c-3.5-0.7-7.7,0-10.2,2.7C276.8,307,277.2,310.5,280.5,311.2L280.5,311.2z"/>
		</g>
	</g>
	<g>
		<g>
			<path class="st0" d="M408.3,331.6c3,0,7.9-1.1,9.6-3.8c1.8-2.8-1.5-3.8-3.8-3.8c-3,0-7.9,1.1-9.6,3.8
				C402.7,330.6,406,331.6,408.3,331.6L408.3,331.6z"/>
		</g>
	</g>
	<g>
		<g>
			<path class="st0" d="M277,197c5.3,1.8,10.7,1.8,16.3,1.7c6-0.1,11.8,0.4,17.7,1.6c7.1,1.4,14.7-8.7,5-10.5
				c-5.4-1-10.7-1.6-16.2-1.7c-4.8-0.1-9.8,0.7-14.4-0.9c-3.4-1.2-8-0.1-10.2,2.7C273,192.5,273.8,195.8,277,197L277,197z"/>
		</g>
	</g>
	<g>
		<g>
			<path class="st0" d="M311.3,197.1c14,2.6,28,5.2,42,7.8c6.9,1.3,13.7,2.6,20.6,3.8c3.6,0.7,7.2,1.3,10.8,2c2.6,0.5,9.1,0.6,9,4.4
				c-0.1,6,14.4,3,14.5-1.8c0.1-7.4-6.6-9-12.7-10.1c-8.7-1.6-17.4-3.2-26.1-4.8c-16.4-3-32.8-6.1-49.2-9.1
				c-3.3-0.6-7.8,0.3-10.2,2.7C307.8,194,308.1,196.5,311.3,197.1L311.3,197.1z"/>
		</g>
	</g>
	<g>
		<g>
			<path class="st0" d="M406.7,203.8c-0.8-0.3-1.5-0.6-2.3-0.9c-2.9,3-5.7,5.9-8.6,8.9c4.3,1,0.8,8-0.2,9.9
				c4.7-0.1,9.4-0.1,14.1-0.2c0.5-2,1.1-4.1,1.6-6.1c-4.8,0.9-9.7,1.8-14.5,2.7c0.2,3.8,0.4,7.5,0.5,11.3c4.7-1.2,9.3-2.5,14-3.7
				c-0.1-0.3-0.2-0.7-0.3-1c-4.9,0.5-9.7,1-14.6,1.4c-0.4,4.8-0.9,9.7-1.7,14.5c-1,6.6,13.5,4.2,14.6-1.4c0.4-1.8,0.7-3.7,1.1-5.5
				c1.3-6.4-13.4-4.3-14.6,1.4c-1,5.2-2.1,10.4-3.1,15.6c-1.3,6.6,13.1,4,14.6-1.4c0.4-1.3,0.7-2.6,1.1-3.9c-4.9,0.5-9.7,1-14.6,1.4
				c-1.3,5.3-2.6,10.6-3.9,15.9c4.8-0.9,9.7-1.8,14.5-2.7c0-1.1,0.1-2.2,0.5-3.3c-4.7,0.1-9.4,0.1-14.1,0.2
				c-0.2,6.8-0.9,13.6-2.1,20.3c4.9-0.5,9.7-1,14.6-1.4c0.1-2.8,0.5-5.3,1.3-7.9c-4.9,0.5-9.7,1-14.6,1.4c-0.6,6-1.2,12.1-1.7,18.1
				c-0.6,6.8,13.7,4.2,14.6-1.4c0.5-3.1,0.6-6.1,0.4-9.3c-0.3-5.4-14.6-2.5-14.5,2.7c0,3.2,0.1,6.4,0.1,9.6c0.9-1.2,1.8-2.3,2.6-3.5
				c-0.1,0.1-0.2,0.1-0.2,0.2c3.8-0.1,7.6-0.2,11.3-0.3c-0.1-0.1-0.2-0.2-0.3-0.3c0.1,1.2,0.1,2.4,0.2,3.5c0.1-0.1,0.1-0.2,0.2-0.2
				c-4.7,0.1-9.4,0.1-14.1,0.2c0,1.3,0,2.6-0.1,4c4.9-0.5,9.7-1,14.6-1.4c0-2.7,0-5.3,0-8c-4.8,0.9-9.7,1.8-14.5,2.7
				c0.1,1.9-0.2,3.5-0.6,5.4c4.8-0.9,9.7-1.8,14.5-2.7c-0.1-2.1-0.2-4.2-0.4-6.3c-0.3-5.5-11.2-1.9-13.2,0.3
				c-1.1,1.2-1.9,2.3-2.8,3.7c4.7-0.1,9.4-0.1,14.1-0.2c0-0.6,0.1-1.2,0.1-1.9c0.3-5.2-7.4-4.2-10.3-2.9c-1.9,0.8-3.4,0.3-5.3-0.4
				c-5.4-2-17,5.8-8.6,8.9c6.7,2.4,13.6,1.6,20-1.2c-3.4-1-6.9-2-10.3-2.9c0,0.6-0.1,1.2-0.1,1.9c-0.4,7,12,3.5,14.1-0.2
				c0.3-0.5,0.7-0.9,1-1.4c-4.4,0.1-8.8,0.2-13.2,0.3c0.1,2.1,0.2,4.2,0.4,6.3c0.3,6,13.5,1.7,14.5-2.7c0.6-2.7,0.7-5.1,0.5-7.8
				c-0.3-5.4-14.5-2.5-14.5,2.7c0,2.7,0,5.3,0,8c0,6.9,14.5,4.2,14.6-1.4c0-1.3,0-2.6,0.1-4c0.1-7.3-11.7-3.2-14.1,0.2
				c-0.1,0.1-0.1,0.2-0.2,0.2c-0.6,0.9-0.7,2.7,0.2,3.5c0.1,0.1,0.2,0.2,0.3,0.3c2.9,2.8,8.4,1.9,11.3-0.3c4.2-3.1,2.8-8.6,2.8-13.3
				c-4.8,0.9-9.7,1.8-14.5,2.7c0.1,2.3-0.1,4.6-0.5,6.9c4.9-0.5,9.7-1,14.6-1.4c0.6-6,1.2-12.1,1.7-18.1c0.7-7.1-13.1-3.6-14.6,1.4
				c-0.8,2.6-1.2,5.2-1.3,7.9c-0.3,6.9,13.6,4.1,14.6-1.4c1.2-6.7,1.9-13.5,2.1-20.3c0.2-6.6-12.4-4.2-14.1,0.2
				c-1.1,2.9-1.5,5.1-1.3,8.2c0.1,3,5.7,2.9,7.4,2.6c2.9-0.5,6.4-2.1,7.1-5.2c1.3-5.3,2.6-10.6,3.9-15.9c1.5-6.3-13.1-4.1-14.6,1.4
				c-0.4,1.3-0.7,2.6-1.1,3.9c4.9-0.5,9.7-1,14.6-1.4c1-5.2,2.1-10.4,3.1-15.6c-4.9,0.5-9.7,1-14.6,1.4c-0.4,1.8-0.7,3.7-1.1,5.5
				c4.9-0.5,9.7-1,14.6-1.4c0.8-4.8,1.3-9.6,1.7-14.5c0.5-6.8-13.9-4.3-14.6,1.4c-0.3,2.3,0.1,3.8,1.5,5.6c2.7,3.6,14.1,1.3,14-3.7
				c-0.1-4.6-0.3-9.2-0.6-13.7c-0.2-3-5.6-2.9-7.4-2.6c-2.9,0.6-6.3,2.1-7.1,5.2c-0.5,2-1.1,4.1-1.6,6.1c-1.7,6.5,12.2,3.6,14.1-0.2
				c3.6-7.2,5.2-17.5-4.9-19.8c-3.4-0.8-7.8,0-10.2,2.7c-2.3,2.6-1.3,4.9,1.6,6.1c0.8,0.3,1.5,0.6,2.3,0.9
				C403.4,214.9,414.9,207.2,406.7,203.8L406.7,203.8z"/>
		</g>
	</g>
	<g>
		<g>
			<path class="st0" d="M273.8,197.1c-4.2,26.7-6.3,53.6-6.2,80.6c0,2.3,14.5,0.2,14.5-3.9c-0.1-26.6,1.9-53.1,6-79.3
				C288.6,191.2,274.4,193.6,273.8,197.1L273.8,197.1z"/>
		</g>
	</g>
	<g>
		<g>
			<path class="st0" d="M277,275.4c30.6,9.9,62.6,15.1,94.8,15.6c1.2-2.9,2.4-5.8,3.7-8.7c-6.6,0.7-13,0.1-19.4-1.5
				c-3.3-0.8-7.9,0.3-10.2,2.7c-2.2,2.2-1.6,4.7,1.5,5.5c8.7,2.2,17.5,2.8,26.4,1.8c2.7-0.3,7-1.7,7.9-4.6c0.9-2.7-1.8-4.1-4.3-4.1
				c-31.1-0.5-61.9-5.6-91.5-15.2C280.8,265.5,268.8,272.7,277,275.4L277,275.4z"/>
		</g>
	</g>
	<g>
		<g>
			<path class="st0" d="M294.9,279.5c3.6,0.3,6.9,3.1,10.5,4c4.2,1,8.6,0.6,12.9,0.9c9,0.6,17.7,3,26.4,5.4c2.3-3,4.6-6.1,7-9.1
				c-10-1.2-22.1-1.6-30.8-6.8c-3.9-2.4-8.1-2-12.5-2.1c-5.8-0.2-11.4-1.6-17.1-2.9c-3.4-0.8-7.8,0.1-10.2,2.7
				c-2.3,2.6-1.3,4.9,1.6,6.1c1.1,0.5,2.3,0.9,3.4,1.4c5.3,2.2,16.8-5.4,8.6-8.8c-1.1-0.5-2.3-0.9-3.4-1.4c-2.9,2.9-5.7,5.9-8.6,8.8
				c5.5,1.3,11.1,2.6,16.8,3.2c2.7,0.3,5.5-0.1,8.2,0.3c2.2,0.3,3.6,1.7,5.5,2.7c4.5,2.1,9.9,2.7,14.8,3.5c6.1,1.1,12.2,2,18.4,2.7
				c3.1,0.4,7.2-1.1,9-3.6c1.6-2.3,0.8-4.7-2.1-5.5c-9.1-2.4-18.4-4.8-27.8-5.8c-4.2-0.4-9.2,0.3-13.3-0.9c-4.3-1.3-7.4-3.7-12-4.1
				c-3.2-0.3-7.9,1.1-9.5,4.2C289.1,277.5,292.1,279.3,294.9,279.5L294.9,279.5z"/>
		</g>
	</g>
	<g>
		<g>
			<path class="st1" d="M305.7,217.9c-0.1-0.3-0.1-0.6-0.1-0.9c0,0.4,0,0.8,0.1,1.3c0-0.7,0.1-1.4,0.3-2.1c-0.1,0.4-0.3,0.8-0.4,1.3
				c0-0.1,0.1-0.1,0.1-0.2c0.4-0.6,0.5-1.2,0.4-1.9c0.1-0.7-0.1-1.2-0.6-1.7c-0.9-1.1-2.7-1.7-4-1.8c-1.9-0.1-4,0.2-5.7,1
				c-0.5,0.3-1.1,0.6-1.6,0.9c-0.9,0.6-1.6,1.4-2.2,2.3c-0.4,0.9-0.7,1.9-0.8,2.8c-0.1,0.9,0,2,0.1,2.9c0.3,1.3,1.8,2.2,3,2.6
				c1.7,0.5,3.8,0.4,5.5-0.1c1.7-0.5,3.6-1.3,4.8-2.7C305.3,220.5,306,219.3,305.7,217.9L305.7,217.9z"/>
		</g>
	</g>
	<g>
		<g>
			<path class="st1" d="M303.3,205.4c-0.2-0.4-0.3-0.7-0.5-1.1c-2.7-5.9-13.3-3.4-14.6,2.5c-0.7,3.5-1.6,7-2.8,10.4
				c4.6,0.5,9.2,1.1,13.8,1.6c1.1-3.4,2.1-6.8,3.2-10.2c1-3.3-1-5.6-4.4-6.1c-3.6-0.4-7.6,1.2-9.4,4.4c-1.6,2.8-3.4,6.1-3.9,9.3
				c-0.6,3.6,1.2,6,4.3,7.5c6,2.9,16.7-5.7,8.4-9.7c-0.2-0.1-0.3-0.1-0.5-0.2c0.8,0.6,1.6,1.1,2.4,1.7c-0.7-0.7-0.1-0.1-0.1,0.3
				c0.1-0.7,0.1-0.8-0.1-0.3c0.2-0.4,0.3-0.9,0.5-1.3c0.8-1.9,1.7-3.7,2.7-5.5c-4.6-0.5-9.2-1.1-13.8-1.6c-1.1,3.4-2.1,6.8-3.2,10.2
				c-2.5,8,11.8,7.7,13.8,1.6c1.5-4.3,2.7-8.7,3.6-13.2c-4.9,0.8-9.7,1.7-14.6,2.5c0.2,0.4,0.3,0.7,0.5,1.1c1.5,3.3,5.3,3.9,8.6,3
				C299.7,211.7,304.8,208.7,303.3,205.4L303.3,205.4z"/>
		</g>
	</g>
	<g>
		<g>
			<path class="st2" d="M304.1,209.1c0.1-0.9,0.3-1.7,0.4-2.6c-4.8,0.7-9.6,1.4-14.4,2.1c-1.2,5.2-2.7,10.3-4.4,15.3
				c-1.4,4.2,12.9,2.3,14.4-2.1c1.7-4.8,3.4-9.5,5.1-14.3c1.1-2.9-4.7-2.7-6.1-2.5c-3.1,0.4-6.8,1.7-8.3,4.6
				c-2,3.7-3.4,7.5-4.3,11.6c-1.2,5.1,12.8,1.5,14.4-2.1c1.5-3.4,3.1-6.8,4.6-10.2c1.3-2.9-4.9-2.7-6.1-2.5c-2.9,0.4-7,1.7-8.3,4.6
				c-1.4,3-2.7,5.9-4.1,8.9c-1.2,2.6,4.1,2.7,5.2,2.6c2.9-0.2,6.9-1.3,8.7-3.7c2-2.7,3.6-5.5,4.8-8.7c-4.8,0.7-9.6,1.4-14.4,2.1
				c-0.7,2.3-1.3,4.7-2,7c-0.8,2.7,3.7,2.7,5.2,2.6c3-0.2,6.7-1.3,8.7-3.7c1.8-2.1,2.9-4.3,3.4-7.1c0.9-5.6-12.2-1-13.9,1.1
				c-1.8,2.3-3.2,4.8-4.2,7.5c-1,2.6,3.9,2.7,5.2,2.6c2.8-0.2,7-1.2,8.7-3.7c1.7-2.5,3.5-5,5.2-7.4c1.9-2.7-1.7-3.6-3.7-3.6
				c-3.2,0-7.4,1.2-9.6,3.8c-2.3,2.7-4.1,5.6-5.6,8.8c-1.2,2.6,4.1,2.6,5.2,2.6c2.6-0.2,7.3-1.2,8.7-3.7c1.6-2.8,3-5.6,3.9-8.8
				c1.4-4.3-12.9-2.3-14.4,2.1c-1.1,3-2.3,5.9-4,8.6c-3.2,5.3,11.1,3.2,13.4-0.2c3.3-4.9,4.4-10.4,2.5-16.1
				c-1.4-4.3-13.8-0.7-14.5,3c-1,5.1-1.9,10.2-2.9,15.3c4.8-1,9.6-2,14.5-3c-0.2-5.1-0.2-10.2,0.1-15.4c-4.8,1-9.6,2-14.5,3
				c-0.1,4.5-0.5,8.9-1.1,13.4c4.8-0.7,9.6-1.4,14.4-2.1c0.4-5.2,0.9-10.5,1.3-15.7c0.4-5.1-13.7-2.2-14.4,2.1
				c-0.5,2.9-1,5.8-1.5,8.7c4.8-0.7,9.6-1.4,14.4-2.1c0.2-3.6,0.4-7.3,0.7-10.9c0.3-5.4-13.2-1.8-14.4,2.1c-0.8,2.7-1,5.2-0.8,8
				c0.4,4.1,14.8,1,14.5-3.9c-0.1-1.5-0.2-3.1-0.3-4.6c-4.8,1.3-9.7,2.6-14.5,3.9c0.2,0.7,0.4,1.5,0.7,2.2
				c1.4,4.6,14.4,0.6,14.5-3.9c0-1,0-2,0-3c-4.7,1.5-9.3,3.1-14,4.6c1.2,1.2,1.7,1.5,3.3,2c3.1,0.9,6.5,0.2,9.4-1.1
				c1-0.5,5.6-3.3,3.2-4.8c-0.8-0.5-1.5-1-2.3-1.5c-4.2,2-8.4,4-12.6,6c6.6,2.9,14.1,2.9,21.1,4.7c3.5-2.3,6.9-4.6,10.4-6.8
				c-5.5-0.9-10.9-1.9-16.4-2.8c-1.9,2.4-3.8,4.8-5.6,7.1c5.5-0.9,10.9-1.1,16.4-0.8c2.8,0.2,7.2-1.1,9.1-3.3c1.7-1.9,1-3.6-1.7-4
				c-5-0.8-9.9-1.5-14.9-2.3c-3,2.4-6,4.8-9.1,7.2c3.7,0.4,7.3,0.9,11,1.3c2.5-2.4,5-4.9,7.5-7.3c-1.7,0.1-3,0-4.6-0.3
				c-2.5,2.4-5,4.9-7.5,7.3c17.1,0.7,34.1,3.2,51.1,5.3c6.7,0.8,15.6,0.4,20.9,5.2c5.4,4.9,6.6,13,2.7,19.3
				c-3.2,5.2,11.1,3.4,13.4-0.2c4-6.5,4.9-14.2,0.6-20.8c-4.8-7.4-12.9-8.7-21-9.7c-20.5-2.6-41.1-5.7-61.7-6.5
				c-2.8-0.1-7.2,1.1-9.1,3.3c-1.7,2-1,3.5,1.7,4c2.6,0.5,5.2,0.7,7.8,0.5c3-0.1,7.1-0.9,9.1-3.3c1.6-1.9,1.1-3.6-1.7-4
				c-3.7-0.4-7.3-0.9-11-1.3c-3.3-0.4-7.7,0.5-10.2,2.7c-2.1,1.9-1.9,4,1.2,4.4c5,0.8,9.9,1.5,14.9,2.3c2.5-2.4,5-4.9,7.5-7.3
				c-6.7-0.4-13.4,0-20.1,1.1c-2.3,0.4-6.4,1.4-7.8,3.6c-1.2,2,0.1,3.1,2.2,3.5c5.5,0.9,10.9,1.9,16.4,2.8c3.1,0.5,7-0.5,9.6-2.3
				c1.3-0.9,3.8-3.7,0.8-4.5c-6.8-1.8-14.7-2-21.1-4.7c-2.8-1.2-6.8-0.1-9.4,1.1c-1,0.5-5.6,3.3-3.2,4.8c0.8,0.5,1.5,1,2.3,1.5
				c4.2-2,8.4-4,12.6-6c-0.5-0.3-1-0.6-1.4-0.8c-3-3-14,0.1-14,4.6c0,1,0,2,0,3c4.8-1.3,9.7-2.6,14.5-3.9c-0.2-0.7-0.4-1.5-0.7-2.2
				c-1.4-4.5-14.8-0.7-14.5,3.9c0.1,1.5,0.2,3.1,0.3,4.6c4.8-1.3,9.7-2.6,14.5-3.9c-0.2-2.4,0-3.9,0.7-6.2
				c-4.8,0.7-9.6,1.4-14.4,2.1c-0.2,3.6-0.4,7.3-0.7,10.9c-0.3,5.2,13.7,2.2,14.4-2.1c0.5-2.9,1-5.8,1.5-8.7
				c-4.8,0.7-9.6,1.4-14.4,2.1c-0.4,5.2-0.9,10.5-1.3,15.7c-0.4,5.1,13.8,2.2,14.4-2.1c0.7-5,1.1-10.1,1.2-15.2
				c0.1-3.7-14.2-1.1-14.5,3c-0.3,5.7-0.4,11.4-0.2,17.2c0.2,4.1,13.8,0.7,14.5-3c1-5.1,1.9-10.2,2.9-15.3c-4.8,1-9.6,2-14.5,3
				c1.4,4.3,1.2,8.6-1.4,12.4c4.5-0.1,8.9-0.1,13.4-0.2c2.1-3.4,3.8-6.8,5.1-10.5c-4.8,0.7-9.6,1.4-14.4,2.1
				c-0.8,2.4-1.6,4.7-2.9,6.9c4.6-0.4,9.3-0.8,13.9-1.1c1.2-2.6,2.7-4.8,4.5-6.9c-4.5,0.1-8.9,0.1-13.4,0.2c-1.7,2.5-3.5,5-5.2,7.4
				c4.6-0.4,9.3-0.8,13.9-1.1c0.8-2.1,1.8-3.8,3.2-5.6c-4.6,0.4-9.3,0.8-13.9,1.1c-0.3,2.1-0.9,3.6-2.3,5.2
				c4.6-0.4,9.3-0.8,13.9-1.1c0.7-2.3,1.3-4.7,2-7c1.3-4.6-12.9-2-14.4,2.1c-0.9,2.5-2.1,4.6-3.7,6.8c4.6-0.4,9.3-0.8,13.9-1.1
				c1.4-3,2.7-5.9,4.1-8.9c-4.8,0.7-9.6,1.4-14.4,2.1c-1.5,3.4-3.1,6.8-4.6,10.2c4.8-0.7,9.6-1.4,14.4-2.1c0.9-4.1,2.3-7.9,4.3-11.6
				c-4.8,0.7-9.6,1.4-14.4,2.1c-1.7,4.8-3.4,9.5-5.1,14.3c4.8-0.7,9.6-1.4,14.4-2.1c1.7-5,3.2-10.1,4.4-15.3
				c1.1-4.7-13.2-2.3-14.4,2.1c-0.5,1.8-0.5,2.5-0.4,4.4C289.7,216.8,304.2,214.1,304.1,209.1L304.1,209.1z"/>
		</g>
	</g>
	<g>
		<g>
			<path class="st2" d="M391.7,215c0-0.1,0.1-0.2,0.1-0.3c0.2-0.5,0.1-0.9-0.3-1.2c-3.9-1.9-9.8,0-13.2,2.3c-0.4,0.3-2,1.3-1.7,2.2
				c0.6,1.4,1.5,1.6,2.5,2.6c1.5,1.6,2.1,3.8,1.6,5.9c4.8-1.1,9.6-2.1,14.4-3.2c-0.5-4.3-2.5-7.7-5.7-10.5
				c-3.8,1.8-7.7,3.6-11.5,5.4c3.2,0.1,4.7,4.3,4.8,6.9c0.1,3.3-1.2,6.4-2.5,9.4c4.8-1.1,9.6-2.1,14.4-3.2c0.2-2.5,0.4-4.9,0.6-7.4
				c0.2-2.1-14-0.4-14.5,3.9c-0.9,7.8-2.7,15.3-5.2,22.7c4.8-0.8,9.5-1.7,14.3-2.5c1.8-5.8,3.7-11.5,5.5-17.3
				c-4.8,1.1-9.6,2.1-14.4,3.2c-1,8.1-2.9,16-5.5,23.8c4.8-0.8,9.5-1.7,14.3-2.5c1.3-6,2.6-12,3.9-18c-4.8,1.1-9.6,2.1-14.4,3.2
				c-1.2,8.8-2.8,17.5-4.7,26.2c-0.7,3.2,13.5,1.1,14.3-2.5c1.4-6.5,2.8-12.9,4.3-19.4c-4.8,1.1-9.6,2.1-14.4,3.2
				c0.1,7.6-1.2,14.8-3.8,21.9c4.8-0.8,9.5-1.7,14.3-2.5c1.2-5.8,2.3-11.5,3.5-17.3c-4.8,1.1-9.6,2.1-14.4,3.2
				c-1.1,7.5-2.2,15.1-3.3,22.6c4.8-1.3,9.7-2.6,14.5-3.9c0.3-2.5,0.5-5.1,0.8-7.6c0.2-2.1-13.8-0.3-14.4,3.2
				c-0.4,2.5-0.8,5.1-1.2,7.6c4.8-1.1,9.6-2.1,14.4-3.2c0-1,0-1.9,0-2.9c-4.8,1.3-9.7,2.6-14.5,3.9c0.1,2,0,3.7-0.3,5.6
				c4.8-1.1,9.6-2.1,14.4-3.2c0-0.7,0-1.4,0-2.1c-4.8,1.3-9.7,2.6-14.5,3.9c0.1,1.1,0,2.1-0.1,3.2c4.8-1.3,9.7-2.6,14.5-3.9
				c-0.1-0.2-0.2-0.3-0.2-0.5c-4.4,1.4-8.7,2.7-13.1,4.1c0.2,0,0.4,0.1,0.7,0.1c-0.4-0.3-0.9-0.6-1.3-0.9c0.1,0.2,0.1,0.4,0.2,0.6
				c1,3.2,13.8-0.4,14.4-3.2c0.5-2.1,0.1-3.7-2-4.7c-3.2-1.6-12.3,0.2-14,3.7c-0.1,0.3-0.3,0.6-0.4,0.8c1-0.7,2-1.5,3-2.2
				c-0.3,0.1-0.6,0.3-0.8,0.4c3-0.7,5.9-1.3,8.9-2c-1,0-2-13.8-2.1-15.1c-0.3-2.9-14.4,0.1-14.5,3.9c-0.1,3.7-0.3,7.4-0.4,11.1
				c-0.1,2.5,13.8,0,14.4-3.2c1.2-6.2,2.3-12.5,3.5-18.7c0.7-3.5,2.9-8.9-0.5-11.6c-2.4-1.9-13.2,0.6-14,3.7
				c-1.7,6.8-3.4,13.6-5.2,20.3c4.8-0.8,9.5-1.7,14.3-2.5c1.6-6.8,3.2-13.6,4.7-20.4c1.1-5.1,1.9-10.5-1.4-14.9
				c-2.1-2.8-13.4,0-14.4,3.2c-2.8,8.6-4.3,17.5-4.8,26.5c-0.1,2.5,13.5-0.2,14.4-3.2c3.1-11.2,4-22.6,2.5-34.1
				c-0.5-3.6-12.5,1.1-13.8,2.5c-3.7,3.8-4.1,8.4-4.3,13.5c-0.3,7.1-0.7,14.1-1,21.2c-0.1,2.4,13.7,0,14.4-3.2
				c1.8-8.3,9.6-38-5.9-36.6c-3.5,0.3-7.6,1.4-10.2,3.8c-2.4,2.2-2.9,5.6-3.5,8.7c-1.6,7.8-1.9,15.8-0.9,23.7
				c0.4,3.5,12.5-1.1,13.8-2.5c3.5-3.9,3-8.6,2.9-13.6c-0.1-6.9-0.2-13.9-0.4-20.8c0-1.7-5.3-0.9-5.9-0.8
				c-8.1,1.5-12.2,4.6-13.8,12.7c-1.6,7.9-1.7,15.9-0.5,23.8c0.5,3.5,13.3-1,14.4-3.2c5-10.2,4-22.4-3-31.4
				c-2.6-3.4-12.3,0.5-14.4,3.2c-6,7.8-7.7,17.7-4.8,27.1c1.1,3.7,12.2-1,13.8-2.5c8.6-8.1,4.4-19.2-1-27.8
				c-2.3-3.6-12.5,0.8-14.4,3.2c-2.9,3.8-4.3,8.7-3.1,13.5c1.4,5.5,5.5,6.3,10.6,5.4c10.3-1.9,17.9-11.7,13.6-22.3
				c-1.7-4.3-5.3-5.3-9.5-4.8c-3.6,0.4-11.7,2-12.6,6.5c-0.9,4.4,5.7,6.7,8.9,7.2c5.7,0.9,11.5-0.7,16.8-2.9
				c1.5-0.7,4.7-2.7,1.8-3.8c-8.6-3.2-17.5-4.8-26.7-4.9c-3.2,0-6.7,0.8-9.6,2.4c-1.2,0.7-4,2.8-1.1,3.4c7.7,1.7,15.5,3.4,23.2,5.1
				c3,0.7,6.6-0.3,9.3-1.5c0.7-0.3,5.6-2.7,3.5-3.8c-11-6-22.5-10.8-34.5-14.3c-2.8-0.8-6.7,0.4-9.3,1.5c-0.6,0.3-5.6,2.8-3.5,3.8
				c11.7,5.4,27,1.8,37,10.5c4.3-1.8,8.5-3.5,12.8-5.3c-13.6-4.5-27.5-8-41.5-10.6c-3-0.6-6.5,0.3-9.3,1.5c-0.8,0.4-5.4,2.4-3.5,3.8
				c10.9,7.6,24.8,2.2,36,8.2c4.3-1.8,8.5-3.5,12.8-5.3c-13.9-3.9-27.7-7.3-42.3-6.5c-1.3,0.1-12.9,3.5-10,5.4
				c6.3,4.3,13.2,6.4,20.7,7.2c2.8,0.3,6.4-0.8,8.9-2c0.7-0.3,4.5-2.4,2.6-3.4c-9.3-5.4-21.4-12.6-32-6.5c-4.5,2.6-4,7.5-1.7,11.6
				c2.7,4.8,7.5,7.7,12.2,10.3c2.7,1.5,16.3-2.5,13.6-4.9c-4-3.7-7.9-8.1-12.3-11.3c-3.8-2.7-9.8-1.1-13.6,1
				c-9.3,5-3.5,17.1,0.5,23.7c1.8,3,15.5-0.7,14.5-3.9c-2.2-7.2-4.9-14.3-8-21.2c-1.5-3.2-13.5,0.4-14.4,3.2
				c-2.1,6.9-2.7,14-1.7,21.2c0.5,3.9,13.1-1.5,14.4-3.2c4.6-6.1,3.2-14.6-2.7-19.3c-2.6-2-12.9,0.6-14,3.7c-3,8.6-4.4,17.5-4,26.6
				c0.1,3.3,13.3-0.9,14.4-3.2c3.2-6.8,8.3-21.7-0.2-26.9c-2.8-1.7-13.8,0.5-14.1,4.4c-0.6,9.4-1.1,18.7-1.7,28.1
				c4.8-1.3,9.7-2.6,14.5-3.9c-0.2-3-0.3-6,0.1-9c0.3-2.6,0.7-7.7,2.9-9.5c-3.8,1.2-7.5,2.3-11.3,3.5c-0.6,0-0.5,1.8-0.6,2
				c-0.7,1.3-2.3,2.3-3.3,3.3c-2.1,2-4.3,4.1-6.4,6.1c4.6-0.8,9.2-1.6,13.8-2.5c0.7-4.9,0.3-9.4-1.1-14.1c-1-3.2-15.2,0.5-14.5,3.9
				c0.5,2.4,0.5,4.5-0.2,6.9c4.8-1.1,9.6-2.1,14.4-3.2c-1.2-7.2,2.5-14.3-2.5-20.6c-1.9-2.4-14.2,1.1-14.1,4.4
				c0.1,2.9-0.2,5.6-0.9,8.4c4.8-1.1,9.6-2.1,14.4-3.2c0.5-4.6,1-9.2,1.5-13.7c-4.8,1.3-9.7,2.6-14.5,3.9
				c-0.5,8.9-1.4,17.8-2.5,26.6c4.8-1.3,9.7-2.6,14.5-3.9c0.2-2.7,0.4-5.3,0.6-8c0.2-2-14-0.4-14.5,3.9c-0.6,5.8-1.3,11.7-1.9,17.5
				c4.8-1.3,9.7-2.6,14.5-3.9c0-1.8,0.2-3.4,0.7-5.1c-4.8,1.1-9.6,2.1-14.4,3.2c-0.1,5.4-0.7,10.6-1.9,15.9
				c4.8-1.1,9.6-2.1,14.4-3.2c0.3-1.9,0.5-3.8,0.8-5.7c-4.8,1.3-9.7,2.6-14.5,3.9c0,3.8-0.1,7.6-0.4,11.4c4.8-1.3,9.7-2.6,14.5-3.9
				c0-0.7,0.1-1.3,0.1-2c0.1-2.4-13.8,0-14.4,3.2c-1,5.1,2.7,7.8,7.5,8.1c3.2,0.2,6.8-0.8,9.6-2.4c1.1-0.6,4.1-2.9,1.1-3.4
				c-1.5-0.3-3.1-0.5-4.6-0.8c-3.3-0.6-7.1,0.4-10.1,1.8c-1.2,0.6-5,3-1.8,3.8c3.6,0.9,7.2,1.7,10.7,2.6c4-1.9,7.9-3.8,11.9-5.6
				c-1.9-0.3-3.8-0.5-5.6-0.8c-3,1.9-6.1,3.8-9.1,5.8c2.5-0.1,5-0.2,7.4-0.2c2-0.1,10.8-1.7,10.4-4.9c-0.6-4.9-2-9.8-4.7-14
				c-2.4-3.7-5.2-4.3-9.6-3.6c-2.6,0.4-9.1,2-9.8,5.2c-0.7,3.1,4.1,6.1,6.2,7.2c2.6,1.4,6.7,0.2,9.3-0.8c0.7-0.2,6.6-3,4.3-4.1
				c-1.5-0.8-6.3-3.5-5.2-5.7c-1,0.7-2,1.5-3,2.2c0.3-0.1,0.6-0.3,0.9-0.4c-3,0.7-5.9,1.3-8.9,2c1,0.1,3.5,6.3,3.8,7.3
				c1.1,2.8,1.6,5.6,2,8.5c3.5-1.6,6.9-3.3,10.4-4.9c-2.5,0.1-5,0.2-7.4,0.2c-2.7,0.1-6.4,1.1-8.7,2.7c-1,0.7-2.9,2.7-0.4,3
				c1.9,0.3,3.8,0.5,5.6,0.8c3.4,0.5,7.1-0.3,10.1-1.8c1.2-0.6,5-3,1.8-3.8c-3.6-0.9-7.2-1.7-10.7-2.6c-4,1.9-7.9,3.8-11.9,5.6
				c1.5,0.3,3.1,0.5,4.6,0.8c3.5-1.9,7.1-3.9,10.6-5.8c-2-0.1-2.8-3.1-2.6-4.7c-4.8,1.1-9.6,2.1-14.4,3.2c0,0.7-0.1,1.3-0.1,2
				c-0.1,2.2,14.2,0.3,14.5-3.9c0.3-3.8,0.4-7.6,0.4-11.4c0-2.7-14,0.1-14.5,3.9c-0.3,1.9-0.5,3.8-0.8,5.7c-0.3,2,13.6,0.3,14.4-3.2
				c1.3-5.7,2-11.4,2.1-17.2c0-2.7-13.6,0.2-14.4,3.2c-0.6,2.2-0.9,4.2-0.9,6.4c0,2.5,14.1,0,14.5-3.9c0.6-5.8,1.3-11.7,1.9-17.5
				c-4.8,1.3-9.7,2.6-14.5,3.9c-0.2,2.7-0.4,5.3-0.6,8c-0.2,2.1,14,0.3,14.5-3.9c1.1-8.8,1.9-17.7,2.5-26.6c0.1-2.2-14-0.3-14.5,3.9
				c-0.5,4.6-1,9.2-1.5,13.7c-0.2,2.2,13.6,0.1,14.4-3.2c0.8-3.3,1.2-6.4,1.1-9.8c-4.7,1.5-9.4,2.9-14.1,4.4
				c4.3,5.4,0.6,13.3,1.6,19.5c0.5,3.2,13.6-0.6,14.4-3.2c0.9-2.8,1-5.4,0.4-8.3c-4.8,1.3-9.7,2.6-14.5,3.9
				c1.5,4.7,1.8,9.3,1.1,14.1c-0.4,3.1,12.6-1.4,13.8-2.5c2.4-2.3,4.8-4.5,7.1-6.8c1.5-1.4,3.9-3.2,4.2-5.4c0.7-4.3-4.2-4.4-7.2-4
				c-5.3,0.6-9.9,2.7-11.5,7.9c-1.7,5.4-2,11.2-1.6,16.8c0.2,2.8,14.3-0.1,14.5-3.9c0.6-9.4,1.1-18.7,1.7-28.1
				c-4.7,1.5-9.4,2.9-14.1,4.4c7.5,4.5,2.3,18.5-0.5,24.4c4.8-1.1,9.6-2.1,14.4-3.2c-0.4-8.7,0.9-17.1,3.8-25.3
				c-4.7,1.2-9.3,2.5-14,3.7c5.3,4.1,6.1,11.5,2.1,16.8c4.8-1.1,9.6-2.1,14.4-3.2c-0.9-6.8-0.4-13.3,1.5-19.8
				c-4.8,1.1-9.6,2.1-14.4,3.2c3.1,6.9,5.8,13.9,8,21.2c4.8-1.3,9.7-2.6,14.5-3.9c-1.9-3.1-3.8-6.4-4.8-9.9
				c-0.4-1.6-0.8-3.1-0.7-4.8c0-1.1,0.1-2.1,0.6-3.2c0.9-1.5,1-1.9,0.3-1.1c-3.8,0.9-7.7,1.7-11.5,2.6c2.1,0.4,4.9,4.1,6.5,5.5
				c2.3,2.1,4.5,4.2,6.8,6.3c4.5-1.6,9.1-3.3,13.6-4.9c-3.1-1.7-6.2-3.4-8.7-5.9c-1.7-1.7-6.4-8.1-4-11c-2.6,1.1-5.3,2.2-7.9,3.2
				c0.3-0.1,0.7-0.1,1-0.2c-1.5,0-3.1,0.1-4.6,0.1c6.5,1.6,12.7,4.8,18.4,8.2c3.8-1.8,7.7-3.6,11.5-5.4c-6-0.6-11.5-2.9-16.5-6.2
				c-3.3,1.8-6.6,3.6-10,5.4c12.5-0.7,24.8,2.9,36.7,6.2c2.8,0.8,6.7-0.4,9.3-1.5c0.7-0.3,5.6-2.7,3.5-3.8c-11.3-6-25.6-0.9-36-8.2
				c-4.3,1.8-8.5,3.5-12.8,5.3c14.1,2.6,27.9,6.1,41.5,10.6c2.2,0.7,15.5-2.9,12.8-5.3c-10.5-9-25.2-5.1-37-10.5
				c-4.3,1.8-8.5,3.5-12.8,5.3c11.4,3.3,22.3,7.9,32.7,13.6c4.3-1.8,8.5-3.5,12.8-5.3c-7.7-1.7-15.5-3.4-23.2-5.1
				c-3.5,1.9-7.1,3.9-10.6,5.8c8.4,0.1,16.4,1.6,24.2,4.6c0.6-1.3,1.2-2.5,1.8-3.8c3.8-1.6,1.1-0.9-0.7-2.2c-1-0.7-2-3.1-3-2.7
				c-2.4,0.7-4.9,1.3-7.3,2c-1,0.1,1,2,1.3,2.8c0.7,1.5,0.9,3.3,0.9,5c0.1,2-0.5,8.7-2.9,9.7c2.4-0.7,4.9-1.3,7.3-2
				c-0.1,0-1-7.5-0.9-8.3c0.3-2.9,1.5-5.2,3.2-7.5c-4.8,1.1-9.6,2.1-14.4,3.2c4.4,7.1,9.8,17.9,2.3,25c4.6-0.8,9.2-1.6,13.8-2.5
				c-2.8-9-1.1-18.2,4.6-25.7c-4.8,1.1-9.6,2.1-14.4,3.2c6.7,8.7,8,20.2,3.2,30.1c4.8-1.1,9.6-2.1,14.4-3.2
				c-0.8-5-1.1-10.1-0.7-15.2c0.2-3,0.4-12.4,3.5-14.3c-2.3,0.8-4.6,1.6-6.9,2.5c0.4-0.1,0.8-0.1,1.1-0.2c-2-0.3-3.9-0.5-5.9-0.8
				c0.1,5.7,0.2,11.4,0.3,17c0.1,4.1,1.5,11.2-1.5,14.5c4.6-0.8,9.2-1.6,13.8-2.5c-0.6-5-0.8-10-0.3-15.1c0.2-2.7,0.7-5.4,1.3-8.1
				c0.3-1.1,0.6-5.2,1.7-5.8c-3.4,0.9-6.8,1.8-10.2,2.7c2.5,0,2.4,13.1,2.3,14.7c-0.3,6.3-1.6,12.4-2.9,18.6
				c4.8-1.1,9.6-2.1,14.4-3.2c0.3-5.8,0.5-11.7,0.8-17.5c0.2-4.7-0.4-10.8,3.1-14.4c-4.6,0.8-9.2,1.6-13.8,2.5
				c1.5,11.1,0.7,22-2.3,32.8c4.8-1.1,9.6-2.1,14.4-3.2c0.4-8.6,1.9-17,4.6-25.2c-4.8,1.1-9.6,2.1-14.4,3.2c3.4,4.6,2.4,10,1.2,15.2
				c-1.4,6.3-2.9,12.5-4.3,18.8c-0.7,3.2,13.4,1.1,14.3-2.5c1.7-6.8,3.4-13.6,5.2-20.3c-4.7,1.2-9.3,2.5-14,3.7
				c2.7,2.2-0.3,10.1-0.9,12.9c-0.9,5-1.9,10-2.8,15c4.8-1.1,9.6-2.1,14.4-3.2c0.1-3.7,0.3-7.4,0.4-11.1c-4.8,1.3-9.7,2.6-14.5,3.9
				c0.5,4.4-0.4,14.9,4.5,16.8c4.3,1.7,13.8-0.8,15.8-5.2c-4.7,1.2-9.3,2.5-14,3.7c1.2,0.3,1.6,1.1,1.4,2.3
				c4.8-1.1,9.6-2.1,14.4-3.2c-0.1-0.2-0.1-0.4-0.2-0.6c-0.3-0.5-0.7-0.8-1.3-0.9c-0.2,0-0.4-0.1-0.7-0.1
				c-3.3-0.6-11.5,0.5-13.1,4.1c-0.1,0.2-0.2,0.4-0.3,0.6c0,0.2-0.1,0.4-0.1,0.7c0.1,0.2,0.3,0.3,0.4,0.5c2.3,2.9,14.1,0,14.5-3.9
				c0.1-1.1,0.2-2.1,0.1-3.2c0-2.4-14.5-0.3-14.5,3.9c0,0.7,0,1.4,0,2.1c0,2.6,13.8-0.1,14.4-3.2c0.4-2.3,0.6-4.6,0.5-7
				c-0.1-2.6-14.5-0.1-14.5,3.9c0,1,0,1.9,0,2.9c0,2.5,13.9,0,14.4-3.2c0.4-2.5,0.8-5.1,1.2-7.6c-4.8,1.1-9.6,2.1-14.4,3.2
				c-0.3,2.5-0.5,5.1-0.8,7.6c-0.2,2,13.9,0.4,14.5-3.9c1.1-7.5,2.2-15.1,3.3-22.6c0.3-1.9-13.7-0.3-14.4,3.2
				c-1.2,5.8-2.3,11.5-3.5,17.3c-0.7,3.4,13.1,0.7,14.3-2.5c2.7-7.5,4.1-15.2,4-23.2c0-2.7-13.7,0.2-14.4,3.2
				c-1.4,6.5-2.8,12.9-4.3,19.4c4.8-0.8,9.5-1.7,14.3-2.5c2-9.1,3.6-18.3,4.9-27.5c0.3-2-13.6-0.3-14.4,3.2c-1.3,6-2.6,12-3.9,18
				c-0.7,3.3,13.2,0.9,14.3-2.5c2.7-8.2,4.6-16.6,5.7-25.1c0.3-2.2-13.4,0-14.4,3.2c-1.8,5.8-3.7,11.5-5.5,17.3
				c-0.9,2.8,13,1.1,14.3-2.5c2.7-7.8,4.4-15.8,5.4-24c-4.8,1.3-9.7,2.6-14.5,3.9c-0.2,2.5-0.4,4.9-0.6,7.4
				c-0.2,2.7,13.3-0.5,14.4-3.2c1.7-4.1,3.8-9.2,2.1-13.6c-1.6-4.1-5.1-5.9-9.3-6.1c-1.5-0.1-14.5,2.8-11.5,5.4
				c2.9,2.6,4.3,5.6,4.8,9.4c0.4,3.1,13.8-0.4,14.4-3.2c0.4-2,0.6-3.8-0.3-5.7c-0.8-1.7-3-2.6-3.7-4.2c-0.6,0.7-1.1,1.4-1.7,2.2
				c0.1-0.1,0.2-0.2,0.4-0.2c-4.1,0.7-8.3,1.5-12.4,2.2c0-0.2,0-0.5,0-0.7C376.5,220.2,390.4,218.7,391.7,215L391.7,215z"/>
		</g>
	</g>
	<g>
		<g>
			<path class="st2" d="M333.6,233c-1.8-2.8-2.6-5.7-3-9c-0.7-5.9-14.8-3-14.6,2.6c0.3,7.3,1.1,14.8,3.6,21.7
				c2.4,6.8,9.9,8.1,15.7,3.9c5-3.6,6.4-11.4,6.4-17.2c0-6.4-2.5-11.9-7.5-15.8c-3.2-2.5-13-0.4-12.9,4.7c0.1,7.5,0.6,15.6,3.2,22.7
				c2.4,6.6,9.6,8,15.4,4.2c10.4-6.8,8.5-23.9,1-32c-3.4-3.7-13.5-1.9-14,3.7c-0.7,8.1-0.2,16.3,2,24.2c2,7.1,4.7,14.2,13.6,11.9
				c16.2-4.2,4.3-27.9-2.2-35.7c-3-3.7-14.1-1.9-14,3.7c0.1,6.7,1.2,13.2,3.8,19.3c2.2,5.1,5.2,12.3,11.4,13.3
				c6.6,1,12.2-3.4,12.2-9.9c0-6.7-2.2-12.8-5.7-18.4c-3.2-5.1-12.7-0.7-14,3.7c-2.6,9.1-0.2,26.6,10.9,29.4
				c6.1,1.5,12.5-2.1,14.1-8.2c1.5-5.8-0.3-11.9-3.9-16.4c-3-3.8-14-1.8-14,3.7c0,5.9,0.9,11.3,3.4,16.6c2.6,5.6,11.5,3,14.1-1.2
				c3-4.7,2.7-9.9-0.2-14.6c-2.6-4.2-14.2-1.5-14,3.7c0.3,6.4,1.6,12.2,4.4,18c2.8,5.7,13.2,3.1,14.6-2.6c0.7-3.1,1.1-6.1,1-9.3
				c-0.2-7.8-12.9-4.2-14.6,1.2c-1.8,5.6-0.7,10.8,2.2,15.8c2.5,4.2,12,1.6,13.5-2.4c1.2-3,2-6.1,2.4-9.3c0.9-7.4-13.3-4.5-14.6,1.2
				c-0.8,3.3-1.9,8.3,0,11.4c2.1,3.4,7.2,3.2,10.4,2c8.4-3.1,8.1-12.7,3.9-19.1c-2.7-4.2-13.9-1.5-14,3.7c0,5.4,1.1,10,3.6,14.8
				c1.2,2.4,5.9,2.1,7.9,1.6c4.2-1.1,9.9-5.1,7.7-10.2c-2.6-6-15.8-2.8-14.5,3.9c0.9,4.3,3.2,7.5,6.6,10.1c2.7-3,5.5-6.1,8.2-9.1
				c-2-0.4-4-0.8-6-1.2c-4.2-0.8-14,4.8-8.2,9.1c4.8,3.6,10.2,4.7,16.1,4.6c2.6,0,6.4-1.8,7.6-4.4c1-2.2-0.1-4.8-2.7-5.4
				c-7.9-1.7-15.8-2.8-23.9-3c0.2,3,0.4,6,0.6,9.1c-0.6,0.1-1.1,0.2-1.7,0.3c3.2,0.2,7.1-0.9,9-3.7c1.5-2.3,0.8-5.4-2.2-6
				c-6.8-1.5-13.5-3-20.3-4.7c-6.3-1.6-9.1-4.5-11.9-10.3c-4.6,1.7-9.3,3.4-13.9,5.1c5.6,8,15.5,10.4,24.7,11.4
				c3,0.3,13.7-3.7,9.2-8.2c-7.3-7.2-15.3-13.3-24.4-18.1c-3-1.6-6.7-1.2-9.6,0.5c-1.9,1.1-5,4.4-2.7,6.7
				c7.2,7.1,15.2,13.1,24.3,17.7c3,1.6,6.6,1.2,9.6-0.5c2.1-1.2,4.8-4.2,2.7-6.7c-8.5-10-22-14.2-29.5-25c-3.2-4.6-15.3-1-13.9,5.1
				c1.6,6.9,4.7,13.2,9.1,18.8c3.2,4.1,16.4,0.7,13.9-5.1c-3.3-7.5-8.1-13.5-14.9-18.1c-4.2-2.9-13.5,0.2-12.9,6
				c0.9,8.2,7.6,13.1,15.2,14.4c4,0.7,12.4-3.2,9.2-8.2c-4.1-6.4-9.5-11.7-16-15.7c-3.9-2.4-10.4-0.7-12.5,3.4
				c-5.5,10.2,6.8,19.9,14.8,23.9c3.1,1.5,6.6,1.3,9.6-0.5c1.8-1.1,5.1-4.4,2.7-6.7c-5.1-4.8-10.9-8.3-17.7-10
				c-4.3-1.1-12.2,1-11.5,6.6c1.1,8.8,10,13.2,18.1,12.4c4-0.4,11.5-5.1,6.3-9.1c-6.6-5.2-14.9-4.9-22.5-2c-2.4,0.9-5.8,4.5-3.5,7.1
				c4.9,5.6,11.1,8.6,18.4,9.7c5.1,0.8,15.1-6.9,6.8-9.7c-5.1-1.7-10.3-2.8-15.6-3.2c-3.8-0.3-14.5,4.6-8.2,9.1
				c3.7,2.6,8.2,3.5,12.6,2.7c2.7-0.5,6.3-1.5,7.6-4.4c1-2.2-0.1-4.9-2.7-5.4c-5.1-1.1-9.8-1.1-14.8,0.3c-2.6,0.7-6.2,2.8-6,6
				c0.2,3.1,4,4.1,6.6,3.8c1-0.2,1.9,0,2.7,0.7c1.6-3.3,3.3-6.5,4.9-9.8c-1.9,0.1-3.4,0-5.3-0.3c-3.1-0.5-7.3,1.1-9,3.7
				c-1.5,2.3-0.8,5.3,2.2,6c3.3,0.8,6.6,1.7,9.8,2.5c3.3,0.8,7.1,0.2,9.6-2.2c2-1.8,2.9-4.8,0.2-6.6c-2.2-1.5-4.3-2.1-6.9-2.6
				c-3.1-0.6-7.3,1.1-9,3.7c-1.5,2.3-0.8,5.4,2.2,6c4.7,1,9.5,2,14.2,3c1.6-3.3,3.3-6.5,4.9-9.8c-2,0.2-3.6,0-5.6-0.2
				c-6.8-1-14.8,8.1-5.1,10.1c14.3,2.9,28.7,5.2,43.1,6.9c3.3,0.4,8-1.1,9.5-4.3c1.5-3.3-1.3-5.4-4.3-5.7c-14.5-1.7-28.9-4-43.1-6.9
				c-1.7,3.4-3.4,6.7-5.1,10.1c3.1,0.5,6.2,0.5,9.3,0.3c2.7-0.2,6.4-1.7,7.6-4.4c1-2.2-0.1-4.9-2.7-5.4c-4.7-1-9.5-2-14.2-3
				c-2.3,3.2-4.5,6.5-6.8,9.7c0.3,0.2,0.5,0.4,0.8,0.6c3.3-2.9,6.6-5.8,9.8-8.8c-3.3-0.8-6.6-1.7-9.8-2.5c-2.3,3.2-4.5,6.5-6.8,9.7
				c3,0.5,6,0.5,9,0.3c5-0.4,12-6.5,4.9-9.8c-3.1-1.5-6.4-1.8-9.8-1.4c0.2,3.3,0.4,6.5,0.6,9.8c1.4-0.4,2.4-0.6,3.9-0.3
				c1.6-3.3,3.3-6.5,4.9-9.8c-1.8,0.3-1.3,0.3-2.8-0.7c-2.7,3-5.5,6.1-8.2,9.1c4.3,0.3,8.2,1.1,12.3,2.5c2.3-3.2,4.5-6.5,6.8-9.7
				c-4.1-0.6-7.5-2.8-10.3-5.9c-1.2,2.4-2.3,4.8-3.5,7.1c1.6-0.6,3.8,1.2,4.9,2.1c2.1-3,4.2-6.1,6.3-9.1c-3.2,0.3-4.7-3.7-5.1-6.2
				c-3.8,2.2-7.6,4.4-11.5,6.6c4.9,1.2,9.2,3.4,12.9,6.9c4.1-2.4,8.2-4.8,12.3-7.2c-3.9-2-15.3-8.6-12.3-14.4
				c-4.2,1.1-8.3,2.2-12.5,3.4c5.8,3.5,10.3,8.1,13.9,13.8c3.1-2.7,6.1-5.4,9.2-8.2c-3.8-0.6-5.5-4.8-5.9-8.2c-4.3,2-8.6,4-12.9,6
				c5.1,3.5,9.1,8.2,11.6,13.9c4.6-1.7,9.3-3.4,13.9-5.1c-3.9-5-6.4-10.3-7.9-16.4c-4.6,1.7-9.3,3.4-13.9,5.1
				c7.6,11,21.1,15,29.5,25c4.1-2.4,8.2-4.8,12.3-7.2c-8.2-4.2-15.7-9.4-22.2-15.9c-4.1,2.4-8.2,4.8-12.3,7.2
				c8.2,4.3,15.7,9.7,22.4,16.2c3.1-2.7,6.1-5.4,9.2-8.2c-6.4-0.7-12.7-2-16.6-7.6c-3.1-4.4-16.6-0.4-13.9,5.1
				c3.1,6.4,6.4,11.9,13.4,14.5c7.8,3,16.7,4.3,24.9,6.1c2.3-3.2,4.5-6.5,6.8-9.7c-3.5-0.2-6.5,0.3-9.7,1.7c-4.7,2-5.8,8.9,0.6,9.1
				c6.9,0.1,13.8,0.8,20.6,2.3c1.6-3.3,3.3-6.5,4.9-9.8c-2.4,0-4.4-1.3-6.3-2.6c-2.7,3-5.5,6.1-8.2,9.1c2,0.4,4,0.8,6,1.2
				c4.2,0.8,14-4.7,8.2-9.1c-2-1.5-2.9-3.4-3.4-5.8c-4.8,1.3-9.7,2.6-14.5,3.9c0.1-0.2,0.3-0.4,0.4-0.5c1.6-0.9,3.2-1.8,4.8-2.8
				c-0.3,0.1-0.6,0.2-0.9,0.2c2.6,0.5,5.3,1.1,7.9,1.6c-1.5-3-2.2-6.4-2.2-9.8c-4.7,1.2-9.3,2.5-14,3.7c0.8,1.2,2.7,5.1,1.1,6.5
				c2.9-1,5.7-2.1,8.6-3.1c-0.3,0-0.7,0-1,0c1.4,0.6,2.7,1.3,4.1,1.9c-1-1.3,0.4-5.7,0.7-7.1c-4.9,0.4-9.8,0.8-14.6,1.2
				c-0.3,2.3-0.7,4.5-1.5,6.7c4.5-0.8,9-1.6,13.5-2.4c-2.1-3.5-2.1-7-0.9-10.8c-4.9,0.4-9.8,0.8-14.6,1.2c0.1,3.2-0.2,6.2-1,9.3
				c4.9-0.9,9.7-1.7,14.6-2.6c-2.4-4.8-4-9.9-4.2-15.3c-4.7,1.2-9.3,2.5-14,3.7c1.5,2.4,1.1,4.7-0.3,6.9c4.7-0.4,9.4-0.8,14.1-1.2
				c-2.1-4.5-3.3-9-3.3-13.9c-4.7,1.2-9.3,2.5-14,3.7c1.3,1.7,2.3,3.2,2.8,5.4c0.4,1.8-0.9,5.5,1.7,4.2c1.9-0.3,3.8-0.7,5.7-1
				c1.5,0.7,1.5,0.4,0.1-0.8c-0.6-0.8-1.2-1.6-1.7-2.4c-1-1.8-1.7-3.7-2.2-5.7c-1-4-0.7-8,0.4-11.9c-4.7,1.2-9.3,2.5-14,3.7
				c1.6,2.5,2.8,5.2,3.5,8c0.3,1.1,0.5,2.2,0.6,3.3c0.3,2.2-0.8,4.4,1.5,2.7c2.4-0.7,4.9-1.3,7.3-2c1.8,0.9,2,0.6,0.5-0.9
				c-0.6-0.9-1.2-1.9-1.8-2.9c-1.2-2.1-2.1-4.2-2.9-6.5c-1.5-4.4-2.4-8.9-2.5-13.6c-4.7,1.2-9.3,2.5-14,3.7
				c2.9,3.5,5.2,7.2,6.7,11.5c0.6,1.7,3.5,9.7,2,11.2c1.6-0.9,3.2-1.8,4.8-2.8c-0.3,0.1-0.6,0.1-1,0.2c1.8,0,3.7,0,5.5,0
				c1.1,0.4-0.8-3.6-1.1-4.8c-0.8-2.5-1.4-5.1-1.8-7.8c-0.9-5.1-0.9-10.3-0.5-15.5c-4.7,1.2-9.3,2.5-14,3.7c2.6,2.8,4.3,6,4.7,9.9
				c0.2,1.9,0.1,3.8-0.3,5.6c-0.3,1.4-2.7,4.7-0.2,3.2c1.9-0.3,3.8-0.7,5.7-1c2.5,0.3,0.9-1.9,0.5-3.5c-0.4-1.8-0.8-3.5-1.1-5.3
				c-0.6-3.7-1-7.5-1-11.2c-4.3,1.6-8.6,3.1-12.9,4.7c2.7,2.1,4,5.6,4.1,9c0.1,1.7-0.2,3.6-0.5,5.3c-0.2,1.2-0.5,2.3-0.9,3.5
				c-1,1.9-0.7,2,0.8,0.5c1.9-0.3,3.8-0.7,5.7-1c-0.3-0.1-0.7-0.1-1-0.2c1.4,0.6,2.7,1.3,4.1,1.9c-2.3-2.2-2.7-6.7-3.3-9.7
				c-0.8-3.7-1.2-7.4-1.4-11.2c-4.9,0.9-9.7,1.7-14.6,2.6c0.5,4.2,1.9,7.8,4.2,11.4C323.6,244.5,337.4,239.2,333.6,233L333.6,233z"
				/>
		</g>
	</g>
	<g>
		<g>
			<path class="st2" d="M289.4,198.4c0.1-0.8,0.1-0.7-0.2-1.4c-0.4-0.8-2.7-0.3-2.9,0.6c-0.2,1.3-0.2,2.4,0.2,3.7
				c0.2,0.9,2.9,0.2,2.9-0.6c0.1-1,0.1-2,0.2-3c-0.8,0.3-1.6,0.6-2.3,0.9c2.1,0.5,4.2,1,6.2,1.5c0.6-0.5,1.2-1,1.8-1.5
				c-1.6-0.2-3.2-0.6-4.7-1.1c-0.6,0.5-1.2,1-1.7,1.5c1.8,0,3.4,0.2,5.1,0.7c0.8,0.2,3.5-0.9,2.3-1.4c-2.1-0.7-4.1-1.1-6.3-0.9
				c-0.3,0.5-0.5,1-0.8,1.5c3.4-0.5,6.6-0.2,9.9,0.9c0.8-0.5,1.5-0.9,2.3-1.4c-3.6-1.1-7.2-1.8-10.9-2.2c-0.5,0.5-1,1-1.5,1.5
				c3.5-0.1,6.9,0.4,10.3,1.5c0.8,0.3,3.5-1,2.3-1.4c-3.7-1.3-7.5-1.9-11.5-1.7c-0.6,0-3.1,1.4-1.5,1.5c3.5,0.4,7,1,10.4,2
				c0.8,0.2,3.5-1,2.3-1.4c-3.9-1.3-7.7-1.6-11.8-1c-0.9,0.1-2.6,1.6-0.8,1.5c1.8-0.1,3.4,0.1,5.1,0.7c0.8-0.5,1.5-0.9,2.3-1.4
				c-2.1-0.6-4.1-1-6.3-1c-0.4,0-3,1-1.7,1.5c1.7,0.6,3.4,1,5.2,1.3c0.8,0.1,3.5-1.1,1.8-1.5c-2.1-0.5-4.2-1-6.2-1.5
				c-0.5-0.1-2.3,0.2-2.3,0.9c-0.1,1-0.1,2-0.2,3c1-0.2,1.9-0.4,2.9-0.6c-0.3-1.1-0.4-2.1-0.2-3.3c-1,0.2-1.9,0.4-2.9,0.6
				c0.1,0.3,0.2,0.6,0.3,1C286.4,199.9,289.3,199.3,289.4,198.4L289.4,198.4z"/>
		</g>
	</g>
	<g>
		<g>
			<path class="st2" d="M380.3,282c2.2-0.5,4.5,0.8,6.6-0.8c2.1-1.5,1.6-4.5,1.3-6.7c-0.2-1.3-3.1-0.6-2.9,0.8
				c0.2,1.1,0.9,4.4-0.8,4.6c-0.7,0.1-1.5-0.1-2.3-0.2c-0.8,0-1.6,0-2.4,0.2C377.9,280.5,378.5,282.5,380.3,282L380.3,282z"/>
		</g>
	</g>
	<g>
		<g>
			<path class="st2" d="M380.5,279.5c-0.9,0-2.8,0.2-2.5,1.4c0.4,1.7,3.6,1.7,4.9,1.5c5.4-1.1,5.9-6.4,5.2-10.9
				c-0.9,0.3-1.9,0.6-2.8,0.9c1.3,1.7,1,3.9-0.1,5.6c-1.8,2.5-5,2.2-7.7,1.7c-0.5-0.1-3.2,0.8-2.1,1.3c2.7,1.1,5.8,0.7,8.4-0.7
				c1.7-1-0.9-1-1.7-0.6c-1.4,0.8-2.9,0.7-4.3,0.1c-0.7,0.4-1.4,0.9-2.1,1.3c3.6,0.6,7.9,0.5,10.9-1.9c2.4-1.9,3.4-5.3,1.5-7.9
				c-0.4-0.6-2.9,0.1-2.8,0.9c0.3,2.1,0.6,4.2-0.1,6.2c-0.3,0.9-0.8,2-1.7,2.5c-0.7,0.3-1.4,0.2-2-0.3c-0.2-0.2-0.5-0.4-0.7-0.6
				c-0.7,0.2-1.5,0.5-2.2,0.7c0,0,0.1,0,0.1,0c0.6,0,1.7,0,2-0.5C381,280,381.3,279.6,380.5,279.5L380.5,279.5z"/>
		</g>
	</g>
	<g>
		<g>
			<path class="st3" d="M303.2,229.5c-0.3,0.2-0.7,0.5-1,0.7c0.6,0.1,1.1,0.3,1.7,0.4c-0.1-2.4,0.4-4.7,1.7-6.8
				c0.9-1.5,4.1-3.7,5.9-2.8c0.7,0.3,0.9,2.5,1,3.1c0.6,4.4-1.1,8.6-4.4,11.5c0.9,0,1.7-0.1,2.6-0.1c-1.5-4.3,1.1-8.2,1.5-12.5
				c0.1-1.5-0.2-5,1.3-1.7c0.9,2,0.1,4.6-0.5,6.5c1-0.1,1.9-0.2,2.9-0.3c-0.1-2.7-0.1-5.4-0.2-8.1c-0.9,0.2-1.9,0.5-2.8,0.7
				c2.1,2.7,2.6,5.9,1.2,9c0.9-0.1,1.9-0.2,2.8-0.3c-1.5-3.5-0.1-7.4-1.6-11c-0.9,0.3-1.9,0.7-2.8,1c3.3,4.9,2.9,11.3-1.1,15.7
				c0.9,0,1.8,0.1,2.6,0.1c0.2-4.1,1-7.8,2.6-11.5c-0.9,0.1-1.9,0.2-2.8,0.3c0.9,3.3,0.4,5.9-0.8,9c-0.9,2.2,0.1-0.2,0.6-1.1
				c0.7-1.2,1.3-2.3,2-3.5c-0.9,0-1.9,0.1-2.8,0.1c0,3.7-1.4,6.9-4.6,9.1c0.8,0.1,1.6,0.2,2.4,0.3c0.6-2.7,1.8-4.6,4.1-6.2
				c-0.8-0.1-1.6-0.2-2.4-0.3c-0.1,2.5-1,4.7-3.4,5.9c0.7,0.2,1.3,0.5,2,0.7c1.5-2.6,3.2-4.9,5.2-7.1c-0.9,0-1.7,0.1-2.6,0.1
				c0.2,2.8-1,5.3-3.8,6.6c0.7,0.2,1.4,0.3,2,0.5c0.6-2.4,3.2-4.3,4.2-6.6c0.9-1.9,1.2-3.8,1.2-5.9c-1,0.2-1.9,0.4-2.9,0.6
				c1.2,3.2,0.6,6.5-2.2,8.7c0.8,0.2,1.5,0.4,2.3,0.6c1.5-3.5,2.4-7.1,2.5-11c0-2.1,0.5-6-2.1-6.9c-1-0.4-2.6,0-3.3,0.8
				c-1.9,2.2,1.5,3.9,2.6,5.3c0.7,0.8,2.5,0.1,2.8-0.7c1.6-4.1-3.2-5.6-6.4-4.7c-3.4,1-6.9,5.4-4.6,8.8c0.2,0.3,0.8,0.3,1.2,0.3
				c3.4-0.4,9.1-8.4,3.2-9c-2.2-0.2-4.3,0.9-5.6,2.6c-1.6,2-3.1,7.1-0.8,8.9c0.5,0.4,1.3,0.3,1.9,0.1c1.7-0.7,2.1-1.9,3-3.5
				c0.9-1.6,3.1-4.1,2.9-6.1c-0.3-2.8-3.7-2.9-5.6-1.6c-4,2.6-4.2,14.7,1.6,9.2c1.6-1.5,8.7-7.3,6.7-10c-1.8-2.3-5.9-0.1-7.5,1.2
				c-1.8,1.5-2.8,4.6,0.3,5.2c0.9,0.2,2-0.2,2.8-0.6c1.6-0.9,2.4-4.6,4-4.7c0.5,0,2.5-1.1,1.3-1.6c-7-3.4-12.3,2.7-14.6,8.7
				c-0.4,1.1,2,0.6,2.4,0.3c2.5-1.8,4.4-3.8,6.1-6.4c0.8-1.3-2-0.8-2.5-0.4c-4.1,3.7-4.1,8.9-3.8,14.1c0.1,1.1,2.7,0.3,2.9-0.6
				c0.7-3.3,3.7-7.5-0.3-9.8c-0.8-0.5-2.3,0-2.6,0.9c-1.5,4.1-1.8,8.1-0.8,12.3c0.2,1,2.2,0.4,2.6-0.1c2.5-2.5,4.2-11.1-1.4-11.2
				c-4.5-0.1-5.4,9.2-1.9,10.5c0.8,0.3,1.7,0.1,2.3-0.4c1.8-1.7,3.7-6.7,1.5-8.7c-2-1.8-4.3,0-4.8,2c-0.5,2.1-1.3,7.8,1.2,9
				c2.4,1.2,5.2-1.1,5.6-3.3c1.7-8.9-9.3-2.9-4.4,1.9c4.8,4.6,9.5-6.2,2.1-4.9c-6.9,1.1-2.7,11,2.1,6.8c5.3-4.6-3.5-8.7-5.6-3.6
				c-2.4,5.9,8.7,6.8,6.5-0.5c-2-6.4-10.3,2.1-4.4,5c2.7,1.3,6.2-1.6,6-4.4c-0.1-2.2-2-2.7-3.7-1.4c-2.3,1.7-2.3,6.3,1.1,6.4
				c3.9,0.2,5.8-4.4,6.8-7.4c0.4-1.2-2.4-0.6-2.8,0.1c-1.1,2.1-3.6,10.3-7.3,5.2c-0.9,0.4-1.8,0.8-2.7,1.2c2.3,2.6,6,2.7,8.9,1
				c4.1-2.4,5.8-7.6,6.6-11.9c-1,0.2-1.9,0.4-2.9,0.6c0.3,4.2-1.5,7.9-5.4,9.8c0.5,0.4,1,0.8,1.5,1.2c4.9-3.1,7.6-8.1,7.4-13.9
				c0-1-2.8-0.4-2.9,0.6c-0.4,4-1.5,7.5-3.5,11c0.9-0.2,1.8-0.3,2.7-0.5c-2-1.6-0.5-9-0.3-11.5c0.1-1.3-2.7-0.7-2.9,0.3
				c-0.9,3.9-2,7.9-3.1,11.7c1-0.1,1.9-0.2,2.9-0.3c1-4,1.8-7.9,1-12c-0.2-1.1-2.4-0.2-2.8,0.3c-2.4,3.7-3.8,7.5-4.3,11.8
				c-0.1,1.3,2.5,0.7,2.8-0.1c1.8-3.9,2.8-7.8,3.1-12.1c0.1-1.3-2.5-0.7-2.8,0.1c-1.5,3.1-2.5,6.3-3.2,9.7c-0.3,1.3,2.4,0.5,2.8-0.1
				c1-1.7,6.2-12.3,0.1-10.6c-1.8,0.5-2.2,2.5-2.7,4.1c-0.8,2.5-3,7-0.9,9.3c0.6,0.6,2,0.3,2.5-0.3c0.7-0.8,1.4-1.6,2.1-2.4
				c0.3-0.4,0.7-0.8,1-1.2c-0.1,0.1-0.2,0.3-0.3,0.4c0.5,0.2,0.9,1.3,1.6,1.6c1.7,0.6,3.6-0.6,4.9-1.4c-0.8-0.2-1.5-0.4-2.3-0.6
				c-0.5,1.5-1.6,2.4-3.4,2.8c-1,0.1-2.6,1.5-0.7,1.8c3.3,0.4,5.4-1.7,7.2-4.3c-0.9,0-1.8-0.1-2.7-0.1c-1,1.8-2.1,3.1-3.7,4.3
				c-1,0.7-0.3,1.5,0.7,1.4c7.5-1.2,8.5-12.9,7.8-18.8c-1,0.3-1.9,0.5-2.9,0.8c1.2,3.2,1.1,6.3-0.4,9.4c-0.6,1.3,2.3,1.1,2.7,0.1
				c1.6-3.4,1.9-6.8,0.6-10.3c-0.4-1.1-3-0.4-2.9,0.8c0.3,2.9,0.3,5.7-0.4,8.5c-0.5,2-1.7,7.4-4.1,7.8c0.2,0.5,0.5,0.9,0.7,1.4
				c2-1.4,3.4-2.9,4.6-5.1c0.7-1.3-2.2-0.9-2.7-0.1c-0.7,1.3-1.8,2.2-3.4,2.7c-0.2,0.6-0.5,1.2-0.7,1.8c2.9-0.4,5.2-1.6,6.5-4.4
				c0.6-1.3-1.7-0.9-2.3-0.6c-1.3,0.9-2.6-1.5-4.1-1.5c-2.5,0-4.3,3.2-5.6,4.8c0.8-0.1,1.7-0.2,2.5-0.3c-0.9-1,0.1-8.5,1.4-9.1
				c-0.8,0.3-0.8,2.1-1.1,2.8c-0.5,1.6-1.3,3.1-2.2,4.5c0.9,0,1.9-0.1,2.8-0.1c0.7-3.2,1.6-6.2,3-9.2c-0.9,0-1.9,0.1-2.8,0.1
				c-0.3,4.1-1.2,7.8-2.9,11.6c0.9,0,1.9-0.1,2.8-0.1c0.5-4.2,1.8-7.9,4.1-11.4c-0.9,0.1-1.9,0.2-2.8,0.3c0.7,4,0,7.7-1,11.6
				c-0.3,1.2,2.6,0.7,2.9-0.3c1.2-3.9,2.2-7.8,3.1-11.7c-1,0.1-1.9,0.2-2.9,0.3c-0.2,3-2.2,10.2,0.5,12.3c0.7,0.6,2.2,0.3,2.7-0.5
				c2.1-3.6,3.4-7.3,3.7-11.4c-1,0.2-1.9,0.4-2.9,0.6c0.2,5-2.1,9.4-6.4,12.1c-1.5,1,0.5,1.6,1.5,1.2c4.8-2.3,7.6-6.5,7.1-11.9
				c-0.1-1.1-2.7-0.3-2.9,0.6c-0.5,2.6-4.3,15.8-9.9,9.4c-0.7-0.8-3.4,0.1-2.7,1.2c1.7,2.2,4.5,2.9,7.1,2.1c4.2-1.3,3.8-5,5.6-8.4
				c-0.9,0-1.9,0.1-2.8,0.1c-0.8,2.6-0.7,3-3.5,3c-1.9,1-2.7,0.8-2.5-0.6c-0.1-1,0-1.1,0.3-0.2c0,0.6,0,1.2,0,1.8
				c-1.2-0.6-1-0.8,0.6-0.7c-0.5-0.6-1-1.1-1.5-1.7c0.4-1.1,0.8-2.2,1.3-3.3c-0.7,0.1-1.4,0.2-2.1,0.2c1.3,0.7,1.2,5-0.3,3.3
				c-0.4-0.5,0.1-3.2,0.1-3.8c0-0.3,0.2-3.1-0.2-1.9c-0.8,2.3,0.6,3.9-1.7,6.1c0.8-0.1,1.5-0.3,2.3-0.4c-1.6-0.6-1.2-4.1-1.2-5.1
				c0-1.1-0.4-2.5,0.8-1.1c1.9,2.3,0.9,5.9-0.9,7.8c0.9,0,1.7-0.1,2.6-0.1c-1-4.2-0.7-7.9,0.8-11.8c-0.9,0.3-1.7,0.6-2.6,0.9
				c3.2,1.8,0.2,6.1-0.4,8.6c1-0.2,1.9-0.4,2.9-0.6c-0.3-4.6-0.5-9.4,3.2-12.7c-0.8-0.1-1.7-0.2-2.5-0.4c-1.4,2.2-3.1,4-5.2,5.5
				c0.8,0.1,1.6,0.2,2.4,0.3c1.3-3.4,4-9.5,9.4-6.9c0.4-0.5,0.9-1.1,1.3-1.6c-1.4,0.1-2.5,0.4-3.5,1.5c-0.1,0.1-1.9,2.8-1.7,2.8
				c0.6-3.1,0.9-2.9,1,0.5c-0.5,0.6-1.1,1.2-1.6,1.8c-1,1.1-2.5,3.5-3.8,4.1c0.5-0.1,1-0.3,1.4-0.4c-0.2-1.5-0.2-2.9,0.1-4.3
				c0.1-2,0.6-2,1.7-0.1c-0.3,0.4-0.5,0.9-0.8,1.3c-0.2,0.8-1.9,4-2.6,4.3c0.6,0,1.3,0.1,1.9,0.1c-1.2-0.9-0.8-3.9-0.4-5.2
				c0.3-0.7,0.6-1.3,0.9-2c2.1,0.4,2.6,1,1.7,2c-0.2,0.8-3.3,5.9-0.5,0c0.2-0.6,0.5-1.2,0.7-1.9c4.5-1.7,6.1-1.2,5,1.6
				c0.9-0.2,1.9-0.5,2.8-0.7c-0.7-0.9-3.4-2.7-2.6-4c-0.5,0.3-1,0.5-1.5,0.8c3.6-0.4-0.3,14.4-1,15.9c-0.5,1.3,1.7,1,2.3,0.6
				c3.4-2.5,4.9-6.4,3.3-10.4c-0.4-1-2.9-0.4-2.9,0.6c0,3.1-0.7,5.6-2.7,8.1c-1.2,1.5-2.3,2.5-2.7,4.5c-0.2,1,1.6,0.7,2,0.5
				c3.7-1.6,5.7-4.6,5.5-8.7c-0.1-1-2.3-0.3-2.6,0.1c-2.2,2.3-4,4.8-5.6,7.6c-0.6,1.1,1.4,1,2,0.7c3.1-1.6,5-4,5.1-7.6
				c0-1.1-1.8-0.7-2.4-0.3c-2.7,1.9-4.4,4.3-5.2,7.5c-0.3,1.1,2,0.6,2.4,0.3c3.6-2.5,5.6-6,5.7-10.4c0-1.3-2.4-0.6-2.8,0.1
				c-1,1.6-6.3,10.3-0.3,8.1c4.7-1.8,5.3-9.1,4.2-13.2c-0.3-1-2.5-0.4-2.8,0.3c-1.7,3.9-2.6,7.8-2.8,12c-0.1,1.2,2.2,0.7,2.6,0.1
				c4.5-4.9,5.1-11.8,1.4-17.4c-0.5-0.8-3.2,0-2.8,1c1.5,3.6,0,7.4,1.6,11c0.4,0.9,2.5,0.5,2.8-0.3c1.6-3.6,1.2-7.2-1.3-10.4
				c-0.5-0.7-2.8-0.2-2.8,0.7c0.1,2.7,0.1,5.4,0.2,8.1c0,1.4,2.6,0.6,2.9-0.3c0.8-2.7,1.6-6.2-0.5-8.6c-1.1-1.3-3.1-1.9-4.7-1
				c-2.3,1.3-1.4,4.4-1.7,6.6c-0.7,4-2.7,7.5-1.4,11.6c0.3,1,2.1,0.4,2.6-0.1c2.8-2.5,4.7-5.9,5-9.7c0.2-2.8,0-6.8-3.1-7.8
				c-7-2.2-11.5,7.2-11.4,12.7c0,0.6,1.4,0.5,1.7,0.4c1.4-0.5,1.9-0.7,3-1.7C306.8,228.9,304,228.8,303.2,229.5L303.2,229.5z"/>
		</g>
	</g>
	<g>
		<g>
			<path class="st3" d="M357.2,240.4c-0.2,0.1-0.5,0.2-0.7,0.3c0.7-0.1,1.4-0.2,2-0.4c-5-1.7,1.9-13.4,4.3-7.9
				c1.4,3.1-1.7,9.1-4,11.1c0.7-0.2,1.5-0.5,2.2-0.7c-3.2-0.4-2.5-9.8-1.3-11.2c2.8-3.6,1.8,4.3,1.5,5.3c-0.4,1.5-2.1,6.6-2.8,3
				c-0.6-3.4,1-7.4,2.7-10.3c-1,0.2-1.9,0.4-2.9,0.6c1.2,4.2,0.6,8.1-1.6,11.8c1-0.2,1.9-0.4,2.9-0.6c-1.2-4.1-0.6-7.9,1.7-11.4
				c-1,0.2-1.9,0.4-2.9,0.6c0.8,3.5,0.4,6.7-1.2,10c1-0.2,1.9-0.4,2.9-0.6c-0.3-3.4,0-6.6,0.9-9.9c0.2-0.7-2.6-0.2-2.9,0.5
				c-1.5,3.9-2.5,7.8-3.3,11.8c-0.1,0.8,2.6,0.2,2.9-0.5c1.4-4.2,2.4-8.1,1.1-12.4c-0.2-0.8-2.6,0.2-2.9,0.6
				c-2.4,3.9-2.9,8-1.5,12.4c0.2,0.8,2.6-0.1,2.9-0.6c1.1-2.4,3.8-10.3-0.2-11.5c-3.2-1-4.3,2.5-4.5,4.8c-0.3,2.5-0.5,8.8,3.2,8.7
				c2.8-0.1,4.1-3.1,4.1-5.5c-1,0.3-1.9,0.5-2.9,0.8c0.1,0.5,1.4,5.2-1.4,3.8c-0.6-0.3-0.4-2.6-0.4-3c-1,0.3-1.9,0.5-2.9,0.8
				c0.9,2.2,2,4.3,4.6,4.2c1.8-0.1,3.8-0.9,4.1-2.8c-1,0.2-1.9,0.4-2.9,0.6c1.3,3.3-2.1,0-2.4-0.5c-0.5-0.9-0.8-1.9-1.1-2.9
				c-0.9-2.7-1-5.3,0.1-8c-1,0.2-1.9,0.3-2.9,0.5c-1,3.5-1,6.8-0.2,10.3c0.2,0.7,3,0,2.9-0.8c-0.6-4.3-1.1-8.7,2.5-11.8
				c-0.9,0.1-1.8,0.2-2.7,0.3c-0.4,1.2-1.1,2.3-2,3.2c0.9-0.2,1.8-0.3,2.8-0.5c-0.7-3,0.2-5.7,2.9-7.3c-0.8,0.1-1.7,0.1-2.5,0.2
				c-0.7,2-1.5,3.8-2.4,5.7c1-0.2,1.9-0.4,2.9-0.6c-0.1-2.2,0.3-3.4,1.8-5c-0.9,0.1-1.8,0.2-2.7,0.3c-0.7,2-1.6,3.7-3.1,5.2
				c0.9-0.1,1.8-0.2,2.7-0.3c0.2-0.5,0.4-1.1,0.7-1.6c0.5-1.4,1.8-1.7,3.9-0.9c-0.3,0.4-0.6,0.7-0.9,1.1c-0.8-0.8-1.3-1.7-1.7-2.7
				c-0.3,0.3-0.6,0.5-0.9,0.8c1.5-0.5,0.2,5.6,0.3,4.8c1-0.2,1.9-0.4,2.9-0.6c-0.1-2.3-0.1-4.5,0.2-6.8c-1,0.2-1.9,0.4-2.9,0.6
				c0.7,2.1,0.7,3.8,0,5.9c1-0.2,1.9-0.3,2.9-0.5c0.6-2.5,0.8-4.9,0.8-7.5c0-0.7-2.3,0.1-2.6,0.3c-1.2,0.9-1.9,1.6-2.4,3
				c1-0.2,1.9-0.4,2.9-0.6c1.4-1.6,2.5-1.8,3.3-0.5c0.6,0.4,0.8,0.9,0.6,1.6c0.9-0.3,1.9-0.6,2.8-0.9c-1.6-1.8-3.2-2.4-5.5-2.7
				c-0.5-0.1-3.1,0.9-2.1,1.2c3.3,1,6.6,2.4,6.2,6.4c1-0.3,1.9-0.5,2.9-0.8c-0.5-2.5-1.5-4.4-3.3-6.2c-0.8,0.4-1.7,0.7-2.5,1.1
				c4.4,1.3,5.7,5.7,3.1,9.3c1-0.2,1.9-0.4,2.9-0.6c-0.7-3.5,0.8-7.7-2.7-10c-0.8,0.4-1.7,0.7-2.5,1.1c4.9,0.8,7.1,5.9,4,9.9
				c0.9-0.2,1.8-0.3,2.8-0.5c-0.8-3.6,1.1-8.1-2.5-10.5c-0.5-0.3-3.3,0.3-2.7,1c4.3,5.3,3.6,12.7-2.1,16.8c0.8-0.1,1.7-0.1,2.5-0.2
				c1.6-3.1,3.1-6.2,4.7-9.3c-1,0.2-1.9,0.3-2.9,0.5c-0.9,3.3-2.2,6.2-4.1,9c1-0.2,1.9-0.3,2.9-0.5c1.8-3,3.4-6.1,4.8-9.4
				c-1,0.2-1.9,0.3-2.9,0.5c-0.4,1.9-0.8,3.6-1.5,5.4c-0.2,0.7,2.5,0.1,2.9-0.5c1-1.7,2.1-3.4,3.1-5.1c0.3-0.5-2.4-0.1-2.7,0.3
				c-2,2.5-3.8,5.2-5.3,8c1-0.2,1.9-0.4,2.9-0.6c-0.2-3.5,0.3-6.7,1.3-10c-1,0.2-1.9,0.3-2.9,0.5c-1.1,4.5-2.4,9-4,13.4
				c-0.2,0.7,2.5,0.2,2.9-0.5c1.8-3.4,3.6-6.9,5.4-10.3c0.3-0.5-2.4-0.1-2.9,0.5c-1.5,2.2-3,4.4-4.5,6.7c1-0.2,1.9-0.3,2.9-0.5
				c0.8-2.6,3.7-10.8,0.3-12.2c-0.5-0.2-2.5,0.1-2.6,0.8c-0.6,4-1.7,7.8-3.2,11.6c1-0.2,1.9-0.3,2.9-0.5c0.9-4,1.2-7.9,1.1-12
				c0-0.8-2.5,0.3-2.8,0.5c-4.1,3.5-5.8,8.4-4.8,13.7c0.2,0.8,2.6-0.2,2.9-0.6c1.7-3.1,3.5-7.4,2.6-11c-0.1-0.1-0.1-0.2-0.3-0.2
				c-5-1.2-5.8,5.3-6.1,8.9c-0.2,2.2-0.8,5.4,2,5.5c1.3,0,2.3-0.7,3.1-1.6c2.7-3.2,3.9-13.8-2.8-12.8c-5.3,0.8-3.9,11-3.6,14.6
				c0.1,0.8,2.6-0.2,2.9-0.6c1.5-2.5,2.6-5.1,3.2-7.9c0.2-1,0.4-2,0.5-3c0.1-1.6-0.5-2-0.5-3.2c0,0-0.1-0.1-0.1-0.1
				c-1-0.4-0.5-1.1,1.2-2.3c2,0.2,1.3,5.6,1.2,6.2c-0.5,2.9-1.5,5.6-3.8,7.6c0.9-0.2,1.8-0.3,2.8-0.5c-1.1-3-1.4-8.1,1.3-10.5
				c6.3-5.3,2.6,14.8-2.3,8.3c-0.9-1.3-0.6-4.1-0.2-5.4c0.2-0.9,0.6-1.8,1.1-2.6c0.4-0.5,0.9-1.1,1.3-1.6c1.1,0.2,2.2,0.4,3.3,0.7
				c0.9,1-0.3,4.1-0.8,5.2c-1,2.5-2.9,5.6-5.4,6.7c0.7-0.1,1.5-0.2,2.2-0.3c-1.4-0.8-1.5-2.9-1.6-4.3c-0.2-1.4,0-2.7,0.5-4
				c0.2-1.2,0.9-1.4,2.1-0.9c2.8,0.1,1.7,1.9,0.9,3.9c-0.8,2-2.2,3.4-3.9,4.6c0.9-0.1,1.7-0.2,2.6-0.3c-0.5-4.3,0.7-8.1,3.5-11.3
				c-0.9,0.2-1.8,0.4-2.7,0.6c1.6,1.5-1.8,8.3-2.4,9.9c-0.2,0.6,2.6,0.3,2.9-0.5c0.8-2.2,4.5-8.4,2.3-10.4c-0.5-0.5-2.3,0.1-2.7,0.6
				c-3,3.4-4.3,7.4-3.8,11.9c0.1,0.7,2.3-0.1,2.6-0.3c2.6-1.8,7.7-7.5,4.7-10.8c-2-2.2-6.2-0.2-7.8,1.6c-1.8,2.1-3.4,10.7,0.8,10.9
				c3.4,0.2,6.6-4.9,7.8-7.5c1.5-3.2,2.2-8.6-2.9-8.1c-3.7,0.4-6.6,3.4-7.5,6.9c-0.9,3.3-0.4,8.3,3.9,7.6c4-0.6,7.5-4.1,7.8-8.2
				c0.3-4.2-2.1-7.5-6.1-5.2c-4.7,2.7-6.2,8.8-4.4,13.7c0.3,0.8,2.4-0.2,2.8-0.5c3.7-3.1,7.7-17.2-1.1-15.1c-1.7,0.4-5.1,2.3-4,4.4
				c0.3,0.5,1.2,0.6,1.5,1.1c0.6,1.1-0.2,4-0.5,5.1c-0.6,2.8-1.8,5.4-3.2,7.9c1-0.2,1.9-0.4,2.9-0.6c-0.3-3.6-1.2-10.4,1.4-13.3
				c-0.6,0.2-1.3,0.5-1.9,0.7c2.2-0.1,3.2,3,3.4,4.8c0.2,2-0.5,4.7-1.7,6.4c-0.7,1,0-0.4,0.1-1.1c0.2-1.2,0-2.5,0.1-3.8
				c0.2-2,0.5-5.6,2.3-6.9c-0.8,0.2-1.5,0.3-2.3,0.5c2.7,0.7-1.5,9.4-2.1,10.7c1-0.2,1.9-0.4,2.9-0.6c-1-5,0.6-9.7,4.5-13.1
				c-0.9,0.2-1.8,0.3-2.8,0.5c0.1,4-0.2,7.8-1,11.7c-0.2,0.8,2.6,0.2,2.9-0.5c1.5-3.8,2.6-7.6,3.2-11.6c-0.9,0.3-1.7,0.6-2.6,0.8
				c2.8,1.2-0.1,9.4-0.8,11.5c-0.2,0.8,2.5,0,2.9-0.5c1.5-2.2,3-4.4,4.5-6.7c-1,0.2-1.9,0.3-2.9,0.5c-1.8,3.4-3.6,6.9-5.4,10.3
				c1-0.2,1.9-0.3,2.9-0.5c1.6-4.4,2.9-8.8,4-13.4c0.2-0.7-2.6-0.2-2.9,0.5c-1.1,3.4-1.5,6.7-1.3,10.3c0,0.7,2.6-0.2,2.9-0.6
				c1.4-2.8,3.1-5.3,5.1-7.7c-0.9,0.1-1.8,0.2-2.7,0.3c-1,1.7-2.1,3.4-3.1,5.1c1-0.2,1.9-0.3,2.9-0.5c0.6-1.8,1.1-3.5,1.5-5.4
				c0.2-0.8-2.6-0.2-2.9,0.5c-1.4,3.3-3,6.4-4.8,9.4c-0.3,0.4,2.4,0.2,2.9-0.5c1.9-2.8,3.2-5.7,4.1-9c0.2-0.8-2.6-0.1-2.9,0.5
				c-1.6,3.1-3.1,6.2-4.7,9.3c-0.4,0.7,2.3,0,2.5-0.2c6.1-4.4,7.3-12.1,2.6-18c-0.9,0.3-1.8,0.7-2.7,1c3.5,2.2,1.6,6.8,2.4,10.2
				c0.2,0.7,2.5-0.1,2.8-0.5c3.4-4.4,1.3-10-4.3-10.9c-0.4-0.1-3.2,0.6-2.5,1.1c3.3,2.2,1.8,6.5,2.5,9.8c0.2,0.8,2.6-0.2,2.9-0.6
				c2.8-4.1,1-8.6-3.6-10c-0.4-0.1-3.2,0.4-2.5,1.1c1.7,1.8,2.6,3.6,3.1,6c0.1,0.7,2.8-0.1,2.9-0.8c0.4-4.2-3.3-5.7-6.7-6.8
				c-0.7,0.4-1.4,0.8-2.1,1.2c2.3,0.2,3.3,1,4.6,2.4c0.4,0.5,2.9-0.2,2.8-0.9c-0.3-5.2-11.4-4.3-9.7,0.4c0.3,0.7,2.7-0.1,2.9-0.6
				c0.6-0.8,1.2-1.6,1.8-2.4c-0.9,0.1-1.7,0.2-2.6,0.3c0,2.5-0.2,4.8-0.8,7.2c-0.2,0.7,2.6,0.2,2.9-0.5c0.7-2.2,0.8-4,0-6.2
				c-0.2-0.7-2.8,0-2.9,0.6c-0.3,2.4-0.4,4.7-0.3,7c0,0.6,2.8,0,2.9-0.6c0.4-1.8,0.5-3.5,0.3-5.4c0-0.2-0.4-0.2-0.5-0.2
				c-1.7-0.1-2.4,0-4,0.6c-0.2,0.1-1.1,0.4-0.9,0.8c1.1,2.3,2.5,4.1,5.3,3.6c1.8-0.3,3.8-1.5,3.2-3.6c-0.6-2.1-3-2.2-4.8-1.8
				c-3,0.6-4.5,2.8-5.6,5.5c-0.3,0.8,2.5,0,2.7-0.3c1.6-1.7,2.6-3.3,3.3-5.5c0.3-0.8-2.5,0-2.7,0.3c-1.6,1.7-2.2,3.3-2,5.6
				c0,0.7,2.7-0.2,2.9-0.6c0.9-1.9,1.7-3.7,2.4-5.7c0.3-0.8-2.3,0-2.5,0.2c-3,1.9-4.3,4.8-3.5,8.3c0.2,0.8,2.5-0.1,2.8-0.5
				c0.9-1.1,1.6-2.2,2.2-3.5c0.3-0.8-2.5,0.1-2.7,0.3c-3.8,3.3-3.4,7.8-2.7,12.4c1-0.3,1.9-0.5,2.9-0.8c-0.8-3.5-0.7-6.6,0.2-10
				c0.2-0.7-2.6-0.2-2.9,0.5c-1.6,3.9-0.9,12.6,4.1,13.9c2.3,0.6,6.3-0.8,5.2-3.8c-0.3-0.7-2.8,0-2.9,0.6c-0.3,2.4-2.9-2.5-2.9-2.6
				c-0.3-0.7-2.8,0.1-2.9,0.8c-0.2,3.1,1.3,5.4,4.5,4.6c3.5-0.9,3.8-3.8,3.1-7c-0.2-0.7-2.9,0-2.9,0.8c0,0.7-0.7,3.5-1.1,3.7
				c0.5,0,1,0,1.5,0c-3.1-1.8-2.2-9.3-0.9-11.8c-0.4,0.2-0.9,0.5-1.3,0.7c0.3-0.1,0.6-0.2,0.9-0.2c-0.5,0-1,0-1.5,0
				c3.5,1.8,1.1,8.3-0.1,10.9c1-0.2,1.9-0.4,2.9-0.6c-1.3-4.2-0.8-8.3,1.5-12.1c-1,0.2-1.9,0.4-2.9,0.6c1.2,4.2,0.2,8.1-1.1,12.2
				c1-0.2,1.9-0.3,2.9-0.5c0.7-4.1,1.8-8,3.3-11.8c-1,0.2-1.9,0.3-2.9,0.5c-1,3.4-1.3,6.6-1,10.2c0.1,0.8,2.6-0.2,2.9-0.6
				c1.7-3.3,2.1-6.6,1.3-10.3c-0.2-0.8-2.6,0.2-2.9,0.6c-2.3,3.7-2.9,7.5-1.7,11.7c0.2,0.8,2.6-0.2,2.9-0.6
				c2.3-3.8,2.9-7.8,1.7-12.1c-0.2-0.8-2.6,0.2-2.9,0.6c-1.2,2.1-5.4,12.2-1.2,13.2c4,0.9,6.7-5.2,7.2-8c0.6-3.6,0.3-8-4.4-6.3
				c-4.3,1.5-5.7,10.7-3,14c5,6,14.4-13.1,5.1-13.4c-4-0.1-7.3,3.1-7.8,6.9c-0.5,3.8,1,6.1,4.6,4.5
				C360.6,240,357.9,240.1,357.2,240.4L357.2,240.4z"/>
		</g>
	</g>
	<g>
		<g>
			<path class="st3" d="M358.2,240.8c0.1-1.1,0.4-2.1,0.9-3.1c-1,0.1-1.9,0.3-2.9,0.4c-0.7,1.7-1.3,3.5-1.7,5.4
				c1-0.2,1.9-0.4,2.9-0.6c0-1.8,0-3.5,0-5.3c0-0.7-2.8-0.1-2.9,0.6c-0.2,1.5-0.3,3.1-0.5,4.6c-0.1,0.9,2.8,0.4,2.9-0.4
				c0.2-1.5,0.3-3.1,0.5-4.6c-1,0.2-1.9,0.4-2.9,0.6c0,1.8,0,3.5,0,5.3c0,0.7,2.7,0.1,2.9-0.6c0.4-1.8,0.9-3.6,1.7-5.4
				c0.3-0.7-2.5-0.3-2.9,0.4c-0.5,1-0.8,2-0.9,3.1C355.2,242.1,358.1,241.6,358.2,240.8L358.2,240.8z"/>
		</g>
	</g>
	<g>
		<g>
			<path class="st4" d="M289.9,244.3c-2,0.8-3.6,2-4.8,3.9c-0.7,1.1,2.2,0.3,2.7-0.1c1.9-1.8,3.8-3.5,5.6-5.3c0.8-0.7-2-0.5-2.5-0.1
				c-2,1.6-3.5,3.4-4.7,5.7c-0.4,0.8,2.4,0.1,2.8-0.3c1.7-1.8,3.4-3.5,5.1-5.3c-0.9,0-1.8,0.1-2.7,0.1c-1.1,1.8-2.3,3.5-3.4,5.3
				c-0.7,1.1,2.1,0.3,2.5,0.1c1.9-1.3,3.4-2.7,4.9-4.4c-0.9,0-1.8,0.1-2.7,0.1c-1.2,1.6-2.3,3.1-3.5,4.7c-0.7,1,2.1,0.4,2.5,0.1
				c1.5-1.2,3-2.4,4.5-3.7c-0.8,0-1.6-0.1-2.5-0.1c-1.1,1.4-2.2,2.8-3.3,4.2c-0.8,1,2.1,0.4,2.5,0.1c1.2-0.9,2.3-1.9,3.5-2.8
				c-0.8,0-1.6-0.1-2.5-0.1c-1.2,1.2-2.3,2.3-3.5,3.5c-0.8,0.8,1.6,0.5,1.9,0.4c2.8-1,5-2.6,7-4.7c-0.9,0-1.8,0.1-2.7,0.1
				c-1.1,1.4-2.2,2.7-3.5,3.9c-1.2,1.1,1.7,0.7,2.3,0.3c1.5-1.2,3-2.2,4.6-3c-0.7-0.1-1.5-0.2-2.2-0.3c-1.2,1.2-2.4,2.4-3.6,3.6
				c-0.8,0.9,1.9,0.4,2.2,0.3c1.9-1,3.4-2.2,4.8-3.8c-0.9,0-1.8,0.1-2.7,0.1c-0.7,1-1.4,2.1-2.1,3.1c-0.7,1.1,2.1,0.3,2.5,0.1
				c1.2-0.8,2.4-1.6,3.6-2.3c-0.8,0-1.6-0.1-2.5-0.1c-0.5,0.8-1,1.7-1.5,2.5c-0.7,1.1,1.9,0.4,2.2,0.3c0.9-0.5,1.7-0.9,2.6-1.4
				c1.7-0.9-0.9-1-1.7-0.6c-0.9,0.5-1.7,0.9-2.6,1.4c0.7,0.1,1.5,0.2,2.2,0.3c0.5-0.8,1-1.7,1.5-2.5c0.7-1.1-2.1-0.3-2.5-0.1
				c-1.2,0.8-2.4,1.6-3.6,2.3c0.8,0,1.6,0.1,2.5,0.1c0.7-1,1.4-2.1,2.1-3.1c0.7-1-2.2-0.5-2.7,0.1c-1.1,1.3-2.3,2.3-3.9,3.1
				c0.7,0.1,1.5,0.2,2.2,0.3c1.2-1.2,2.4-2.4,3.6-3.6c0.8-0.9-1.9-0.4-2.2-0.3c-1.8,1-3.5,2.1-5.2,3.4c0.8,0.1,1.5,0.2,2.3,0.3
				c1.4-1.3,2.7-2.7,3.9-4.3c0.7-1-2.2-0.4-2.7,0.1c-1.6,1.7-3.3,2.9-5.4,3.7c0.6,0.1,1.2,0.3,1.9,0.4c1.2-1.2,2.3-2.3,3.5-3.5
				c0.8-0.8-2-0.5-2.5-0.1c-1.2,0.9-2.3,1.9-3.5,2.8c0.8,0,1.6,0.1,2.5,0.1c1.1-1.4,2.2-2.8,3.3-4.2c0.8-1-2.1-0.4-2.5-0.1
				c-1.5,1.2-3,2.4-4.5,3.7c0.8,0,1.6,0.1,2.5,0.1c1.2-1.6,2.3-3.1,3.5-4.7c0.7-0.9-2.2-0.5-2.7,0.1c-1.3,1.5-2.8,2.8-4.5,4
				c0.8,0,1.6,0.1,2.5,0.1c1.1-1.8,2.3-3.5,3.4-5.3c0.7-1.1-2.2-0.4-2.7,0.1c-1.7,1.8-3.4,3.5-5.1,5.3c0.9-0.1,1.8-0.2,2.8-0.3
				c1-2,2.3-3.6,4.1-4.9c-0.8,0-1.6-0.1-2.5-0.1c-1.9,1.8-3.8,3.5-5.6,5.3c0.9,0,1.8-0.1,2.7-0.1c0.9-1.3,1.6-2.2,3.2-2.9
				C292.9,244.4,291.1,243.8,289.9,244.3L289.9,244.3z"/>
		</g>
	</g>
	<g>
		<g>
			<path class="st5" d="M292.9,250c0.4-0.9,0.8-1.8,1.2-2.7c-0.2-0.5-0.5-0.9-0.7-1.4c-1.8,2-3.8,3.8-5.9,5.5c0.7,0.3,1.4,0.7,2.1,1
				c1.9-2.4,3.3-5,4.1-8c0.3-1.1-1.6-0.8-2.1-0.7c-2.7,1-4.7,2.8-6.1,5.3c-0.8,1.5,2.1,1.2,2.8,0.3c1.2-1.7,2.2-3.5,3.1-5.4
				c0.7-1.6-2-1-2.6-0.5c-1.8,1.6-3.2,3.3-4.4,5.3c-0.9,1.4,2,1.1,2.6,0.5c1.7-1.6,3.1-3.3,4.4-5.2c0.8-1.1-1.5-1.2-2-0.9
				c-1.8,0.9-3.1,2-4.2,3.7c-0.9,1.3,1.8,1.1,2.3,0.7c1.8-1.2,3.4-2.6,5-4.1c1.2-1.2-1.4-1.6-2.1-1c-1.7,1.2-2.9,2.6-3.9,4.4
				c-0.7,1.3,1.7,1.1,2.3,0.7c1.9-1.4,3.5-2.9,4.9-4.8c1.1-1.6-1.6-1.5-2.4-0.8c-1.6,1.4-2.7,2.9-3.6,4.9c-0.6,1.4,1.7,1.2,2.3,0.7
				c1.6-1.2,3.2-2.5,4.8-3.7c-0.8-0.2-1.5-0.5-2.3-0.7c-1.2,2.1-2.4,4.3-3.6,6.4c-0.8,1.3,1.7,1.1,2.3,0.7c1.9-1.4,3.9-2.7,5.8-4.1
				c-0.8-0.2-1.5-0.5-2.3-0.7c-0.9,1.4-1.8,2.8-2.7,4.2c-0.7,1.1,1.4,1.2,2,0.9c2.1-1.2,4-2.4,5.9-3.9c-0.8-0.2-1.6-0.3-2.4-0.5
				c-0.1,1.6-0.5,2.8-1.6,4c-1.1,1.3,1.4,1.7,2.1,1c1.3-1.1,2.7-2.1,4.2-3c-0.6-0.4-1.3-0.8-1.9-1.2c-1.4,1.1-2.6,2.3-3.6,3.7
				c-0.9,1.2,1,1.6,1.8,1.2c1.9-1,3.8-2.1,5.7-3.4c-0.7-0.3-1.4-0.7-2.1-1c-0.7,0.8-1.5,1.6-2.2,2.5c-1.2,1.3,1.4,1.5,2.1,1
				c1-0.7,2-1.4,3-2.1c-0.7-0.3-1.4-0.7-2.1-1c-1,1.1-2,2.2-3.1,3.2c-1.2,1.3,1.6,1.6,2.4,0.8c1-1.1,2-2.2,3.1-3.2
				c1.2-1.3-1.4-1.5-2.1-1c-1,0.7-2,1.4-3,2.1c0.7,0.3,1.4,0.7,2.1,1c0.7-0.8,1.5-1.6,2.2-2.5c1.2-1.4-1.4-1.5-2.1-1
				c-1.6,1.1-3.3,2.1-5,3c0.6,0.4,1.2,0.8,1.8,1.2c1-1.3,1.8-2.2,3.1-3.2c1.6-1.3-0.8-1.8-1.9-1.2c-1.5,0.9-2.9,1.8-4.2,3
				c0.7,0.3,1.4,0.7,2.1,1c1.3-1.5,2-3,2.2-5c0.1-1.2-1.8-0.9-2.4-0.5c-1.7,1.3-3.4,2.5-5.3,3.5c0.7,0.3,1.3,0.6,2,0.9
				c0.9-1.4,1.8-2.8,2.7-4.2c0.8-1.3-1.8-1.1-2.3-0.7c-1.9,1.4-3.9,2.7-5.8,4.1c0.8,0.2,1.5,0.5,2.3,0.7c1.2-2.1,2.4-4.3,3.6-6.4
				c0.7-1.3-1.7-1.2-2.3-0.7c-1.6,1.2-3.2,2.5-4.8,3.7c0.8,0.2,1.5,0.5,2.3,0.7c0.8-1.8,1.8-3.1,3.2-4.4c-0.8-0.3-1.6-0.5-2.4-0.8
				c-1.3,1.7-2.6,3.1-4.4,4.4c0.8,0.2,1.5,0.5,2.3,0.7c0.8-1.4,1.7-2.5,3-3.4c-0.7-0.3-1.4-0.7-2.1-1c-1.4,1.4-2.8,2.6-4.4,3.6
				c0.8,0.2,1.5,0.5,2.3,0.7c0.6-1.1,1.5-1.9,2.7-2.4c-0.7-0.3-1.3-0.6-2-0.9c-1.2,1.7-2.5,3.3-4,4.8c0.9,0.2,1.7,0.3,2.6,0.5
				c1.2-1.8,2.5-3.3,4.1-4.8c-0.9-0.2-1.7-0.3-2.6-0.5c-0.9,1.9-1.9,3.7-3.1,5.4c0.9,0.1,1.8,0.2,2.8,0.3c1-2,2.4-3.2,4.6-4
				c-0.7-0.2-1.4-0.4-2.1-0.7c-0.7,2.7-1.8,4.9-3.6,7c-1.1,1.4,1.3,1.6,2.1,1c2.3-1.8,4.5-3.7,6.5-5.9c0.6-0.7,0-1.3-0.7-1.4
				c-3.6-0.6-6.9,2.4-4.9,5.9C290.8,252.3,293.6,251.3,292.9,250L292.9,250z"/>
		</g>
	</g>
	<g>
		<g>
			<path class="st6" d="M356.9,253.5c1.1-0.5,2.1-0.9,3.2-1.2c-0.3-0.5-0.5-0.9-0.8-1.4c-2.2,1-3.9,2.3-5.3,4.2
				c-0.9,1.2,2.1,0.7,2.5,0.3c1.5-1.2,3.1-2.3,4.8-3.2c-0.5-0.4-1-0.7-1.5-1.1c-1.9,1.1-3.4,2.4-4.7,4.2c-0.9,1.2,1.9,0.7,2.3,0.5
				c2.1-1.1,4.2-2.4,6.2-3.8c-0.7-0.2-1.4-0.5-2.1-0.7c-1.4,1.2-2.8,2.2-4.4,3.2c-1.5,0.9,0.5,1.6,1.5,1.1c2-1,3.9-2.1,5.8-3.5
				c-0.8-0.2-1.5-0.3-2.3-0.5c-0.9,1.1-1.7,1.9-2.8,2.7c-1.2,0.9,0.1,1.6,1.1,1.2c1.9-0.7,3.8-1.4,5.6-2.4c-0.6-0.3-1.2-0.6-1.8-0.9
				c-1.5,1-2.9,2-4.2,3.2c-1.3,1.2,1.5,1.1,2.1,0.7c1.4-0.8,2.9-1.6,4.3-2.4c-0.7-0.2-1.4-0.5-2.1-0.7c-1,0.8-2,1.5-3,2.3
				c-1.3,1,1.5,1.1,2.1,0.7c1.5-0.8,2.9-1.6,4.4-2.5c-0.6-0.3-1.2-0.6-1.8-0.9c-1.4,0.9-2.6,1.8-3.9,2.9c-1.3,1.2,1.5,1.1,2.1,0.7
				c1.3-0.7,2.6-1.4,3.9-2c-0.5-0.4-1-0.7-1.5-1.1c-1.3,0.9-2.4,1.8-3.4,3.1c-0.9,1.1,1.9,0.7,2.3,0.5c1.8-1,3.5-1.9,5.3-2.9
				c1.6-0.8-0.5-1.5-1.5-1.1c-1.5,0.7-2.6,1.5-3.8,2.7c-1.2,1.3,1.4,1.1,2.1,0.7c1.2-0.7,2.4-1.4,3.7-2.1c-0.7-0.2-1.4-0.5-2.1-0.7
				c-1.1,1-2.3,1.9-3.5,2.8c-1.7,1.1,0.9,1.4,1.8,0.9c1-0.5,1.9-1,2.9-1.6c-0.6-0.3-1.2-0.6-1.8-0.9c-0.1,0.1-0.2,0.1-0.3,0.2
				c-0.3,0.2-0.6,0.4-0.5,0.8c0.4,2.7,3.9,0.1,4.8-0.6c-0.6,0.2-1.1,0.4-1.7,0.6c0.2,0,0.4,0,0.7,0c1.1,0,3.1-1.7,1.1-1.7
				c-1.8,0-2.1,0.9-3.6,1.4c0.6,0,1.2-0.1,1.7-0.1c0-0.1-0.1-0.2-0.1-0.4c-0.2,0.3-0.4,0.6-0.5,0.8c0.1-0.1,0.2-0.1,0.3-0.2
				c1.6-1.2-0.9-1.4-1.8-0.9c-1,0.5-1.9,1-2.9,1.6c0.6,0.3,1.2,0.6,1.8,0.9c1.4-1,2.8-2,4.1-3.2c1.3-1.2-1.5-1.1-2.1-0.7
				c-1.2,0.7-2.4,1.4-3.7,2.1c0.7,0.2,1.4,0.5,2.1,0.7c0.7-0.9,1.5-1.6,2.6-2c-0.5-0.4-1-0.7-1.5-1.1c-1.8,1-3.5,1.9-5.3,2.9
				c0.8,0.2,1.5,0.3,2.3,0.5c0.7-0.9,1.5-1.7,2.5-2.2c1.5-1-0.5-1.5-1.5-1.1c-1.6,0.7-3.1,1.5-4.5,2.4c0.7,0.2,1.4,0.5,2.1,0.7
				c1-1,2.1-1.8,3.3-2.5c1.7-1-0.9-1.5-1.8-0.9c-1.5,0.8-2.9,1.6-4.4,2.5c0.7,0.2,1.4,0.5,2.1,0.7c1-0.8,2-1.5,3-2.3
				c1.3-1-1.5-1.1-2.1-0.7c-1.4,0.8-2.9,1.6-4.3,2.4c0.7,0.2,1.4,0.5,2.1,0.7c1.2-1,2.4-2,3.7-2.8c1.7-1.1-0.9-1.4-1.8-0.9
				c-1.4,0.7-2.7,1.3-4.2,1.8c0.4,0.4,0.7,0.8,1.1,1.2c1.4-1,2.6-2.2,3.7-3.6c0.8-1.1-1.8-0.8-2.3-0.5c-1.6,1.2-3.3,2.3-5.1,3.2
				c0.5,0.4,1,0.7,1.5,1.1c1.8-1,3.4-2.2,4.9-3.6c1.2-1.1-1.4-1.2-2.1-0.7c-2,1.4-4,2.7-6.2,3.8c0.8,0.2,1.5,0.3,2.3,0.5
				c1.1-1.4,2.2-2.4,3.8-3.3c1.5-0.9-0.5-1.6-1.5-1.1c-2.1,1.1-4.1,2.4-6,3.9c0.8,0.1,1.7,0.2,2.5,0.3c1.1-1.4,2.2-2.3,3.8-3
				c1.5-0.7,0.6-1.8-0.8-1.4c-1.3,0.4-2.7,0.9-4,1.5C353.9,253,355.6,254,356.9,253.5L356.9,253.5z"/>
		</g>
	</g>
	<g>
		<g>
			<path class="st6" d="M359.8,250.8c-1.5,1-3,2.1-4.5,3.1c-1.2,0.8,1.2,0.6,1.6,0.4c1.9-0.8,3.5-1.8,4.9-3.3c0.7-0.7-2.1-0.3-2.4,0
				c-1.6,1.3-3.2,2.5-4.8,3.8c0.8,0,1.6,0,2.4,0c0.8-1,1.7-2.1,2.5-3.1c0.7-0.9-2.1-0.2-2.4,0c-1.4,0.9-2.7,1.9-4,3.1
				c0.9-0.1,1.8-0.1,2.6-0.2c0.9-0.8,1.7-1.7,2.6-2.5c0.7-0.7-2.1-0.3-2.4,0c-1.1,0.8-2.2,1.6-3.3,2.4c0.8,0,1.6,0,2.4,0
				c1-1,2-1.9,3-2.9c0.7-0.7-2.1-0.2-2.4,0c-1.1,0.8-2.1,1.6-3,2.6c-0.7,0.8,1.9,0.3,2.2,0.1c1.5-0.7,3.1-1.5,4.6-2.2
				c-0.7,0-1.4-0.1-2.2-0.1c-0.6,0.8-1.2,1.5-1.9,2.3c-0.7,0.9,1.9,0.3,2.2,0.1c1.5-0.7,3-1.4,4.5-2.2c-0.7,0-1.4-0.1-2.2-0.1
				c-0.5,0.5-1,1-1.6,1.5c-0.6,0.6,0.9,0.5,1.1,0.5c1.8-0.2,3.3-0.8,4.8-1.7c-0.8,0-1.6,0-2.4,0c-0.6,0.8-1.2,1.5-1.7,2.3
				c-0.7,0.9,1.9,0.3,2.2,0.1c1.7-0.8,3.3-1.6,5-2.4c-0.7,0-1.4-0.1-2.2-0.1c-0.9,0.7-1.6,1.5-2.2,2.5c-0.3,0.6,1.5,0.3,1.6,0.3
				c1.3-0.3,2.3-0.8,3.4-1.5c-0.8,0-1.6,0-2.4,0c-0.4,0.4-0.7,0.8-1.1,1.2c-0.3,0.4,0.1,0.5,0.4,0.5c1.9,0.2,3.5-0.3,4.9-1.5
				c-0.9,0.1-1.8,0.1-2.6,0.2c-0.6,0.6-1.8,1.4-1.9,2.3c0.1,0.1,0.1,0.2,0.3,0.2c0.1,0,0.2,0,0.2,0c0.6,0.1,2.4-0.1,2.6-0.8
				c0-0.1,0-0.1,0-0.2c0.2-0.7-2.7-0.3-2.9,0.5c0,0.1,0,0.1,0,0.2c0.9-0.3,1.7-0.6,2.6-0.8c0.2,0,1.6-1.6,1.6-1.6
				c0.7-0.7-2.1-0.3-2.6,0.2c-0.1,0-0.3,0.1-0.4,0.1c0.1,0.2,0.3,0.4,0.4,0.5c0.4-0.4,0.7-0.8,1.1-1.2c0.8-0.9-2.1-0.2-2.4,0
				c-0.5,0.2-1,0.4-1.5,0.6c0.5,0.1,1,0.2,1.6,0.3c0.6-1,1.1-1.5,2-2.2c0.8-0.6-1.9-0.3-2.2-0.1c-1.7,0.8-3.3,1.6-5,2.4
				c0.7,0,1.4,0.1,2.2,0.1c0.6-0.8,1.2-1.5,1.7-2.3c0.7-0.9-2.1-0.2-2.4,0c-0.7,0.2-1.4,0.5-2,0.7c0.4,0.2,0.7,0.3,1.1,0.5
				c0.5-0.5,1-1,1.6-1.5c0.8-0.8-1.9-0.3-2.2-0.1c-1.5,0.7-3,1.4-4.5,2.2c0.7,0,1.4,0.1,2.2,0.1c0.6-0.8,1.2-1.5,1.9-2.3
				c0.7-0.9-1.9-0.3-2.2-0.1c-1.5,0.7-3.1,1.5-4.6,2.2c0.7,0,1.4,0.1,2.2,0.1c0.8-0.9,1.5-1.6,2.6-2.3c-0.8,0-1.6,0-2.4,0
				c-1,1-2,1.9-3,2.9c-0.7,0.7,2.1,0.3,2.4,0c1.1-0.8,2.2-1.6,3.3-2.4c-0.8,0-1.6,0-2.4,0c-0.9,0.8-1.7,1.7-2.6,2.5
				c-0.7,0.6,2.1,0.3,2.6-0.2c1.1-1.1,2.3-2,3.6-2.8c-0.8,0-1.6,0-2.4,0c-0.8,1-1.7,2.1-2.5,3.1c-0.7,0.8,2.1,0.3,2.4,0
				c1.6-1.3,3.2-2.5,4.8-3.8c-0.8,0-1.6,0-2.4,0c-1,1-2,1.8-3.3,2.4c0.5,0.1,1.1,0.3,1.6,0.4c1.5-1,3-2.1,4.5-3.1
				C363.2,250.1,360.4,250.4,359.8,250.8L359.8,250.8z"/>
		</g>
	</g>
	<g>
		<g>
			<path class="st2" d="M313.3,245.4c-4.5-5.3-11.7-5.3-17.8-3.1c-2.3,0.8-6.2,2.6-4.9,5.6c0.9,2.3,3.7,4.4,5.7,5.9
				c2.1,1.6,15.5-1.5,14.1-4.4c-2-3.9-5.4-6.3-9.7-6.8c-2.9-0.4-5.8,0.2-8.5,1.2c-0.8,0.3-5.6,2.1-4.7,3.6c1.7,3.1,3.9,5.8,6.6,8
				c2.2,1.8,15.5-1.9,14.1-4.4c-1.8-3.1-3.9-6-6.2-8.7c-1.1-1.2-2.3-2.9-3.8-3.6c-2.1-1.1-5.3-0.4-7.4,0.2c-3.2,0.8-7.8,2.3-7.2,6.2
				c0.5,3.5,2.4,6.8,4.5,9.6c1.6,2,5.8,0.9,7.9,0.3c1.8-0.5,6.6-1.7,6.6-4.2c0-3.6-1.7-6.8-4.6-8.9c-1.8-1.3-5.6-0.3-7.4,0.2
				c-1.8,0.5-5.8,1.5-6.5,3.5c-2.1,5.7,1.5,11.8,7.7,12c4,0.2,10.1-1,13-4.1c2.3-2.5-0.2-5.3-2.1-7.2c-2.4-2.5-15.9,2.2-13.6,4.9
				c1.2,1.5,2.5,2.7,3.9,3.9c2.2,1.7,7.1,0,9.3-0.8c0.9-0.3,6.3-2.5,4.3-4.1c-1.5-1.2-2.7-2.4-3.9-3.9c-4.5,1.6-9.1,3.3-13.6,4.9
				c0.7,0.7,1.1,1.6,1.7,2.3c1.2,1.2-1,1.9,2.5,0c1.8-0.6,3.7-1.1,5.5-1.7c3.4-0.7,2.9,0.4,1.4-0.9c-0.8-0.7-1.3-1.5-1.7-2.5
				c-0.8-1.8-0.8-3.6-0.2-5.4c-4.7,1.2-9.3,2.5-14,3.7c2.6,1.9,3.8,4.6,3.8,7.8c4.8-1.3,9.7-2.6,14.5-3.9c-1.2-1.6-2.3-3.3-3.1-5.2
				c-0.6-1.3-1.9-4-1.4-5.5c-1,0.7-2,1.5-3,2.2c0.2-0.1,0.3-0.2,0.5-0.3c-3.7,0.5-7.3,1-11,1.5c3.9,2.2,6.9,7.5,9.1,11.3
				c4.7-1.5,9.4-2.9,14.1-4.4c-2.4-2-4.3-4.2-5.8-7c-4.4,1.6-8.8,3.2-13.2,4.8c3.2,0.4,5.7,2.2,7.2,5.1c4.7-1.5,9.4-2.9,14.1-4.4
				c-1.9-1.4-5.2-3.6-5.1-6.3c-0.2,0.5-0.5,0.9-0.7,1.4c0.1-0.2,0.3-0.4,0.4-0.5c-2,0.9-4,1.9-6,2.8c0.2-0.1,0.3-0.1,0.5-0.2
				c-1.8,0.2-3.5,0.5-5.3,0.7c2.3,0.1,4.4,1.9,5.8,3.6C302,253.1,315.6,248,313.3,245.4L313.3,245.4z"/>
		</g>
	</g>
	<g>
		<g>
			<path class="st6" d="M292.6,242.6c-1.7,1-3.1,2.1-4.4,3.5c0.8,0.3,1.6,0.5,2.4,0.8c1.1-1.4,2.3-2.5,3.9-3.3
				c-0.5-0.5-1.1-1-1.6-1.5c-1,0.7-1.9,1.4-2.7,2.3c-1.2,1.2,1.3,1.7,2.2,1c0.8-0.7,1.6-1.3,2.5-1.8c1.7-1,0.2-2.3-1.3-1.7
				c-0.3,0.1-0.6,0.3-0.9,0.4c-1,0.4-1.1,1.7,0.1,1.9c1.1,0.2,2.2-0.1,2.8-1.2c0.1-0.2,0.1-0.6-0.1-0.8c-0.2-0.3-0.4-0.7-0.6-0.3
				c-0.7,0.3-1.5,0.5-2.2,0.8c0,0,0.1,0,0.1,0.1c0-0.5-0.1-1.1-0.1-1.6c-1.1,0.7-1.8,1.5-2.4,2.5c-0.7,1.2,1.4,1.3,2,1
				c0.7-0.4,1.5-0.7,2.3-0.8c-0.3-0.6-0.5-1.1-0.8-1.7c-0.8,0.7-1.6,1.4-2.5,2.1c-1.1,1,0,1.9,1.2,1.6c1.4-0.4,2.6-0.9,3.8-1.6
				c-0.5-0.5-1.1-1-1.6-1.5c-1,0.6-1.9,1.3-2.9,1.9c-1.5,1,0.5,2,1.6,1.5c1.3-0.6,2.7-1.2,4-1.8c-0.6-0.4-1.2-0.8-1.8-1.2
				c-1,1-2.1,1.8-3.4,2.4c-1.6,0.7-0.5,2.1,0.9,1.8c1.9-0.5,3.6-1.3,5-2.6c1.3-1.2-0.4-2-1.6-1.5c-1.7,0.8-3.3,1.8-4.8,3.1
				c-1.4,1.2,0.4,1.9,1.6,1.5c1.7-0.7,3.4-1.6,5-2.6c-0.6-0.4-1.3-0.9-1.9-1.3c-1.2,1-2.5,1.9-3.7,2.9c-1.2,0.9,0.1,2,1.2,1.6
				c1.9-0.6,3.6-1.4,5.3-2.5c-0.6-0.4-1.3-0.9-1.9-1.3c-0.9,0.7-1.9,1.5-2.8,2.2c-1.4,1.1,0.5,2,1.6,1.5c1.7-0.8,3.4-1.7,5.1-2.5
				c-0.5-0.5-1.1-1-1.6-1.5c-1.4,0.9-2.8,1.9-4.2,2.8c-1.3,0.9,0.1,2,1.2,1.6c1.2-0.4,2.3-0.9,3.3-1.7c1.6-1.2-0.8-2.1-1.9-1.3
				c-0.7,0.5-1.4,1-2.2,1.5c-1.6,1.1,0.8,2,1.9,1.3c1-0.6,2-1.1,3-1.5c-0.6-0.4-1.2-0.8-1.8-1.2c-0.7,0.7-1.5,1.2-2.4,1.5
				c-1.7,0.6-1.3,2.5,0.5,1.9c1.5-0.5,2.8-1.1,4.1-1.9c1.3-0.9-0.1-1.9-1.2-1.6c-1.6,0.5-3,1.2-4.2,2.4c-0.3,0.3-0.3,0.7-0.1,1
				c0,0.1,0.1,0.2,0.1,0.2c0.2,0.4,0.8,0.4,1.2,0.4c0.8,0,1.4-0.2,1.9-0.9c0.3-0.4,0.3-0.6,0.1-1c-0.4-0.7-1.1-0.9-1.9-0.8
				c-0.4,0-0.8,0.1-1.1,0.3c-0.1,0.1-1,0.9-0.8,0.9c0.2,0.6,0.3,1.2,0.5,1.9c1.3-0.5,2.5-1.2,3.6-2.1c1.4-1.1-0.5-2.1-1.6-1.5
				c-1.7,0.9-3.3,1.8-5,2.7c-1.7,1-0.2,2.4,1.3,1.7c1.7-0.8,3.1-1.9,4.2-3.4c0.9-1.3-1-1.7-1.8-1.2c-1.2,0.6-2.5,1.2-3.7,1.8
				c0.6,0.4,1.2,0.8,1.8,1.2c0.7-0.7,1.3-1.1,2.1-1.5c-0.4-0.6-0.8-1.1-1.3-1.7c-1.6,0.6-3.1,1.4-4.5,2.4c-1.5,1,0.5,2,1.6,1.5
				c1.9-0.9,3.5-2.1,4.8-3.7c0.9-1.1-0.6-1.5-1.5-1.4c-1.8,0.3-3.2,1.1-4.6,2.3c0.7,0.3,1.4,0.7,2.2,1c1-1,2-2,3-3
				c1.1-1.1-1.1-1.6-1.8-1.2c-1.9,1-3.7,2.2-5.3,3.7c-1.3,1.1,1.3,1.7,2.2,1c1.4-1.1,2.5-2.3,3.5-3.8c0.9-1.3-1.8-1.3-2.3-0.8
				c-1.1,0.9-2.2,1.7-3.3,2.6c0.7,0.3,1.4,0.7,2.2,1c1-1,2-2.1,2.9-3.1c0.9-1-0.6-1.6-1.5-1.4c-1.1,0.3-2.1,0.7-3.1,1.3
				c-1.7,0.9-0.2,2.4,1.3,1.7c0.8-0.4,1.5-0.7,2.3-1c-0.5-0.5-1-0.9-1.5-1.4c-1,1-2,2.1-2.9,3.1c-1.2,1.3,1.3,1.7,2.2,1
				c1.1-0.9,2.2-1.7,3.3-2.6c-0.8-0.3-1.6-0.5-2.3-0.8c-0.7,1.1-1.6,2-2.6,2.8c0.7,0.3,1.4,0.7,2.2,1c1.2-1.1,2.6-2.1,4.1-2.8
				c-0.6-0.4-1.2-0.8-1.8-1.2c-1,1-2,2-3,3c-1.2,1.2,1.3,1.8,2.2,1c1-0.9,1.9-1.4,3.2-1.6c-0.5-0.5-1-0.9-1.5-1.4
				c-1,1.3-2.1,2.2-3.6,2.9c0.5,0.5,1.1,1,1.6,1.5c1.2-0.8,2.5-1.5,3.9-2c1.8-0.7,0.2-2.2-1.3-1.7c-1.3,0.5-2.3,1.3-3.3,2.3
				c-1.1,1.2,1,1.6,1.8,1.2c1.2-0.6,2.5-1.2,3.7-1.8c-0.6-0.4-1.2-0.8-1.8-1.2c-0.8,1.1-1.8,2-3.1,2.6c0.4,0.6,0.8,1.1,1.3,1.7
				c1.7-0.9,3.3-1.8,5-2.7c-0.5-0.5-1.1-1-1.6-1.5c-0.9,0.7-1.9,1.3-3,1.7c-1.3,0.5-0.9,2,0.5,1.9c0.5-0.1,1-0.1,1.5-0.4
				c0.2-0.1,0.4-0.3,0.6-0.4c0.5-0.3,0.3-0.5-0.6-0.4c0-0.3,0.1-0.7,0.1-1c-0.1,0.1-0.1,0.2-0.2,0.3c0.4-0.2,0.9-0.4,1.3-0.6
				c-0.1,0-0.2,0-0.3,0c0.4,0.1,0.8,0.3,1.2,0.4c0-0.1-0.1-0.2-0.1-0.2c0,0.3-0.1,0.7-0.1,1c0.7-0.6,1.4-1,2.3-1.3
				c-0.4-0.5-0.8-1.1-1.2-1.6c-0.9,0.6-1.7,1-2.7,1.3c0.2,0.6,0.3,1.3,0.5,1.9c1.7-0.6,3.1-1.4,4.3-2.7c1.2-1.2-1.1-1.5-1.8-1.2
				c-1.3,0.5-2.5,1.2-3.7,1.9c0.6,0.4,1.3,0.9,1.9,1.3c0.7-0.5,1.4-1,2.2-1.5c-0.6-0.4-1.3-0.9-1.9-1.3c-0.6,0.5-1.2,0.8-1.9,1
				c0.4,0.5,0.8,1.1,1.2,1.6c1.4-0.9,2.8-1.9,4.2-2.8c1.5-1-0.5-2-1.6-1.5c-1.7,0.8-3.4,1.7-5.1,2.5c0.5,0.5,1.1,1,1.6,1.5
				c0.9-0.7,1.9-1.5,2.8-2.2c1.6-1.3-0.8-2-1.9-1.3c-1.2,0.8-2.5,1.4-3.9,1.8c0.4,0.5,0.8,1.1,1.2,1.6c1.2-1,2.5-1.9,3.7-2.9
				c1.6-1.3-0.8-2-1.9-1.3c-1.4,0.9-2.8,1.6-4.3,2.2c0.5,0.5,1.1,1,1.6,1.5c1.3-1.1,2.6-2,4.1-2.7c-0.5-0.5-1.1-1-1.6-1.5
				c-1.1,1-2.2,1.6-3.7,2c0.3,0.6,0.6,1.2,0.9,1.8c1.7-0.8,3.2-1.8,4.5-3.2c1.1-1.2-1.1-1.6-1.8-1.2c-1.3,0.6-2.7,1.2-4,1.8
				c0.5,0.5,1.1,1,1.6,1.5c1-0.6,1.9-1.3,2.9-1.9c1.5-1-0.5-2.1-1.6-1.5c-1,0.6-2,1-3.1,1.3c0.4,0.5,0.8,1.1,1.2,1.6
				c0.8-0.7,1.6-1.4,2.5-2.1c0.9-0.8,0.4-1.9-0.8-1.7c-1.4,0.2-2.6,0.6-3.8,1.2c0.7,0.3,1.3,0.7,2,1c0.4-0.7,0.9-1.2,1.6-1.5
				c0.7-0.4,0.7-1.3-0.1-1.6c0,0-0.1,0-0.1-0.1c-0.7-0.3-1.9,0.1-2.2,0.8c-0.2,0.4,0.1,2,0.5,1.3c0.4-0.3,0.7-0.5,1.1-0.8
				c0,0,0,0,0,0c0,0.6,0.1,1.2,0.1,1.9c0.3-0.1,0.6-0.3,0.9-0.4c-0.4-0.6-0.8-1.1-1.3-1.7c-1.1,0.6-2.2,1.3-3.2,2.2
				c0.7,0.3,1.4,0.7,2.2,1c0.7-0.7,1.4-1.2,2.2-1.8c1.5-1-0.5-2-1.6-1.5c-2,1-3.7,2.3-5,4.1c-1.1,1.5,1.6,1.7,2.4,0.8
				c1-1.1,2-1.9,3.3-2.7C295.6,243.3,294,241.8,292.6,242.6L292.6,242.6z"/>
		</g>
	</g>
</g>
<g id="Слой_1">
	<g>
		<g>
			<path d="M274.9,189.2c-1.2,29.4-3.3,58.7-6.3,88c-0.1,1.3,2.8,0.8,2.9-0.3c3-29.3,5.1-58.6,6.3-88
				C277.9,187.5,275,188.1,274.9,189.2L274.9,189.2z"/>
		</g>
	</g>
	<g>
		<g>
			<path d="M278.5,189c44.1-0.7,86.5,9.8,129.8,16.1c1.2,0.2,3-1.5,1.1-1.8c-43.3-6.4-85.8-16.8-129.8-16.1
				C278.3,187.2,276.5,189,278.5,189L278.5,189z"/>
		</g>
	</g>
	<g>
		<g>
			<path d="M410.9,205c-1.3,26.1-10.5,51.1-11,77.3c0,1.5,2.9,1.1,2.9-0.2c0.5-26.2,9.7-51.2,11-77.3
				C413.9,203.3,411,203.6,410.9,205L410.9,205z"/>
		</g>
	</g>
	<g>
		<g>
			<path d="M268.2,276.1c21.9,3.1,44.1,4.3,66.1,6.9c22.7,2.7,45.2,6.8,67.5,12.2c1,0.2,3.4-1.3,1.8-1.7
				c-21.2-5.1-42.6-9.1-64.3-11.8c-23.1-2.9-46.3-4-69.3-7.3C269,274.3,266.6,275.9,268.2,276.1L268.2,276.1z"/>
		</g>
	</g>
	<g>
		<g>
			<path d="M266.9,274.7c-11.7,10.6-23.4,21.2-35.2,31.8c-1.3,1.2,1.5,1.6,2.4,0.8c11.7-10.6,23.4-21.2,35.2-31.8
				C270.6,274.2,267.7,273.9,266.9,274.7L266.9,274.7z"/>
		</g>
	</g>
	<g>
		<g>
			<path d="M406.2,294.6c-1.3-1.6-2.6-3.2-3.9-4.8c-0.5-0.6-3.1,0.1-2.8,0.9c4,11.7,9,22.9,15,33.7c0.5,0.9,3.3-0.1,2.9-0.8
				c-6-10.8-11-22-15-33.7c-0.9,0.3-1.9,0.6-2.8,0.9c1.3,1.6,2.6,3.2,3.9,4.8C404,296.4,406.8,295.4,406.2,294.6L406.2,294.6z"/>
		</g>
	</g>
	<g>
		<g>
			<path d="M232.3,312.1c62,7.1,124.1,14.2,186.1,21.2c1.2,0.1,3-1.5,1.1-1.7c-62-7.1-124.1-14.2-186.1-21.2
				C232.2,310.2,230.4,311.9,232.3,312.1L232.3,312.1z"/>
		</g>
	</g>
	<g>
		<g>
			<path d="M251.3,305.4c4.4-12.2,15.7-19.2,28-21.7c14.6-2.9,29.2,1.5,43.2,5.4c6.8,1.9,13.5,3.8,20.5,4.9
				c7.3,1.2,14.8,1.4,22.2,1.9c6.8,0.5,19.4,0.3,23.9,6.3c3.4,4.4,2,10.9,5.2,15.5c0.5-0.5,1-1.1,1.5-1.6
				c-26.5,1.2-53.1-0.5-79.2-5.2c-12.7-2.3-25.1-5.8-37.7-8.6c-10.2-2.2-20.5-3-30.3,1c-1.8,0.7-0.2,2.2,1.3,1.6
				c12.6-5.1,26.1-1.2,38.6,2c11.5,3,23,5.4,34.7,7.2c24,3.8,48.2,5,72.5,3.9c0.7,0,2.1-0.8,1.5-1.6c-3.4-5-1.6-12.3-6.2-16.7
				c-4.9-4.7-14.6-5-20.8-5.6c-9.2-0.9-18.5-0.9-27.6-2.5c-9.1-1.6-17.8-4.5-26.7-6.9c-13.6-3.6-27.6-6-41.4-1.9
				c-11.3,3.4-21.5,10.7-25.6,22.1C248,306.7,250.8,306.6,251.3,305.4L251.3,305.4z"/>
		</g>
	</g>
	<g>
		<g>
			<path d="M283.8,200.1c-2.5,22-4.4,44-5.6,66.1c0,0.4,0.2,0.5,0.6,0.6c20.8,4.7,41.8,8.7,62.8,11.9c10.9,1.7,21.7,3.1,32.7,4.4
				c4.5,0.5,13.1,3.2,16-2c1.8-3.2,1.5-8.5,2.1-12.1c0.9-5.7,1.7-11.5,2.6-17.2c1.5-9.7,4.2-20.1,4.2-30c0-8.3-6.8-11.5-13.7-13.9
				c-8.6-3-17.7-3.8-26.6-4.9c-24.4-2.9-48.7-5.7-73.1-8.6c-0.9-0.1-3.4,1.4-1.8,1.6c23.1,2.7,46.1,5.4,69.2,8.1
				c10.6,1.2,21.6,1.9,31.6,5.8c5,1.9,10.6,4.5,11.4,10.4c0.8,5.3-1,11.4-1.8,16.7c-1.7,11.5-3.4,22.9-5.1,34.4
				c-0.4,2.3-0.3,5.4-1.1,7.6c-1.5,4-4.4,3.4-8.1,3c-6.1-0.7-12.2-1.4-18.3-2.2c-22.7-3-45.4-6.9-67.8-11.6c-3.1-0.6-6.5-1-9.5-2.1
				c-4-1.5-3-4.1-2.8-8c0.4-6.5,0.9-13,1.4-19.5c1-13,2.3-25.9,3.8-38.8C286.8,198.6,283.9,199.1,283.8,200.1L283.8,200.1z"/>
		</g>
	</g>
	<g>
		<g>
			<path d="M302,218.9c-3.4,6.5-8.3,21.3,3.5,22.8c9.7,1.3,14.3-8.8,15-16.8c0.4-4.4-0.6-9.1-5.5-10.2c-2.9-0.7-6.1,0.1-8.6,1.6
				c-6.2,3.5-17.3,17.2-6.8,22.2c0.8,0.4,3.1-0.8,2.7-1c-7.2-3.5-3.1-11.8,0.7-16.2c1-1.2,2.8-3.4,4.2-4c2.5-0.2,5.1-0.4,7.6-0.5
				c0.7,0.4,1.3,1.1,1.6,1.9c1.7,2.7,1.4,6.2,0.9,9.3c-0.4,2.7-1.1,5.6-2.5,7.9c-1.8,3-7.5,5.6-10.6,3.3c-1.3-1-2.2-2.4-2.8-3.9
				c-2.3-5.7,0.8-11.7,3.4-16.7C305.1,217.9,302.4,218.1,302,218.9L302,218.9z"/>
		</g>
	</g>
	<g>
		<g>
			<path d="M356.1,227.4c-1.4-1.8-3.6-1.8-5.1-0.1c-1.5,1.6-2.5,6.8-2.7,8.9c-0.2,2.3,0,4.6,1,6.6c1.6,3.4,5.1,5.8,8.9,5.2
				c4.1-0.6,6.8-4.2,9-7.3c2.8-4,5.4-8.9,3.7-13.9c-1.4-4-5.2-6-9.3-6c-8.8-0.1-15.9,7.7-16.2,16.3c-0.1,1.4,2.9,1,2.9-0.3
				c0.2-4.6,2.1-9,6-11.7c6.3-4.5,15.2-1.4,14.1,7.1c-0.7,4.9-7.8,17.7-14.8,11.9c-2.2-1.9-2.6-5.4-2.3-8.1c0.1-1.1,2.3-7.3,2.3-7.3
				C354.2,229.7,357,228.6,356.1,227.4L356.1,227.4z"/>
		</g>
	</g>
	<g>
		<g>
			<path d="M289.1,245.2c1.3-1.3,2.7-2.7,4-4c0.4-0.4,0.4-0.8-0.2-0.9c-0.6-0.1-1.6,0.1-2,0.5c-1.3,1.3-2.7,2.7-4,4
				c-0.4,0.4-0.4,0.8,0.2,0.9C287.7,245.9,288.7,245.6,289.1,245.2L289.1,245.2z"/>
		</g>
	</g>
	<g>
		<g>
			<path d="M286.7,247.7c0.6,1,0.9,2.1,0.9,3.2c1-0.2,1.9-0.3,2.9-0.5c-0.1-0.8,0.5-2.1,1.4-2.2c0.6-0.1,1.5-0.4,1.6-1.2
				c0.1-0.7-0.8-1.1-1.4-1c-2.6,0.3-4.8,2.4-4.5,5.2c0.1,1.3,2.9,0.7,2.9-0.5c0-1.5-0.4-2.9-1.2-4.3
				C288.6,245.2,285.9,246.3,286.7,247.7L286.7,247.7z"/>
		</g>
	</g>
	<g>
		<g>
			<path d="M296.8,251.4c2-1.3,4-2.6,6-3.9c0.5-0.3,0.7-1,0.2-1.4c-0.6-0.4-1.5-0.1-2.1,0.2c-2,1.3-4,2.6-6,3.9
				c-0.5,0.3-0.7,1-0.2,1.4C295.4,252.1,296.3,251.8,296.8,251.4L296.8,251.4z"/>
		</g>
	</g>
	<g>
		<g>
			<path d="M353.8,255.4c1.7-1.3,3.4-2.6,5.1-3.9c0.4-0.3,0.8-0.9,0.2-1.3c-0.5-0.4-1.6-0.1-2.1,0.2c-1.7,1.3-3.4,2.6-5.1,3.9
				c-0.4,0.3-0.8,0.9-0.2,1.3C352.3,256,353.3,255.7,353.8,255.4L353.8,255.4z"/>
		</g>
	</g>
	<g>
		<g>
			<path d="M359.9,256.4c2-1.3,4-2.7,6-4c0.4-0.3,0.8-0.8,0.3-1.1c-0.5-0.3-1.6,0-2.1,0.3c-2,1.3-4,2.7-6,4
				c-0.4,0.3-0.8,0.8-0.3,1.1C358.3,257,359.4,256.7,359.9,256.4L359.9,256.4z"/>
		</g>
	</g>
	<g>
		<g>
			<path d="M365.6,257.7c2-0.7,4-1.4,6-2.1c0.4-0.1,1.2-0.7,0.8-1.2c-0.4-0.5-1.5-0.2-1.9,0c-2,0.7-4,1.4-6,2.1
				c-0.4,0.1-1.2,0.7-0.8,1.2C364.1,258.2,365.2,257.9,365.6,257.7L365.6,257.7z"/>
		</g>
	</g>
	<g>
		<g>
			<path d="M289,247.9c3-1.7,5.9-3.5,8.9-5.2c0.6-0.3,0.2-0.6-0.2-0.7c-0.6-0.2-1.6,0.3-2,0.5c-3,1.7-5.9,3.5-8.9,5.2
				c-0.6,0.3-0.2,0.6,0.2,0.7C287.6,248.7,288.6,248.2,289,247.9L289,247.9z"/>
		</g>
	</g>
	<g>
		<g>
			<path d="M328.9,251.7c-1.2,0.6-2.4,0.3-3.5-0.6c-0.6,0.6-1.1,1.2-1.7,1.7c1.8,0.1,3.6,0.2,5.4,0.3c0-0.6-0.1-1.1-0.1-1.7
				c-1.1,0.6-2.3,0.8-3.5,0.6c-0.5,0.6-0.9,1.2-1.4,1.9c1.1,0,2.2,0,3.2,0c0.7,0,1.6-0.2,1.9-0.8c0.3-0.6-0.3-1.1-0.8-1.1
				c-1.1,0-2.2,0-3.2,0c-0.6,0-1.4,0.2-1.8,0.7c-0.3,0.4-0.2,1,0.4,1.1c2.2,0.4,4.4,0.2,6.5-0.9c0.9-0.5,1.2-1.6-0.1-1.7
				c-1.8-0.1-3.6-0.2-5.4-0.3c-0.8,0-2.8,0.8-1.7,1.7c2,1.6,4.8,1.6,7,0.5c0.5-0.2,1.1-0.8,0.7-1.4
				C330.5,251.3,329.4,251.5,328.9,251.7L328.9,251.7z"/>
		</g>
	</g>
	<g>
		<g>
			<path d="M307.6,229.5c-0.5-1.5-0.1-3.6,1.5-4.3c-0.8,0.1-1.5,0.2-2.3,0.2c1.3,2.9,0.9,6.1-1,8.7c1-0.2,1.9-0.4,2.9-0.7
				c-0.9-2.7-0.4-5.5,1.5-7.7c-0.9,0.2-1.9,0.5-2.8,0.7c0.9,0.6,1.2,1.5,1.2,2.5c0,0.5-0.5,2.5-1,2.6c0.4,0,0.8,0.1,1.2,0.1
				c-0.5-0.9-0.6-1.7-0.4-2.7c0.1-0.6,0.8-2.4,1.6-2.5c-0.3,0-0.5-0.1-0.8-0.1c0.4,0.6,0.6,1.2,0.5,2c0,0.4-0.5,2.1-1,2.2
				c0.4,0,0.8,0.1,1.2,0.1c-1.2-1.4-1.1-3.8,0.6-4.8c-0.8,0.1-1.7,0.3-2.5,0.4c0,0.6-0.5,1.5-0.4,2c-0.3,0.4-0.1,0.4,0.6,0
				c-0.3-0.2-0.4-0.4-0.4-0.7c-0.1-0.5-3,0.1-2.9,0.8c0.2,1.6,2.4,1.2,3.5,0.9c1.9-0.6,2.4-1.8,2.5-3.7c0-0.5-2.3,0.3-2.5,0.4
				c-2,1.1-2.9,3.7-1.3,5.5c0.2,0.3,0.9,0.2,1.2,0.1c2.6-0.5,5.8-2.9,3.9-5.9c-0.2-0.2-0.6-0.2-0.8-0.1c-3.4,0.3-7.4,3.2-5.4,7
				c0.2,0.3,0.9,0.1,1.2,0.1c1.7-0.2,3.4-1,4.1-2.7c0.7-1.5,0.4-3.3-1-4.3c-0.6-0.4-2.4,0.2-2.8,0.7c-1.9,2.2-2.5,5.2-1.5,7.9
				c0.2,0.7,2.6-0.3,2.9-0.7c2-2.6,2.4-5.9,1-8.9c-0.2-0.6-1.9,0.1-2.3,0.2c-2.1,0.9-3.5,3-2.8,5.3
				C304.9,230.9,307.8,230.1,307.6,229.5L307.6,229.5z"/>
		</g>
	</g>
	<g>
		<g>
			<path d="M359.1,233.6c-1-0.1-1.4,0.1-1.3,0.7c0.1,0.3,0,0.5-0.2,0.7c-0.2,0.4-0.6,0.7-1,0.9c0.8-0.1,1.7-0.2,2.5-0.4
				c-0.3-0.5-0.4-1-0.3-1.5c0.1-0.3,0.6-1.1,0.4-1.1c-0.3-0.2-0.6-0.4-0.9-0.6c0,0.3-0.2,0.8-0.2,1.1c0,0.1-0.1,0.2-0.1,0.3
				c0.7,0.2,0.9,0,0.6-0.5c-0.7,0.3-1.3,0.6-2,1c0.6,0,1.1,0.7,1.1,1.3c0,0.2-0.2,0.7,0,0.6c0.2-0.1-0.2-0.2-0.4-0.5
				c0,0.2,0,0.4,0,0.6c0.4-0.7,0.8-1.3,1.6-1.5c-0.5-0.1-1.1-0.2-1.6-0.3c0.6,1.6,0.4,3.3-0.6,4.7c0.7-0.2,1.5-0.5,2.2-0.7
				c-0.3-0.1-0.4-0.7-0.4-1c0-0.2,0.1-0.3,0.1-0.5c0-0.1,0.1-0.2,0.2-0.3c0.3-0.4-0.1-0.3-1.1,0.2c0.7,0.2,1.5,0.1,2-0.3
				c0.3-0.2,1-0.8,0.3-1c-1.5-0.4-3.3,0.1-4.1,1.5c-0.7,1.3-0.3,2.5,1.1,2.9c0.7,0.2,1.8-0.2,2.2-0.7c1.2-1.6,1.5-3.5,0.8-5.4
				c-0.2-0.6-1.2-0.4-1.6-0.3c-1.6,0.4-3.1,1.3-3.9,2.8c-0.1,0.2-0.2,0.4,0,0.6c1.3,1.5,4.2,1,5.4-0.3c1.6-1.8-0.4-3.8-2.3-3.6
				c-0.5,0-1.9,0.3-2,1c-0.2,1.5,1.7,1.8,2.8,1.5c1.7-0.4,2.5-1.6,2.7-3.2c0.1-0.5-0.5-0.6-0.9-0.6c-2.6,0-6,2.6-3.9,5.3
				c0.5,0.7,2,0,2.5-0.4c0.8-0.6,1.8-1.4,1.8-2.5c0-0.9-0.6-1.3-1.4-1.4c-0.9-0.1-4.3,0.8-2.9,2.3
				C357,235.4,359.7,234.4,359.1,233.6L359.1,233.6z"/>
		</g>
	</g>
	<g>
		<g>
			<path d="M429.4,150.4c0.5,3.8,1.3,7.4,2.6,11c0.4,1.2,2.4,0.6,2.8-0.2c0.5-1,3.1-7.4,4.7-7.2c0.9,0.1,3.1,5.9,3.6,6.9
				c0.5,1,2.3,0.3,2.7-0.5c1.7-3.4,3.4-6.9,5.1-10.3c-0.9,0.1-1.9,0.1-2.8,0.2c0.7,4.2,2.1,7.9,4.3,11.5c0.7,1.1,3.4,0,2.7-1.3
				c-2.2-3.5-3.4-7-4-11c-0.2-1.3-2.5-0.5-2.8,0.2c-1.7,3.4-3.4,6.9-5.1,10.3c0.9-0.2,1.8-0.3,2.7-0.5c-1.3-2.5-3.1-9.2-6.9-8.5
				c-3.5,0.7-5.4,7.1-6.8,9.7c0.9-0.1,1.9-0.1,2.8-0.2c-1.3-3.6-2.1-7.2-2.6-11C432.1,148.3,429.2,149,429.4,150.4L429.4,150.4z"/>
		</g>
	</g>
	<g>
		<g>
			<path d="M458,155.1c2.7,1.3,7.3,0.1,8-3.2c1-5-5.1-5.6-8.2-3.9c-3.6,1.8-5.6,6.4-3.7,10.1c1.9,3.8,6.4,4.8,10.2,3.8
				c1.7-0.5,1.4-1.7-0.3-1.3c-4.3,1.2-8.2-3-7.6-7.2c0.3-2.1,2.4-6.4,5.5-4.4c2,1.3,1.6,6.3-1.5,4.8
				C459.6,153.4,456.9,154.6,458,155.1L458,155.1z"/>
		</g>
	</g>
	<g>
		<g>
			<path d="M471.2,159.1c-0.5,3.7-1,7.4-1.5,11.1c-0.2,1.5,2.8,1.1,2.9-0.2c0.5-3.7,1-7.4,1.5-11.1
				C474.3,157.4,471.3,157.7,471.2,159.1L471.2,159.1z"/>
		</g>
	</g>
	<g>
		<g>
			<path d="M418.4,171c-2.4-0.9-4.8-0.5-7,0.7c-2,1.1-7.5,5.8-6.4,8.6c1.2,3.3,9.9,2.5,12.4,3c3,0.5,6.5,2.1,7.3,5.3
				c1.5,5.8-7.5,9.2-11.3,10c0.4,0.1,0.8,0.1,1.2,0.2c-0.2-2.1,0.7-3.6,2.6-4.7c1.2-0.8-1.7-0.5-2.2-0.2c-2.2,1.3-3.2,3-3.3,5.6
				c0,0.4,1.1,0.2,1.2,0.2c5.2-1.1,17.9-5.5,14.3-13c-1.3-2.8-4.8-4.2-7.7-4.7c-2.7-0.5-8.1,0.3-10.3-1.6c-1.7-1.6-1.1-3,0.5-5.1
				c1.4-1.8,3.4-4.2,6.2-3.2C416.7,172.5,419.3,171.4,418.4,171L418.4,171z"/>
		</g>
	</g>
	<g>
		<g>
			<path d="M427.9,188.9c3.1,4,8.5,1,11-2.1c1.3-1.6,3.6-4.6,1.1-6.2c-1.7-1.2-4.6-0.6-6.4,0c-4.6,1.7-8.2,6.9-6.1,11.8
				c1.9,4.7,7.4,6.6,12.1,5.2c1.7-0.5,1.3-2.1-0.4-1.6c-4.9,1.4-10-3.2-9.2-8.2c0.4-2.2,2.6-5.7,5.1-5.9c2.7,0.8,3.5,1.8,2.3,3.2
				c-0.2,0.3-0.4,0.5-0.6,0.8c-1.3,1.7-4.1,4.5-6.2,1.8C429.9,186.9,427.1,187.9,427.9,188.9L427.9,188.9z"/>
		</g>
	</g>
	<g>
		<g>
			<path d="M449.4,184.1c0.1,0,0.2-0.1,0.3-0.1c0.4-0.2,0.9-0.4,0.9-0.9c0-2-3.2-1.2-3.9,0c-0.8,1.3-0.3,3.7-0.2,5.1
				c0.1,2.7,0.1,5.3,0.2,8c0,1,2.6-0.1,2.9-0.6c1.7-3.5,3.5-7,5.2-10.5c-1,0.2-1.9,0.4-2.9,0.6c0.8,2.2,1.5,4.5,2.3,6.7
				c0.3,0.8,1.9,0.3,2.3,0c2.9-1.9,5-4.4,5.9-7.8c-1,0.1-1.9,0.3-2.9,0.4c-0.6,3.4-0.1,6.6,1.7,9.6c0.5,0.9,3.3-0.1,2.9-0.8
				c-1.7-2.9-2.3-5.9-1.7-9.2c0.2-1.1-2.6-0.5-2.9,0.4c-0.8,2.8-2.4,5.1-4.8,6.7c0.8,0,1.6,0,2.3,0c-0.8-2.2-1.5-4.5-2.3-6.7
				c-0.4-1-2.6,0-2.9,0.6c-1.7,3.5-3.5,7-5.2,10.5c1-0.2,1.9-0.4,2.9-0.6c-0.1-2.1-0.1-4.2-0.2-6.3c0-1.3-0.8-5.4,0.2-6.3
				c-0.7,0.2-1.4,0.4-2,0.5c0,0.2,0.1,0.3,0.1,0.5c0.3-0.3,0.6-0.6,0.9-0.9c-0.1,0-0.2,0.1-0.3,0.1
				C446.5,183.8,448.2,184.6,449.4,184.1L449.4,184.1z"/>
		</g>
	</g>
	<g>
		<g>
			<path d="M464.5,181.4c0.1,11.9,0.5,23.8,1.3,35.6c0.1,0.8,2.7,0,2.9-0.6c0.3-0.9,0.6-1.7,0.8-2.6c0.3-0.8-2.6-0.4-2.9,0.4
				c-0.3,0.9-0.6,1.7-0.8,2.6c1-0.2,1.9-0.4,2.9-0.6c-0.8-11.9-1.2-23.8-1.3-35.6C467.4,179.9,464.5,180.4,464.5,181.4L464.5,181.4z
				"/>
		</g>
	</g>
	<g>
		<g>
			<path d="M469.7,194.5c-0.3-3-0.7-6.3,0.5-9.2c0.3-0.8,0.9-1.8,1.6-2.4c1.1-0.9,3.3-1.5,4.6-0.7c0.8,0.5,1.4,1.6,1.7,2.5
				c0.7,2,0.5,4.4-0.8,6.1c-2.1,2.9-6,3.2-9.3,2.8c0.2,0.2,0.4,0.3,0.5,0.5c0.4-2,1.2-3.6,2.7-4.9c1.2-1.1-1.7-0.9-2.3-0.3
				c-1.7,1.6-2.8,3.4-3.3,5.7c-0.1,0.3,0.3,0.5,0.5,0.5c4.2,0.5,9,0,12.4-2.8c2.8-2.3,3.9-6.6,1.8-9.8c-2.1-3.2-6.5-2.9-9.4-1
				c-4.8,3.1-4.6,8.8-4,13.8C466.9,196.1,469.8,195.5,469.7,194.5L469.7,194.5z"/>
		</g>
	</g>
	<g>
		<g>
			<path d="M486.1,186.2c2.6,2,6.4,0.9,8.2-1.7c2.2-3.3-0.3-6.8-3.6-7.8c-3.5-1-7.1,0.7-8.8,3.8c-2.5,4.7-0.1,9.4,2.6,13.3
				c0.4,0.6,1.4,0.6,2,0.3c4.5-2.4,7.2-6.8,7-12c-0.1-1.6-3-1.2-2.9,0.2c0.1,3.5,1.5,6.4,4.2,8.8c1,0.9,3.5-0.6,2.2-1.7
				c-2.2-1.9-3.3-4.3-3.4-7.2c-1,0.1-2,0.1-2.9,0.2c0.2,4.1-1.7,7.9-5.4,9.9c0.7,0.1,1.3,0.2,2,0.3c-2.4-3.5-5.2-8.4-2-12.4
				c1.6-2,4.4-2,6.1-0.2c1.9,2.1-0.1,6.6-3,4.4C487.2,183.6,484.7,185.1,486.1,186.2L486.1,186.2z"/>
		</g>
	</g>
	<g>
		<g>
			<path d="M499.6,178.4c0,4.3,0,8.7,0,13c0,0.9,2.9,0.3,2.9-0.8c0-4.3,0-8.7,0-13C502.4,176.7,499.6,177.3,499.6,178.4L499.6,178.4
				z"/>
		</g>
	</g>
	<g>
		<g>
			<path d="M495.1,165.6c0.7,0,1.3,0,2,0c0.7,0,1.5-0.2,2-0.5c0.4-0.3,0.4-0.6-0.2-0.6c-0.7,0-1.3,0-2,0c-0.7,0-1.5,0.2-2,0.5
				C494.5,165.2,494.5,165.6,495.1,165.6L495.1,165.6z"/>
		</g>
	</g>
	<g>
		<g>
			<path d="M360.7,143.1c-1.2,8.9,0.7,17.4,5.5,25c0.5,0.8,2.1,0.4,2.5-0.2c5.6-6.9,7.7-15.4,5.8-24.1c-0.3-1.3-2.8-0.6-2.9,0.5
				c-0.6,9,1.3,17.6,5.8,25.4c0.6,1.1,3.4,0,2.7-1.3c-4.3-7.5-6.1-15.7-5.5-24.3c-1,0.2-1.9,0.3-2.9,0.5c1.7,8.1-0.1,16.1-5.4,22.5
				c0.8-0.1,1.7-0.1,2.5-0.2c-4.6-7.3-6.3-15.4-5.2-24C363.9,141.5,360.9,141.9,360.7,143.1L360.7,143.1z"/>
		</g>
	</g>
	<g>
		<g>
			<path d="M386.9,151c-1.6,1-3.7,0.8-5.3,1.8c-1.2,0.7-2.5,2.3-1.5,3.7c1.2,1.5,4.2,1.3,5.8,2.2c1.1,0.6,2,1.5,2.5,2.7
				c0.3,0.8,0.2,3.6-1.2,2.4c-0.5-0.5-3.1,0.6-2.7,1c2.8,2.6,8.5-1,6.5-4.8c-0.7-1.2-1.8-2-3.1-2.5c-1.3-0.6-3.3-0.6-4.5-1.4
				c-1.1-0.7-0.9-2.2,0.1-2.9c0.6-0.4,1.6-0.5,2.2-0.7c1.2-0.3,2.3-0.7,3.4-1.3C390.2,150.2,387.4,150.7,386.9,151L386.9,151z"/>
		</g>
	</g>
	<g>
		<g>
			<path d="M392.8,157.6c1.5,2,4.2,2.3,6.3,1.1c2.9-1.6,3-5,2.1-7.9c-0.2-0.6-0.8-0.7-1.3-0.7c-5,0-8.7,4.7-8.1,9.6
				c0.7,6.2,7.3,9.2,12.8,9.9c1.5,0.2,2.9-2,1-2.2c-3.9-0.5-8.1-2.1-10-5.7c-1.8-3.4-0.4-9.2,4.2-9.2c-0.4-0.2-0.9-0.5-1.3-0.7
				c0.3,0.6,0.4,1.2,0.4,1.9c0.5,1.7-0.6,2.7-3.3,2.8C394.6,155.2,391.9,156.3,392.8,157.6L392.8,157.6z"/>
		</g>
	</g>
	<g>
		<g>
			<path class="st7" d="M502.5,166.5c-0.1-0.5-0.1-0.8,0-1.3c0.1-0.2,0.2-0.3,0.3-0.5c-0.4,0.1-0.4,0.3-0.2,0.4c0,0.3,0.5,0.6,0.6,1
				c0.1,0.6,0,1-0.3,1.5c-1.1,1.5-2.8,2.8-4.1,4.1c-0.5,0.5,0.4,0.6,0.7,0.6c0.6,0,1.5-0.3,1.9-0.7c1.5-1.5,7.1-5.5,3.6-7.7
				c-2.1-1.3-6.3,0.6-5.5,3.4C499.9,168,502.8,167.2,502.5,166.5L502.5,166.5z"/>
		</g>
	</g>
	<g>
		<g>
			<path class="st7" d="M501.9,166.6c-0.6-3.3-4.2-4.1-6.8-2.2c-1.2,0.9-1.3,2.2-0.5,3.5c1.2,1.8,2.8,3.5,4.2,5.1
				c0.5,0.6,3.3-0.3,2.7-1.1c-1.2-1.5-2.6-3-3.7-4.5c-0.3-0.4-1.6-2.8,0-2.4c0.8,0.2,1.1,1.6,1.3,2.3
				C499.1,168.2,502.1,167.5,501.9,166.6L501.9,166.6z"/>
		</g>
	</g>
</g>
</svg>
