<?xml version="1.0" encoding="utf-8"?>
<!-- Generator: Adobe Illustrator 22.1.0, SVG Export Plug-In . SVG Version: 6.00 Build 0)  -->
<svg version="1.1" id="Слой_1"
	 xmlns="http://www.w3.org/2000/svg" xmlns:xlink="http://www.w3.org/1999/xlink" x="0px" y="0px" viewBox="0 0 841.9 595.3"
	 style="enable-background:new 0 0 841.9 595.3;" xml:space="preserve">
<style type="text/css">
	.st0{fill:#C72E34;}
	.st1{fill:#ED2E34;}
	.st2{fill:#B87333;}
	.st3{fill:#9F561D;}
	.st4{fill:#8D4510;}
</style>
<metadata>
	<sfw>
		<slices></slices>
		<sliceSourceBounds  bottomLeftOrigin="true" height="91.4" width="242.5" x="284.5" y="244.4"></sliceSourceBounds>
	</sfw>
</metadata>
<g id="Слой_8">
	<g>
		<g>
			<path class="st0" d="M347.7,286.3c0.2,2.2,0.5,4.5,0.7,6.7c0.4,3.4,6.8,2.9,8.7,2.5c2.9-0.6,8.1-2.3,8.7-5.8
				c0.5-3.5,0.5-7,0.1-10.4c-5.8,1.6-11.6,3.1-17.4,4.7c0.6,1.2,1.2,2.4,1.8,3.6c3,6,15.7,2,17.4-3.4c0.5-1.5,0.5-2.9,0.4-4.5
				c-0.1-2.5-5-2.8-6.5-2.7c-3.4,0.2-6.6,1.4-9.2,3.5c-2.4,1.9-2.7,3.9-1.3,6.4c1.3,2.2,6.3,1.7,8.1,1.3c3-0.6,6.2-1.9,8.1-4.5
				c3.1-4.3-1-6.7-5.1-7.1c-4-0.4-10.7,1.8-12,6.1c-0.4,1.2,0,2.1,0.8,3c1.9,2.5,6.8,1.7,9.3,1.1c0.1,0,0.2,0,0.3-0.1
				c2.8-0.6,9.8-4.1,6.8-8c-1.7-2.3-3.5-4.5-5.4-6.7c-3.9-4.5-15.1-0.5-16.8,4.5c-1.9,5.9-4,11.6-6.4,17.3
				c5.8-0.7,11.6-1.4,17.4-2.1c0.3-3.8,0.5-7.4,3.1-10.4c2.4-2.9-1.5-5-3.8-5.3c-3.8-0.5-8.5,0.8-11.3,3.4c-0.6,0.5-1.2,1.1-1.7,1.6
				c5.2,0.2,10.5,0.4,15.7,0.5c0.3-0.8-1.9,0.8,0.1-0.3c3-1.5,4.6-4.9,1.4-7.1c-0.2-0.1-0.3-0.2-0.5-0.3c0.6,0.7,1.2,1.3,1.8,2
				c-0.1,0.3-0.2,0.6-0.3,0.9c-0.9,0.8-1.8,1.6-2.7,2.5c0.2-0.1,0.4-0.2,0.5-0.3c-2.9,0.8-5.9,1.6-8.8,2.4c0.3,0,0.7,0,1,0
				c-1.2-0.3-2.4-0.5-3.6-0.8c2.3,0.8,4.3,2.5,6.4,3.8c4.9,3.2,20.9-4,13.8-8.6c-2.1-1.3-4.1-2.9-6.4-3.8c-3.6-1.4-7.9-0.9-11.4,0.6
				c-4.3,1.9-9.1,6.9-3.7,10.5c0.5-2.4,1-4.7,1.4-7.1c-3.2,1.7-5.6,4.4-6.6,7.9c-0.9,3,3.4,4,5.4,4.1c3.6,0.2,7.7-1.1,10.3-3.5
				c0.6-0.5,1.2-1.1,1.7-1.6c-5-0.6-10.1-1.2-15.1-1.9c-3.1,3.7-3.9,8.4-4.2,13c-0.3,3.9,4.7,4.3,7.6,4c3.9-0.5,8.3-2.2,9.8-6.1
				c2.4-5.7,4.5-11.5,6.4-17.3c-5.6,1.5-11.2,3-16.8,4.5c1.9,2.2,3.7,4.4,5.4,6.7c2.3-2.7,4.6-5.3,6.8-8c-0.1,0-0.2,0-0.3,0.1
				c3.1,0.4,6.2,0.7,9.3,1.1c-0.1-0.1-0.1-0.2-0.2-0.3c0.2,0.8,0.4,1.6,0.6,2.4c0-0.1,0.1-0.2,0.1-0.3c-4,2-8,4.1-12,6.1
				c0.2,0,0.4,0,0.5,0.1c-1.8-0.9-3.6-1.9-5.4-2.8c0.1-0.3,0.2-0.7,0.3-1c5.4-1.1,10.8-2.1,16.2-3.2c-0.1-0.2-0.2-0.3-0.3-0.5
				c0.2,0.8,0.4,1.6,0.6,2.4c0-0.2,0.1-0.4,0.1-0.6c-0.6,0.9-1.1,1.7-1.7,2.6c0.1-0.1,0.3-0.2,0.4-0.3c-5.2,0.3-10.5,0.5-15.7,0.8
				c0,0.7-0.2,1.3-0.4,1.9c5.8-1.1,11.6-2.2,17.4-3.4c-0.6-1.2-1.2-2.4-1.8-3.6c-2.9-5.9-18.2-2.1-17.4,4.7c0.3,2.7,0.3,5.2-0.1,7.9
				c5.8-1.1,11.6-2.2,17.4-3.4c-0.2-2.2-0.5-4.5-0.7-6.7c-0.4-3.7-7.7-2.8-9.9-2.2C352.2,280.2,347.3,282.4,347.7,286.3L347.7,286.3
				z"/>
		</g>
	</g>
	<g>
		<g>
			<path class="st0" d="M351,280.3c0.2,0,0.4,0,0.6,0c2.4,0,4.6-0.3,6.8-1.3c1-0.4,1.9-1,2.7-1.7c0.8-0.5,1.4-1.2,1.9-2
				c0.6-1.3,1-2.8-0.1-4c-1.2-1.2-3.1-1.9-4.8-1.9c-0.2,0-0.4,0-0.6,0c-2.4,0-4.6,0.3-6.8,1.3c-1,0.4-1.9,1-2.7,1.7
				c-0.8,0.5-1.4,1.2-1.9,2c-0.6,1.3-1,2.8,0.1,4C347.5,279.7,349.4,280.3,351,280.3L351,280.3z"/>
		</g>
	</g>
	<g>
		<g>
			<path class="st0" d="M348.5,284.5c4,0,9.4-1.1,11.4-5.1c1.8-3.6-1.5-6.4-5-6.4c-4,0-9.4,1.1-11.4,5.1
				C341.7,281.7,345,284.5,348.5,284.5L348.5,284.5z"/>
		</g>
	</g>
	<g>
		<g>
			<path class="st1" d="M323.6,283.8c-1-8.8-15.7-6.9-21.3-4.5c-4.1,1.8-6.6,4-7.4,8.4c-0.8,4.3-1.5,8.4-3,12.6
				c6.8-0.7,13.6-1.4,20.4-2.2c1.3-4,1.4-7.9,1-12c-0.5-4.1-7.8-3.8-10.3-3.3c-4.1,0.8-8.6,2.9-10,7.1c-0.8,2.5-1.6,5-2.5,7.5
				c-1.4,4.1,5.2,5.3,7.7,5.2c4-0.1,10.1-1.8,12-5.8c1.2-2.4,2.1-4.9,2.6-7.5c1-4.7-5.8-5.5-9-5.2c-4.6,0.5-9.8,2.7-11.4,7.4
				c-0.8,2.3-1.6,4.7-2.4,7c-1.4,4.1,5.2,5.3,7.7,5.2c3.9-0.1,10.3-1.8,12-5.8c1.3-3,2.4-6,3.2-9.1c0.9-3.6-3.8-5.1-6.4-5.3
				c-4.4-0.3-8.8,1.4-12,4.2c-2.4,2.1-3.8,4.5-4.9,7.5c6.8-0.7,13.6-1.4,20.4-2.2c0.5-1.9,1-3.8,1.4-5.6c-3.8,2.5-7.6,4.9-11.4,7.4
				c0.3,0,0.6-0.1,1-0.1c-2.7-0.7-5.4-1.4-8.2-2.1c0.2,0.2,0.5,0.4,0.7,0.6c-0.1-1.6-0.1-3.2-0.2-4.7c-2.4,4.2-3.8,8.6-4,13.4
				c-0.5,9.4,16.9,4.6,19.7-0.5c1.3-2.3,2.1-4.6,2.3-7.2c0.5-9.4-18.8-5.1-20.4,2.2c-0.9,4.4-2.1,8.7-3.4,13c-1.5,4.6,6.2,5.5,9,5.2
				c4.6-0.5,9.8-2.7,11.4-7.4c0.6-1.8,1.1-3.7,1.5-5.6c1.7-8.8-18.6-5.3-20.4,2.2c-0.5,1.9-0.9,3.9-1.4,5.8
				c-2,8.4,17.4,5.2,19.7-0.5c0.6-1.5,1.2-2.7,1.3-4.4c-6.8,0.7-13.6,1.4-20.4,2.2c0.1,2-0.1,3.8-0.4,5.7
				c-1.5,8.9,17.3,4.9,19.7-0.5c1.5-3.4,2.1-6.2,1-9.9c-2.1-7.3-14.9-2.7-18.4,0.6c-0.6,0.6-1.2,1.1-1.9,1.7
				c6.2,0.4,12.3,0.7,18.5,1.1c0.4-3,1.1-5.3,2.7-7.9c-6.6,0.2-13.2,0.3-19.7,0.5c0,2.9-0.1,5.9-0.1,8.8c0,1.8,0.6,5-0.6,6.5
				c2.7-1.7,5.3-3.5,8-5.2c-0.3,0.1-0.7,0.2-1,0.3c-4.2,1.2-12.9,6.7-6.4,11c5.2,3.5,11.9,1.9,17.7,1.1c6.6-0.9,13.1-1.8,19.7-2.7
				c3.9-0.5,10.7-2.6,11.4-7.4c0.7-4.7-5.7-5.7-9-5.2c-4.6,0.6-9.2,1.2-13.8,1.9c-2,0.3-3.9,0.5-5.9,0.8c-1.3,0.2-2.6,0.4-3.9,0.5
				c-2.6,0.2-2.6,0.3-0.2,0.4c-2.1,3.7-4.3,7.4-6.4,11c4.7-1.4,9.6-3.9,10.7-9.2c1-4.7,0.3-10.2,0.3-14.9c0.1-9.5-16.7-4.5-19.7,0.5
				c-2.1,3.5-3.5,7.1-4,11.2c-1.2,9.2,15.2,4,18.5,1.1c0.6-0.6,1.2-1.1,1.9-1.7c-6.1,0.2-12.3,0.4-18.4,0.6c0.3,1.1,0.6,2.2,0.2,3.3
				c6.6-0.2,13.2-0.3,19.7-0.5c0.3-2,0.4-3.7,0.4-5.7c-0.2-9.2-19.7-5.5-20.4,2.2c0,0.4,0,0.7,0,1.1c6.6-0.2,13.2-0.3,19.7-0.5
				c0.5-1.9,0.9-3.9,1.4-5.8c-6.8,0.7-13.6,1.4-20.4,2.2c-0.4,1.9-0.9,3.8-1.5,5.6c6.8-0.7,13.6-1.4,20.4-2.2
				c1.3-4.3,2.5-8.6,3.4-13c-6.8,0.7-13.6,1.4-20.4,2.2c-0.1,1.5-0.2,2.6-0.9,3.9c6.6-0.2,13.2-0.3,19.7-0.5
				c0.2-3.7,0.9-6.9,2.7-10.1c0.7-1.2,1.2-3.6-0.2-4.7c-3.1-2.5-5.9-3.1-9.9-2.6c-4.3,0.5-10.2,2.7-11.4,7.4c-0.5,1.9-1,3.8-1.4,5.6
				c-1.2,4.7,6,5.5,9,5.2c4.8-0.5,9.6-2.8,11.4-7.4c0.3-0.4,0.6-0.7,1.1-1c-6.2-0.4-12.3-0.7-18.5-1.1c-0.5,2-1.1,3.9-1.9,5.8
				c6.6-0.2,13.2-0.3,19.7-0.5c0.8-2.3,1.6-4.7,2.4-7c-6.8,0.7-13.6,1.4-20.4,2.2c-0.3,1.5-0.6,2.8-1.3,4.2
				c6.6-0.2,13.2-0.3,19.7-0.5c0.8-2.5,1.6-5,2.5-7.5c-6.8,1.3-13.6,2.5-20.3,3.8c0.4,3.1-0.1,5.8-1.1,8.8c-1.5,4.6,6.2,5.5,9,5.2
				c4.6-0.5,9.8-2.8,11.4-7.4c1.7-4.7,2.7-9.4,3.2-14.4c-2,2-4,4-6,5.9c-1.4,0.2-2.8,0.3-4.1,0.5c-0.7-0.8-1.4-1.7-2.2-2.5
				c0.1,0.6,0.1,1.1,0.2,1.7C304.2,297,324.5,292.3,323.6,283.8L323.6,283.8z"/>
		</g>
	</g>
	<g>
		<g>
			<path class="st1" d="M333.9,314.8c0.2,0,0.4,0,0.6,0c1.3,0,2.6-0.2,3.9-0.5c1.4-0.2,2.7-0.6,4-1.2c1.2-0.4,2.2-1,3.3-1.6
				c0.9-0.5,1.6-1.1,2.3-1.8c0.3-0.4,0.5-0.8,0.8-1.2c0.3-0.8,0.1-1.5-0.6-2.1c-0.4-0.2-0.9-0.5-1.3-0.7c-1.3-0.4-2.7-0.5-4-0.5
				c-0.2,0-0.4,0-0.6,0c-1.3,0-2.6,0.2-3.9,0.5c-1.4,0.2-2.7,0.6-4,1.2c-1.2,0.4-2.2,1-3.3,1.6c-0.9,0.5-1.6,1.1-2.3,1.8
				c-0.3,0.4-0.5,0.8-0.8,1.2c-0.3,0.8-0.1,1.5,0.6,2.1c0.4,0.2,0.9,0.5,1.3,0.7C331.2,314.7,332.5,314.8,333.9,314.8L333.9,314.8z"
				/>
		</g>
	</g>
	<g>
		<g>
			<path class="st1" d="M322.1,283.4c0,0.2,0,0.4,0,0.6c0.2,0.5,0.6,0.7,1.1,0.8c0.7,0.3,1.5,0.4,2.3,0.3c1.1,0,2.3-0.1,3.4-0.3
				c1.3-0.2,2.7-0.4,4-0.8c2.4-0.7,4.9-1.4,7-2.7c1-0.6,2.5-1.3,2.5-2.7c0-0.2,0-0.4,0-0.6c-0.2-0.5-0.6-0.7-1.1-0.8
				c-0.7-0.3-1.5-0.4-2.3-0.3c-1.1,0-2.3,0.1-3.4,0.3c-1.3,0.2-2.7,0.4-4,0.8c-2.4,0.7-4.9,1.4-7,2.7
				C323.6,281.4,322.1,282.1,322.1,283.4L322.1,283.4z"/>
		</g>
	</g>
	<g>
		<g>
			<path class="st1" d="M329.3,282.9c0.2,0,0.4,0,0.6,0c1.3,0,2.6-0.2,3.9-0.5c1.4-0.2,2.7-0.6,4-1.2c1.2-0.4,2.2-1,3.3-1.6
				c0.9-0.5,1.6-1.1,2.3-1.8c0.3-0.4,0.5-0.8,0.8-1.2c0.3-0.8,0.1-1.5-0.6-2.1c-0.4-0.2-0.9-0.5-1.3-0.7c-1.3-0.4-2.7-0.5-4-0.5
				c-0.2,0-0.4,0-0.6,0c-1.3,0-2.6,0.2-3.9,0.5c-1.4,0.2-2.7,0.6-4,1.2c-1.2,0.4-2.2,1-3.3,1.6c-0.9,0.5-1.6,1.1-2.3,1.8
				c-0.3,0.4-0.5,0.8-0.8,1.2c-0.3,0.8-0.1,1.5,0.6,2.1c0.4,0.2,0.9,0.5,1.3,0.7C326.6,282.9,328,283,329.3,282.9L329.3,282.9z"/>
		</g>
	</g>
	<g>
		<g>
			<path class="st1" d="M330.6,282.8c4.1,0,11-1.6,13.5-5.1c2.6-3.7-2.3-4.4-5.1-4.4c-4.1,0-11,1.6-13.5,5.1
				C322.9,282.2,327.8,282.8,330.6,282.8L330.6,282.8z"/>
		</g>
	</g>
	<g>
		<g>
			<path class="st1" d="M326.9,281.4c4.7,0,10.3-1.3,14.3-3.8c3-1.9,3-4-1.1-4c-4.7,0-10.3,1.3-14.3,3.8
				C322.8,279.3,322.8,281.4,326.9,281.4L326.9,281.4z"/>
		</g>
	</g>
	<g>
		<g>
			<path class="st1" d="M323.3,279c0,0.4,0,0.9,0,1.3c-0.2,1,0,1.9,0.5,2.7c0.3,0.9,1,1.6,1.9,2.1c1,0.6,2,1,3.1,1.1
				c1.2,0.3,2.5,0.4,3.8,0.2c2.7-0.3,5.5-1.1,7.6-2.8c0.6-0.5,1.2-1,1.8-1.6c1-1,1.6-2.2,1.8-3.6c0-0.4,0-0.9,0-1.3
				c0.2-1,0-1.9-0.5-2.7c-0.3-0.9-1-1.6-1.9-2.1c-1-0.6-2-1-3.1-1.1c-1.2-0.3-2.5-0.4-3.8-0.2c-2.7,0.3-5.5,1.1-7.6,2.8
				c-0.6,0.5-1.2,1-1.8,1.6C324.1,276.4,323.5,277.6,323.3,279L323.3,279z"/>
		</g>
	</g>
	<g>
		<g>
			<path class="st1" d="M331.6,279.2c-1.1-0.1,1.6,0.5,0.6,0.1c-0.3-0.1-0.6-0.2-0.9-0.3c0.4,0.2,0.8,0.3,1.2,0.5
				c-0.9-0.4-1.7-1-2.4-1.8c0.2,0.3,0.4,0.5,0.6,0.8c-0.2-0.2-0.3-0.5-0.5-0.8c-1.4,1.4-2.8,2.8-4.3,4.2c-3.8,2.1-7.7,2.8-11.7,2.2
				c0.2-1.5,0.3-2.9,0.5-4.4c-0.1,0-0.1,0.1-0.2,0.1c3.2-1.2,6.4-2.3,9.6-3.5c-0.1,0-0.1,0-0.2,0c2.2,0,4.3-0.1,6.5-0.1
				c-0.1,0-0.1,0-0.2,0c0.4,0.2,0.8,0.3,1.2,0.5c-0.1-0.1-0.2-0.1-0.3-0.2c0.2,0.3,0.4,0.5,0.6,0.8c-0.2-0.3-0.2-0.5-0.2-0.8
				c0,0.3-0.1,0.6-0.1,1c0-0.1,0-0.1,0.1-0.2c-0.3,0.4-0.5,0.7-0.8,1.1c-0.3,0.3-0.7,0.5-1,0.8c-1.4,0.7-2.8,1.4-4.2,2
				c0.1,0,0.2-0.1,0.3-0.1c-1.8,0.5-3.6,1-5.4,1.4c0.1,0,0.2,0,0.3,0c-1.6,0.1-3.1,0.2-4.7,0.4c-1.3-0.2-1.6-0.3-0.9-0.1
				c0.2,0.1,0.4,0.1,0.6,0.2c5.5-2.7,11.1-5.3,16.6-8c-6.1-1.4-13,0.4-18.5,3c-1.1,0.5-3.6,1.8-4.1,3.2c-0.5,1.3,0.6,2,1.7,2.3
				c2.1,0.5,4.4,0.3,6.5-0.1c2.7-0.5,5.3-1.3,7.7-2.4c-2.7,1.3-5.7,2.1-8.7,2.1c-0.9,0-1,0-0.4,0c-1.2-0.2-1.4-0.2-0.8-0.1
				c2.1,0.5,4.4,0.2,6.5-0.1c2.6-0.4,5.4-1.2,7.7-2.4c0.6-0.4,1.3-0.7,1.9-1.1c0.9-0.5,1.7-1.2,2.2-2.2c0.4-1.4-0.5-1.8-1.7-2.3
				c-3-1.1-6.5-0.5-9.6,0.1c-3,0.7-5.9,1.7-8.5,3.3c-0.8,0.5-2.3,1.6-2.7,2.6c-0.5,1.7,0.6,2.8,2.2,3.3c2.1,0.6,4.7,0.3,6.8-0.1
				c3.4-0.6,7-1.6,9.8-3.6c0.9-0.6,2.1-1.4,2.3-2.6c0.1-1-0.8-1.6-1.8-1.8c-2.6-0.5-5.2-0.4-7.7,0c-3.1,0.5-6.1,1.4-8.9,2.8
				c-1.2,0.6-2.3,1.3-3.3,2.2c-0.7,0.5-1,1.2-0.9,2c1.8,3.2,5,4.4,8.5,4.6c2.5,0.1,5.1-0.3,7.4-1c2.3-0.6,5-1.5,6.9-2.9
				c0.8-0.6,2.9-1.9,2.3-3.1C334.7,279.4,332.8,279.3,331.6,279.2L331.6,279.2z"/>
		</g>
	</g>
	<g>
		<g>
			<path class="st1" d="M311.4,290.2c-2.9,3.9-4.5,8.6-4.3,13.4c0.3,9.6,19.8,6.1,20.4-2c0.2-2.6,0.6-5,1.3-7.5
				c-6.8,0.7-13.6,1.3-20.4,2c-0.3,3-0.1,5.8,1,8.6c3,7.9,16.4,3.1,19.7-2c2.2-3.4,4.1-6.9,5.5-10.7c-6.6,0.1-13.2,0.2-19.8,0.2
				c0.1,3.2-0.2,6.3-1,9.4c6.8-0.7,13.6-1.3,20.4-2c0.7-3.9,1.5-7.8,2.9-11.6c-6.6,0.1-13.2,0.2-19.8,0.2c0,6.6,0,13.2,0.1,19.8
				c6.8-1.2,13.6-2.5,20.4-3.7c-1.3-4-1.9-7.9-2-12.1c-0.1-3.6-0.9-6.5-3.9-8.8c-5.5-4.2-13.6-3.8-20.1-4.5
				c-4.6-0.5-11,1.6-13.3,5.9c-2.3,4.4,2,7,5.9,7.4c2.3,0.2,9.8-0.2,10.9,1.6c0.8,1.3,0.1,5.1,0.2,6.6c0.3,3.2,1,6.2,1.9,9.3
				c1.3,4.1,7,4.3,10.4,3.7c3.2-0.6,10-3.1,10-7.4c0-6.6,0-13.2-0.1-19.8c0-9.2-17.4-6.2-19.8,0.2c-1.8,4.9-3.3,9.9-4.2,15.1
				c-1.6,9.4,18.5,5.7,20.4-2c0.8-3.1,1.1-6.2,1-9.4c-0.4-9.1-17.2-6.3-19.8,0.2c-1.5,3.8-3.3,7.3-5.5,10.7c6.6-0.7,13.2-1.3,19.7-2
				c-0.7-1.8-1-3.2-0.8-5.1c1-9.9-18.5-5.4-20.4,2c-0.7,2.5-1.1,4.9-1.3,7.5c6.8-0.7,13.6-1.3,20.4-2c-0.1-3.9,0.7-6.8,3.1-10
				c3-4-2.6-7.1-5.9-7.4C319.5,283.8,314.5,286.1,311.4,290.2L311.4,290.2z"/>
		</g>
	</g>
	<g>
		<g>
			<path class="st1" d="M300.8,287.7c4.1,0,11-1.5,13.5-5.2c2.5-3.8-2.2-4.8-5.2-4.8c-4.1,0-11,1.5-13.5,5.2
				C293.1,286.7,297.8,287.7,300.8,287.7L300.8,287.7z"/>
		</g>
	</g>
</g>
<g id="Слой_7">
	<g>
		<g>
			<path class="st2" d="M499.1,287.8c2.7,6,3.2,11.8,1.3,18.1c-1.1,3.4,4.5,4,6.4,3.9c3.9-0.2,7.8-1.7,10.4-4.7
				c3.2-3.9,5.1-8.5,5.3-13.5c-5.8,1.1-11.6,2.3-17.4,3.4c0.4,2.4-2,4.3-1.3,6.9c0.6,2.3,2.6,3.3,4.9,3.7c4.6,0.9,14.7-1.2,15.3-7.1
				c-5.8,1.1-11.6,2.3-17.4,3.4c0.1,3.5-0.6,6.9-1.7,10.3c-1,2.9,3.5,3.8,5.3,3.9c3.4,0.2,7.8-1.1,10.4-3.5c5.2-5.1,7.7-12.2,4.3-19
				c-1.5-3.1-5.8-2.9-8.7-2.3c-2.5,0.5-8.6,2.4-8.7,5.7c-0.3,9-3.4,17.5-9.2,24.4c-2.7,3.2-6.1,6.2-9.9,8.1
				c-4.2,2.1-8.9,2.8-13.1,4.9c-3.5,1.7-6.3,5.2-10,6.3c-4.2,1.3-9.7-0.5-13.7-1.6c-11.4-3.2-21.5-7.2-33.6-6.2c0,3.1,0,6.2,0,9.3
				c1.7-0.6,2.3,0,4.4,1.2c1.2-2.6,2.3-5.2,3.5-7.9c-0.4,0.1-0.7,0.3-1.1,0.4c2.9-0.4,5.8-0.8,8.8-1.1c-0.4-0.1-0.8-0.1-1.1-0.2
				c0.9,0.4,1.8,0.9,2.8,1.3c-0.3-0.3-0.5-0.5-0.8-0.8c-4.4-4.3-20.9,2.3-16.1,6.8c4,3.8,9.9,2.7,14.5,0.8c2.9-1.2,8-5.2,3.5-7.9
				c-6.1-3.6-13.9-3.7-20.5-1.5c-2.6,0.9-7.6,2.6-7.5,6.1c0.1,3.4,5.2,3.4,7.5,3.2c6.3-0.5,12.7,1.9,18.6,3.8
				c6,1.9,11.9,3.7,18.2,4.2c6.1,0.5,12.3-0.1,18.1-2.2c5.4-1.9,9.2-6.1,14.3-8.1c5.3-2.1,10.5-3.4,15.4-6.4
				c4.8-2.8,9-6.4,12.6-10.6c7-8,11.3-18,11.8-28.6c-5.8,1.1-11.6,2.3-17.4,3.4c1.8,3.6,2.2,8.4-0.9,11.4c5.2,0.1,10.5,0.3,15.7,0.4
				c1.4-4.2,1.8-8.4,1.7-12.8c-0.1-5.6-16.8-1.9-17.4,3.4c0,0.2,0,0.4-0.1,0.7c0.6-0.8,1.1-1.7,1.7-2.5c-0.2,0.1-0.3,0.3-0.5,0.4
				c1.9-1,3.9-2,5.8-2.9c-0.2,0.1-0.5,0.1-0.7,0.2c2.2-0.1,4.3-0.2,6.5-0.4c-0.3-0.1-0.5-0.1-0.8-0.2c0.9,0.4,1.8,0.9,2.8,1.3
				c-0.5-0.4,1-2.9,1.1-3.2c0.4-1.3,0.3-2.4,0.1-3.8c-1-5.8-17.2-1.8-17.4,3.4c-0.2,4.3-1.4,7.6-4.1,10.9c5.6-0.3,11.2-0.6,16.8-0.9
				c2.1-6.9,1.7-14.1-1.3-20.6C513.7,277.1,496.6,282.5,499.1,287.8L499.1,287.8z"/>
		</g>
	</g>
	<g>
		<g>
			<path class="st2" d="M504.6,312.3c0.1,0.3,0.1,0.6,0.1,0.9c0-0.6-0.1-1.2-0.1-1.8c0,0.6,0.1,1.2,0,1.9c0,0.2,0,0.3-0.1,0.5
				c-0.2,0.7-0.1,0.6,0.1-0.4c-0.1,0.1-0.5,1.2-0.5,1.3c0.6-1,0.7-1.1,0.3-0.5c-0.2,0.2-0.4,0.5-0.6,0.7c5.4,0.8,10.8,1.5,16.2,2.3
				c0-0.5,0-1,0.1-1.5c0.1-0.6,0.1-0.7,0-0.1c-0.2,0.6-0.1,0.5,0.1-0.1c0.1-0.2,0.1-0.3,0.2-0.5c0.4-0.7,0.3-0.6-0.3,0.4
				c-0.1-0.1,0.9-1.1,1-1.1c2.8-3,1.3-7.7-2.4-9c-4.5-1.6-9.1,0-12.3,3.3c-2.4,2.5-4,6.2-3.9,9.7c0.1,3.4,2.5,5.7,5.9,6.1
				c3.8,0.4,7.7-0.9,10.3-3.8c3.2-3.6,4.4-8.3,3.5-12.9c-0.3-1.8-2.2-3.2-3.8-3.8c-2-0.8-4.6-0.8-6.6-0.2
				C507.7,304.8,503.8,307.8,504.6,312.3L504.6,312.3z"/>
		</g>
	</g>
	<g>
		<g>
			<path class="st2" d="M487.8,328.3c-2,2.5-3.9,5-5.9,7.4c-1.6,2.1,5.5,1.4,5.8,1.3c3.6-0.6,7.6-1.6,10.6-3.8
				c0.5-0.4,0.5-0.4,0-0.1c0.2-0.1,0.4-0.3,0.7-0.4c0.5-0.3,0.3-0.2-0.5,0.2c0.3-0.1,0.6-0.3,0.9-0.4c-4.5,0.5-9.1,1-13.6,1.5
				c0.1,0.3,0.1,0.5,0,0.8c0-0.2,0.1-0.5,0.1-0.7c0,0.3-0.1,0.5-0.3,0.8c-0.5,0.7-0.2,0.5,0.8-0.5c1.2-0.5,2.5-1.1,3.7-1.6
				c-0.1,0-0.3,0.1-0.4,0.1c-0.8,0.3-7.7,2.8-5.3,4.4c1.1,0.7,3.2,0.4,4.4,0.3c2.3-0.3,4.6-0.8,6.8-1.6c2.8-0.9,8-2.8,7.6-6.7
				c-0.2-1.4-4.2-0.9-4.8-0.8c-3,0.3-6,1.2-8.8,2.4c-2.5,1-4.8,2.3-6.9,3.9c5.5-0.8,10.9-1.7,16.4-2.5c2-2.5,3.9-5,5.9-7.4
				c0.8-0.9-0.8-1.4-1.3-1.5c-1.7-0.3-3.9,0-5.5,0.3C494.8,324.5,490,325.5,487.8,328.3L487.8,328.3z"/>
		</g>
	</g>
	<g>
		<g>
			<path class="st2" d="M494.7,327.1c-0.2,0-0.4,0-0.6,0c-1.2,0.1-2.4,0.3-3.5,0.8c-1.1,0.3-2.1,0.8-3,1.5c-0.9,0.6-1.5,1.3-2,2.1
				c-0.6,0.7-0.9,1.5-1,2.4c0,0.5,0.1,1.1,0.1,1.6c0.3,1.1,1,2,2,2.6c0.6,0.3,1.1,0.5,1.7,0.8c1.4,0.4,2.8,0.6,4.2,0.5
				c0.2,0,0.4,0,0.6,0c1.2-0.1,2.4-0.3,3.5-0.8c1.1-0.3,2.1-0.8,3-1.5c0.9-0.6,1.5-1.3,2-2.1c0.6-0.7,0.9-1.5,1-2.4
				c0-0.5-0.1-1.1-0.1-1.6c-0.3-1.1-1-2-2-2.6c-0.6-0.3-1.1-0.5-1.7-0.8C497.6,327.1,496.2,327,494.7,327.1L494.7,327.1z"/>
		</g>
	</g>
	<g>
		<g>
			<path class="st2" d="M442.9,342.2c0-0.2,0-0.4,0-0.6c0.2-0.8,0-1.5-0.4-2.1c-0.3-0.7-0.8-1.3-1.6-1.7c-0.8-0.5-1.7-0.8-2.6-0.9
				c-1.1-0.3-2.1-0.3-3.2-0.2c-2.3,0.3-4.7,0.9-6.6,2.3c-0.5,0.4-1,0.9-1.5,1.3c-0.8,0.8-1.4,1.8-1.6,2.9c0,0.2,0,0.4,0,0.6
				c-0.2,0.8,0,1.5,0.4,2.1c0.3,0.7,0.8,1.3,1.6,1.7c0.8,0.5,1.7,0.8,2.6,0.9c1.1,0.3,2.1,0.3,3.2,0.2c2.3-0.3,4.7-0.9,6.6-2.3
				c0.5-0.4,1-0.9,1.5-1.3C442.1,344.3,442.7,343.3,442.9,342.2L442.9,342.2z"/>
		</g>
	</g>
	<g>
		<g>
			<path class="st2" d="M345.7,312.1c-3.3,5.4,3.6,4.5,6.1,7.5c3.7,4.3,2.4,11.1,5.1,16c2.2,4.1,6.8,6.4,11.1,7.9
				c5.6,1.9,11.3-1.9,17-1.8c3.5,0.1,9.5-1.4,11.6-4.4c2.2-3.3-2-3.9-4.4-4c-6.8-0.2-13,1.4-19.4,3.6c2.3-0.5,4.5-1,6.8-1.4
				c3.5-0.2-0.8-1.2-1.7-1.6c-1.6-0.7-2.5-1.3-3.5-2.8c-1.9-3-2.1-6.7-2.8-10c-0.6-2.8-1.6-5.6-3.5-7.8c-2.2-2.5-4.6-2.6-7.4-3.8
				c0.6,0.5,1.1,1,1.7,1.5c-0.1-0.2-0.2-0.5-0.3-0.7c-0.2,0.7-0.5,1.4-0.7,2.1c0.1-0.2,0.3-0.4,0.4-0.6
				C365.4,305.7,348.3,308,345.7,312.1L345.7,312.1z"/>
		</g>
	</g>
	<g>
		<g>
			<path class="st2" d="M386.8,341.1c2.6,0.9,5.4,0.9,8.1,0.4c2.8-0.5,5.6-1.5,7.9-3.3c1.4-1.1,2.9-2.5,3.1-4.4
				c0.2-1.6-0.6-3.2-2-4.1c-1.7-1-3.9-1.4-5.9-1.2c-2.2,0.3-4.8,0.9-6.5,2.4c-0.2,0.2-0.5,0.4-0.8,0.5c0.6-0.4,1.3-0.7,1.9-1.1
				c-0.3,0.2-0.5,0.3-0.8,0.4c0.8-0.3,1.5-0.5,2.3-0.8c-0.3,0.1-0.6,0.2-0.9,0.2c0.8-0.1,1.6-0.3,2.4-0.4c-0.3,0-0.6,0.1-0.9,0.1
				c0.7,0,1.5,0,2.2,0c-0.3,0-0.6,0-0.9-0.1c0.7,0.1,1.3,0.3,2,0.4c-0.3-0.1-0.6-0.1-0.9-0.2c-2-0.7-4.6-0.5-6.6,0
				c-1.9,0.5-4.4,1.7-5.7,3.3c-1,1.2-2.1,2.9-1.5,4.6C383.8,339.5,385.1,340.5,386.8,341.1L386.8,341.1z"/>
		</g>
	</g>
	<g>
		<g>
			<path class="st2" d="M404.8,337.6c-1.7,0.6-3.5,1-5.3,1.1c-1.4,0-1.7,0-1,0c-1.8-0.2-0.6-0.1,0,0.2c-0.4-0.2-0.7-0.3-1.1-0.5
				c0.7,0.3,1.2,0.7,1.7,1.3c0.8,0.9,3.5,0.8,4.5,0.7c2.2-0.1,4.7-0.7,6.8-1.5c1.6-0.6,7.3-2.9,5.1-5.4c-1.4-1.5-3.5-2.1-5.5-2.4
				c-3.8-0.5-7.9,0.4-11.4,1.8c-1.6,0.6-3.7,1.5-4.8,2.8c-0.6,0.7-1.3,1.8-0.2,2.6c1.2,0.9,3.1,0.8,4.5,0.7
				C400.4,338.9,402.6,338.4,404.8,337.6L404.8,337.6z"/>
		</g>
	</g>
	<g>
		<g>
			<path class="st2" d="M357.3,315.3c2.5-1.6,4.5-3.8,5-6.9c0.2-1.1,0.3-3.1-0.1-4c0-0.4-0.1-0.7-0.1-1.1c-3,2-3.5,2.4-1.6,1.3
				c1.5-0.8,2.9-1.6,3.8-3c0.7-1,0.8-2.2,1.4-3.2c-0.8,1.4,1-0.6,1.5-1c1.5-1.2,2.4-2.2,3.5-3.7c6.9-8.9,14.6-15.5,25.7-18.2
				c3-0.8,8.3-3.5,7.3-7.4c-1-4-7.3-3.5-10.1-2.8c-10.6,2.6-20.3,7.6-28.5,14.8c-3.8,3.3-6.4,7.2-9.6,10.9c-1.3,1.5-3.2,2.3-4.6,3.8
				c-2.1,2.1-2.2,3.9-3,6.5c1.1-1.4,2.1-2.7,3.2-4.1c-1.7,1.1-4.9,2.8-6,6c-0.5,1.3-0.5,2.6-0.4,4c0,0.7,0.1,1.3,0.2,2
				c-0.2,1.7,0.2,1.6,1.4-0.2c-2.9,1.8-4.6,5.6-1.2,7.8C348.4,319,354.1,317.3,357.3,315.3L357.3,315.3z"/>
		</g>
	</g>
	<g>
		<g>
			<path class="st2" d="M375.1,303.5c0,0,0-0.1,0.1-0.1c3.5-7-8.1-8.1-12.1-5.8c-6.2,3.6-5.8,6.8-3.4,12.8c2.9,7.1,16.2,3.7,17.5-3
				c0.7-3.8,1.2-7.6,1.5-11.5c-5.9,0.5-11.7,1-17.6,1.4c-0.3,6.3,0.1,12.6,1,18.8c0.6,3.8,6.3,4.1,9.1,3.6c3.9-0.7,7.2-2.8,8.4-6.7
				c2.3-7.5,4-15.2,5-23c1.1-8.6-16.4-6.1-17.6,1.4c-1.2,7.8-1.9,15.6-2.1,23.5c-0.2,9.4,15.7,5.4,17.6-1.4
				c2.1-7.6,4.2-15.2,6.3-22.7c-5.9,0.5-11.7,1-17.6,1.4c-1.9,7.9-3.8,15.7-5.7,23.6c-2,8.1,14.8,5.8,17.1,0.2
				c2.9-7.1,5.3-14.4,7.1-21.9c2-8.1-14.8-5.8-17.1-0.2c-3.9,9.7-6.5,19.8-7.6,30.3c-0.9,8.6,14.7,5.7,17.1,0.2
				c3-7.1,5.5-14.4,7.5-21.9c1-3.8-4.2-5.4-6.9-5.4c-3.8,0-8.5,1.6-10.2,5.3c-3.4,7.1-5.8,14.7-7.1,22.5c-0.6,3.8,3.9,5.4,6.9,5.4
				c4.1,0,8-1.8,10.2-5.3c3.4-5.3,5.7-10.8,7.5-16.8c1.2-4.2-5.2-5.7-8-5.4c-4.3,0.3-8.4,2.7-9.6,6.9c-1.6,5.6-3.2,11.1-4.8,16.7
				c-1.1,3.7,4.3,5.4,6.9,5.4c4.2,0,7.9-1.8,10.2-5.3c1.7-2.5,2.9-5,3.8-7.8c3-9.5-13.5-8.4-16.6-1.8c-1.7,3.7-3,7.5-4.1,11.4
				c-0.9,3.2,3.3,5.2,5.7,5.4c3.9,0.4,7.5-1.2,10.3-3.7c2-1.8,3.4-3.9,4.2-6.5c-5.7-0.1-11.4-0.1-17.1-0.2c-0.4,1.7-0.7,3.4-1.1,5.1
				c-1.5,7.3,11.4,5.6,14.5,3.1c3.5-2.8,6.2-5.9,8.1-9.9c-5.5-0.6-11-1.2-16.6-1.8c-1,2.4-2,4.7-3.1,7.1c-1.7,3.9,1.5,6.6,5.2,7
				c4.4,0.5,9-1.5,11.3-5.2c0.5-0.9,1.1-1.7,1.6-2.6c2.3-3.7-2-6.7-5.2-7c-4.4-0.5-9,1.5-11.3,5.2c-0.9,1.5-1.9,2.9-2.8,4.4
				c-1.8,2.8,0.7,5.7,3.2,6.6c3.5,1.3,7.8,0.1,10.8-1.9c2.8-1.9,5.6-3.8,8.4-5.7c-4.8-1-9.7-2-14.5-3.1c-0.4,1.3-1,2.5-1.6,3.8
				c-1.7,3.4,1,6.1,4.2,6.8c3.9,0.8,8.6-0.5,11.3-3.5c3.8-4.3,7.5-8.7,10.9-13.3c-5.3-0.6-10.7-1.1-16-1.7c-0.6,2.1-1.2,4.2-1.8,6.3
				c-2.2,7.7,14.8,6.1,17.1,0.2c1.5-3.9,3.4-6.8,6.8-9.3c-4.7-1.6-9.3-3.1-14-4.7c-2.1,4.9-3.8,10-5.4,15.1
				c-1.2,3.7,4.3,5.4,6.9,5.4c4,0,8.1-1.7,10.2-5.3c1.6-2.7,3.2-5.3,4.8-8c-5.5-0.6-11-1.2-16.6-1.8c-1.3,3.7-2.7,7.4-4,11.1
				c-3.3,9.2,11.6,7.7,15.5,3.3c4.2-4.8,7.5-10.1,9.6-16.1c-5.7-0.1-11.4-0.1-17.1-0.2c-1.5,5.1-3.1,10.1-4.6,15.2
				c-1.1,3.7,4.3,5.4,6.9,5.4c3.8,0,8.4-1.7,10.2-5.3c2.6-5.1,5.3-10.2,7.9-15.3c-5.7-0.1-11.4-0.1-17.1-0.2
				c-1.2,5.1-2.4,10.2-3.6,15.4c-1.8,7.9,15.1,6.2,17.1,0.2c1.8-5.7,4.5-10.7,8.4-15.3c-5.2-1.1-10.3-2.2-15.5-3.3
				c-2.5,5.2-4.9,10.4-7.4,15.6c-4,8.6,12,8.2,15.5,3.3c4.1-5.7,8.3-11.5,12.5-17.2c-5.2-1.1-10.3-2.2-15.5-3.3
				c-1.8,5.1-4.1,10.2-7.3,14.7c-2.2,3.2-1.8,6.7,2.2,8.1c4.2,1.5,9.3-0.3,12.3-3.3c4.6-4.6,8.2-10,10.6-15.9
				c-5.5-0.6-11-1.2-16.6-1.8c-2.5,6.5-5.8,12.5-10,18.1c5.2,1.1,10.3,2.2,15.5,3.3c3.1-4.8,6.3-9.6,9.4-14.5
				c-5.5-0.6-11-1.2-16.6-1.8c-1.7,3.6-3.6,7-5.9,10.3c-6.3,9,9.8,10.9,14.5,4.8c4.2-5.4,8.3-10.8,12.5-16.3
				c-5.2-1.1-10.3-2.2-15.5-3.3c-1.9,4-3.8,8-5.7,12c-1.8,3.8,1.7,6.6,5.2,7c4.5,0.5,8.9-1.5,11.3-5.3c3.3-5.1,6.7-10.2,10-15.3
				c-5.5-0.6-11-1.2-16.6-1.8c-2.6,6.2-5.2,12.3-7.9,18.5c-3.8,9.1,11.8,7.6,15.5,3.3c4.8-5.5,8.8-11.6,12-18.2
				c1.8-3.8-1.7-6.6-5.2-7c-4.2-0.5-9.3,1.4-11.3,5.2c-3.2,6-6.4,11.9-9.7,17.9c-1.8,3.4,1.1,6.2,4.2,6.8c3.8,0.8,8.8-0.4,11.3-3.5
				c5.4-6.7,10.1-13.9,13.9-21.7c-5.5-0.6-11-1.2-16.6-1.8c-2.5,7.2-5.6,14.1-9.3,20.8c-2.1,3.8,1.9,6.6,5.2,7
				c4.5,0.5,8.9-1.5,11.3-5.2c3.8-5.7,7.6-11.4,11.4-17.1c-5.5-0.6-11-1.2-16.6-1.8c-2.4,5.7-5.2,11.2-8.5,16.5
				c-2.3,3.7,2,6.7,5.2,7c4.5,0.5,8.9-1.5,11.3-5.2c3.2-4.9,6.5-9.9,9.7-14.8c-5.5-0.6-11-1.2-16.6-1.8c-2.5,5.5-4.9,11-7.4,16.4
				c-3.9,8.7,11.9,8.1,15.5,3.3c4.1-5.4,7.7-11,10.8-17.1c-5.7-0.1-11.4-0.1-17.1-0.2c-0.7,3.1-1.9,5.9-3.9,8.4
				c-6.8,8.6,9.7,10.9,14.5,4.8c3.5-4.5,5.8-9.1,7-14.7c0.8-3.8-4.1-5.4-6.9-5.4c-3.8,0-8.4,1.6-10.2,5.3c-2.5,4.9-5.3,9.6-8.7,14
				c5.2,1.1,10.3,2.2,15.5,3.3c2.5-5.5,4.9-11,7.4-16.4c1.7-3.9-1.6-6.6-5.2-7c-4.5-0.5-8.9,1.5-11.3,5.2c-3.2,4.9-6.5,9.9-9.7,14.8
				c5.5,0.6,11,1.2,16.6,1.8c3.2-5.3,6-10.8,8.5-16.5c1.7-3.9-1.5-6.6-5.2-7c-4.5-0.5-8.9,1.5-11.3,5.2c-3.8,5.7-7.6,11.4-11.4,17.1
				c5.5,0.6,11,1.2,16.6,1.8c3.7-6.7,6.8-13.6,9.3-20.8c3.3-9.5-13.4-8.3-16.6-1.8c-3.3,6.7-7.1,12.9-11.8,18.6
				c5.2,1.1,10.3,2.2,15.5,3.3c3.2-6,6.4-11.9,9.7-17.9c-5.5-0.6-11-1.2-16.6-1.8c-2.6,5.5-5.8,10.5-9.9,15.1
				c5.2,1.1,10.3,2.2,15.5,3.3c2.6-6.2,5.2-12.3,7.9-18.5c1.6-3.9-1.5-6.6-5.2-7c-4.5-0.5-8.9,1.5-11.3,5.2
				c-3.3,5.1-6.7,10.2-10,15.3c5.5,0.6,11,1.2,16.6,1.8c1.9-4,3.8-8,5.7-12c4.1-8.7-11.9-8-15.5-3.3c-4.2,5.4-8.3,10.8-12.5,16.3
				c4.8,1.6,9.6,3.2,14.5,4.8c3-4.3,5.7-8.6,8-13.3c1.8-3.8-1.7-6.6-5.2-7c-4.5-0.5-8.9,1.5-11.3,5.2c-3.1,4.8-6.3,9.6-9.4,14.5
				c-2.1,3.3,1.4,6.2,4.2,6.8c3.7,0.8,8.9-0.4,11.3-3.5c5-6.5,9.1-13.5,12.1-21.1c3.6-9.1-13.8-8.7-16.6-1.8c-2,5-4.7,9.1-8.5,12.9
				c4.8,1.6,9.6,3.2,14.5,4.8c3.9-5.6,7.1-11.3,9.3-17.7c3.1-8.9-11.8-8.4-15.5-3.3c-4.2,5.7-8.3,11.5-12.5,17.2
				c5.2,1.1,10.3,2.2,15.5,3.3c2.5-5.2,4.9-10.4,7.4-15.6c1.6-3.4-1-6.1-4.2-6.8c-3.9-0.8-8.6,0.5-11.3,3.5
				c-4.7,5.4-8.3,11.5-10.5,18.3c5.7,0.1,11.4,0.1,17.1,0.2c1.2-5.1,2.4-10.2,3.6-15.4c0.9-3.8-4.1-5.4-6.9-5.4
				c-3.8,0-8.4,1.7-10.2,5.3c-2.6,5.1-5.3,10.2-7.9,15.3c5.7,0.1,11.4,0.1,17.1,0.2c1.5-5.1,3.1-10.1,4.6-15.2
				c2.3-7.5-14.9-6.3-17.1-0.2c-1.7,4.9-4.1,9.1-7.5,13c5.2,1.1,10.3,2.2,15.5,3.3c1.3-3.7,2.7-7.4,4-11.1c1.4-3.9-1.4-6.6-5.2-7
				c-4.3-0.5-9.1,1.5-11.3,5.2c-1.6,2.7-3.2,5.3-4.8,8c5.7,0.1,11.4,0.1,17.1,0.2c1.3-4,2.8-8,4.4-11.9c3.5-8.4-10-7.6-14-4.7
				c-5.4,3.8-9.6,8.9-11.9,15.1c5.7,0.1,11.4,0.1,17.1,0.2c0.6-2.1,1.2-4.2,1.8-6.3c0.9-3.2-3.3-5.2-5.7-5.4
				c-3.4-0.4-8.1,0.9-10.3,3.7c-3.5,4.6-7.1,9-10.9,13.3c5.2,1.1,10.3,2.2,15.5,3.3c1.1-2.3,1.9-4.6,2.6-7c0.8-2.8-2.7-4.8-4.7-5.2
				c-3.4-0.7-6.9,0.2-9.8,2.1c-2.8,1.9-5.6,3.8-8.4,5.7c4.7,1.6,9.3,3.1,14,4.7c0.9-1.5,1.9-2.9,2.8-4.4c-5.5-0.6-11-1.2-16.6-1.8
				c-0.5,0.9-1.1,1.7-1.6,2.6c5.5,0.6,11,1.2,16.6,1.8c1-2.4,2-4.7,3.1-7.1c3.9-9-13.5-8.5-16.6-1.8c-0.8,1.6-1.5,3-2.9,4.1
				c4.8,1,9.7,2,14.5,3.1c0.4-1.7,0.7-3.4,1.1-5.1c1.7-8-15.1-6.2-17.1-0.2c-0.5,1.7-0.8,2.2-2.1,3.4c5.3,0.6,10.7,1.1,16,1.7
				c0.8-2.8,1.9-5.5,3.1-8.2c-5.5-0.6-11-1.2-16.6-1.8c-0.9,2.9-2.1,5.3-3.8,7.8c5.7,0.1,11.4,0.1,17.1,0.2
				c1.6-5.6,3.2-11.1,4.8-16.7c-5.9,0.5-11.7,1-17.6,1.4c-1.4,4.9-3.7,9.4-6.5,13.6c5.7,0.1,11.4,0.1,17.1,0.2
				c1.1-6.8,3.1-13.1,6.1-19.3c-5.7-0.1-11.4-0.1-17.1-0.2c-1.7,6.4-3.9,12.6-6.5,18.7c5.7,0.1,11.4,0.1,17.1,0.2
				c1-9.3,3.1-18.3,6.6-27.1c-5.7-0.1-11.4-0.1-17.1-0.2c-1.6,6.4-3.6,12.6-6.1,18.7c5.7,0.1,11.4,0.1,17.1,0.2
				c1.9-7.9,3.8-15.7,5.7-23.6c1-4.2-5-5.7-8-5.4c-4.2,0.3-8.4,2.7-9.6,6.9c-2.1,7.6-4.2,15.2-6.3,22.7c5.9-0.5,11.7-1,17.6-1.4
				c0.2-7.9,0.9-15.7,2.1-23.5c-5.9,0.5-11.7,1-17.6,1.4c-1,7.8-2.7,15.5-5,23c5.8-1,11.7-2,17.5-3c-0.8-5.2-1.1-10.3-0.8-15.6
				c0.4-8.8-17-6.1-17.6,1.4c-0.3,3.9-0.8,7.7-1.5,11.5c5.8-1,11.7-2,17.5-3c0-0.1-1.7-3.6-1.7-3.7c-1.7,1.9-3.3,3.8-5,5.6
				c0.1-0.1,0.2-0.1,0.4-0.2c-4-1.9-8.1-3.9-12.1-5.8c0,0,0,0.1-0.1,0.1c-1.9,3.8,1.7,6.6,5.2,7
				C367.8,309.2,373.1,307.4,375.1,303.5L375.1,303.5z"/>
		</g>
	</g>
	<g>
		<g>
			<path class="st2" d="M349.3,297.8c-0.1,0.1-0.2,0.3-0.3,0.4c1.2-0.9,2.4-1.7,3.6-2.6c-0.2,0.1-0.3,0.1-0.5,0.2
				c2.9-0.8,5.9-1.6,8.8-2.4c-0.2,0-0.4,0-0.6,0c1.1,0,2.2,0.1,3.4,0.1c-1.2-0.3-2.1-1.4-3.5-1.6c-3-0.5-6.2,0.2-9,1.1
				c-1.6,0.5-6.2,1.8-6.7,3.8c-0.3,0.8-0.2,0.8,0.5,0c2-0.8,4-1.6,5.9-2.4c1.1-0.2,2.2-0.4,3.3-0.6c1.1,0,2.2,0.1,3.4,0.1l0,0
				c-2.1-1.2-5.6-0.4-7.7,0.1c-2.6,0.6-6.5,1.5-8.3,3.6c-1.9,2.1-2.2,4.4-0.5,6.9c0.7,1,4,4.3,2.3,5.7c1.6-0.9,3.3-1.7,4.9-2.6
				c-0.2,0.1-0.4,0.1-0.6,0.2c3.9-0.2,7.8-0.3,11.7-0.5c-0.7-2-1-4-0.5-6c0.6-2.9-5.5-1.8-6.9-1.6c-2.3,0.4-4.5,1.1-6.6,2.1
				c-1,0.5-3.3,1.4-3.6,2.6c-0.6,2.6-0.6,5,0.3,7.6c1,3,10.2,0.1,11.7-0.5c3.2-1.3,8.3-3.3,7.3-7.7c-0.3-1.4-5.1-6-3.7-7.6
				c-5.4,1.2-10.7,2.4-16.1,3.6c3.2,1.8,7.8,0.8,11.1-0.1c2.9-0.8,8.4-2.4,9.3-5.9c-5.2,1.6-10.5,3.3-15.7,4.9
				c0.8,0.1,1.6,1,2.4,1.3c1.6,0.6,3.3,0.5,5,0.4c4.3-0.4,10.4-1.9,13.1-5.6c1.8-2.5-6.3-1.7-6.9-1.6
				C356.2,293.8,351.5,294.9,349.3,297.8L349.3,297.8z"/>
		</g>
	</g>
	<g>
		<g>
			<path class="st2" d="M353.5,305.7c0.6-0.7,1.3-1.3,1.9-2c1-1,2.1-2.4,1.7-3.9c-0.4-1.4-2.1-2.3-3.4-2.6c-2.1-0.4-4.4-0.3-6.5,0.3
				c-2,0.6-4.3,1.4-5.8,3c-0.6,0.7-1.3,1.3-1.9,2c-1,1-2.1,2.4-1.7,3.9c0.4,1.4,2.1,2.3,3.4,2.6c2.1,0.4,4.4,0.3,6.5-0.3
				C349.8,308.1,352,307.2,353.5,305.7L353.5,305.7z"/>
		</g>
	</g>
	<g>
		<g>
			<path class="st2" d="M346,302.8c4,0,9.4-1.1,11.4-5.1c1.7-3.6-1.5-6.6-5.1-6.6c-4,0-9.4,1.1-11.4,5.1
				C339.1,299.8,342.4,302.8,346,302.8L346,302.8z"/>
		</g>
	</g>
	<g>
		<g>
			<path class="st2" d="M343.3,302.7c1.9,0,3.9,0,5.8,0c2.4,0,4.6-0.2,6.8-1.3c1.6-0.7,3.8-2.1,4.5-3.8c0.6-1.4,0.9-3-0.2-4.3
				c-1.2-1.3-3.1-2.1-4.8-2.1c-1.9,0-3.9,0-5.8,0c-2.4,0-4.6,0.2-6.8,1.3c-1.6,0.7-3.8,2.1-4.5,3.8c-0.6,1.4-0.9,3,0.2,4.3
				C339.7,301.9,341.6,302.7,343.3,302.7L343.3,302.7z"/>
		</g>
	</g>
	<g>
		<g>
			<path class="st2" d="M384.1,277.5c1.3-0.7,2.5-1.5,3.8-2.2c2.9-1.7,5.5-6.1,0.1-6.6c-5.5-0.5-13.3,0.6-16.3,5.9
				c-3.9,6.9,10.9,3.4,13.3,2.1c3.9-2.1,7.8-3.3,12.2-3.9c0.1-2.7,0.2-5.5,0.3-8.2c-1.8,0.4-3.5,0.8-5.3,1.2c2.1,2,4.2,4,6.3,6.1
				c1.8-1,5.3,1.3,7.4,1.5c4.4,0.6,11-0.9,14.1-4.3c2.2-2.4,2.5-5-0.7-6.5c-4.1-1.9-9.8-0.1-13.3,2c-2.4,1.4-5.2,4.2-1.7,6.1
				c3.8,2.1,7.9,2.7,12.2,2.5c2.6-0.1,5.2-0.6,7.7-1.2c1.7-0.4,3.8-1.5,5.6-1.5c3.2,0.1,7.1,3,10.3,3.9c4.5,1.3,9,1,13.6-0.2
				c2.3-0.6,8.6-2.8,7.7-6.2c-0.9-3.4-7.7-2.1-9.7-1.6c3.6-0.9,1.8-0.2-0.3-0.9c-1.4-0.5-2.8-1.2-4.2-1.8c-3.2-1.3-6.5-2.2-10.1-2.3
				c-3.7,0-7.3,0.7-10.9,1.6c-3.6,1-4.5,1.5-7.8-0.4c-0.6,2-1.1,4.1-1.7,6.1c0.2-0.1,0.4-0.3,0.6-0.4c-4.1,0.6-8.2,1.2-12.3,1.8
				c0.3,0.1,0.5,0.2,0.8,0.3c-0.6-0.5-1.1-1.1-1.7-1.6c-0.1,0.2-0.1,0.5-0.2,0.7c1.8-1.4,3.6-2.9,5.3-4.3c-0.4,0.2-0.8,0.3-1.3,0.5
				c2.9-0.4,5.8-0.8,8.7-1.3c-4.8-0.8-8.5-2.3-13.5-1.9c-5.4,0.5-10.6,2.1-15.3,4.8c-1.8,1-4.7,3.3-2.8,5.5c1.9,2.2,6.8,1.1,9.1,0.6
				c1.8-0.4,3.5-0.8,5.3-1.2c2.3-0.5,7.7-2.6,7.6-5.7c-0.1-3.2-5.3-2.8-7.4-2.6c-9,1.1-17.5,3.9-25.4,8.2c4.4,0.7,8.9,1.4,13.3,2.1
				c-0.4,0.2-0.7,0.4-1.1,0.6c-3.6,0.7-7.1,1.5-10.7,2.2c0.4,0,0.8,0.1,1.2,0.1c0-2.2,0.1-4.4,0.1-6.6c-1.3,0.7-2.5,1.5-3.8,2.2
				c-2.4,1.4-5.1,4.3-1.7,6.1C375.1,281.1,381.2,279.2,384.1,277.5L384.1,277.5z"/>
		</g>
	</g>
	<g>
		<g>
			<path class="st2" d="M397,265.8c0,0.3-0.1,0.6-0.3,0.9c0.2-0.4,0.4-0.7,0.6-1.1c-0.1,0.2-0.3,0.4-0.4,0.5
				c0.4-0.4,0.8-0.7,1.2-1.1c-0.1,0.1-0.2,0.2-0.3,0.2c0.5-0.3,1.1-0.7,1.6-1c-0.1,0-0.2,0.1-0.2,0.1c0.7-0.3,1.3-0.6,2-0.9
				c-0.1,0-0.2,0.1-0.3,0.1c0.8-0.2,1.5-0.5,2.3-0.7h-0.1c0.8-0.2,1.6-0.3,2.3-0.5c-0.1,0-0.2,0-0.3,0c-1.2,0.2-2.4,0.4-3.5,0.9
				c-1.1,0.3-2.1,0.7-3.1,1.3c-0.8,0.4-1.6,0.9-2.2,1.6c-0.6,0.4-1,1-1.2,1.6c0,0.3,0,0.7-0.1,1c0.3,0.8,0.9,1.3,1.7,1.5
				c1.8,0.6,3.8,0.5,5.6,0.3c1.8-0.2,3.6-0.8,5.3-1.4c1.4-0.6,2.9-1.4,4.2-2.3c1.1-0.9,2.4-2.2,2.5-3.6c0.2-0.6,0.2-1.1-0.2-1.5
				c-0.3-0.6-0.7-0.9-1.4-1.1c-0.8-0.3-1.7-0.4-2.5-0.4c-1-0.1-2.1,0-3.1,0.1c-2.3,0.4-4.6,1-6.6,2.2c-0.5,0.3-1.1,0.7-1.6,1
				C398,264.1,397.4,264.9,397,265.8L397,265.8z"/>
		</g>
	</g>
	<g>
		<g>
			<path class="st2" d="M395.6,269.7c0-0.2,0-0.4,0-0.6c0.1-0.9,0-1.7-0.5-2.5c-0.3-0.8-0.8-1.5-1.6-2c-0.8-0.6-1.7-1-2.7-1.1
				c-1.1-0.3-2.1-0.4-3.2-0.3c-2.3,0.2-4.7,0.9-6.5,2.4c-0.5,0.5-1,0.9-1.5,1.4c-0.8,0.9-1.3,2-1.5,3.3c0,0.2,0,0.4,0,0.6
				c-0.1,0.9,0,1.7,0.5,2.5c0.3,0.8,0.8,1.5,1.6,2c0.8,0.6,1.7,1,2.7,1.1c1.1,0.3,2.1,0.4,3.2,0.3c2.3-0.2,4.7-0.9,6.5-2.4
				c0.5-0.5,1-0.9,1.5-1.4C394.9,272,395.4,270.9,395.6,269.7L395.6,269.7z"/>
		</g>
	</g>
	<g>
		<g>
			<path class="st2" d="M362.6,287.7c-2.7-0.7-5.5-0.2-8.2,0.5c-1.4,0.4-3.2,1-4.5,1.7c-0.9,0.5-2.2,1.2-2.9,2
				c-0.6,0.7-0.9,1.1-1,1.9s0,1.1,0.7,1.7c0.6,0.4,1.2,0.6,1.8,0.6c0.9,0.2,1.8,0.2,2.6,0.1c1.1-0.1,2.2-0.2,3.3-0.5
				c1.2-0.2,2.3-0.5,3.5-1c0.7-0.3,1.3-0.6,2-0.9c1-0.5,2-1.1,2.8-1.9c0.7-0.8,1.2-1.7,0.2-2.6c-0.1,0-0.1-0.1-0.1-0.1
				c0.2,0.2,0.4,0.5,0.5,0.7c-0.1-0.1-0.1-0.2-0.1-0.4c0,0.3-0.1,0.6-0.1,0.9c0-0.1,0.1-0.3,0.1-0.4c-0.2,0.3-0.5,0.6-0.7,1
				c0-0.1,0.1-0.1,0.1-0.2c-0.4,0.3-0.8,0.7-1.2,1c0,0,0.1,0,0.1-0.1c-0.5,0.3-1.1,0.6-1.6,0.9h0.1c-0.7,0.3-1.3,0.6-2,0.9h0.1
				c-1.5,0.4-3.1,0.8-4.6,1.2h0.1c-1.3,0.1-2.7,0.2-4,0.2h0.1c-0.5-0.1-1-0.2-1.5-0.3h0.1c1.8,0.4,3.8,0.3,5.6,0
				c1.2-0.2,2.3-0.5,3.5-0.9c1.1-0.3,2.1-0.7,3.1-1.2c0.5-0.3,1.1-0.6,1.6-0.9c0.8-0.5,1.4-1.1,1.9-1.9c0-0.3,0.1-0.6,0.1-0.9
				C363.9,288.2,363.4,287.8,362.6,287.7L362.6,287.7z"/>
		</g>
	</g>
	<g>
		<g>
			<path class="st2" d="M448.7,272c0.2,0.2,0.5,0.4,0.7,0.6c0.6,0.3,1.2,0.5,1.8,0.5c0.9,0.1,1.7,0.2,2.6,0c2.2-0.2,4.7-0.7,6.8-1.5
				c0.7-0.3,1.3-0.6,2-0.8c1-0.5,2-1.1,2.9-1.8c0.2-0.3,0.5-0.6,0.7-0.9c0.3-0.6,0.2-1.1-0.4-1.4c-0.2-0.2-0.5-0.4-0.7-0.6
				c-0.6-0.3-1.2-0.5-1.8-0.5c-0.9-0.1-1.7-0.2-2.6,0c-2.2,0.2-4.7,0.7-6.8,1.5c-0.7,0.3-1.3,0.6-2,0.8c-1,0.5-2,1.1-2.9,1.8
				c-0.2,0.3-0.5,0.6-0.7,0.9C448.1,271.1,448.2,271.6,448.7,272L448.7,272z"/>
		</g>
	</g>
	<g>
		<g>
			<path class="st2" d="M464.9,267.4c0.8-0.9,1-2.2,0.6-3.3c-0.6-1.5-3.7-1-4.8-0.9c-3,0.3-6,1.2-8.8,2.4c-0.5,0.2-1.1,0.5-1.6,0.7
				c-0.9,0.4-3.1,1.4-3.6,2.5c-0.4,1,0.5,1.5,1.4,1.6c0.6,0.1,1.3,0.2,1.9,0.3c4,0.5,8.5-0.7,12.1-2.3c1.1-0.5,3.1-1.2,3.6-2.5
				c0.4-1-0.5-1.4-1.4-1.6c-2.9-0.4-5.8-0.6-8.8-0.5c-4.1,0.1-8.8,1.1-12.3,3.3c-0.7,0.4-2.4,1.3-2.1,2.3s2.3,1,3,1
				c1.1,0,2.2,0,3.4,0c1.2,0.1-0.5-0.1,0.8,0.1c0.6,0.1,1.1,0.1,1.7,0.2c4.8-2.1,9.6-4.3,14.4-6.4c-0.6-0.1-1.3-0.2-1.9-0.3
				c-0.8,1.3-1.5,2.7-2.3,4c0.5-0.2,1.1-0.5,1.6-0.7c-4.5,0.5-9.1,1-13.6,1.5c0.2,0.6,0.3,1,0.2,1.6c0-0.2,0.1-0.5,0.1-0.7
				c-0.2,0.4-0.3,0.7-0.6,1c-0.8,0.9,0.9,1.5,1.4,1.6c1.7,0.4,3.9,0,5.5-0.3C458.1,271.2,462.4,270.2,464.9,267.4L464.9,267.4z"/>
		</g>
	</g>
	<g>
		<g>
			<path class="st2" d="M421.3,273c4,0,9.4-1.1,11.4-5.2c1.7-3.6-1.5-6.7-5.1-6.7c-4,0-9.4,1.1-11.4,5.2
				C414.5,269.9,417.7,273,421.3,273L421.3,273z"/>
		</g>
	</g>
	<g>
		<g>
			<path class="st2" d="M454.6,270.3c0.5,6.4,4.4,11.3,11,12.4c6.4,1.1,14.2-1.4,17.8-7.1c-5.3-0.1-10.7-0.3-16-0.4
				c0.4,3.5,3.1,5.5,6,6.9c3.9,1.9,9.7-0.1,12.3-3.3c2.8-3.4,1.3-7-2.4-8.8c1.3,1.7,1.8,1.9,1.4,0.5c-0.3-3-4.6-4.2-6.9-4.3
				c-3-0.1-7.4,1.1-9.2,3.8c-0.9,1.4,0,0.2,0.6,0.1c0.9-0.1,2.7-0.1,3.5-0.3c0.5-0.2,0.5,1.5-0.1-0.3c0.2,0.6-0.4-1.1-0.4-0.4
				c-0.3-4.2-4-6.4-8.1-6C460.9,263.4,454.3,265.9,454.6,270.3L454.6,270.3z"/>
		</g>
	</g>
	<g>
		<g>
			<path class="st2" d="M490.8,277.1c0.5-0.7,0.9-1.2,1-2c0.1-0.7,0.2-1.3-0.2-1.9c-0.2-0.5-0.6-0.9-1.1-1.1
				c-0.6-0.4-1.3-0.6-2.1-0.6c-1-0.1-2-0.1-3,0.1c-1.2,0.1-2.3,0.3-3.4,0.6c-2,0.6-4.2,1.3-5.9,2.6c-0.4,0.3-0.8,0.7-1.2,1
				c-0.6,0.5-0.8,1.2-0.7,2c0.2,0.3,0.2,0.6,0.2,1c0-0.3,0.1-0.6,0.1-0.9c0,0.3-0.1,0.6-0.3,0.8c0.2-0.3,0.4-0.7,0.7-1l-0.1,0.1
				c-0.5,0.4-0.7,0.9-0.7,1.5c-0.1,0.5,0,0.9,0.5,1.3c0.6,0.4,1.2,0.6,1.9,0.7c0.9,0.2,1.8,0.3,2.7,0.2c2.3-0.1,4.6-0.6,6.8-1.5
				c0.7-0.3,1.3-0.6,2-0.9C489,278.5,490,277.9,490.8,277.1L490.8,277.1z"/>
		</g>
	</g>
	<g>
		<g>
			<path class="st2" d="M473.6,277.6c4.6,3.5,9.1,7.9,14.1,10.8c5.9,3.4,13.6-0.1,18.9-3.1c-4.6,1-9.2,2.1-13.8,3.1
				c-0.3-0.1-0.5-0.2-0.8-0.3c-0.3,2.3,7.7,0.9,8.3,0.7c2.9-0.7,7.4-1.7,9-4.6c2.9-5-9.8-6.8-12.2-7.5c-3.8-1-8.8,0.5-12.2,2.2
				c-1.6,0.8-5.9,3.6-2.1,4.7c1.2,0.3,10.1,2.1,9.3,3.6c5.8-1.3,11.5-2.6,17.3-3.8c0.3-2.3-4.6-2.1-5.7-2.1c-4,0.3-8.4,1.6-11.7,4.1
				c2-0.8,4-1.6,5.9-2.5c-0.3,0.1-0.6,0.2-0.9,0.2c2.6-0.2,5.3-0.4,7.9-0.6c-2.5-0.5-5.2-3.5-7.2-5.1c-2.6-2-5.2-4-7.8-6
				c-2.7-2-8.5-0.1-11.2,0.9C477.6,273,471.1,275.7,473.6,277.6L473.6,277.6z"/>
		</g>
	</g>
	<g>
		<g>
			<path class="st2" d="M392.3,271.5c-6.5,7.1-10.8,15.5-12,25.2c-0.4,3.5,3.9,4.3,6.5,4.2c3.8-0.2,8-1.6,10.3-4.8
				c4.5-6.2,8-12.7,11-19.7c1.4-3.4-4.7-4.2-6.5-4.2c-3.8,0.2-8.1,1.6-10.3,4.8c-5.9,8.4-11.8,16.8-17.8,25.2
				c-2.4,3.4,2.1,5.4,4.8,5.6c4.2,0.3,8.8-1.5,11.4-4.9c5.2-6.6,8.7-14.3,10.2-22.5c1.2-6.7-11.6-3.6-14.2-1.9
				c-8.9,5.9-15.3,14-18.5,24.2c-1.1,3.5,4.4,4.2,6.5,4.2c3.9-0.2,7.9-1.7,10.3-4.8c4.4-5.8,8.8-11.6,13.2-17.4
				c2.6-3.4-2.2-5.4-4.8-5.6c-4.2-0.3-8.8,1.6-11.4,4.9c-5.7,7.1-10,14.8-13.4,23.2c-1,2.5,2.8,3.9,4.4,4.1c3.1,0.4,7.2-0.3,9.8-2.2
				c6.9-5.2,13.4-10.7,19.7-16.6c-5.2-0.2-10.5-0.4-15.7-0.7c-2.2,7-4.3,13.9-6.5,20.9c-1.1,3.5,4.4,4.2,6.5,4.2
				c4-0.2,7.8-1.7,10.3-4.8c7.5-9.2,13.8-19.2,18.7-30c3.8-8.2-12.1-5.1-15.2-2c-11,11.4-19.2,24.7-24.3,39.7c-1,3,3.5,4.1,5.4,4.2
				c3.3,0.2,8.1-1,10.3-3.6c5.9-6.9,11.3-14.1,15.8-22c3-5.3,10.4-15.4,5.1-21.2c-3.5-3.8-12-1.3-15.1,1.8
				c-7.8,7.8-13.3,17.2-15.8,27.9c-1.4,5.8,9.8,4.2,12.2,2.9c12.5-6.5,22-17.2,24.3-31.4c1.2-7.6-14.7-3.3-16.9,0.7
				c-4.3,7.8-8.5,15.7-12.8,23.5c-4,7.4,10.6,5.5,13.6,3.2c9.2-7,15.8-16,18.5-27.3c1.6-6.7-11.8-3.4-14.2-1.9
				c-7.9,5.2-13.6,12.1-17,21c-1.1,3,3.6,4.1,5.4,4.2c3.7,0.2,7.5-1.2,10.3-3.6c7.1-5.8,13-12.8,17.7-20.7c2.1-3.5-1.8-5.5-4.8-5.6
				c-10.4-0.3-23.9,5.9-24.4,17.7c-0.3,6.6,11,4.1,14.2,1.9c5.9-4.1,10.8-9,14.3-15.3c1.5-2.7-0.3-4.6-2.9-5.3
				c-3.4-0.9-7.9,0.2-10.7,2.1c-5.4,3.6-17,17.3-7.5,22.6c11,6.1,24-9.9,30.9-16.3c-5.1-0.7-10.1-1.3-15.2-2
				c-1.2,2.3-2.4,4.6-3.7,6.8c-3,5.6,6.1,6.2,9.4,5c7.3-2.5,13.9-6.4,17.3-13.6c1.3-2.7-0.1-4.6-2.9-5.3
				c-10.5-2.6-24.1,1.8-29.1,11.9c-1.8,3.6,1.5,5.4,4.8,5.6c7.6,0.3,14.8-1.7,21.3-5.6c2-1.2,4.5-4,2.6-6.3c-2-2.5-6.7-1.8-9.3-1.2
				c-5.2,1.1-14,8.5-6.1,12.9c6.1,3.4,15.6,0.5,22.2-0.4c3.1-0.4,12.8-3.8,9.2-8.6c-4.3-5.6-12.5-6.2-18.8-4
				c-2.6,0.9-10,4.1-6.8,8.2c6.6,8.5,26,3.2,27.6-7.3c0.3-2.1-1.5-3.7-3.5-3.9c-9.8-1.3-20.8,1.8-26,10.8c-1.5,2.6,0.3,4.7,2.9,5.3
				c4.7,1.1,9.2,0.7,13.9-0.5c3.5-0.9,3.7-2.2,5.3,0.5c1.8,2.9,8.1,1.6,10.4,0.8c3.1-1.1,6.4-3,6.3-6.6c-0.1-4.3-2.7-7.5-6.5-9.4
				c-4.6,2.9-9.2,5.8-13.7,8.7c8.4,3.2,13.9,10.9,22.1,14.4c8.9,3.8,19.7,3.6,27.7-2.3c2-1.5,5.6-5.6,1.4-7.2
				c-4.6-1.8-9.3-3.7-13.9-5.5c-4,3.1-8.1,6.2-12.1,9.3c7.9,2.7,15.5,6.3,22.8,10.4c-0.6-1.1-1.2-2.2-1.8-3.4
				c-2.3,7-4.6,14.1-6.8,21.1c-1,3,3.5,4.1,5.4,4.2c3.3,0.2,8.1-1,10.3-3.6c3.6-4.2,7.2-8.3,10.8-12.5c-5.2-0.2-10.5-0.4-15.7-0.7
				c-2.7,8.6-5.4,17.2-8.1,25.9c5.8-1.1,11.6-2.2,17.4-3.3c-1.1-5.5-0.1-11.4,3.8-15.7c-5.1-0.7-10.1-1.3-15.2-2
				c-3.5,7.3-8.8,13.8-16.2,17.4c3.9,1.4,7.8,2.8,11.7,4.2c1.4-2.4,2.7-4.3,5.4-5.3c-3.9-1.4-7.8-2.8-11.7-4.2c-3.5,5.1-8,8.6-14,10
				c3.3,1.2,6.6,2.4,10,3.7c0.5-2.1,1.2-3.2,3.1-4.2c-4.2-1.5-8.3-3-12.5-4.5c-2.1,1.8-5.2,5.6-8.1,4.7c-1.3,3.2-2.7,6.4-4,9.6
				c7.4-2.4,14.7-4.8,22.1-7.2c2.8-0.9,8.4-3.1,7.4-7c-0.9-3.8-7.4-3-9.9-2.3c-5.4,1.4-10.7,2.8-16.1,4.2c-2.8,0.7-10.2,4.1-8-1.6
				c-4.7,2-9.3,4-14,6c15.2,5.2,32.7,0.8,44.7-9.6c6.2-5.3-4.4-7.6-8.3-6.3c-4.4,1.4-8.8,2.8-13.2,4.2c-2.1,0.7-4.1,1.3-6.2,2
				c-1.2,0.4-2.4,0.8-3.5,1.1c-2.7,0.6-1.8,0.9,2.6,0.8c-2.3,1.4-4.6,2.9-6.9,4.3c-1.5,0.5-2,0.1,0,0.3c1,0.1,2.1,0.1,3.2,0.1
				c2.3,0,4.6-0.1,6.9-0.3c4.7-0.5,9.4-1.5,13.9-2.9c9-2.9,17-7.4,24.2-13.6c5.2-4.5-2-7.2-5.9-6.8c-7,0.7-13.4,3.1-19.8,6
				c-4.9,2.3-10.6,5.9-16.1,3.4c0.1,2,0.1,4,0.2,6c2.5-2.1,6.7-1.9,9.7-2.1c4.6-0.3,9.1-0.7,13.5-1.8c8.6-2.2,16.9-6.9,20-15.6
				c0.8-2.1-1.9-3.6-3.5-3.9c-8.6-2-17,0.5-24.6,4.7c-5,2.8-10.6,8.6-16.4,9.4c2.3,1.8,4.7,3.6,7,5.5c2.6-5.3,8.9-6.1,14.1-8.1
				c6.7-2.5,13.7-6.2,17.2-12.7c1.5-2.7-0.2-4.6-2.9-5.3c-3.5-1-7.7,0.3-10.7,2.1c-10.6,6.4-21.5,12.4-32.6,17.8
				c3.9,0.1,7.7,0.3,11.6,0.4c-0.6-0.6-0.4-3-0.1-2.8c-0.8,0.4-1.6,0.8-2.4,1.3c1,0,2,0,3,0c4,0,7.8-0.3,11.6-1.6
				c6.2-2.2,12.1-6.5,11.7-13.6c-0.3-4.8-10.3-2.3-12.2-1.6c-4.3,1.7-8.6,3.5-12.8,5.2c-1.8,0.7-3.7,1.5-5.5,2.2
				c-1.2,0.5-2.4,1-3.7,1.5c-3.5,1.1-2.4,1.5,3.3,1.4c-0.2,0.9-0.4,1.8-0.6,2.7c1.7-2,8.5-2.3,11.4-3.2c5.8-1.8,12-4.7,14.8-10.4
				c3.5-7-8.5-5.4-11.7-4.2c-5.9,2.1-11.8,4.2-17.7,6.3c-1.2,0.4-2.4,0.8-3.5,1.3c-0.7,0.3-1.4,0.5-2.1,0.7
				c-0.5,0.1-0.4,0.2,0.3,0.1c1.5,0.8,2.4,0.2,3.5,0.2c5.8,0,10.7,1.9,16.4-0.6c3.8-1.6,9.5-6,7.1-10.7c-1.8-3.4-6.7-3.3-9.9-2.3
				c-7.6,2.3-15.2,4.6-22.8,7c3.1,0.4,6.2,0.8,9.3,1.2c-0.7-0.9-1.3-1.9-1.7-2.9c-0.1-2.6-1.7-2.6-4.8,0c-5.5,1.8-4.8,1.3-2.2,4.8
				c1.6,2.2,3.7,3.9,6.4,4.6c5.6,1.4,17.4-1.6,18-8.8c0.7-8.8-13.3-5.7-17.5-3.6c-7.3,3.7-13.9,9.3-20.6,14c4.2,1.5,8.3,3,12.5,4.5
				c3.9-3.6,6.6-8,7.5-13.3c0.8-5-7.4-4.4-10-3.7c-12.6,3.5-22.8,11.6-27.7,23.8c-2,5,8.4,4,10,3.7c6.8-1.5,13.3-5.2,17.4-10.8
				c2.9-4,6.2-11.5,1-15.1c-6.2-4.3-16,0.5-21.2,4.4c-5.5,4.1-9.4,9.5-11.4,16.1c-1.5,5,7.9,4.2,10,3.7c7.8-2.2,14.8-6.3,19.7-12.8
				c3.8-5,7.6-13.7-1.3-15.4c-7.7-1.5-16.4,3.1-22.5,7.4c-6.4,4.5-11.6,10.3-15.1,17.2c-3.5,7,8.5,5.3,11.7,4.2
				c8.8-3.1,16.6-9.5,20.5-18.1c3.1-6.8-8.2-5.7-11.7-4.2c-7.7,3.4-14.1,9.6-15.3,18.3c-0.8,6,9.4,4.1,12.2,2.9
				c6.9-2.9,13-7.1,17.9-12.8c3.4-4.1,9.1-11.7,6.3-17.3c-3.5-7.1-14.9-3.3-20.3-1.1c-7.3,3.1-13.4,8.1-18,14.5
				c-1.8,2.5,0.5,4.7,2.9,5.3c9.8,2.5,21.6-0.6,28.4-8.3c2.1-2.4,2.4-5-1-6.3c-3.7-1.5-8.3-0.1-11.5,1.8c-6.2,3.6-10.9,9.6-11.1,17
				c-0.1,3.9,4.5,4.6,7.6,4.1c7.5-1.2,14.9-4.5,18.7-11.5c1.9-3.6-1.7-5.4-4.8-5.6c-4.2-0.3-8.8,1.6-11.4,4.9
				c-2.4,2.9-3,5.9-2.7,9.5c0.5,6.1,17.9,2.3,17.4-4.7c-0.1-1.8,0.5-2.8,1.6-4.2c-5.4-0.2-10.9-0.5-16.3-0.7c-1.1,2-2.7,2.3-0.2,1.9
				c2.5,1.4,5.1,2.7,7.6,4.1c0.1-3.8,1.1-7.3,4.6-9.2c-4.2-1.5-8.3-3-12.5-4.5c-2,2.3-1.5,2.3-3.8,1.7c1,1.8,1.9,3.5,2.9,5.3
				c1.9-2.7,4.3-5.2,7.3-6.8c1.7-0.9,5-1.1,0.4-1.1c-3.4,0-2.2,0.4-3.3,3c-2.5,6-7.7,10.7-13.6,13.2c4.1,1,8.2,1.9,12.2,2.9
				c0.4-3.2,1.6-7.1,4.9-8.5c-3.9-1.4-7.8-2.8-11.7-4.2c-2.4,5.3-5.8,9.1-11.3,11c3.9,1.4,7.8,2.8,11.7,4.2
				c1.9-3.8,4.2-7.2,7.3-10.1c1.4-1.3,2.8-2.4,4.4-3.4c0.7-0.4,1.3-0.8,2-1.1c0.4-0.2,0.9-0.4,1.4-0.6c1.8-0.7,0.8-0.7-3,0.1
				c-0.9-0.5-1.9-1-2.8-1.5c1.3,1.2-2.7,5.9-3.6,6.8c-1.5,1.6-3.1,2.7-5.2,3.3c3.3,1.2,6.6,2.4,10,3.7c0.7-2.4,1.8-4.7,3.4-6.6
				c0.6-0.7,1.2-1.4,1.9-2c0.4-0.4,0.9-0.8,1.4-1.1c1.5-0.9,0.7-0.8-2.3,0.3c-1.6-0.6-3.2-1.1-4.7-1.7c3,2.6-2.6,8.5-5.4,9.2
				c3.3,1.2,6.6,2.4,10,3.7c2.3-5.6,6.8-10.8,12.8-12.4c-3.3-1.2-6.6-2.4-10-3.7c-0.5,3.2-1.6,5.7-4.1,8c-2.4,2.2-2.1,5.1,1,6.3
				c3.5,1.4,8.6,0.3,11.5-1.8c3.3-2.3,6.6-4.6,10-6.9c1.5-1.1,3.1-2.1,4.6-3.2c0.8-0.5,1.5-1.1,2.3-1.6c2.4-1.4,2-1.5-1.1-0.2
				c-1.9-0.3-3.8-0.5-5.8-0.8c0.1,0.2,0.3,0.3,0.4,0.5c-0.2-0.8-0.4-1.7-0.7-2.5c10,0.9,13.3-0.2,9.8-3.4c-0.5-0.7-1-1.3-1.4-2.1
				c-1.2-1.6-2.2-3.1-3.8-4.2c-3.9-2.6-8.9-2.6-13.2-1.1c-3.7,1.3-7.7,3.8-8.8,7.8c-1.1,4,0.9,7.4,3.1,10.6c1.7,2.4,7,1.9,9.3,1.2
				c7.6-2.3,15.2-4.6,22.8-7c-3.3-0.8-6.6-1.6-9.9-2.3c0.4-0.2,0.9-0.5,1.3-0.7c2.2-0.8,4.4-1.5,6.6-2.3c-1.4,0.2-3.7-0.6-5.2-0.7
				c-1.8-0.1-3.7-0.1-5.5,0c-4.3,0.3-8.7,1.4-12.6,3.3c-4.7,2.2-13,8.8-7.8,14.5c4.5,5,13.6,2.5,18.9,0.6c8.3-2.9,16.5-5.9,24.7-8.9
				c-3.9-1.4-7.8-2.8-11.7-4.2c-1.1,2.1-1,1.8-2.7,2.2c-2.8,0.7-5.7,1.2-8.4,2.1c-4.9,1.5-14.4,4.7-15.7,10.6
				c-1.7,7.5,11.3,6.4,15.2,5.3c9.5-2.8,18.8-7.4,28-11.1c-4.1-0.5-8.1-1-12.2-1.6c0.1,1.1,3.5,0.8,0.7,0.1c-1.7-0.4-4,0-5.7,0.1
				c-4.6,0.3-9.2,1.3-13.1,3.9c-4.8,3.1-9.2,10-4.4,15c2.7,2.8,8.6,1.9,11.6,0.4c12.5-6.1,24.7-12.7,36.5-19.9
				c-4.5-1.1-9.1-2.1-13.6-3.2c-2.8,5.1-9.3,6-14.4,7.9c-6.6,2.5-13.6,6.2-16.9,12.8c-2.3,4.7,3.6,5.9,7,5.5
				c7.6-1,14.3-4.2,20.7-8.3c3.2-2,8.2-7,12-6.1c-1.2-1.3-2.3-2.6-3.5-3.9c-2.1,5.9-10.5,4.8-15.4,5.2c-9,0.7-17.5,3-24.5,9
				c-1.9,1.6-2.5,4.8,0.2,6c8.1,3.7,16.9,3.1,25.3,0.4c7.4-2.3,14.4-7.5,22.2-8.3c-2-2.3-4-4.5-5.9-6.8c-5.3,4.6-11.7,8-18.7,9.2
				c-8,1.4-19.1-2.2-24.8,5.6c-1.8,2.4-1.9,5.5,0.3,7.8c3.1,3.4,9,3,13.1,2.1c8.7-1.9,17.3-5.3,25.8-8.1c-2.8-2.1-5.5-4.2-8.3-6.3
				c-5.9,5.1-12.9,5.5-20.1,3c-4.7-1.6-12.2,1.3-14,6c-3.6,9.4,9,12.5,15.6,11.8c9.5-1,19.1-4.6,28.3-7c-0.8-3.1-1.7-6.2-2.5-9.3
				c-7.4,2.4-14.7,4.8-22.1,7.2c-4,1.3-12,7.4-4,9.6c12.3,3.4,23.8-3.5,32.7-11.3c2.5-2.2,2.1-5.1-1-6.3c-3.8-1.5-8.2,0-11.5,1.8
				c-4.8,2.5-8.3,6.7-9.6,12c-1.2,5.1,7.7,4.2,10,3.7c11.3-2.6,21.2-9,27.8-18.6c4.5-6.5-9.1-5.3-11.7-4.2
				c-6.1,2.5-11.3,6.6-14.6,12.4c-3.7,6.6,8.6,5.7,11.7,4.2c10.9-5.4,20.1-13.4,25.4-24.5c3.9-8-12.2-5.2-15.2-2
				c-6.1,6.6-9,14.7-7.2,23.6c1.4,6.9,16,1.3,17.4-3.3c2.7-8.6,5.4-17.2,8.1-25.9c2.2-6.9-13.5-3.2-15.7-0.7
				c-3.6,4.2-7.2,8.3-10.8,12.5c5.2,0.2,10.5,0.4,15.7,0.7c2.3-7,4.6-14.1,6.8-21.1c0.5-1.4-0.8-2.7-1.8-3.4
				c-8.3-4.7-17-8.5-26-11.6c-3.5-1.2-8.8,0.5-11.5,2.7c-1.9,1.5-4.2,5.2-0.6,6.6c4.6,1.8,9.3,3.7,13.9,5.5c0.5-2.4,0.9-4.8,1.4-7.2
				c-1.5,0.9-1.5,1.1,0,0.5c1.4-0.3,1.5-0.4,0.3-0.3c-1.1-0.6-2.7-0.7-3.9-1.2c-2.5-1.1-4.8-2.8-6.9-4.5c-4.6-3.6-9-7.5-14.5-9.6
				c-4-1.5-8.8-0.8-12.3,1.5c-2.4,1.6-5.2,5.3-1.4,7.2c2.3,1.1,2.8,2.9,2.8,5.3c5.6-1.9,11.2-3.9,16.7-5.8c-2.3-3.7-6.9-4.8-11-5
				c-2.6-0.1-5.1,0.2-7.6,0.8c-1.9,0.4-4.7,1.8-6.2,1.4c1,1.8,1.9,3.5,2.9,5.3c1.6-2.7,2-1.2-0.8-1.6c-1.2-1.3-2.3-2.6-3.5-3.9
				c-0.3,1.7,0.4,0.6,3.1-0.2c2.7-0.7,3.9-0.1,2.8-1.5c-2.3,2.7-4.5,5.4-6.8,8.2c-1.7-0.4-2.1-0.3-1.1,0.2c0.6,0.3,1,0.8,1.3,1.4
				c3.1-2.9,6.1-5.7,9.2-8.6c-2.3,0.3-4.6,0.6-6.9,0.9c-1.2,0.1-2.3,0.3-3.5,0.4c-2.6,0-2.4,0.5,0.7,1.6c-2.3,1.4-4.6,2.9-6.9,4.3
				c0.3-0.1,0.6-0.1,0.8-0.2c-2.2-2.5-4.5-5-6.7-7.5c-1.3,0.8-2.2,1-3.7,0.9c1.6,1.9,3.2,3.7,4.8,5.6c0.6-1.3,1.2-2.3,2.3-3.2
				c0.5-0.4-1.6,0.1,0,0.5c-1-1.8-1.9-3.5-2.9-5.3c-0.8,1.6-2.6,4.6-3.6,4.9c3.1,1.7,6.3,3.3,9.4,5c1.2-2.3,2.4-4.6,3.7-6.8
				c1.7-3.1-0.9-5-3.9-5.4c-3.9-0.5-8.5,0.7-11.3,3.4c-2.3,2.2-4.6,4.3-7,6.4c-0.9,0.8-1.9,1.7-2.8,2.5c-1.5,1.3-4.7,2.7-0.9,1.9
				c2.7,0.1,5.4,0.2,8.1,0.3c-2-0.9,3.2-7.8,4.2-8.4c-4.5-1.1-9.1-2.1-13.6-3.2c-2.3,4-5.1,7.6-9,10.2c4.7,0.6,9.5,1.2,14.2,1.9
				c0.1-1.6,0.9-3,1-4.4c0.2-2.1,2.5-0.8-0.7-0.9c-1.6-1.9-3.2-3.7-4.8-5.6c-4.1,7-9.2,12.9-15.5,18.1c5.2,0.2,10.5,0.4,15.7,0.7
				c2.1-5.4,5.6-10.1,10.5-13.3c-4.7-0.6-9.5-1.2-14.2-1.9c-1.8,7.6-5.7,14.8-12,19.6c4.5,1.1,9.1,2.1,13.6,3.2
				c4.3-7.8,8.5-15.7,12.8-23.5c-5.6,0.2-11.2,0.4-16.9,0.7c-1.4,8.5-6,17.5-14,21.7c4.1,1,8.2,1.9,12.2,2.9
				c2.1-8.6,6.1-16.3,12.4-22.6c-5,0.6-10.1,1.2-15.1,1.8c2.5,2.8-5.4,13.8-7,16.4c-3.5,5.8-7.5,11.3-11.9,16.5
				c5.2,0.2,10.5,0.4,15.7,0.7c4.3-12.9,11.5-24.6,20.9-34.4c-5.1-0.7-10.1-1.3-15.2-2c-5,10.8-11.2,20.8-18.7,30
				c5.6-0.2,11.2-0.4,16.9-0.7c2.2-7,4.3-13.9,6.5-20.9c0.9-3-3.4-4.1-5.4-4.2c-3.6-0.2-7.7,1.1-10.3,3.6c-5.3,5-10.8,9.8-16.6,14.2
				c4.7,0.6,9.5,1.2,14.2,1.9c3-7.4,7.2-14.3,12.2-20.5c-5.4-0.2-10.9-0.5-16.3-0.7c-4.4,5.8-8.8,11.6-13.2,17.4
				c5.6-0.2,11.2-0.4,16.9-0.7c2.1-6.7,6.1-12.5,12-16.4c-4.7-0.6-9.5-1.2-14.2-1.9c-1.3,7.5-4.3,13.9-9,19.8
				c5.4,0.2,10.9,0.5,16.3,0.7c5.9-8.4,11.8-16.8,17.8-25.2c-5.6,0.2-11.2,0.4-16.9,0.7c-2.6,6.1-6,11.7-9.9,17
				c5.6-0.2,11.2-0.4,16.9-0.7c0.9-7.4,3.6-14.3,8.7-19.9c2.5-2.8,1.9-5.5-1.8-6.6C400.9,267.2,394.9,268.6,392.3,271.5L392.3,271.5
				z"/>
		</g>
	</g>
</g>
<g id="Слой_9">
	<g>
		<g>
			<path class="st3" d="M367.9,292.1c2.9-2.9,4.9-6.3,6-10.3c-4.8,1-9.6,2-14.5,3c0.9,3.8-12.7,6.7-15.6,7.7c-1.5,0.5-5,2.3-4.5,4.4
				c0.8,3.6,1.2,7.1,1.2,10.8c4.8-1.3,9.7-2.6,14.5-3.9c-0.1-2.3-0.9-3.8-2.1-5.6c-2-3.1-13.6,0.2-14,3.7c-0.6,5.7,1.8,8.7,7.7,8.2
				c3.8-0.3,12-2.6,11-7.7c-0.9-4.9-13.2,0-14.5,3c-1.1,2.8-1.1,5.4,0,8.1c1.8,4.2,12.2,0.8,13.9-2c0.6-1,1.2-2,1.8-3
				c-4.6,0.4-9.3,0.8-13.9,1.1c-0.3,1.6-0.5,3.2-0.8,4.8c-0.8,5.4,12.3,1.4,13.9-1.1c3-4.6,4.9-9.4,5.7-14.8
				c0.8-5.3-13-1.6-14.4,2.1c-0.4,1.1-0.9,2.1-1.3,3.2c-1,2.6,4,2.7,5.2,2.6c3-0.2,6.7-1.3,8.7-3.7c1.6-1.9,2.1-3.7,1.9-6.2
				c-4.8,1.3-9.7,2.6-14.5,3.9c0.4,1.7,1.1,2.7,2.6,3.7c3.6,2.4,10.7,0.4,13.4-2.8c2.7-3.3,5-6.8,7-10.6c-4.3,1.4-8.7,2.9-13,4.3
				c4.3,1.9,10,0.7,13.9-1.7c4-2.5,4.1-6.6,7.1-9.7c2.6-2.6,8.2-3,11.6-3.5c5.6-0.8,11.2-0.9,16.8-0.8c10.2,0.2,20.6,0.9,30.6,2.4
				c9.8,1.5,19.3,4.6,26.5,11.7c3.5,3.5,6.8,7.6,9.5,11.7c3.7,5.9,1.6,10.5-2.8,15.3c-6.9,7.5-14.4,7.7-23.8,5.4
				c-9-2.3-17.7-5.9-27-7c-10.6-1.2-20.2,1.6-30.5,4c-9.7,2.2-21.9-0.7-26-11.1c-0.9-2.2-0.7-2,0.8-3.2c1.9-1.4,4-1.9,5.7-3.6
				c2.2-2.2,4.4-6.5,0.9-8.7c-2.8-1.7-6.6-1-9.5,0.2c-1,0.4-6.7,3.6-4,5.2c3.5,2.1-4.4,4.5-6.3,6.1c-4,3.4-2.9,7.1-0.2,11
				c5.7,8.4,15.5,12.4,25.5,12.4c11.7-0.1,22.9-6.4,34.5-5.2c11.1,1.2,21.4,6.4,32.5,8.1c11,1.7,22.5-0.3,31.9-6.4
				c7.9-5.1,18.7-15.3,13.3-25.5c-5.1-9.7-13.9-18.5-23.9-22.9c-9.7-4.3-20.6-5.4-31-6.2c-14-1.1-28.3-2.2-42.3,0
				c-6.7,1-13.7,2.5-19.7,5.7c-2.4,1.3-4.8,2.8-6.6,4.9c-0.6,0.7-4,6.7-2.1,5.8c1.9-0.4,3.8-0.8,5.7-1.2c0.2,0,0.3,0,0.5,0
				c-3.8-1.7-11.1,0.5-13,4.3c-1.7,3.1-3.7,6-5.9,8.7c4.5-0.9,9-1.9,13.4-2.8c-1-0.4-1.5-1.1-1.6-2.2c-1.1-4.4-15-0.8-14.5,3.9
				c0.2,1,0,1.8-0.7,2.5c4.6-0.4,9.3-0.8,13.9-1.1c0.4-1.1,0.9-2.1,1.3-3.2c-4.8,0.7-9.6,1.4-14.4,2.1c-0.7,4.7-2.1,9-4.7,13
				c4.6-0.4,9.3-0.8,13.9-1.1c0.3-1.6,0.5-3.2,0.8-4.8c0.8-5.3-12.3-1.5-13.9,1.1c-0.6,1-1.2,2-1.8,3c4.6-0.7,9.3-1.4,13.9-2
				c-1-2.3-1.1-4-0.1-6.3c-4.8,1-9.6,2-14.5,3c0.2-0.3,0.4-0.6,0.7-0.8c1.6-0.8,3.3-1.5,4.9-2.3c3.5,0.5,5.1-0.7,4.7-3.3
				c-4.7,1.2-9.3,2.5-14,3.7c0.8,1.3,1,2.6,1.1,4.1c0.3,4,14.5,1,14.5-3.9c0-3.7-0.4-7.2-1.2-10.8c-1.5,1.5-3,3-4.5,4.4
				c6.4-2.3,27.1-6.4,24.6-16.6c-1.1-4.6-13.5-0.4-14.5,3c-1,3.3-2.5,5.9-4.9,8.4c-2.5,2.5,2.1,3.6,3.7,3.6
				C361.7,295.9,365.5,294.5,367.9,292.1L367.9,292.1z"/>
		</g>
	</g>
	<g>
		<g>
			<path class="st3" d="M388.2,289.4c0.2-1.4,0.3-2.9,0.5-4.3c0.6-5.1-12.2-1-13.8,1.3c-2.5,3.7-4.2,7.3-4.7,11.8
				c-0.7,5.3,12.2,0.7,13.8-1.3c3.1-3.8,4.4-8,3.7-12.9c-0.6-4.5-12.4,0.5-13.9,2.2c-3.2,3.5-5.3,7.5-6,12.2
				c-0.8,5.1,11.2,0.8,12.9-0.4c3.8-2.8,6-6.9,4.5-11.6c-1.3-4.2-12.3-0.1-13.9,2.2c-5.2,7.4-7.3,15.8-5.9,24.7
				c0.7,4.5,12.4-0.5,13.9-2.2c4.3-4.7,9.7-13,2.5-17.9c-3.5-2.4-12.2-0.1-14,3.7c-2.4,5-3.3,10.2-2.9,15.8
				c0.2,3.6,10.2,0.3,11.6-0.4c5.3-3.1,8.5-8.2,4.6-13.8c-2.2-3.2-12.9,0.6-14,3.7c-1.9,5.6-2.4,11.3-1.6,17.2
				c0.6,4.1,11.3,0,12.9-1.3c5.5-4.2,7.2-11.1,2.7-16.7c-2.8-3.5-12.2,0.9-14,3.7c-2.4,3.9-3.1,8.1-2.3,12.6
				c0.7,3.6,10,0.5,11.6-0.4c5.4-3.2,9.2-8,7.6-14.6c-1-4.2-12.5-0.1-13.9,2.2c-3.4,5.4-4.6,11.2-2.9,17.4c1.2,4.3,12.3,0,13.9-2.2
				c1.4-1.9,2.8-3.8,4.3-5.6c1.7-2.3-0.9-3.1-2.9-3.2c-3.3-0.2-6.7,1-9.5,2.8c-2.7,1.7-4.3,4.3-3.3,7.5c1.3,4.1,10.9,0.2,12.9-1.3
				c2.8-2,4.9-4.5,5.5-8c0.9-5.3-12.2-0.4-13.8,1.3c-2.3,2.6-3.2,5-3.4,8.4c-0.2,3.1,9.2,0.6,9.9,0.3c4-1.7,7.3-3.8,8.9-7.9
				c1-2.5-4-2.4-5.1-2.3c-2.9,0.3-6.7,1.3-8.7,3.6c-1.2,1.4-2.4,2.8-3.6,4.2c-1.9,2.2,1.1,3.1,2.9,3.2c3.1,0.2,7-0.8,9.5-2.8
				c-3.5,0-4,0.4-1.7,1.2c2-1.8,4-3.7,6-5.5c-3.6,1.2-7.3,2.4-10.9,3.6c-1.6,0.5-6.1,1.7-6.4,4c-0.3,2.2,2.6,2.4,4.2,2.4
				c14.9-0.6,30.1-7.4,38.1-20.3c3.4-5.4-10.5-1.9-12.3-0.4c-5.4,4.3-9.3,9.6-11.2,16.2c4.8-0.7,9.6-1.5,14.4-2.2
				c0.4-2.3,1.2-5,3.3-6.2c-3.8-0.1-7.7-0.3-11.5-0.4c-0.1,1.4-0.2,2.8-0.4,4.2c-0.5,5.3,12.2,0.8,13.8-1.3c1.4-1.8,2.9-3.7,4.3-5.5
				c-4.6,0.7-9.3,1.4-13.9,2.2c1.4,2.8,2.7,5.5,4.1,8.3c1.8,3.7,13.8,0.7,14.4-3c0.2-1.1,0.4-2.1,0.6-3.2c0.9-5.1-11.3-0.6-12.9,0.4
				c-2.1,1.5-4.3,2.9-6.4,4.4c4.3-0.1,8.6-0.3,12.9-0.4c0.9-2.7,1.7-5.4,2.6-8c-4.8,1-9.6,2-14.4,3c0.4,2.4,1.4,4.1,3.1,5.7
				c2.6,2.7,11.6-0.1,13.4-2.9c1.2-1.9,2.5-3.8,3.7-5.7c-4.6,0.7-9.3,1.4-13.9,2.2c0.7,3,2,5.5,4,7.8c2.4,2.9,11.6-0.3,13.4-2.9
				c3.3-4.5,5.8-9.3,7.4-14.6c-4.8,1-9.6,2-14.4,3c0,3.8,0.9,7,2.7,10.4c2.1,3.9,11.9,0.5,13.9-2.2c2.5-3.2,4.1-6.6,4.7-10.7
				c0.7-5.2-12.8-0.8-14.4,2.2c-2.3,4.4-4,9-5.2,13.9c-1.1,4.4,13,1.6,14.4-2.2c1-2.7,2.2-7,1.1-9.9c-1.3-3.1-4.4-3.2-7.4-2.9
				c-8.1,0.9-12,5.9-13.9,13.4c-1.2,4.6,10.1,1.1,11.5,0.4c6.3-3.2,11.2-7.8,14.2-14.2c1.3-2.7-4.9-2.3-6-2.2
				c-2.9,0.4-6.9,1.6-8.4,4.4c-2.5,4.8-3.3,9.8-2.6,15.2c0.6,4.1,11.3-0.1,12.9-1.3c5.7-4.3,9.7-9.9,11-17
				c0.9-5.2-12.3-0.6-13.8,1.3c-3.3,4.1-4.9,8.3-5,13.6c-0.1,3.1,9.1,0.7,9.9,0.3c7.9-3.5,14.2-9.8,13-19
				c-0.4-3.7-10.1-0.4-11.6,0.4c-7.9,4.5-13.1,12.9-10.1,22.1c1.3,3.9,11,0.4,12.9-1.3c5-4.4,8.6-9.6,10.1-16.2
				c1.1-4.9-11.4-0.8-12.9,0.4c-6.4,5.3-10.1,12-10.5,20.3c-0.2,3.9,11.6-0.2,12.9-1.3c5.7-4.9,10.1-10.4,13.3-17.2
				c1.2-2.5-4.2-2.4-5.1-2.3c-3.2,0.3-6.4,1.4-8.7,3.6c-4.4,4.2-6.4,9.5-5.9,15.5c0.3,4.1,11.4-0.2,12.9-1.3
				c3.4-2.6,6.3-5.5,8.6-9.1c-4.6,0.4-9.2,0.9-13.8,1.3c-2,3.7-8,8.8-4,13.4c3.3,3.9,11.1,2.1,15.3,1c10.8-2.8,20.7-9.8,24.3-20.8
				c-4.8,0.7-9.6,1.5-14.4,2.2c-0.6,5.7-3,10.6-7.8,13.9c3.8,0.4,7.6,0.9,11.3,1.3c7.7-6.2,18-16.7,9.5-26.6
				c-2.4-2.9-14.4,0.4-14,4.6c0.2,2.7-0.3,5.2-1.6,7.6c-0.6,1-1.2,2-2,2.8s-2.9,1.3-0.9,1.2c0.9,1.4,1.8,2.8,2.7,4.1
				c7.5-4.8,12.9-12,15.1-20.7c1-4.1-8.4-1.6-9.9-1.2c-8.1,2.8-15,8.9-16.1,17.7c-0.7,5.6,12.2,0.2,13.8-1.3
				c4.7-4.4,14.7-19,2.1-20.2c-11.7-1.1-17.8,8.7-17.6,19.1c0.1,3.6,10.3,0.3,11.6-0.4c4.2-2.6,8.2-5.9,9.8-10.8
				c1.6-5-0.7-8.9-5.9-9.2c-11.5-0.8-21.8,8.9-18.7,20.5c1,3.6,9.8,0.7,11.6-0.4c4.5-2.8,19.2-13.2,12.1-19.4
				c-6.2-5.4-19-0.4-22.7,5.8c-3.8,6.4-5,17,5.1,16.7c9.4-0.3,18.9-7.6,17-17.7c-0.8-4.5-12.3,0.4-13.9,2.2
				c-4.4,4.9-6.7,13.8,1.3,16.3c5.8,1.8,17.4-0.6,19.1-7.4c1.1-4.3-13-1.7-14.4,2.2c-0.7,2-1.4,4-2,5.9c-0.9,2.6,3.9,2.4,5.1,2.3
				c3.1-0.3,6.5-1.4,8.7-3.6c5.3-5.3,1.5-13.2-5.2-14.5c-8.4-1.6-18.7,2.8-22.5,10.5c-0.2,0.6-0.1,1.1,0.4,1.5c3,3.2,8.8,2,12.4,0.7
				c5.1-1.9,8-5.7,9.1-11c2.6-12.5-12.5-11.7-19.7-6.9c-5.3,3.5-12.2,16.6-2.4,19.1c8.8,2.3,19.5-5.2,23.6-12.6
				c1.7-3.1,2.2-6.8,0.1-9.9c-2.5-3.7-7.3-3.9-11.3-3.1c-8.2,1.5-15.9,8.7-14.4,17.9c1.5,9.4,17.2,4.8,22.1,1.5
				c6.5-4.4,8.5-13.1,0.9-17.6c-7.1-4.2-18.8-1.7-24.1,4.5c-5.1,6-4,17.1,5.6,16.1c7.5-0.8,20.2-9.9,16.3-19
				c-3.7-8.5-18.1-4.9-24.1-1.7c-5.9,3.1-14.3,12.2-9.5,19.4c5.3,7.9,19.7-0.2,24.2-5.2s11-18.2,0.7-20.6c-9.2-2.2-20,4.6-23.2,13.1
				c-1.5,3.9-1.9,9.4,1,12.8c3.5,4,10.2,2.7,14.5,1.1c6.1-2.3,22.9-12.2,17-20.8c-4.3-6.3-21.3-3.9-21.8,4.3
				c-0.2,4.3,4.9,6.3,8.4,6.7c2.7,0.2,5.5-0.2,8.1-1c1.4-0.4,2.7-0.9,4.1-1.4c0.6-0.2,5.1-1.8,2.7-1.3c2-0.4,10.4-2.4,8-5.9
				c-2.8-4-7.7-5.1-12.4-5.2c-2.4-0.1-4.7,0.1-7.1,0.5c-3.3,0.6-7.1,2.2-10.5,1.4c-3,2.2-5.9,4.4-8.9,6.6c6.7,0.2,13.4,0.5,20.2,0.7
				c1.6,0.1,13.3-3.5,9.8-6.1c-8.3-6-21-7.4-30.1-2.2c-3,1.8-5.6,5.2-2.1,8c3.8,3,10.2,1.3,14-0.5c3.1-1.5,7.9-5.1,8.2-8.9
				c0.3-4.8-6.9-4.7-10.1-4.3c-7.8,0.9-19,7.2-15.9,16.6c1.1,3.2,8.2,0.9,9.9,0.3c4.4-1.5,8.6-4,11.1-8c3.1-4.8,0.3-7.1-4.6-7.4
				c-8-0.5-24.6,4.3-25.4,14.4c-0.8,11.1,20.2,1.8,23.9-1.3c2.9-2.4,5.8-6.9,2.8-10.5c-3.2-3.8-10.1-2.8-14.3-1.5
				c-4.5,1.3-8.7,3.8-11.2,7.8c-2,3.2-3.1,8.5-0.1,11.6c3.5,3.6,11.2,1,14.8-1c4.4-2.4,9.8-7.1,10.7-12.3c2.1-11.4-16.7-7-21.4-4
				c-3.4,2.2-8.2,6.6-8.7,10.9c-0.6,4.5,3.7,7,7.6,7.6c6,0.9,12.8-1.4,17.4-5.3c3.2-2.8,7.7-8.6,7.8-13c0.1-6.7-8.2-6.5-12.8-5.4
				c-6.3,1.5-10.1,5-13,10.6c-0.8,1.5,1.7,2.2,2.6,2.3c8.1,0.8,16.1-2.1,24.1-1.3c6.2,0.6,11.9,4.8,11.9,11.4
				c4.8-1.3,9.7-2.6,14.5-3.9c-0.2-10.9-13.8-12.4-21.9-12.7c-6.2-0.3-10.2-2.2-15.5-4.9c-4.6-2.4-9.3-3.3-14.4-2.2
				c-2.3,0.5-6.4,1.3-7.8,3.5c-1.2,1.9,0,3,2.1,3.2c6,0.7,11.9,0.1,17.7-1.8c4-1.3,10.2-6.1,2.2-6.3c-18.1-0.6-36.2-0.1-54.2,1.6
				c-1.4,2.3-2.8,4.5-4.2,6.8c7.8-1.6,15.5-2.2,23.4-1.7c3.4,0.2,7.6-0.5,10.2-2.7c2.1-1.7,2-3.8-1.1-4.1c-8.8-0.9-19,0.7-25.8,6.9
				c-5.1,4.5-8.1,14.4-0.7,18.1c3.5,1.8,16.9-3.7,11.7-6.3c-2.8-1.4-1.7-6.8-0.6-8.9c1.6-3.1,3-3.3,6.2-3c3.1-2.3,6.1-4.5,9.2-6.8
				c-10.2-0.7-20.2-0.1-30.2,1.9c-2.2,0.4-7.2,1.4-8.1,4c-0.9,2.4,1.9,3,3.9,2.8c18-1.7,36.1-2.2,54.2-1.6c0.7-2.1,1.5-4.2,2.2-6.3
				c-2.4,0.8-4.4,1-7,0.7c-1.9,2.2-3.8,4.5-5.8,6.7c2.9-0.6,7.3,3.2,9.8,4.5c3.6,1.8,7.5,2.5,11.5,2.8c7,0.4,18.2,0.1,18.4,9.9
				c0.1,3.4,14.5,0.9,14.5-3.9c0-7.4-6.9-11.9-13.4-13.6c-9.4-2.4-18.6,1.6-27.9,0.6c0.9,0.8,1.7,1.5,2.6,2.3c0.5-1,1-2,1.7-2.9
				c-3.6,0.1-5.3,1.6-5.1,4.4c-0.5,1.6-1.6,3.3-2.5,4.6c-1.2,1.8-5,4-0.7,2.9c4.2-1.1,0.3-0.5-0.2-3.2c-0.3-1.7,1.2-3.3,2.1-4.6
				c0.6-0.9,1.4-1.6,2.2-2.3c-4.4,0-5.6,0.8-3.5,2.4c0.1,0.3,0.2,0.7,0.3,1c0,1.5-0.5,2.8-1.4,4c-0.7,1.1-3,3.5-3.3,3.6
				c1.9-0.4,3.8-0.8,5.7-1.2c-0.5,0-1,0-1.4,0c1.3,0.3,2.5,0.6,3.8,0.8c-2.1-1.7-2-5-1-7.2c0.4-0.9,2.8-3.6-0.2-1.8
				c-1.8-0.1-2.1,0.6-1,1.9c0.1,0.9-0.1,1.8-0.7,2.4c-0.4,0.9-1.1,1.5-2,1.8c1.2-0.3,2.5-0.6,3.7-1c0-1.3,0.5-2.4,1.3-3.3
				c0.4-0.6,0.9-1.1,1.5-1.6c2-2.2-0.8,1.2-1.3,1.7c-0.8,0.9-1.3,1.5-2.4,1.9c3.3,0.1,6.6,0.2,9.9,0.3c-0.8-2.3-0.2-3.3,0.4-5.6
				c0.4-1.4,4-3.1-1.6,0.1c1-0.6-5.7,3.1-2.8,2.1c1.9-0.4,3.8-0.8,5.7-1.2c2.3-0.5,1.1-0.1-3.5,1.3c1.2,0,2.4,0.2,3.5,0.5
				c2.3,0.6,4.4,1.8,6.3,3.2c3.3-2,6.5-4.1,9.8-6.1c-6.7-0.2-13.4-0.5-20.2-0.7c-2.7-0.1-6.5,1-8.7,2.8c-1.2,1-2.7,3.2-0.2,3.8
				c5.7,1.4,11,0.8,16.7-0.4c4.6-1,8.4-1.6,11.4,2.7c2.7-2,5.3-4,8-5.9c-3.1,0.6-6,1.5-9,2.7c-0.5,0.2-1,0.4-1.4,0.6
				c-1.3,0.5-0.9,0.5,1.2-0.2c-0.5-1.7-2.8-2.1-4.2-1.6c-1.9,0.4-3.8,0.8-5.7,1.2c2.8-0.2,1.2,5.6,0.6,6.5c-1.7,2.7-5.4,5.5-8.4,6.6
				c1.9-0.4,3.8-0.8,5.7-1.2c-1.1,0-1.7-5.6-1.6-6.9c0.3-2.9,1.5-5.2,3.1-7.6c2.5-2.1,1.3-2.3-3.5-0.4c0.3,0.4,0.6,0.8,0.8,1.3
				c0.2,1.5,0.3,2.6,0,4.1c-0.6,3-2.2,6-4.2,8.3c-0.6,0.7-1.2,1.4-1.9,2c1.6-0.3,3.1-0.5,4.7-0.8c-0.4,0.7-0.7-5.1-0.8-4.7
				c0.2-1.3,0.7-2.7,1.3-3.9c0.6-1,2-2,2.4-2.9c0.9-0.7,0.7-0.7-0.7-0.1c0.5,0.2,1,0.5,1.5,0.7c1,1.6,1.8,1.9,1.8,4
				c0,3.5-3.1,6.5-5.7,8.4c2.3-0.9,4.6-1.8,6.9-2.6c-0.4,0.1-0.8,0.1-1.2,0.2c1.9,0.2,3.7,0.4,5.6,0.7c-1.9-1.7-2.4-4.3-2-6.8
				c0.2-0.9,0.8-1.9,1-2.8c1.3-1.3,0.9-1.5-1.2-0.6c-2.3,0.2-2.6,0.4-1,0.8c1.4,1.8,3.4,1.9,4.1,4.5c0.4,1.6-0.1,2.5-0.3,4
				c-0.3,0.4-0.5,0.8-0.8,1.3c3.5,0.5,4.5,0.2,3-1c-0.2-1.4-0.9-1.5-0.8-3.6c0.1-1.1,0.4-2.1,0.7-3.1c0.3-1,1-2,1.2-3
				c1.6-1.8,0.8-1.9-2.4-0.3c-3.3-0.1-4.2,0.5-2.5,1.7c0.2,2.6,1.7,3.6,0.4,6.5c-0.7,1.5-1.8,2.7-3,3.9c-0.7,0.7-3.9,2.4-1.2,1.7
				c1.8-0.2,3.6-0.4,5.3-0.5c-2.1-0.1-1.2-5.2-1-6.1c0.3-1.1,1.9-4,2-4c-1.9,0.4-3.8,0.8-5.7,1.2c3.8-0.4-0.5,10.7-1.7,11.8
				c1.3-0.8,2.6-1.7,4-2.5c-0.4,0.2-0.7,0.3-1.1,0.5c1.9-0.4,3.8-0.8,5.7-1.2c1.1,0.5,1.9,0.3,2.3-0.5c1.2-1.2,0.2-1.1-2.9,0.2
				c0-0.2,2.4,2.3,2.4,2.4c1.1,2,1,4.3-0.6,5.9c4.6-0.4,9.2-0.9,13.8-1.3c0.7-2,1.4-4,2-5.9c-4.8,0.7-9.6,1.5-14.4,2.2
				c-0.9,3.4,6.4,0.4,5.7-1.7c-0.4-1.1-1.2-1.6-1.3-2.9c-0.3-2.6,1.3-5,2.9-6.9c-4.6,0.7-9.3,1.4-13.9,2.2c0.3,1.6,0.4,3.1-0.1,4.7
				c-0.3,1.1-2.7,3.4-0.2,2.7c1.8-0.2,3.6-0.4,5.3-0.5c-1.5-0.2-0.8-4.3-0.7-5.2c0.1-0.7,2.8-7,2.7-7.1c-2,0.5-4,1.1-6.1,1.6
				c0.3,0.2,0.6,0.4,0.9,0.6c0.6,1,0.6,2-0.1,2.9c-0.2,0.6-0.5,1.2-0.9,1.6c-1.6,2.5-4.1,4.7-6.6,6.3c3.9-0.1,7.7-0.3,11.6-0.4
				c-0.6-2.1-0.8-4.1-0.3-6.3c0.2-0.9,0.5-1.9,0.9-2.7c1.4-1.5,1.4-2-0.2-1.3c-1.8,0.2-3.6,0.4-5.3,0.5c4.2,0.4-2,9.4-3.4,10.2
				c3.9-0.1,7.7-0.3,11.6-0.4c-0.1-2.9,0.5-8.8,3.1-10.9c-1.6,0.7-3.3,1.5-4.9,2.2c0.4-0.1,0.7-0.2,1.1-0.3
				c-1.8,0.2-3.6,0.4-5.3,0.5c2.2,0.4,0,5.7-0.6,6.8c-1.4,2.7-3.4,5-5.7,7c4.6-0.4,9.2-0.9,13.8-1.3c0.5-4.4,2.5-9.4,7-11
				c-3.3-0.4-6.6-0.8-9.9-1.2c-1.8,7.3-5.7,13.1-12,17.2c-3.7,2.4,0,4.3,2.7,4.1c12.2-0.8,26.1-8.5,25-22.4c-4.7,1.5-9.3,3.1-14,4.6
				c6.3,7.4-1.7,15.5-7.3,20c-2.3,1.8-1.7,3.6,1.1,4.1c3.3,0.6,7.5-0.9,10.2-2.7c6-4.1,10.1-10.1,10.8-17.4
				c0.5-4.9-13.2-1.5-14.4,2.2c-1.6,4.8-4.7,10-9.6,12.2c-2.5,1.1-2.7-0.8-1.9-3.1c0.8-2.5,3.4-4.8,4.7-7.2c1.3-2.4-4.3-2.3-5.1-2.3
				c-2.6,0.2-7.2,1.2-8.7,3.6c-1.8,2.9-3.9,5.3-6.6,7.4c4.3-0.4,8.6-0.9,12.9-1.3c-0.4-4.8,1.3-8.8,4.7-12.1
				c-4.6,0.4-9.2,0.9-13.8,1.3c-2.5,5.3-5.8,9.9-10.2,13.7c4.3-0.4,8.6-0.9,12.9-1.3c0.3-5.8,2.9-11.4,7.3-15.1
				c-4.3,0.1-8.6,0.3-12.9,0.4c-1.1,4.8-3.3,9.3-7,12.6c4.3-0.4,8.6-0.9,12.9-1.3c-1.6-5-0.8-12.3,4.3-15.2
				c-3.9,0.1-7.7,0.3-11.6,0.4c0.4,3.1-0.5,9.1-3.9,10.6c3.3,0.1,6.6,0.2,9.9,0.3c0.1-3.8,1.4-7.2,3.8-10.1
				c-4.6,0.4-9.2,0.9-13.8,1.3c-1,5.5-3.4,10.1-7.9,13.5c4.3-0.4,8.6-0.9,12.9-1.3c-0.7-4.9,0.2-9.2,2.5-13.5
				c-4.8,0.7-9.6,1.5-14.4,2.2c-1.9,4-4.5,7-8.4,9c3.8,0.1,7.7,0.3,11.5,0.4c0.5-1.9,1.2-5.8,2.9-7.1c-2.3,0.9-4.6,1.8-6.9,2.6
				c0.4,0,0.7-0.1,1.1-0.1c-1.9-0.2-3.7-0.4-5.6-0.7c2.6,1.7,0.7,6.9-0.1,9.1c4.8-0.7,9.6-1.5,14.4-2.2c1.2-4.9,2.9-9.5,5.2-13.9
				c-4.8,0.7-9.6,1.5-14.4,2.2c-0.5,3.4-1.5,6.2-3.6,8.9c4.6-0.7,9.3-1.4,13.9-2.2c-1.8-3.3-2.6-6.6-2.7-10.4c0-3.9-13.5-0.1-14.4,3
				c-1.4,4.7-3.4,8.9-6.3,12.8c4.5-1,9-1.9,13.4-2.9c-1.7-2-2.5-3.9-3.1-6.5c-0.9-4.2-12.4,0-13.9,2.2c-1.2,1.9-2.5,3.8-3.7,5.7
				c4.5-1,9-1.9,13.4-2.9c-1.4-1.5-1.8-2.4-2.1-4.3c-0.8-4.3-13.5,0-14.4,3c-0.9,2.7-1.7,5.4-2.6,8c-1.6,4.9,11.6,0.4,12.9-0.4
				c2.1-1.5,4.3-2.9,6.4-4.4c-4.3,0.1-8.6,0.3-12.9,0.4c-0.2,1.1-0.4,2.1-0.6,3.2c4.8-1,9.6-2,14.4-3c-1.4-2.8-2.7-5.5-4.1-8.3
				c-2-4-11.9-0.4-13.9,2.2c-1.4,1.8-2.9,3.7-4.3,5.5c4.6-0.4,9.2-0.9,13.8-1.3c0.1-1.4,0.2-2.8,0.4-4.2c0.4-4.6-9.6-1.5-11.5-0.4
				c-4.6,2.6-8.1,6.1-9.1,11.4c-0.8,4.5,13.3,1.7,14.4-2.2c1.4-5.1,4-9.4,8.2-12.7c-4.1-0.1-8.2-0.3-12.3-0.4
				c-4.2,6.8-10.5,12.6-18.8,12.9c-0.7,2.1-1.5,4.2-2.2,6.3c3.6-1.2,7.3-2.4,10.9-3.6c0.4-0.1,9.3-3.6,6-5.5
				c-7.1-4.2-17-2.3-23.2,2.8c4.1,0.1,8.2,0.3,12.3,0.4c1.2-1.4,2.4-2.8,3.6-4.2c-4.6,0.4-9.2,0.9-13.8,1.3c-1,1.4-1,1.8,0.1,1.1
				c3.3,0.1,6.6,0.2,9.9,0.3c0.1-2,0.9-3.5,2.2-4.9c-4.6,0.4-9.2,0.9-13.8,1.3c-0.3,1.9-0.8,3.3-2.4,4.4c4.3-0.4,8.6-0.9,12.9-1.3
				c-0.5-0.8-0.5-1.5,0.1-2.3c-4.1-0.1-8.2-0.3-12.3-0.4c-1.4,1.9-2.8,3.8-4.3,5.7c4.6-0.7,9.3-1.4,13.9-2.2c-1.3-4.7-1-9.7,1.7-14
				c-4.6,0.7-9.3,1.4-13.9,2.2c0.5,2.2,0.6,6.3-1.8,7.7c3.9-0.1,7.7-0.3,11.6-0.4c-0.7-4.1,0-7.4,2.2-10.9c-4.7,1.2-9.3,2.5-14,3.7
				c2.2,2.7,2.6,7.8-0.5,10.1c4.3-0.4,8.6-0.9,12.9-1.3c-0.8-5.4-0.3-10.4,1.5-15.5c-4.7,1.2-9.3,2.5-14,3.7
				c0.6,0.8,1.6,4.7,0.3,5.5c3.9-0.1,7.7-0.3,11.6-0.4c-0.3-5.1,0.7-9.6,2.8-14.1c-4.7,1.2-9.3,2.5-14,3.7c5.4,3.7,1,9.6-2.2,13.1
				c4.6-0.7,9.3-1.4,13.9-2.2c-1.2-7.5,0.3-15,4.7-21.2c-4.6,0.7-9.3,1.4-13.9,2.2c0.7,2.3,0.7,4.9-1.4,6.4
				c4.3-0.1,8.6-0.3,12.9-0.4c0.6-4.1,2-7.3,4.9-10.4c-4.6,0.7-9.3,1.4-13.9,2.2c0.5,3.6-0.2,6.6-2.5,9.5c4.6-0.4,9.2-0.9,13.8-1.3
				c0.5-3.7,1.5-6.9,3.6-10c-4.6,0.4-9.2,0.9-13.8,1.3c-0.2,1.4-0.3,2.9-0.5,4.3C373.4,296.2,387.8,293.4,388.2,289.4L388.2,289.4z"
				/>
		</g>
	</g>
	<g>
		<g>
			<path class="st3" d="M398.8,308.4c2.2-0.6,4.3-1.3,6.5-1.9c1.7-0.5,3.5-1.2,4.8-2.5c0.7-0.7,1.8-2,1.4-3.2
				c-1.1-2.9-6-2.4-8.2-1.8s-4.3,1.3-6.5,1.9c-1.7,0.5-3.5,1.2-4.8,2.5c-0.7,0.7-1.8,2-1.4,3.2C391.6,309.6,396.6,309.1,398.8,308.4
				L398.8,308.4z"/>
		</g>
	</g>
	<g>
		<g>
			<path class="st3" d="M412.4,295.5c2.3-0.7,2.2-1.2,0.4-2.6c-0.6-0.4-1.3-0.7-2-0.9c-2.7-0.9-6-0.3-8.7,0.6
				c-5.1,1.7-8,5.3-9.8,10.3c-1.5,4-2.1,8,3.2,8.7c5.3,0.7,11.2-1.9,14-6.5c2.1-3.5,2.9-8.6,0.3-12.1c-3.3-4.5-10.6-3.2-14.9-0.8
				c-3.5,1.9-6.2,6.1-5.8,10.2c0.6,5.5,6.2,6.2,10.7,5.8c1.3-0.1,9.8-2.5,8.3-5.6c-1.8-3.8-1.6-7.6-6.4-8.8c-4.9-1.2-11.8,1-15,4.9
				c-3,3.7-1.6,8.9,1.5,12.1c3.8,3.8,11.2,1.9,15-0.9c3.5-2.6,4.3-6.9,2.5-10.8c-2.4-5-7.5-5.6-12.5-4.4
				c-8.9,2.3-15.5,12.8-7.6,20.2c3,2.8,11.4,0.4,13.4-2.8c3.8-5.8,2.8-12.4-5.2-12.6c-7.6-0.2-15,4.5-15.3,12.4
				c-0.1,2.8,0,5.5,2.9,6.7c3.3,1.3,8,0,11-1.6c4.5-2.4,10.9-7.4,8.4-13.2c-2.8-6.5-13.1-4.1-17.4-0.9c-4.8,3.6-4.1,10.1,1.6,12.3
				c6.9,2.6,16,0,22.2-3.3c3.9-2.1,13-8,6.1-12c-2.8-1.7-16,1.8-12.6,6c3.9,4.9,11.5,4.2,16.4,1.1c4.4-2.7,5.5-8.3-0.8-9.1
				c-4.8-0.6-12.8,1.8-14,7.2c-1.5,6.5,4.1,8.1,9.5,6.9c4.5-1.1,10.8-4.4,12.3-9.2c1.8-5.4-3.8-10.5-8.2-12.6
				c-9.5-4.4-27.2,4.4-17.3,15.6c7.4,8.4,26.5-3.6,25.9-13.5c-0.8-12.8-22.2-5.9-27.7-0.9c-3.3,3-5.4,8.6-1.8,12.2
				c3.9,3.9,11.4,2.5,15.8,0.5s8.2-5.8,7-11c-1.2-5.5-7.2-7.5-12.2-7.5c-6.8,0-14.2,3-18.5,8.3c-4.2,5.1-2,9.4,4.3,10.2
				c7.1,1,15.4-1.7,21.4-5.3c1.2-0.7,8.1-4.8,7.9-6.3c0.1,0.3-6.9,0.8-1,0.8c2.2,0,4.3-0.4,6.5-0.8c2.9-0.6,10.2-5.8,3.7-6.9
				c-13.1-2.1-26.3-1.2-39.2,2.1c-1.9,0.5-9.8,4.3-5,6.5c5.9,2.7,13.5,0.7,18.4-3.3c2.2-1.8,1.8-4.1-1.2-4.5
				c-8.9-1.2-18.9,1.9-24.4,9.3c-2,2.7,1.7,3.7,3.8,3.7c3.4,0.1,7.3-1.3,9.6-3.8c2.4-2.6,4.7-5.1,7.1-7.7c-4.5,0-8.9,0.1-13.4,0.1
				c-2.1,2.5-4.1,4.9-6.2,7.4c-3.9,4.6,7.9,3.2,9.4,2.5c4.3-1.9,8.1-4.4,10.5-8.6c2.9-5.1-7.4-3.5-9.4-2.5
				c-4.1,1.9-8.2,3.9-12.1,6.1c3.7,0.6,7.4,1.2,11.1,1.7c0.4-0.4,0.7-0.9,1.1-1.3c2.3-2.6-1.9-3.7-3.8-3.7c-3.3-0.1-7.4,1.3-9.6,3.8
				c-0.4,0.4-0.7,0.9-1.1,1.3c-1.7,1.9,0.5,3.2,2.2,3.6c2.9,0.6,6.4-0.5,8.9-1.9c2.9-1.6,5.8-3.1,8.9-4.5c-3.1-0.8-6.3-1.7-9.4-2.5
				c-0.6,1-1.4,2.8-2.6,3.3c3.1,0.8,6.3,1.7,9.4,2.5c2.1-2.5,4.1-4.9,6.2-7.4c2.2-2.6-1.9-3.7-3.8-3.7c-3.4-0.1-7.3,1.3-9.6,3.8
				c-2.4,2.6-4.7,5.1-7.1,7.7c4.5,0,8.9-0.1,13.4-0.1c0.5-0.8,1.1-1.5,1.8-2.1c-0.8,0-0.7,0.1,0.2,0.2c-0.4-1.5-0.8-3-1.2-4.5
				c1.6-0.5,3.2-1,4.7-1.5c-1.7,2.2-3.3,4.3-5,6.5c9.4-2.4,18.9-2.7,28.4-1.2c1.2-2.3,2.4-4.6,3.7-6.9c3.1-0.6-1.2-0.4-1.8-0.4
				c-1.7,0-3.5,0.2-5.1,0.6c-2.6,0.6-5.2,1.7-7.4,3.4c-2.4,1.9-4.1,4.6-6.9,6c-1.9,1-5.2,2.2-3.4-1.2c0.5-0.7,1.1-1.3,1.7-1.8
				c-0.8,0.1-1.5,0.3-2.3,0.4c0-0.9,3.5,2.9,3.4,2.7c0.4,0.8,0.3,4.2,0.2,4.2c1.8-0.6,3.6-1.1,5.3-1.7c-0.6-0.7-0.9-1.5-0.7-2.5
				c0-0.7,0.3-3.2,1.3-3.2c-0.8,0.1,0.8,2.3,0.8,2.3c0.4,1.8-0.3,3.4-1.3,4.8c-0.6,0.8-3.6,2.5-1,1.8c1.8-0.1,3.6-0.3,5.4-0.4
				c-1.6-0.2-2-3.5-2.5-4.6c0-0.6,0-1.3,0-1.9c-6.6,0.6-8.1,1.9-4.3,3.8c1.1,0.9,2.8,2.3,3.4,3.7c0.5,1,0.6,2,0.2,3.1
				c-1.4,1.3-1.2,1.5,0.4,0.7c2.2,0,4.5-0.1,6.7-0.1c-0.3-0.1-0.5-0.3-0.8-0.4c0.5,0.5,0.9,0.9,1.4,1.4c-0.7-1.4-1.1-3.1,0-4.4
				c-1.3,0.9-2.6,1.8-3.9,2.6c0.4-0.2,0.7-0.3,1.1-0.5c-2.4,0.4-4.8,0.7-7.3,1.1c-0.4,0-0.9,0-1.3,0.1c1.3-0.9,2.6-1.8,3.9-2.6
				c-0.3,0.1-0.6,0.3-0.9,0.4c1.9-0.4,3.8-0.8,5.7-1.2c0.6-0.5,0.5-0.9-0.5-1.4c-4.2,2-8.4,4-12.6,6c0.2,0.1,0.5,0.3,0.7,0.4
				c-0.5-0.5-0.9-0.9-1.4-1.4c0.4,0.5,0.5,1.1,0.4,1.7c0.2-0.6,0.4-1.3,0.6-1.9c-0.8,1.4-3.1,3.3-4.9,3.2c-1.1-0.1-3.8-2.7-2.3-3.9
				c-1.6,0.8-3.2,1.5-4.9,2.3c0.3-0.1,0.7-0.2,1-0.3c-1.8,0.1-3.6,0.3-5.4,0.4c3.9,0.3-1.1,5.8-2,6.3c1.8-0.6,3.7-1.2,5.5-1.8
				c-0.3,0-0.5,0.1-0.8,0.1c1.6,0.1,3.1,0.2,4.7,0.3c-0.3-0.2-0.6-0.3-0.9-0.5c0.5,0.5,0.9,0.9,1.4,1.4c-0.6-1.4-1.6-6.6,0.4-7.5
				c-1.8,0.6-3.7,1.2-5.5,1.8c-2.2-0.7-2.8-0.3-1.6,1.3c0.1,1.4-0.4,2.7-1.3,3.8c4.5-0.9,9-1.9,13.4-2.8c-1.4-1.3-2.3-2.8-2.4-4.8
				c-0.1-0.9,0.2-1.7,0.2-2.6c0.1-2,2.3-1.8-1.4-1c-2.2,0-4.5,0.1-6.7,0.1c1.8,0.5,5.1,5.3,3,7c2.3-0.9,4.6-1.8,6.8-2.7
				c-0.3,0-0.7,0.1-1,0.1c1.6,0.1,3.1,0.2,4.7,0.3c-1.2-0.6-1.9-2.3-2.3-3.4c-1.3-3.6,1.4-2-4.5-1.5c-1.6-0.1-3.1-0.2-4.7-0.3
				c2,0.6,2,4.2,2.9,5.9c2.8-1.9,5.6-3.7,8.3-5.6c-0.4,0-0.7,0.1-1.1,0.1c1.6,0.1,3.1,0.2,4.7,0.3c-2.5-0.7-2.8-5-0.7-6.5
				c-2.3,0.9-4.6,1.8-6.8,2.7c0.4-0.1,0.8-0.1,1.2-0.2c-1.6-0.1-3.1-0.2-4.7-0.3c1.9,0.8,2.2,2.9,2.1,4.7c0,1.1-1.8,4.6,0.4,3.5
				c2.4-0.4,4.8-0.7,7.3-1.1c2.4,0.4,2.1-6,3.8-7c-1.8,0.6-3.7,1.2-5.5,1.8c0.3-0.1,0.7-0.1,1-0.2c-1.6-0.1-3.1-0.2-4.7-0.3
				c1.1,0.4,1.7,1.8,2.6,2.5c1,0.8,2.2,1.2,3.3,1.5c2.9,0.8,6.1,0.3,9-0.6c1.9-0.6,7.2-2.3,6.4-5.2
				C419.8,294,414.1,294.9,412.4,295.5L412.4,295.5z"/>
		</g>
	</g>
	<g>
		<g>
			<path class="st3" d="M358.3,298.5c2.8-2.3,4.5-4.7,4.1-8.5c-0.2-2-3.1-2.7-4.6-2.9c-2.4-0.2-5.4,0.4-7.3,2
				c-0.7,0.6-1.5,1.1-2.2,1.7c-0.7,0.4-0.8,0.5-0.2,0.1c-0.3,0.2-0.6,0.3-0.9,0.5s-0.6,0.3-1,0.4c0.8-0.3,0.8-0.2-0.1,0
				s-1.8,0.5-2.7,0.6c-2.6,0.5-8.3,4.2-5.5,7.5c1.2,1.4,2.6,2.2,4.4,2.8c3.3,1.1,7.9-0.2,10.2-2.7c2.3-2.4,1.4-5.3-1.7-6.3
				c0.1,0.1,0.3,0.1,0.4,0.1c-1.8,2.5-3.7,5-5.5,7.5c5.1-0.9,10.1-3.2,14.1-6.5c-4-0.3-8-0.6-11.9-0.9c0-0.4,0.8-0.9,1-1.1
				c-2.1,1.7-4,4.8-1,6.8C350.8,301.3,355.8,300.5,358.3,298.5L358.3,298.5z"/>
		</g>
	</g>
	<g>
		<g>
			<path class="st4" d="M354.2,298.1c0-0.6,0-1.2,0.1-1.7c0-0.3,0-0.5,0-0.8c-0.1-0.4-0.4-0.7-0.8-0.9c-0.8-0.5-1.8-0.7-2.7-0.6
				c-1,0-2,0.2-3,0.4c-1.3,0.3-2.8,1-3.9,1.9c-0.7,0.6-1.5,1.5-1.6,2.4s0.1,1.6,0.7,2.3c0.7,0.7,2.2,0.9,3.1,0.9
				c1.5,0,3.2-0.3,4.5-0.9c1.1-0.5,2.5-1.1,3.1-2.2c0.5-0.7,0.7-1.5,0-2.2c-0.1-0.1-0.1-0.1-0.2-0.2c0.1,0.2,0.3,0.4,0.4,0.7
				c-0.1-0.2-0.2-0.5-0.2-0.7c0,0.3,0,0.5,0,0.8c0-0.2,0.1-0.3,0.1-0.5c-0.1,0.3-0.3,0.5-0.4,0.8c0.1-0.1,0.1-0.2,0.2-0.3
				c-0.3,0.3-0.5,0.5-0.8,0.8l0.1-0.1c-3.5,0-6.9,0-10.4,0c0,0.6,0,1.2-0.1,1.7c-0.1,0.4-0.1,0.8,0.2,1.1c0.2,0.4,0.5,0.7,1,0.8
				c1.1,0.5,2.7,0.5,3.8,0.3c1.5-0.2,3.1-0.7,4.4-1.5c0.4-0.2,0.7-0.5,1.1-0.7C353.6,299.3,354,298.7,354.2,298.1L354.2,298.1z"/>
		</g>
	</g>
	<g>
		<g>
			<path class="st4" d="M366.9,291c-0.3-0.5-0.4-0.9-0.2-1.4c0.7-5.8-10.2-4.9-11.5-0.4c-0.2,0.7-0.4,1.4-0.6,2.1
				c-1.8,6.3,7.6,6.4,10.5,2.7c0.9-1.1,1.7-2.3,2.6-3.4c-3.6-0.5-7.2-1-10.8-1.5c-0.3,1.9,0.5,3.6,2.2,4.7c-0.2-1.8-0.3-3.6-0.5-5.3
				c-0.3,0.4-0.6,0.8-0.9,1.2c-1.1,1.2,0,1.4,3.4,0.4c-2.6-3.8-9-1.5-10.9,1.8c-0.1,0.2-0.2,0.4-0.3,0.5c1-1,2-1.9,2.9-2.9
				c1.8-1,2.3-0.6,0.3-0.4c-1.3,0.1-2.6,0.4-3.8,0.9c-1.1,0.5-2,1-2.9,1.8c-0.3,0.3-0.7,0.6-1,1c-1.9,1.7-0.6,1.6,3.9-0.2
				c0.7,0.5,1.3,1,2,1.5c-0.1-0.2-0.3-0.4-0.4-0.6c-3.5-4.3-14.4,0.4-10.6,5.2c3.3,4.1,9.5,2.9,13-0.2c0.4-0.4,0.8-0.8,1.2-1.2
				c-2.4,0.6-3.1,0.8-1.9,0.8c0.8,0.2,1.9-0.1,2.6-0.2c2.8-0.6,4.7-1.9,6.1-4.4c-3.6,0.6-7.2,1.2-10.9,1.8
				c4.7,6.9,14.1,2.2,17.8-3.1c1.2-1.7,1.5-4.1-0.5-5.3c-0.2-0.1-0.4-0.2-0.5-0.4c0.5,0.6,0.9,1.3,1.4,1.9c0,0-0.1,0-0.1-0.1
				c0.8-5.7-8.6-4.3-10.8-1.5c-0.9,1.1-1.7,2.3-2.6,3.4c3.5,0.9,7,1.8,10.5,2.7c0.2-0.7,0.4-1.4,0.6-2.1c-3.8-0.1-7.6-0.3-11.5-0.4
				c-0.2,1.3-0.1,2.5,0.4,3.8C357.1,299.7,368.7,296.5,366.9,291L366.9,291z"/>
		</g>
	</g>
	<g>
		<g>
			<path class="st4" d="M340.3,301.3c0.1,3.7,1,6.7,3.6,9.5c2,2.1,5.4,2,7.9,0.8c-0.1,0.1-0.2,0.2-0.4,0.3c2.7,1.1,7.7-0.3,8.9-3.2
				c1.2-3,2.4-6.1,3.6-9.1c1.1-2.6-1-4.4-3.5-4.8c-3-0.4-6,1.1-7.6,3.5c-1,1.6-2,3.1-3.1,4.7c-0.3,0.5-2.4,3.9-1.8,3.7
				c1.5,0,2.9,0,4.4,0c-0.3-0.2-0.7-0.3-1-0.5c-3.8-1.8-13.1,3.6-7.8,7.1l0.1-0.1c-2.6,6.1,7.8,5.2,10.4,2.3c1-1.1,2.1-2.6,3.5-3.2
				c1.9-0.9,0.8-0.7,2.4,0.3c3,1.8,5.3,3.3,8.9,3.9c6.5,1,12.9-0.9,18.8-3.4c7.1-2.9,12.8-4.8,20.6-3.4c7.5,1.4,14.7,4.3,22.2,5.9
				c6.6,1.4,14,1.8,19.7-2.4c4.8-3.5,7-9.6,3.1-14.7c-3.4-4.5-10.2-7.8-15.6-9.2c-6.8-1.8-13.5,0-20.2,1.4
				c-4.3,0.9-7.7,0.8-11.8-0.6c-3.8-1.3-7.6-2.5-11.6-3c-8.8-1.2-17.8,0-26.5,1.2c1.6,0.5,3.2,1.1,4.8,1.6c-0.5,0.4-1.1,0.8-1.6,1.1
				c-2.8-1-5.6-1.9-8.4-2.9c-0.4,4.5-1.6,8.4-3.8,12.4c3.8,0.1,7.6,0.1,11.4,0.2c0.4-2-0.1-3.3-1-5c-1.3-2.4-6-1.8-7.9-0.8
				c-2.5,1.3-4.5,2.8-5.4,5.5c-1,3.2,1.9,5.3,5,4.8c3-0.5,5.4-1.3,8-2.9c-3,0-6.1,0-9.1,0c0.3,0.6,0.5,1.1,0.8,1.7
				c0.2,5.6,8.1,3.8,10.7,1.2c0.8-0.8,1.6-1.6,2.4-2.4c-3.5,0-7.1-0.1-10.6-0.1c0.5,1.6,1,3.3,1.4,4.9c1.2,4.1,8.7,3,10.6,0.1
				c2.1-3.1,2.9-5.7,2.4-9.4c-0.7-5-9.9-2.1-11.3,0.9c-1.4,3.1-1.7,6-0.4,9.1c1.7,4.1,8.2,2.9,10.6,0.1c3.2-3.7,3.8-8.4,0.8-12.5
				c-2.4-3.3-11.1-1.4-11.2,3c-0.1,3.1,0.6,5.4,2.2,8c1.9,2.9,7,1.5,9.1,0c3.1-2,5.4-4.7,7.2-7.9c1.3-2.4-1.2-4.7-3.5-4.8
				c-5.6-0.3-16.1,5.1-10,11.8c5.7,6.2,15.3-1.2,17.8-6.9c1.1-2.5-1-4.6-3.5-4.8c-6.1-0.3-11.9,2.4-13.4,8.7
				c-0.5,2.1,2.1,3.6,3.8,3.7c4.9,0.3,8.3-1.6,12-4.5c0.4-0.3,2.9-2.5,0.6-1.1c-1.5,0.1-1.5,0.3,0.2,0.7c0.4,0.2,0.8,0.4,1.2,0.6
				c2.7,1,5.2,1.2,7.9,0.2c2.1-0.7,5-2.2,4.8-4.9c-0.2-2.5-3.2-3.4-5.3-3.1c-4.6,0.5-9.3,1-13.9,1.5c-0.4,2.8-0.7,5.5-1.1,8.3
				c6.3-0.9,12.8-2.1,19.2-1.2c6.1,0.8,11.3,3.5,17.6,2.5c2.4-0.4,3.8-1,6.1-0.1c2.1,0.7,4.1,1.9,6.1,2.8c4.6,1.9,9.4,2,13.8-0.3
				c7-3.6,0.7-9.7-5.1-6.7c-1.2,0.6-8-3.5-10-4.1c-4.8-1.3-8.8,0.9-13.4,0.3c-5.3-0.7-10.1-2.8-15.6-3c-6-0.2-11.8,0.6-17.7,1.5
				c-2.4,0.4-6.2,1.7-6.4,4.6c-0.2,2.8,3,3.9,5.3,3.7c4.6-0.5,9.3-1,13.9-1.5c-0.2-2.7-0.3-5.4-0.5-8c1.6-0.5,0.2-0.6-1-1
				c-0.8-0.3-1.7-0.6-2.6-0.7c-2.2-0.4-4.3-0.1-6.4,0.6c-1.7,0.6-3.2,1.5-4.7,2.6c-0.6,0.4-1.2,0.9-1.7,1.4
				c-1.4,1.5-1.8,0.6,0.5,0.7c1.3,1.2,2.6,2.4,3.8,3.7c-0.8,0.2-1.6,0.3-2.4,0.5c-1.2-1.6-2.3-3.2-3.5-4.8c-0.2,0.9-0.7,1.7-1.5,2.3
				c1.8,0.2,3.7,0.4,5.5,0.6c-1.6,0.6-3.2,1.2-4.8,1.8c-1.2-1.6-2.3-3.2-3.5-4.8c-1,1.8-2.1,2.9-3.7,4c3,0,6.1,0,9.1,0
				c-0.9-1.1-1.2-2.4-1.1-3.8c-3.7,1-7.5,2-11.2,3c1,1.3,1.3,2.7,0.2,4.1c3.5,0,7.1,0.1,10.6,0.1c-0.8-1.8-1-3-0.2-4.8
				c-3.8,0.3-7.6,0.6-11.3,0.9c0.2,1.1,0.1,2.1-0.5,3c3.5,0,7.1,0.1,10.6,0.1c-0.5-1.6-1-3.3-1.4-4.9c-1.3-4.5-8.3-2.4-10.6-0.1
				c-0.8,0.8-1.6,1.6-2.4,2.4c3.6,0.4,7.1,0.8,10.7,1.2c-0.1-2.4-0.5-3.9-1.9-5.8c-2.2-2.8-6.7-1.6-9.1,0c0.2-0.1,0.5-0.2,0.7-0.2
				c1.7,1.6,3.3,3.2,5,4.8c-0.2,0-0.4-0.1-0.6-0.1c-2.6-0.3-5.2-0.5-7.9-0.8c0,0.3-0.1,0.6-0.1,0.9c-1.2,5.9,9.6,3.4,11.4,0.2
				c2.5-4.6,4-9.4,4.4-14.6c0.4-4.3-5.9-4.2-8.4-2.9c-4.1,2.1-7,6.3-3.9,10.6c1,1.4,3.2,1.9,4.8,1.6c8.6-1.2,17.7-2.7,26.3-0.8
				c4.3,0.9,8.2,3,12.5,3.7c3.7,0.6,7.4,0.2,11-0.4c3.7-0.7,7.4-1.9,11.2-2.1c4.1-0.3,7.6,1.3,11,3.4c2.4,1.5,8.2,5.7,3.1,7.9
				c-3,1.3-9.9-1.6-12.7-2.4c-7.7-2.2-15.4-4.9-23.5-5.1c-8-0.3-14.9,2.4-22.2,5.4c-3.2,1.3-6.9,2.9-10.5,2.1
				c-3.3-0.7-5.3-3.8-8.7-4.7c-7.6-1.8-15,3.3-19.7,8.7c3.5,0.8,6.9,1.5,10.4,2.3c1.3-3.1,0.7-5.8-2.2-7.7c-2.6,2.4-5.2,4.8-7.8,7.1
				c9.4,4.4,15.3-8.4,19.3-14.4c-3.7-0.4-7.4-0.8-11.1-1.2c-1.2,3-2.4,6.1-3.6,9.1c3-1.1,5.9-2.2,8.9-3.2c-3.9-1.5-7.7-1.1-11.5,0.7
				c2.6,0.3,5.2,0.5,7.9,0.8c-1.5-1.6-2.4-3.1-2.5-5.3C351.8,294.4,340.1,296.2,340.3,301.3L340.3,301.3z"/>
		</g>
	</g>
</g>
<g id="Слой_6">
	<g>
		<g>
			<path d="M352.4,273.3c-2.5-3-6.9-2.1-9.3,0.5c-4.7,4.9-5.8,14.2-6,20.7c-0.3,8.2,1.9,29.8,15.2,24.3c5.5-2.3,9.5-8.5,12.2-13.6
				c3.4-6.2,5.9-13.5,5.7-20.6c-0.3-11.1-11-20.9-21.6-14.3c-1.7,1,0.9,1.3,1.8,0.8c5.9-3.6,12.8,1,15.3,6.3c1.8,3.9,2,8.4,1.4,12.7
				c-1.2,8.1-4.9,16.1-10,22.4c-2.1,2.5-5.4,6.8-9.5,5c-2.3-1-3.8-3.7-4.8-5.8c-1.5-3.4-2.1-7.3-2.5-10.9c-0.4-4.4-0.2-8.9,0.6-13.3
				c0.4-2.2,1-4.4,1.7-6.6c0.6-1.7,3.5-11,7.4-6.4C350.3,275.2,353.1,274.1,352.4,273.3L352.4,273.3z"/>
		</g>
	</g>
	<g>
		<g>
			<path d="M291.9,317.7c-0.4,0.4-0.8,0.9-1.2,1.3c-0.1,0.2-0.2,0.3,0,0.4c4.1,4.8,12.6,2.6,17.9,2c9.2-1,18.2-2.3,27.3-4
				c1.2-0.2,2.5-1.6,0.5-1.2c-7,1.3-14.1,2.4-21.1,3.3c-3.7,0.5-7.5,0.9-11.2,1.2c-1.7,0.1-12.6,0.3-9.4-3.2
				C295.1,316.8,292.4,317.2,291.9,317.7L291.9,317.7z"/>
		</g>
	</g>
	<g>
		<g>
			<path d="M306,275.1c-2.5-0.9-5.3,0-6.6,2.3c-0.2,0.3,0.3,0.4,0.5,0.4c15.5,0.9,30.2-7.4,45.7-5c0.7,0.1,3.3-1,1.9-1.2
				c-6.8-1-13.4-0.2-20.1,1.3c-3.7,0.8-7.3,1.7-11,2.5c-3.9,0.8-9.8,2.2-12.8,1C304.3,276.6,306.9,275.5,306,275.1L306,275.1z"/>
		</g>
	</g>
	<g>
		<g>
			<path d="M295.4,280.5c-6.6,4.9-8.6,14.4-9.9,22.1c-1.4,8.2-2,17.6,3.6,24.5c0.8,0.9,3.5-0.2,2.7-1.2c-5-6.1-4.7-14.3-3.6-21.8
				c1-7.4,2.7-17.6,9.1-22.3C298.9,280.5,296.5,279.7,295.4,280.5L295.4,280.5z"/>
		</g>
	</g>
	<g>
		<g>
			<path d="M314.9,277.7c-1.6-2.4-1.7-5.1-1-7.8c1-3.8,3.3-6.2,7.1-7.3c3.5-1,6-0.4,8.6,2.4c1.7,1.8,2.4,3.9,2.4,6.3
				c0,0.8,2.9,0.2,2.9-0.8c-0.1-7.7-8.3-11.8-15.1-9.5c-6.9,2.4-12,11.1-7.6,17.8C312.7,279.5,315.5,278.6,314.9,277.7L314.9,277.7z
				"/>
		</g>
	</g>
	<g>
		<g>
			<path d="M354.2,329.5c-4.1,10.7,8.5,15,16.7,15.2c6.7,0.2,13.7,0.1,20.3-1.3c4.5-0.9,8.6-2.9,13.3-2.3c4.3,0.5,8.3,2.6,12.4,3.9
				c13.1,4.2,28.5,6.1,42.3,5.9c6.2-0.1,12.1-1.2,17.7-3.9c3.2-1.5,6.1-3.4,9.4-4.7c3.7-1.5,7.7-2.1,11.4-3.6
				c5.5-2.2,8.2-6.6,12.5-10.4c4.7-4.1,9.8-6.9,13.1-12.4c5.7-9.6,5-21.9-2.6-30.2c-3.5-3.8-7.7-6-12.6-7.4c-3.4-1-6.5-1.8-9.6-3.7
				c-2.6-1.6-5-3.5-7.8-5c-2.4-1.3-4.8-2.1-7.5-2.3c-4.2-0.3-8.2,0.5-12-1.8c-4.4-2.7-7.2-5.6-12.7-4.6c-1.7,0.3-3.3,1-5,1.4
				c-3.6,0.7-6.3,0-9.8-0.9c-2.8-0.7-5.5-1.7-8.4-1.8c-3.5-0.1-6.6,1.2-10,1.8c-5.1,0.9-9.4-1.4-14.3-1.8
				c-6.9-0.5-14.5,2.2-21.2,3.7c-6.4,1.4-12.5,3.3-17.4,7.9c-1.4,1.3,0.8,2.5,1.9,1.4c4.5-4.3,10.1-5.9,16-7.2
				c6.7-1.5,14.5-4.4,21.3-3.3c5,0.7,9.1,2.6,14.2,1.5c3.5-0.7,6.7-2,10.4-1.5c3.1,0.4,6,1.6,9,2.3c5.3,1.2,9-0.5,14.2-1.1
				c5.5-0.6,8.9,4.9,14.1,6c2.4,0.5,4.8,0.2,7.3,0.3c4.1,0.1,7.1,1.4,10.4,3.5c4.5,2.9,8.4,5.5,13.7,6.9c11.3,3.1,20,11.6,19.2,24
				c-0.3,5.4-2.5,10.8-6.1,14.9c-4,4.5-9.4,7.3-13.5,11.8c-2.7,2.9-5,5.2-8.9,6.5c-2.4,0.9-4.9,1.3-7.3,2.1
				c-6.1,2-11.2,5.9-17.3,7.8c-11.9,3.8-26.3,1-38.4-0.9c-7.7-1.2-14.7-3.7-22.1-6c-5.1-1.6-9.4-1.6-14.5-0.3
				c-7.8,2-15.3,2.8-23.4,2.7c-6.8-0.1-19.5-2.8-15.7-12.6C357.6,328.3,354.6,328.2,354.2,329.5L354.2,329.5z"/>
		</g>
	</g>
</g>
</svg>
