<?xml version="1.0" encoding="utf-8"?>
<!-- Generator: Adobe Illustrator 22.0.0, SVG Export Plug-In . SVG Version: 6.00 Build 0)  -->
<svg version="1.1" xmlns="http://www.w3.org/2000/svg" xmlns:xlink="http://www.w3.org/1999/xlink" x="0px" y="0px"
	 viewBox="0 0 841.9 595.3" style="enable-background:new 0 0 841.9 595.3;" xml:space="preserve">
<style type="text/css">
	.st0{fill:#42210B;}
	.st1{fill:#3C005C;}
	.st2{fill:#0BD000;}
</style>
<g id="Слой_2">
	<g>
		<g>
			<path class="st0" d="M396.5,253.8c-3.8-0.8-13.4,1.2-12.8,6.5c0.5,4.2,1.2,8.3,1.3,12.6c0.1,3.7,14.6,1.2,14.5-3.9
				c0-2.2-0.1-4.4-0.4-6.6c-0.1-1-0.2-2-0.4-3c-0.1-0.7-0.8-2.4-0.5-3c-1.5,1.2-3,2.3-4.5,3.5c0.1-0.1,0.3-0.1,0.4-0.2
				c-2.4,0.4-4.8,0.7-7.3,1.1c0.2,0,0.3,0.1,0.5,0.1c3.2,0.7,7.7-0.7,10.2-2.7C400.1,256.2,399.3,254.5,396.5,253.8L396.5,253.8z"/>
		</g>
	</g>
	<g>
		<g>
			<path class="st0" d="M387.5,257.9c0.6,6.2,0.5,12.4-0.2,18.6c-0.8,7.2,12.2,4.6,14.2,0.1c0.4-1,0.9-2,1.3-2.9
				c1.4-3.1-1.3-5.6-4.3-5.8c-4.8-0.4-8.9,1.1-12.2,4.5c-2.1,2.2-1.5,5.1,1.1,6.4c2.9,1.5,7.1,0.6,9.7-1.3c2-1.5,4-3,6-4.5
				c1.7-1.2,3.8-4.3,1.9-6.3c-1.6-1.6-0.4-4,0-6c0.6-2.9,0.6-5.6,0-8.5c-1.2-6.4-15.8-2.8-14.5,3.9c1.1,5.6-3.5,12.1,1.1,16.9
				c0.6-2.1,1.3-4.2,1.9-6.3c-2,1.5-4,3-6,4.5c3.6,1.7,7.2,3.4,10.8,5.1c-1.6,0.6-3.3,1.2-4.9,1.7c-1.4-1.9-2.9-3.9-4.3-5.8
				c-0.4,1-0.9,2-1.3,2.9c4.7,0,9.5,0.1,14.2,0.1c0.8-7.1,0.7-14.2,0-21.3C401.4,247.7,386.8,251.2,387.5,257.9L387.5,257.9z"/>
		</g>
	</g>
	<g>
		<g>
			<path class="st0" d="M408.9,245.6c0-0.6,0-1.3,0-1.9c0-1-2.1-1.4-2.7-1.5c-1.7-0.2-3.7,0.1-5.4,0.5c-1.7,0.5-3.5,1.1-4.9,2.2
				c-0.3,0.3-0.6,0.6-1,0.9c-0.5,0.5-0.7,1.1-0.6,1.7c0,0.6,0,1.3,0,1.9c0,1,2.1,1.4,2.7,1.5c1.7,0.2,3.7-0.1,5.4-0.5
				c1.7-0.5,3.5-1.1,4.9-2.2c0.3-0.3,0.6-0.6,1-0.9C408.8,246.9,409,246.3,408.9,245.6L408.9,245.6z"/>
		</g>
	</g>
	<g>
		<g>
			<path class="st0" d="M408.4,243.1c-0.5-6.1-1.1-12.1-2-18.2c-0.6-4.6-1.4-9.2-5-12.5c-3.2-2.9-15.6-1-13.9,4.9
				c1.8,6.3,2.9,12.7,3,19.2c0.1,6.6,14,3.8,14.6-1.6c0.8-7.8-1.1-20.7-9.2-24.5c-4-1.9-9.5-0.7-12.8,2.1c-2.6,2.2-4.2,6.1-1.4,8.8
				c4.1-2.2,8.3-4.5,12.4-6.7c-3.2-2.2-6.7-3.1-10.6-3.2c1.5,0.9,3,1.7,4.5,2.6c-0.5-1.2-0.8-1.9-1.7-2.8
				c-3.4-3.1-11.3-1.5-13.5,2.6c-0.6,1.2-1,2-1.1,3.3c4.8-0.9,9.7-1.8,14.5-2.7c-1.2-2.8-2.7-4.5-5.3-6.1c-2.8,2.8-5.6,5.5-8.4,8.3
				c2.3,0.3,4.5,0.6,6.8,1c1.8-3,3.6-6,5.4-9c-5.2-0.2-11.3,0.4-16.4-0.6c-4.5-0.9-8.8-6.9-11.8-10.1c-3.7-4.1-17.6,1.3-13.4,5.9
				c4.1,4.6,9.1,10.8,15.2,12.6c6.4,1.9,14.3,1,20.9,1.3c3.2,0.1,7.9-1,9.5-4.1c1.7-3.2-1.5-4.5-4.1-4.9c-2.3-0.3-4.5-0.6-6.8-1
				c-3.3-0.5-14.4,4.5-8.4,8.3c1.1,0.5,1.8,1.4,2.2,2.5c2.1,4.8,14.2,2.5,14.5-2.7c0-0.3,0.1-0.6,0.1-0.9c-4.5,0.9-9,1.7-13.5,2.6
				c0.2,0.3,0.4,0.5,0.6,0.8c0.7,1.8,2.7,2.6,4.5,2.6c2,0,3,0.5,4.6,1.6c3.6,2.5,16.8-2.5,12.4-6.7c-0.7-0.3-1.2,0.2-1.5,1.3
				c-1.8,0.6-3.6,1.3-5.5,1.9c-3.2-1.2-4-1.1-2.5,0.3c0.3,0.4,0.6,0.9,1,1.3c1.2,1.7,2,3.6,2.7,5.5c1.2,3.6,1.6,7.1,1.2,10.8
				c4.9-0.5,9.7-1,14.6-1.6c-0.1-7.4-1-14.4-3.1-21.5c-4.6,1.6-9.3,3.3-13.9,4.9c3.4,3.1,3.6,8,4.1,12.3c0.7,5.4,1.3,10.9,1.7,16.4
				C394.3,252.3,408.9,249.1,408.4,243.1L408.4,243.1z"/>
		</g>
	</g>
	<g>
		<g>
			<path class="st0" d="M324.4,200.1c-0.2,0.2-0.4,0.4-0.6,0.6c-0.6,0.6-1.1,1.3-0.3,1.9c0.5,0.3,1,0.4,1.5,0.4
				c0.7,0.1,1.5,0.1,2.2,0c1.9-0.2,3.8-0.6,5.6-1.3c1.4-0.5,3-1.1,4.1-2.2c0.2-0.2,0.4-0.4,0.6-0.6c0.6-0.6,1.1-1.3,0.3-1.9
				c-0.5-0.3-1-0.4-1.5-0.4c-0.7-0.1-1.5-0.1-2.2,0c-1.9,0.2-3.8,0.6-5.6,1.3C327.1,198.5,325.4,199.1,324.4,200.1L324.4,200.1z"/>
		</g>
	</g>
	<g>
		<g>
			<path class="st0" d="M323.8,201.3c2.7,2.2,5.8,3.5,9.2,4c1.8,0.3,6.4,1,7.5-0.1c1.6-0.9,3.2-1.8,4.8-2.7
				c-0.3,0.1-0.6,0.2-0.8,0.3c1.8,0,3.6,0,5.5-0.1c-2.9-1.1-6.8-1.8-9.2-2.8c-3.2-1.4-4.9-2.5-8.6-2.4c-7.4,0.2-15.1,2.5-22.3,3.8
				c-2.7,0.5-11,3.6-7.4,7.9c-0.1-0.1,0.9,2,0.3,1.8c0.7-0.4,1.4-0.7,2.1-1.1c-1.1-0.1-2.1-0.4-3.2-0.7c-1,3-2.1,6-3.1,9
				c1.9-0.5,3.8-1,5.7-1.5c2.6-0.7,6.9-3.1,6-6.4c-0.9-3.4-5.9-3.1-8.4-2.5c-9.2,2.1-18.5,3.9-27.8,5.1c-2.9,0.4-7.6,2-8.1,5.5
				c-0.4,3.5,4,4.4,6.5,4.1c6.3-0.7,12,0.3,17.8,2.7c-1-0.9-2-1.7-3-2.6c0.6,2.1,0.8,3.8,0.4,6c3.9-1.7,7.7-3.5,11.6-5.2
				c-3.1-1.1-5.9-2.3-8.8-3.8c-2.8,2.9-5.5,5.8-8.3,8.8c1.9,0.2,2.6,2.4,2.9,3.9c1,4.9,9.4,2.7,11.9,0.9c3.2-2.2,6.3-3.2,10.1-3.4
				c2.8-0.2,7-1.9,7.9-4.9c0.8-2.8-1.8-4.7-4.5-4.8c-5-0.2-9,1-13.3,3.5c-4.4,2.5-2.6,7.5,2.1,7.7c6.4,0.3,17.5-4.5,14.1-12.7
				c-0.4,1.2-0.9,2.5-1.3,3.7c1.5-1.5,3-2.9,4.6-4.4c-4.4-0.4-8.8-0.7-13.3-1.1c-0.1,3.3,0.5,5.6,2.1,8.6c2.5,4.7,11.5,0.6,13.5-2.5
				c2.3-3.6,4.6-7.2,6.8-10.8c-4.6-0.4-9.1-0.8-13.7-1.2c-1.9,3.1-2.4,6.1-1.5,9.6c1.3,5.6,10.6,2.2,13.2-0.2c2.6-2.4,4-5,4.9-8.3
				c0.9-3.1-3.6-4.1-5.6-4.1c-3.1,0-6.9,1.4-8.6,4.3c-3.3,5.9,3,10.2,8.4,10.3c7.1,0.1,12.3-4.8,14.9-10.9
				c-4.7,0.5-9.4,0.9-14.1,1.4c0.4,1.5,0.8,3.1,1.1,4.6c1.5,6,13.7,2.3,14.5-2.6c0.2-1.4,0.4-2.7,0.7-4.1c-4.9,0.5-9.7,0.9-14.6,1.4
				c-0.1,2.2,0,4.1,0.6,6.1c1.4,4.9,9.1,2.7,11.9,0.9c2.7-1.7,5-3.7,7.1-6.1c-4.4-0.4-8.8-0.7-13.3-1.1c0.1,2.8,0.6,4.9,2.6,7
				c2.9,3.1,8.2,1.7,11.4-0.2c2.3-1.4,4.2-3.1,5.9-5.2c-3.9,0.7-7.7,1.4-11.6,2.1c0.9,0.7,1.7,1.4,2.6,2.2c3,2.5,9.4,0.3,11.6-2.1
				c1.3-1.4,2.6-2.8,3.9-4.2c-3.9,0.7-7.7,1.4-11.6,2.1c8.4,3.7,16.8,6,25.9,7c3.2,0.3,8-1.1,9.5-4.3c1.5-3.2-1.4-5.1-4.2-5.4
				c-6.9-0.7-13.6-2.4-19.9-5.2c-3.7-1.6-8.8-1-11.6,2.1c-1.3,1.4-2.6,2.8-3.9,4.2c3.9-0.7,7.7-1.4,11.6-2.1
				c-0.9-0.7-1.7-1.4-2.6-2.2c-2.9-2.4-9.6-0.5-11.6,2.1c-1.1,1.4-1.9,2.1-3.3,3c3.8-0.1,7.6-0.1,11.4-0.2c-0.8-0.6-1.2-1.3-1.3-2.2
				c-0.3-6.4-10.4-4.5-13.3-1.1c-1.4,1.6-2.7,2.8-4.5,3.9c4,0.3,8,0.6,11.9,0.9c-0.5-1.2-0.6-2.4-0.5-3.6c0.3-7.1-13.7-4.4-14.6,1.4
				c-0.2,1.4-0.4,2.7-0.7,4.1c4.8-0.9,9.7-1.8,14.5-2.6c-0.4-1.5-0.8-3.1-1.1-4.6c-1.4-5.6-12.4-2.5-14.1,1.4
				c-0.3,0.7-1.4,2.2-1.4,2.8c-0.9,1.2,0,1.3,2.6,0.1c2.1-1.3,3.1-1.3,2.9-0.1c-4.7,0-9.4,0.1-14.2,0.1c-0.4,1.6-1.1,2.3-2.3,3.4
				c4.4-0.1,8.8-0.1,13.2-0.2c-0.5-2-0.3-2.9,0.8-4.6c1.9-3.1-1.7-5.1-4.2-5.4c-3.5-0.4-7.6,1.3-9.5,4.3c-2.3,3.6-4.6,7.2-6.8,10.8
				c4.5-0.8,9-1.7,13.5-2.5c-0.6-1.2-0.9-2.5-0.8-3.8c0.3-6.8-10.5-3.8-13.3-1.1c-1.5,1.5-3,2.9-4.6,4.4c-0.8,0.8-1.8,2.5-1.3,3.7
				c0.7,2.4,2.6,2.1,5.6-0.8c0.7,2.6,1.4,5.1,2.1,7.7c-0.4,0.2-0.9,0.3-1.3,0.5c1.1-3.2,2.3-6.4,3.4-9.7c-7.6,0.5-14.7,3-21.1,7.3
				c4,0.3,8,0.6,11.9,0.9c-1.3-6-6.3-9.1-12.2-9.7c-2.8-0.3-6.6,0.8-8.6,3.1c-1.5,1.7-2.1,4.4,0.3,5.7c3.7,2,7.5,3.7,11.5,5
				c3.7,1.3,10.8-0.7,11.6-5.2c0.4-2.6,0.7-6-0.5-8.5c-1.2-2.6-4.6-3.3-7.2-4.1c-6.7-2-13.7-2.4-20.6-1.7c-0.5,3.2-1,6.4-1.5,9.6
				c10.7-1.5,21.3-3.4,31.8-5.9c-0.8-3-1.6-6-2.4-8.9c-1.9,0.5-3.8,1-5.7,1.5c-3.8,1-9.7,7.2-3.1,9c6.7,1.8,14.4,2.3,20.1-2.4
				c3.8-3.2,6.1-8.5,2.5-12.7c-2.5,2.6-5,5.3-7.4,7.9c3.9-0.7,7.8-1.4,11.7-2.1c2.1-0.4,4.2-0.8,6.3-1.1c0.6-0.1,1.2-0.2,1.8-0.3
				c1.5-0.3,1.6-0.2,0.5,0.1c3,1.7,6.1,2.1,9.4,3.2c3.9,1.2,6.6,2.1,10.7,0.5c4.9-1.9,8.5-7.5,4.5-12.1c-1.8-2.2-5-2.9-7.7-3.1
				c-4.2-0.4-6.6,0.4-10.2-2.5C330.6,189.9,317.6,196.4,323.8,201.3L323.8,201.3z"/>
		</g>
	</g>
	<g>
		<g>
			<path class="st0" d="M373.9,220.9c-0.4,0.1-0.9,0.1-1.3,0c-0.4-0.1-0.5-0.1-0.1,0c0.3,0.1,0.5,0.1,0.8,0.2
				c-0.3-0.1-0.6-0.2-0.9-0.3c1,0.4,1.8,0.9,2.5,1.7c0.6,0.7,3.1,0.4,3.7,0.4c1.9-0.2,3.9-0.6,5.6-1.3c1.4-0.5,3-1.1,4.1-2.1
				c0.2-0.2,0.4-0.5,0.6-0.7c0.2-0.5,0.1-0.8-0.3-1.1c-2-2.4-5.5-2.6-8.4-2.4c-1.9,0.1-3.9,0.7-5.6,1.3c-1.2,0.4-3.1,1.1-4.1,2.1
				c-0.5,0.5-1.2,1.3-0.3,1.8C371.2,221.2,372.8,221,373.9,220.9L373.9,220.9z"/>
		</g>
	</g>
	<g>
		<g>
			<path class="st0" d="M384,216.9c-13-2.3-26.1-3-39.3-2.1c-12.9,0.9-25.5,3.7-38.1,6.4c-2,0.4-5.9,2.2-6.2,4.7
				c-0.3,2.4,2.4,3.5,4.5,3.5c9.6-0.2,18.6-2.7,28-4.3c9.5-1.6,19,1,28.4-1.4c2.3-0.6,7-2.7,6.2-5.8c-0.8-3.1-6.1-2.5-8.3-1.9
				c-3.8,1-8.2-0.3-12.1-0.4c-4.1-0.1-8.3,0.4-12.3,1c-8.1,1.3-16.1,3.9-24.4,4.1c-0.6,2.7-1.1,5.5-1.7,8.2
				c22.2-4.9,43.9-7.8,66.6-3.8c3.4,0.6,7.7-0.2,10.2-2.7C387.5,220.3,387.3,217.4,384,216.9L384,216.9z"/>
		</g>
	</g>
	<g>
		<g>
			<path class="st0" d="M381.9,225.5c2.6,3.1,4.4,6.4,5.4,10.4c1.6,6.3,16.1,2.5,14.5-3.9c-1.2-4.7-3.5-9-6.6-12.7
				c-2.3-2.7-6.9-2.3-9.8-0.9C383.2,219.6,379.5,222.7,381.9,225.5L381.9,225.5z"/>
		</g>
	</g>
	<g>
		<g>
			<path class="st0" d="M389.9,238.2c3.4,0,7.4-0.8,10.2-2.7c2.1-1.4,2.2-3.1-0.8-3.1c-3.4,0-7.4,0.8-10.2,2.7
				C386.9,236.5,386.8,238.2,389.9,238.2L389.9,238.2z"/>
		</g>
	</g>
	<g>
		<g>
			<path class="st0" d="M356.6,195.4c0-0.6,0-1.2,0-1.8c0-2.8-5.8-1.8-5.8,0.6c0,3,0,6,0,8.9c0,2.8,5.8,1.8,5.8-0.6c0-3,0-6,0-8.9
				c-1.9,0.2-3.9,0.4-5.8,0.6c0,0.6,0,1.2,0,1.8C350.7,198.7,356.6,197.7,356.6,195.4L356.6,195.4z"/>
		</g>
	</g>
	<g>
		<g>
			<path class="st0" d="M326.6,205.4c-1.7,1.2-2.2,3.1-0.6,4.6c1.7-0.8,3.3-1.6,5-2.5c-6.5-2.4-13.2-2-19.5,0.5
				c1.3,0.1,2.7,0.2,4,0.3c-0.2-2.7-2.2-5.7-5-4.2c-1.5,0.1-3,0.2-4.5,0.3c0.1,0.1,0.2,0.1,0.3,0.2c1.5,1.2,6.9-1,5.4-2.2
				c-0.1-0.1-0.2-0.1-0.3-0.2c-1.2-1-3.3-0.3-4.5,0.3c-0.8,0.5-1.4,0.9-1.6,1.8c-0.1,0.3,0,0.5,0.2,0.7c1.9,1.7,3.9,1.5,4.1,4.7
				c0.1,1.4,3.5,0.5,4,0.3c4.2-1.7,8.4-1.6,12.6,0c1,0.4,6.7-0.8,5-2.5c-0.7-0.7-0.8-1.3-0.1-1.6c1.1-0.8,0.4-1.5-0.5-1.9
				C329.5,203.8,327.5,204.7,326.6,205.4L326.6,205.4z"/>
		</g>
	</g>
	<g>
		<g>
			<path class="st1" d="M423.6,268.1c0.5-0.3,1-0.7,1.5-1c-4.6,0-9.1,0.1-13.7,0.1c1.8,2.1,2.6,4.1,2.9,7c5.6-2,11.1-4,16.7-6.1
				c-2.8-4.5-6-8.6-9.7-12.4c-3-3-8.1-2.9-11.7-1c-2.5,1.3-7.3,5.3-4.2,8.5c3.7,3.8,7,7.9,9.7,12.4c2,3.2,7.8,2.5,10.6,1.4
				c3.3-1.2,6.4-3.6,6.1-7.5c-0.4-3.6-1.9-7-4.3-9.8c-3.3-3.8-10.1-2.5-13.7,0.1c-0.5,0.3-1,0.7-1.5,1c-2.8,2-4.6,6.1-1.1,8.5
				C414.7,271.7,420.4,270.4,423.6,268.1L423.6,268.1z"/>
		</g>
	</g>
	<g>
		<g>
			<path class="st1" d="M416.7,280.4c0.5,4.8,0.6,9.4,2.5,13.8c2.6,6.1,16.4,2.7,17.4-3.3c0.1-0.3,0.1-0.6,0.2-0.9
				c-0.6,0.9-1.1,1.8-1.7,2.7c-0.7,0.4-1.3,0.8-2,1.1c-2.3,0.4-4.6,0.9-6.8,1.3c-0.6-0.1-1.2-0.3-1.8-0.4c1.1-2.8,2.2-5.7,3.3-8.5
				c-6.7,3.5-13.5,7.1-20.2,10.6c3,2.4,6.1,4.7,9.1,7.1c4.1-2.8,7.4-6.2,9.8-10.6c3.6-6.7-8.5-6.3-11.7-4.5
				c-5.9,3.2-11.2,6.7-16.2,11.1c-2.6,2.2-2,5.3,1,6.6c3.5,1.5,8.5,0.3,11.6-1.8c2.8-1.8,5.3-3.9,7.4-6.5
				c-5.1-0.7-10.2-1.5-15.2-2.2c-2.3,4.5-5.2,8.3-9,11.7c-2.9,2.6-1.5,5.8,1.8,6.9c4.2,1.3,9.1-0.6,12.3-3.3
				c1.1-0.9,2.2-1.8,3.3-2.7c-5.1-0.7-10.2-1.5-15.2-2.2c-1.6,2.3-3.2,4.5-5.1,6.6c-2.5,2.8-1.8,5.8,1.8,6.9c4.2,1.3,9-0.7,12.3-3.3
				c2.9-2.3,4.7-5.3,5.4-9c1.4-7.8-13.3-3-15.8-0.8c-2.9,2.5-5.8,5.1-8.7,7.6c5.1,0.7,10.2,1.5,15.2,2.2c1.4-2.1,2.7-4.2,4.1-6.2
				c4.3-6.6-8.9-5.9-11.7-4.5c-3.6,1.7-6.4,3.7-8.6,7.1c-3.7,5.7,6.5,6.2,9.5,5.3c4.5-1.3,16-8.3,9.2-14c-3.2-2.7-8-2.1-11.6-0.5
				c-3,1.3-5,2.9-6.1,6c-0.2,1,0,1.8,0.7,2.6c0.1,0.2,0.3,0.3,0.4,0.5c4.1,4.6,13.2,0.9,16.2-3.1c0.8-1,1.5-2,2.3-3
				c2-2.6-0.7-4.9-2.9-5.5c-3.3-1-8,0.1-10.7,2.1c-5.9,4.3-11.4,8.9-16.4,14.1c5.1,0.7,10.2,1.5,15.2,2.2c1.1-1.8,2.2-3.7,3.3-5.5
				c4.4-7.3-10.7-5.8-13.7-3.5c-0.2,0.1-0.4,0.3-0.6,0.4c3.6-0.7,7.2-1.4,10.7-2.1c-0.3-0.1-0.5-0.2-0.8-0.3c0.9,0.5,1.9,1,2.8,1.5
				c-0.2-0.2-0.4-0.5-0.6-0.7c0.2,0.9,0.5,1.7,0.7,2.6c0-0.3,0-0.6,0-0.9c-0.6,0.9-1.1,1.8-1.7,2.7c0.3-0.3,0.6-0.6,0.9-0.8
				c-1.9,1-3.8,2-5.8,3.1c-0.7,0.1-1.3,0.1-2,0.2c0.7-3.4,1.3-6.8,2-10.2c-15.8,3.3-13.2,19.5-12.9,31.8c5.8-1.1,11.6-2.2,17.4-3.3
				c-0.3-2.3-0.6-4.6-0.8-6.8c-5.8,1.6-11.6,3.1-17.4,4.7c0.9,6.4,1.9,12.8,2.8,19.1c1,6.5,16.9,2.3,17.4-3.3
				c0.5-5.4,0.2-10.6-1.1-15.8c-5.8,1.6-11.6,3.1-17.4,4.7c2.1,5.9,3.6,11.9,4.6,18.1c5.8-1.6,11.6-3.1,17.4-4.7
				c-1.5-6.1-3.4-12-5.8-17.8c-2.6-6.4-18.8-2.3-17.4,4.7c0.9,4.3,1.8,8.6,2.7,12.9c1.5,6.9,17.7,2.1,17.4-4.7
				c-0.3-6.1-0.1-12.3,0.5-18.4c-5.8,0.6-11.6,1.3-17.5,1.9c-0.1,3.5,0.3,6.6,1.5,9.9c2.5,6.7,17.9,2.2,17.4-4.7
				c-0.2-2.8,0.4-5.3,1.4-7.8c-5.8,0.6-11.6,1.3-17.5,1.9c-1.8,5.8-2.3,11.5-2,17.5c5.8-1.6,11.6-3.1,17.4-4.7
				c-0.7-4.2-1.5-8.3-2.2-12.5c-5.8,1.6-11.6,3.1-17.4,4.7c2.5,8.9,3.8,17.9,4.1,27.1c5.8-1.6,11.6-3.1,17.4-4.7
				c-0.9-5.1-1.9-10.2-2.8-15.3c-1.3-6.8-17.9-2.2-17.4,4.7c0.5,6.8,1.4,13.5,2.9,20.2c1.4,6.5,16.8,2.3,17.4-3.3
				c0.4-3.4,0.1-6.6-1.1-9.9c-2.1-5.9-17.6-2.7-17.4,3.3c0.1,5.4,0.2,10.8,0.4,16.2c0.2,7.9,17.5,4.5,17.5-1.9c0-3.6,0-7.2,0-10.9
				c0-7.8-17-4.5-17.5,1.9c-0.3,4.1,0.1,7.6,1.8,11.4c2.9,6.5,17.8,2.3,17.4-4.7c-0.2-4-1-7.6-2.5-11.3c-2.6-6.7-17.9-2.2-17.4,4.7
				c0.3,4.4,1.1,8.5,2.5,12.6c5.8-1.6,11.6-3.1,17.4-4.7c-3.2-8.1-6.3-16.2-9.5-24.3c-2.6-6.6-18-2.2-17.4,4.7
				c0.5,5.4,1.6,10.6,3.4,15.7c2.3,6.6,19.2,2,17.4-4.7c-2.2-8.2-4.5-16.5-6.7-24.7c-1.8-6.7-18.8-2.2-17.4,4.7
				c0.6,3.1,1.3,6.2,1.9,9.3c1.4,6.8,18,2.2,17.4-4.7c-0.4-3.7-0.7-7.4-1.1-11.1c-0.3-3.1,0.1-7.3-2.7-9.4c-5-3.9-16.5-0.6-17.8,5.8
				c-0.8,4,5,4.6,7.7,4.4c3.9-0.4,8.4-2.3,9.8-6.3c0.5-1.6,1.1-3.2,1.6-4.9c-5.8,1.1-11.6,2.2-17.4,3.3c0.1,0.2,0.2,2.4,0,2.1
				c-0.4,0.5-0.2,0.5,0.6-0.2c1.1-0.4,1.2-0.6,0.4-0.5c-1.4-0.9-7-0.1-8.5,0c-3.2,0.2-11.6,2.2-11.7-3.6c-5.8,1.1-11.6,2.2-17.4,3.3
				c2.5,9.9,5,19.9,7.5,29.8c1.7,6.7,18.8,2.2,17.4-4.7c-0.8-3.7-1.5-7.3-2.3-11c-5.8,1.6-11.6,3.1-17.4,4.7
				c0.5,1.5,0.7,2.5,0.6,4.1c5.8-1.1,11.6-2.2,17.4-3.3c-2.2-4.6-4.3-13.3-9.5-14.9c-4.2-1.2-13.1,0.9-14,6c-0.2,1-0.2,1.9,0.3,2.8
				c1.8,3.6,6.6,3.4,10,2.5c2.3-0.6,9-3.6,7.4-7.2c-1.2-2.8-2.5-5.7-3.7-8.5c-2.7-6.3-19.2-2.2-17.4,4.7c0.3,1.3,0.7,2.5,1,3.8
				c5.8-1.6,11.6-3.1,17.4-4.7c-1-3-2.1-6-3.1-8.9c-2.3-6.7-16-2.1-17.4,3.3c-2,7.4-0.4,14.6,3.9,20.8c3.2,4.6,19.2,0.1,16.7-5.9
				c-0.6-1.5-1.3-3.1-1.9-4.6c-2.7-6.3-19.3-2.1-17.4,4.7c2,7,3,14.6,12.2,13.6c3.7-0.4,9.3-2.6,10.4-6.7c0.9-3.2-1.2-5-4.1-5.8
				c-4-1.1-15.4,1.4-13.9,7.4c1.4,5.6,4,10.7,7.9,15c3.9,4.3,17.8,0.9,16.7-5.9c-0.3-1.9-0.6-3.7-0.9-5.6c-5.6,2-11.2,3.9-16.7,5.9
				c1.7,2.6,3.5,5.3,5.2,7.9c3.2,4.7,18.8,0.3,16.7-5.9c-0.4-1.3-0.8-2.5-1.2-3.8c-5.6,2-11.2,3.9-16.7,5.9c2.3,2.6,4.6,6.3,8.3,6.9
				c4.8,0.8,10.4-0.5,13.4-4.6c0.8-1.1,1-2.2,0.7-3.5c-0.6-2.4-3.4-2.8-5.4-3c-0.1,0-0.2,0-0.3,0c-3.7-0.5-17.6,5.8-10.1,9.8
				c2.9,1.6,4.7,3.6,6.4,6.4c2.7,4.6,12.5,0.8,15.1-1.7c1.8-1.8,3.1-3.6,3.1-6.2c-5.8,1.1-11.6,2.2-17.4,3.3
				c1.3,2.9,2.8,5.3,5.1,7.4c3.9,3.5,11.7,1.8,15.1-1.7c2.3-2.4,3.5-4.8,2.7-8.1c-5.2,2.3-10.4,4.5-15.5,6.8
				c3.6,1.8,7.1,3.6,10.7,5.4c4.1,2.1,17.1-0.1,15.5-6.8c-1.3-5.6-3.3-15.1-9.4-17.2c-4.7-1.6-17.7,1.5-15.4,8.8
				c0.5,1.5,2,2.5,3.5,2.8c0.2,0,0.4,0.1,0.5,0.1c3.8,0.8,15.6-1.2,13.9-7.4c-1.2-4.4-3.3-8.4-6.2-12c-3.7-4.5-18-0.7-16.7,5.9
				c0.2,1.2,0.5,2.5,0.7,3.7c5.8-1.6,11.6-3.1,17.4-4.7c-1.3-4.2-1.7-9.1-5.4-11.8c-2.6-1.9-7.8-0.8-10.4,0.4
				c-0.3,0.1-0.6,0.3-0.9,0.4c-1.8,0.8-5.1,2.7-5.2,5c-0.1,3,1.4,4.9,4.5,5.4c3.5,0.6,14-0.5,14-6c0-1.6,0-3.2-0.1-4.9
				c0-3-2.6-4.4-5.5-4.4c0.7,0.5,0.6,0.2-0.3-0.8c-3.1-4.4-14.2-1.2-16.2,3.1c-1.7,3.6-1.7,6.5,0.7,9.8c3.3,4.6,18.9,0.4,16.7-5.9
				c-1.1-3.1-2.6-5.7-4.8-8.1c-3.5-3.9-16.4-1.5-16.8,4.5c-0.4,6.3,0.7,12.1,3.7,17.6c2.7,5.1,12.5,3.4,15.8-0.5
				c2.1-2.5,3.8-5.2,2.1-8.4c-5.6,2-11.2,3.9-16.7,5.9c0.8,1-0.1,3.4,1.1,4.8c1.8,2.1,5.2,2.5,7.8,2.3c3.8-0.4,12.4-3.8,10.1-9
				c-1.6-3.7-6.8-3.4-10-2.5c-0.1,0-0.3,0.1-0.4,0.1c-2.8,0.7-6.7,2.6-7.4,5.8c-0.7,3.3,0.7,5.3,3.3,7.1c4.2,3,19.2-1.6,14.9-8
				c-1-1.6-2.1-3.1-3.1-4.7c-3.6-5.4-20.4,0.6-16.1,7.1c1,1.6,2.1,3.1,3.1,4.7c5-2.7,9.9-5.3,14.9-8c0.2,0,0.3,0,0.5-0.1
				c-2.5,1.9-5,3.9-7.4,5.8c0.1,0,0.3-0.1,0.4-0.1c-3.3-0.8-6.7-1.7-10-2.5c0-0.1,0.1-0.2,0.1-0.2c1.7-1.7,3.4-3.4,5.2-5
				c-0.2,0.1-0.3,0.2-0.5,0.3c3.5-0.1,6.9-0.3,10.4-0.4c-0.3-0.2-0.5-0.3-0.8-0.5c0.6,0.7,1.2,1.4,1.8,2.1c-0.9-2.2-0.1-3.9-1.7-6
				c-3.5-4.4-19.7,0.3-16.7,5.9c0.6,0.6,0.7,1.2,0.3,2c0.6-0.9,1.1-1.8,1.7-2.7c-0.2,0.3-0.5,0.6-0.7,0.9c5.3-0.2,10.5-0.4,15.8-0.5
				c-2.5-4.6-3.9-9.6-3.6-14.9c-5.6,1.5-11.2,3-16.8,4.5c1.6,1.8,2.7,3.4,3.4,5.7c5.6-2,11.2-3.9,16.7-5.9c-0.5-0.5-0.6-1.2-0.4-1.8
				c-5.4,1-10.8,2.1-16.2,3.1c2.3,3.2,6,4.5,9.8,4.4c-1.8-1.5-3.6-3-5.5-4.4c0,1.6,0,3.2,0.1,4.9c4.7-2,9.3-4,14-6
				c-0.2,0-0.4-0.1-0.6-0.1c0.9,0.5,1.9,1,2.8,1.5c-0.1-0.2-0.3-0.3-0.4-0.5c0.2,0.9,0.5,1.7,0.7,2.6c0-0.2,0-0.4,0-0.7
				c-1.7,1.7-3.4,3.4-5.2,5c0.3-0.1,0.6-0.3,0.9-0.4c-3.5,0.1-6.9,0.3-10.4,0.4c0.3,0.2,0.5,0.4,0.8,0.6c-0.6-0.7-1.2-1.4-1.8-2.1
				c0.9,3,1.8,6.1,2.8,9.1c2,6.6,18.7,2.2,17.4-4.7c-0.2-1.2-0.5-2.5-0.7-3.7c-5.6,2-11.2,3.9-16.7,5.9c2.4,3,3.9,5.9,4.9,9.6
				c4.6-2.5,9.3-4.9,13.9-7.4c-0.2,0-0.4-0.1-0.5-0.1c1.2,0.9,2.3,1.8,3.5,2.8c0,0,0,0.1,0,0.1c-1.1,1.3-2.1,2.7-3.2,4
				c0.2-0.1,0.4-0.2,0.6-0.4c-3.6,0.7-7.2,1.4-10.7,2.1c0.3,0.1,0.6,0.1,0.9,0.2c-0.9-0.5-1.9-1-2.8-1.5c3.2,3,4.3,9.1,5.3,13.2
				c5.2-2.3,10.4-4.5,15.5-6.8c-3.6-1.8-7.1-3.6-10.7-5.4c-4.1-2-17.1,0.1-15.5,6.8c0.2-0.1,0.4-0.1,0.5-0.2
				c5-0.6,10.1-1.2,15.1-1.7c-1.6-1.5-2.9-2.9-3.8-5c-2.5-5.6-17.3-3-17.4,3.3c0.1,0.2,0.1,0.5,0.2,0.7c5-0.6,10.1-1.2,15.1-1.7
				c-2.1-3.6-5.1-6.3-8.8-8.3c-3.4,3.3-6.7,6.6-10.1,9.8c0.1,0,0.2,0,0.3,0c-1.8-1-3.6-2-5.4-3c0,0.1,0.1,0.3,0.1,0.4
				c0.2-0.9,0.4-1.8,0.5-2.8c-0.1,0.1-0.2,0.2-0.2,0.3c4.5-1.5,8.9-3.1,13.4-4.6c-0.2,0-0.4-0.1-0.6-0.1c0.9,0.5,1.9,1,2.8,1.5
				c-1.8-1.5-3.3-3.5-4.8-5.2c-3.6-4-18.9-0.7-16.7,5.9c0.4,1.3,0.8,2.5,1.2,3.8c5.6-2,11.2-3.9,16.7-5.9c-1.7-2.6-3.5-5.3-5.2-7.9
				c-3.4-5-17.7-0.4-16.7,5.9c0.3,1.9,0.6,3.7,0.9,5.6c5.6-2,11.2-3.9,16.7-5.9c-3.3-3.7-5.4-7.7-6.6-12.6
				c-4.6,2.5-9.3,4.9-13.9,7.4c0.2,0.1,0.4,0.1,0.6,0.2c-1.2-0.9-2.3-1.8-3.5-2.8c0,0,0,0.1-0.1,0.1c1.1-1.3,2.1-2.7,3.2-4
				c-0.2,0.1-0.4,0.3-0.7,0.4c3.6-0.7,7.2-1.4,10.7-2.1c-0.3-0.1-0.7-0.2-1-0.3c0.9,0.5,1.9,1,2.8,1.5c-0.8-0.9-0.9-2.5-1.2-3.6
				c-0.5-1.8-1.1-3.6-1.7-5.5c-5.8,1.6-11.6,3.1-17.4,4.7c0.6,1.5,1.3,3.1,1.9,4.6c5.6-2,11.2-3.9,16.7-5.9
				c-3.3-4.7-4-10.1-2.5-15.6c-5.8,1.1-11.6,2.2-17.4,3.3c1,3,2.1,6,3.1,8.9c2.3,6.6,19.2,2.1,17.4-4.7c-0.3-1.3-0.7-2.5-1-3.8
				c-5.8,1.6-11.6,3.1-17.4,4.7c1.2,2.8,2.5,5.7,3.7,8.5c5.8-1.6,11.6-3.1,17.4-4.7c-0.1,0-0.1,0-0.2,0c-4.7,2-9.3,4-14,6
				c0.1,0,0.2,0.1,0.3,0.1c-1.2-0.9-2.3-1.8-3.5-2.8c1.9,4,3.8,8,5.7,12c2.7,5.7,16.9,3,17.4-3.3c0.2-2.4,0.1-4.6-0.7-6.9
				c-2.2-6.6-18.8-2.2-17.4,4.7c0.8,3.7,1.5,7.3,2.3,11c5.8-1.6,11.6-3.1,17.4-4.7c-2.5-9.9-5-19.9-7.5-29.8
				c-1.6-6.2-17.5-2.5-17.4,3.3c0.1,5.6,3.1,9.4,8.3,11.4c6.5,2.6,13.1,0.8,19.8,1c6.7,0.1,13.4,0,19.3-3.7
				c4.4-2.8,8.2-7.6,6.6-13.1c-2.1-7.1-15.8-1.7-17.4,3.3c-0.5,1.6-1.1,3.2-1.6,4.9c5.8-0.6,11.6-1.3,17.5-1.9
				c0-0.2,0.1-0.4,0.1-0.7c-1.7,1.7-3.4,3.4-5.2,5c0.2-0.1,0.5-0.2,0.7-0.4c-2.9,0.3-5.9,0.7-8.8,1c0.3,0.1,0.5,0.1,0.8,0.2
				c-0.9-0.5-1.9-1-2.8-1.5c1.1,1.6,0.7,6.4,0.9,8.4c0.3,3.1,0.6,6.2,0.9,9.2c5.8-1.6,11.6-3.1,17.4-4.7c-0.6-3.1-1.3-6.2-1.9-9.3
				c-5.8,1.6-11.6,3.1-17.4,4.7c2.2,8.2,4.5,16.5,6.7,24.7c5.8-1.6,11.6-3.1,17.4-4.7c-1.8-5.1-2.9-10.3-3.4-15.7
				c-5.8,1.6-11.6,3.1-17.4,4.7c3.2,8.1,6.3,16.2,9.5,24.3c2.5,6.5,19.5,1.9,17.4-4.7c-1.4-4.2-2.2-8.2-2.5-12.6
				c-5.8,1.6-11.6,3.1-17.4,4.7c1.5,3.7,2.2,7.3,2.5,11.3c5.8-1.6,11.6-3.1,17.4-4.7c-1.3-2.8-1.9-5.5-1.7-8.6
				c-5.8,0.6-11.6,1.3-17.5,1.9c0,3.6,0,7.2,0,10.9c5.8-0.6,11.6-1.3,17.5-1.9c-0.1-5.4-0.2-10.8-0.4-16.2
				c-5.8,1.1-11.6,2.2-17.4,3.3c0.9,2.4,1.3,4.5,1,7.1c5.8-1.1,11.6-2.2,17.4-3.3c-1.5-6.7-2.4-13.4-2.9-20.2
				c-5.8,1.6-11.6,3.1-17.4,4.7c0.9,5.1,1.9,10.2,2.8,15.3c1.3,6.9,17.6,2.1,17.4-4.7c-0.3-9.2-1.6-18.2-4.1-27.1
				c-1.9-6.7-18.6-2.2-17.4,4.7c0.7,4.2,1.5,8.3,2.2,12.5c1.2,6.8,17.7,2.2,17.4-4.7c-0.3-5.1,0.5-10,2-14.8
				c1.2-3.9-5.3-4.6-7.7-4.4c-4,0.4-8.3,2.3-9.8,6.3c-1.4,3.5-1.6,6.8-1.3,10.6c5.8-1.6,11.6-3.1,17.4-4.7c-0.9-2.4-1.5-4.6-1.4-7.2
				c0.2-7.8-16.9-4.5-17.5,1.9c-0.7,7-0.7,14.1-0.4,21.1c5.8-1.6,11.6-3.1,17.4-4.7c-0.9-4.3-1.8-8.6-2.7-12.9
				c-5.8,1.6-11.6,3.1-17.4,4.7c2.4,5.8,4.3,11.7,5.8,17.8c1.6,6.7,18.5,2.2,17.4-4.7c-1-6.2-2.5-12.2-4.6-18.1
				c-2.3-6.5-19.1-2.1-17.4,4.7c1.1,4.4,1.5,8.5,1,13.1c5.8-1.1,11.6-2.2,17.4-3.3c-0.9-6.4-1.9-12.8-2.8-19.1
				c-1-6.6-18.3-2.4-17.4,4.7c0.3,2.3,0.6,4.6,0.8,6.8c0.8,6.3,17.6,2.5,17.4-3.3c-0.1-4.7-0.4-9.5-0.4-14.2c0-1.6,0-3.1,0.3-4.7
				c0.1-0.8,0.3-1.5,0.6-2.3c0.9-1.5,0.1-1.1-2.5,1c2.6-0.5,7-2.8,7.4-5.8c0.4-3-3-4.4-5.5-4.4c-4.8,0-16.5,1.9-15.5,9.1
				c0.9,7.1,12.4,4.8,16.2,1.9c-4.6-1.2-9.1-2.3-13.7-3.5c-1.1,1.8-2.2,3.7-3.3,5.5c-1.9,3.1,1.1,5.2,3.9,5.7
				c3.8,0.6,8.6-0.6,11.3-3.4c4.1-4.3,8.5-8.2,13.3-11.7c-4.6-1.2-9.1-2.3-13.7-3.5c-0.8,1-1.5,2-2.3,3c5.4-1,10.8-2.1,16.2-3.1
				c-0.1-0.2-0.3-0.3-0.4-0.5c0.2,0.9,0.5,1.7,0.7,2.6c0.1-0.2,0.2-0.5,0.2-0.7c-1.7,1.7-3.4,3.4-5.2,5c0.2-0.1,0.4-0.2,0.7-0.3
				c-3.9-0.2-7.7-0.4-11.6-0.5c1.4-1,2.8-1.9,4.2-2.9c3.2,1.8,6.3,3.5,9.5,5.3c-0.2,0-0.4,0.1-0.6,0.1c-3.9-1.5-7.8-3-11.7-4.5
				c-1.4,2.1-2.7,4.2-4.1,6.2c-2,3.1,1.2,5.3,3.9,5.7c4,0.6,8.3-0.8,11.3-3.4c2.9-2.5,5.8-5.1,8.7-7.6c-5.3-0.3-10.5-0.6-15.8-0.8
				c-0.3,1.9-0.6,2.3-2.1,3.5c4.7,1.2,9.4,2.4,14.1,3.6c2.6-2.9,5.1-6,7.3-9.3c2.1-3.1-1.2-5.3-3.9-5.7c-4.1-0.6-8.2,0.8-11.3,3.4
				c-1.1,0.9-2.2,1.8-3.3,2.7c4.7,1.2,9.4,2.4,14.1,3.6c4.6-4.1,8.4-8.9,11.2-14.4c4.1-8-12.2-5.9-15.2-2.2c-1.3,1.6-2.6,2.9-4.3,4
				c4.2,1.6,8.4,3.2,12.6,4.8c2.8-2.5,5.9-4.8,9.2-6.5c-3.9-1.5-7.8-3-11.7-4.5c-1.2,2.2-2.4,4-4.5,5.4c-2.4,1.6-4.7,4.6-1.9,7
				c2.7,2.3,8.2,1.6,11,0.1c6.7-3.6,13.4-7.1,20.2-10.6c2.9-1.5,8-5.6,3.3-8.5c-5.8-3.6-17.8-0.4-19,7c5.8-1.1,11.6-2.2,17.4-3.3
				c-1.9-4.5-2-9.1-2.5-13.8C433.4,269.3,415.9,273.3,416.7,280.4L416.7,280.4z"/>
		</g>
	</g>
	<g>
		<g>
			<path class="st1" d="M365.6,329.4c-0.6,2.2-1.2,4.3-1.8,6.5c5.8-1.2,11.5-2.5,17.3-3.7c0.1-1.1-0.1-2.2-0.6-3.1
				c-1-3-7.7-1.3-9.6-0.9c-5.9,1.5-10.8,4.3-13.7,9.8c-3,5.7-5,12.2-7.4,18.2c5.8-1.2,11.5-2.5,17.3-3.7c0.1-2.7,0.1-5.4,0.2-8.2
				c0.1-2.3-6.3-1.5-7.2-1.4c-3.3,0.5-6.9,1.7-9.4,4.1c-4,3.8-5.7,8.8-4.6,14.2c0.9,4.7,17,0,17.4-4.7c0.7-10.2-14-7-19.3-4.1
				c-2.7,1.4-5.9,4.2-4.3,7.6c1.7,3.4,6.9,2.8,9.9,2.3c4.4-0.8,9.3-2.6,11.8-6.5c1-1.6,1.2-2.6,2.6-3.8c1.6-1.4,3.2-2,4.4-3.8
				c2.1-3.1,1.9-7,4.1-10.1c2.4-3.4,5-6.1,3.8-10.6c-1.4-5.2-15.7,0.7-17.3,3.7c0.5-0.3,0.9-0.5,1.4-0.8c-1.1,0.7-4.1,2.1-3.6,3.9
				c0.5,1.8,3.8,1.8,5,1.6c-1.9,0.2,0.7,0.4,1.6,0.6c1.2,0.3,2.5,0.4,3.8,0.4c3.7,0,7.7-1,11-2.6c5.8-2.8,9-8.7,14.3-12.1
				c-2,0.9-3.9,1.7-5.9,2.6c-0.7,0.1-1.5,0.3-2.2,0.4c3.5-0.1,9.4-1.3,11.6-4.3c2.3-3.1-2-3.6-4.3-3.6c-4.7,0.1-9.8,1.5-13.7,4.3
				c-3.5,2.6-6.2,7.5-10,9.5c2.2-0.7,4.4-1.4,6.6-2.1c3-0.6,0.7-0.5-0.8-0.8c-1.6-0.3-3.1-0.4-4.7-0.2c0.5,1.8,1,3.7,1.5,5.5
				c2.4-1.4,4.3-2.7,5.6-5.2c-5.8,1.2-11.5,2.5-17.3,3.7c1,3.8-2.1,6-3.9,9c-1.3,2.1-1.9,4.6-2.4,7.1c-0.2,0.7-1.2,2.6,0.1,1.3
				c-0.9,0.9-2.8,1.4-3.8,2.2c-1.1,0.9-2,1.9-2.8,3.2c-0.6,1-0.7,2.5-1.7,3.1c2.7-1,5.5-2.1,8.2-3.1c-0.4,0.1-0.7,0.1-1.1,0.2
				c1.9,0,3.7,0.1,5.6,0.1c-0.5-0.5-0.5-1,0-1.4c-1.6,1-3.2,1.9-4.8,2.9c0.3-0.1,0.6-0.3,0.9-0.4c-2.3,0.5-4.5,1-6.8,1.5
				c-1.8-0.7-2.1-0.4-0.6,1.1c0.3,0.9,0.3,1.7,0.1,2.6c5.8-1.6,11.6-3.1,17.4-4.7c-0.8-4,0.2-7.5,3.1-10.4
				c-5.5,0.9-11.1,1.8-16.6,2.7c-0.1,2.7-0.1,5.4-0.2,8.2c-0.1,4.4,16-0.4,17.3-3.7c1.6-3.9,3.1-7.9,4.7-11.8
				c0.6-1.5,1.2-3.1,1.8-4.6c0.4-0.8,0.7-1.6,1.2-2.4c1.6-1.8,0.9-1.8-2.1,0c-3.2-0.3-6.4-0.6-9.6-0.9c0.5,1,0.7,2,0.6,3.1
				c0.3,4.4,16.3-0.1,17.3-3.7c0.6-2.2,1.2-4.3,1.8-6.5C384.1,322.2,367,324.6,365.6,329.4L365.6,329.4z"/>
		</g>
	</g>
	<g>
		<g>
			<path class="st2" d="M358.7,227c-0.1,1.5,0.3,2.6,1.2,3.7c0.6,0.7,2.6,0,2.8-0.7c0.6-1.7,0.2-3.2-1-4.6c-0.6-0.6-2.6-0.1-2.8,0.7
				c-0.4,2.1-0.8,4.2-1.2,6.2c-0.2,1.2,2.6,0.4,2.9-0.4c0.1-0.1,0.1-0.3,0.2-0.4c-0.3,0.2-0.6,0.5-0.9,0.7c-0.6,0.3-0.3,1.2-0.2,1.7
				c0,0.9,2.8,0.2,2.9-0.6c0.1-0.7,0.3-1.5,0.4-2.2c0.2-1.1-2.7-0.5-2.9,0.4c-0.3,1.4-0.1,2.3,0.7,3.5c0.5,0.7,2.3,0,2.7-0.5
				c1.2-1.5-0.1-2.8-1.7-2.9c-0.5,0-2.5,0.5-1.9,1.3c1.8,2.5,4.8,3.5,7.8,3.2c1.3-0.1,2.6-0.5,3.7-1.2c1.8-1.1,1.6-3.2,1.9-5.1
				c-1,0.2-1.9,0.4-2.9,0.6c0.5,1.5,0.3,2.8-0.9,3.9c0.9,0,1.7,0,2.6,0c0.7-1.7,1.1-3.4,1.3-5.2c-1,0.1-1.9,0.3-2.9,0.4
				c0,1.4-0.1,2.8-0.1,4.2c0,1.2,2.6,0.4,2.9-0.4c0.8-1.9,1.1-3.7,1.1-5.8c0-1-2.3-0.1-2.6,0.2c-1.1,0.8-1.6,1.9-1.3,3.3
				c0.2,1,3,0.2,2.9-0.8c-0.1-0.8-0.1-1.6-0.2-2.4c-0.1-1.1-2.6,0-2.9,0.6c-0.5,1-0.6,1.9-0.5,3c0.1,0.9,3,0.3,2.9-0.8
				c-0.1-1-0.1-2.1-0.2-3.1c-0.1-1-2.5,0-2.8,0.4c-1.2,1.5-1.6,3-1.2,4.8c0.2,1,2.9,0.2,2.9-0.8c-0.1-1.5-0.1-2.9-0.2-4.4
				c0-0.8-2-0.2-2.3,0c-1.7,0.9-5,3.5-2.4,5.3c1.4,1,4.2,0.6,4.6-1.2c0.6-2.9-3.7-3.4-5.4-2.4c-1.9,1-2,3.5,0.4,4.1
				c1.8,0.5,4.6-0.9,3.7-3.1c-1.1-2.8-5.3-1.5-7.1-0.3c-2.4,1.5-2.1,4.2,0.9,4.4c2.8,0.2,4.4-1.9,5.6-4.2c0-0.1,0-0.3-0.1-0.4
				c-1.5-1.6-3.7-2.2-5.7-0.8c-1.5,1-1.9,3.2,0.3,3.5c1.4,0.2,4-0.7,4.1-2.4c0.1-2.4-3.1-2.4-4.6-1.9c0.4,0.4,0.7,0.7,1.1,1.1
				c1-0.6,2.1-1.1,3.1-1.7c0.2-0.1,0.9-0.7,0.5-1c-1.4-1-3-0.8-4.4,0.1c0.7,0.2,1.4,0.4,2,0.6c1.2-0.8,2.7,0.3,3.2,1.3
				c0.4,0.8,0.2,3.8-1.7,2.9c-0.8,0.5-1.5,0.9-2.3,1.4c3.7,1.4,9-1.4,8.2-5.8c-1,0.3-1.9,0.5-2.9,0.8c0.8,2.5-0.5,6.7-4.3,4.4
				c-0.7,0.5-1.4,1-2.1,1.4c2.3,0.4,4.7,0.6,6.8-0.6c1.6-1,2.6-2.8,1.6-4.5c-0.9,0.3-1.9,0.6-2.8,0.9c1.2,1.4,1.1,3.3-0.4,4.4
				c-1.1,0.8,0.8,1.1,1.3,0.9c2.1-0.7,3.6-2.5,2.7-4.8c-1.1-2.9-5-3-7.5-2.9c-1,0-3.1,1.7-1.1,1.6c1.8-0.1,4.2-0.2,5.4,1.4
				c0.4,0.5,1.2,3,0.2,3.3c0.4,0.3,0.9,0.6,1.3,0.9c2-1.5,2.4-4,0.8-6c-0.5-0.6-3.2,0.2-2.8,0.9c1.4,2.3-1.6,3.2-3.6,2.8
				c-0.6-0.1-3.3,0.7-2.1,1.4c4.5,2.7,11.3-1,9.5-6.6c-0.3-0.9-3.1-0.2-2.9,0.8c0.3,1.6-0.7,4.5-3,3.6c-0.7-0.3-3.5,0.8-2.3,1.4
				c2.8,1.4,8.1-0.9,7.1-4.6c-1-3.8-6.2-3.1-8.6-1.4c-1.3,0.9,1.4,1,2,0.6c0,0.1,0,0.2,0,0.2c0.2-0.3,0.3-0.6,0.5-1
				c-1,0.6-2.1,1.1-3.1,1.7c-1.4,0.8,0.2,1.4,1.1,1.1c1.4-0.4,3.4,1.5,1.8,2.7c-2,0.6-1.6,0.1,1.3-1.5c0.8,0.9,1,1.1,0.6,0.4
				c-0.2-0.2-0.2-0.5,0-0.7c0.4,0.8,1.1,1.3,2,1.3c-0.9-0.5-1-1.2-0.4-2.1c0.5-0.5,1.1-1,1.8-1.3c-0.8,0-1.6,0-2.3,0
				c0.1,1.5,0.1,2.9,0.2,4.4c1-0.3,1.9-0.5,2.9-0.8c-0.3-1.6,0-2.8,1-4c-0.9,0.1-1.9,0.3-2.8,0.4c0.1,1,0.1,2.1,0.2,3.1
				c1-0.3,1.9-0.5,2.9-0.8c-0.1-1.1,0.1-1.6,0.5-2.6c-1,0.2-1.9,0.4-2.9,0.6c0.1,0.8,0.1,1.6,0.2,2.4c1-0.3,1.9-0.5,2.9-0.8
				c-0.3-0.8,0-1.5,0.7-2.1c-0.9,0.1-1.7,0.1-2.6,0.2c0.1,1.9-0.3,3.6-1.1,5.4c1-0.1,1.9-0.3,2.9-0.4c0-1.4,0.1-2.8,0.1-4.2
				c0-1.1-2.8-0.5-2.9,0.4c-0.2,1.8-0.6,3.5-1.3,5.2c-0.4,1,2.3,0.3,2.6,0c1.5-1.4,2.1-3.1,1.5-5.1c-0.3-0.9-2.7-0.2-2.9,0.6
				c-0.2,0.8-0.2,2.3-0.6,3.1c0,0.8-0.3,1.1-1.1,1c-0.6,0.3-1.3,0.3-2,0.1c-1.7-0.3-3.1-1.3-4.1-2.7c-0.6,0.4-1.3,0.9-1.9,1.3
				c0.5,0.2,0.5,0.6,0.2,1.3c0.9-0.2,1.8-0.4,2.7-0.5c-0.6-0.9-0.8-1.8-0.5-2.8c-1,0.1-1.9,0.3-2.9,0.4c-0.1,0.7-0.3,1.5-0.4,2.2
				c1-0.2,1.9-0.4,2.9-0.6c0-2.9-3.7-3.5-4.8-0.9c1-0.1,1.9-0.3,2.9-0.4c0.4-2.1,0.8-4.2,1.2-6.2c-0.9,0.2-1.9,0.5-2.8,0.7
				c1.1,1.2,1.3,2.3,0.8,3.8c0.9-0.2,1.9-0.5,2.8-0.7c-0.8-1-1.1-1.7-1-3C361.7,225.5,358.8,226.1,358.7,227L358.7,227z"/>
		</g>
	</g>
	<g>
		<g>
			<path class="st2" d="M364.1,228.1c0.4-0.4,0.8-0.8,1.2-1.2c0.3-0.3-0.1-0.6-0.4-0.6c-0.8,0-1.6-0.1-2.4-0.1
				c-0.4,0-3.2,0.8-2.1,1.3c3.6,1.4,7.3,1.7,11.1,1.3c-0.4-0.1-0.8-0.2-1.2-0.2c0,1.1,0.1,2.2,0.1,3.3c0,0.6,2.9,0.1,2.9-0.8
				c0-1.1-0.1-2.2-0.1-3.3c0-0.4-1-0.3-1.2-0.2c-3.2,0.4-6.2-0.1-9.2-1.2c-0.7,0.4-1.4,0.8-2.1,1.3c0.8,0,1.6,0.1,2.4,0.1
				c-0.1-0.2-0.3-0.4-0.4-0.6c-0.4,0.4-0.8,0.8-1.2,1.2c-0.5,0.5,0.4,0.6,0.7,0.6C362.8,228.9,363.7,228.5,364.1,228.1L364.1,228.1z
				"/>
		</g>
	</g>
	<g>
		<g>
			<path class="st2" d="M325.8,231.6c-0.6-0.5-0.7-1.2-0.3-1.9c-1,0.2-1.9,0.4-2.9,0.7c0,1.3,0.3,2.4,0.9,3.5
				c0.4,0.7,2.4-0.2,2.8-0.5c1.1-0.9,0.8-2.9-0.7-3.1c-1.9-0.3-3.9,1.3-3.1,3.2c0.1,0.1,0.1,0.1,0.3,0.2c1.1,0.1,4.2-0.4,3.8-2.2
				c-0.4-1.4-3.4-0.2-3.9,0.6c-0.8,1.4,0.5,2.3,1.8,2.2c1.7-0.2,4-1.3,3.4-3.3c-0.2-0.6-2.2,0.2-2.6,0.4c-1.8,1.2-0.7,3.4,1.3,3.2
				c1-0.1,2.2-0.5,2.8-1.3c0.5-0.7,0.5-1.7-0.2-2.3c-0.6-0.5-2.2,0.2-2.7,0.6c-0.9,0.6-1.4,1.5-1.5,2.5c-0.1,0.4,1.5,0,1.6,0
				c1.7-0.5,3.3-1.4,4.1-3.1c0-0.1,0-0.2-0.1-0.2c-1.5-0.7-5,0.2-4.8,2.2c0,0.3,1.1,0.1,1.2,0.1c1.9-0.4,4.1-1.5,3.8-3.9
				c-0.1-0.6-2,0.1-2.3,0.2c-1.5,0.7-2.6,1.7-3.3,3.3c-0.2,0.5,1,0.3,1.1,0.2c0.9-0.2,2.1-0.5,2.6-1.3c0.6-0.8,0.5-1.7-0.5-2.1
				c-1.7-0.7-4.5,0.1-5.5,1.7c0,0.1,0,0.2,0.1,0.2C323.8,231.8,324.7,231.9,325.8,231.6c0.6-0.1,1.9-0.5,1.9-1.4
				c0.1-1.8-3.2-0.6-3.8,0.1c-0.2,0.3,0.4,0.3,0.5,0.3c0.8,0,1.6,0,2.3,0c0.7,0,1.5-0.2,2-0.5c0.4-0.3,0.5-0.6-0.2-0.6
				c-1.5,0-3.1,0-4.6-0.1c-0.6,0-1.2,0.2-1.8,0.4c-0.1,0.1-0.9,0.5-0.5,0.6c1,0.5,1.9,0.6,3.1,0.4c0.6-0.2,2-0.5,2-1.4
				c0.1-1.9-3.2-0.7-3.8,0c0,0.1,0,0.2,0.1,0.2c1.3,0.7,3.1,0.3,4.3-0.5c1.5-1-0.4-1.1-1.2-0.9c-0.7,0.2-2.4,0.8-1.7,1.7
				c0.4,0.7,1.5,0.4,2,1c0.1,0.2,0.2,0.4,0.2,0.7c0,0.6-0.6,0.9,0.4,0.6c-0.2,0.1-1.5,0.4-1.3,0.8c0.1,0.4,1.4,0.1,1.6,0
				c2.1-0.6,4.5-2.7,2.8-5c-0.4-0.5-2.9,0.1-2.9,0.8c0,1.4,0,2.8,0,4.1c0,0.4,2.9,0,2.9-0.8c0-1.4,0-2.8,0-4.1
				c-1,0.3-1.9,0.5-2.9,0.8c0.4,0.5,0.6,1.1,0.5,1.8c0,0.3-0.1,0.6-0.3,0.9c-0.1,0.3-0.8,0.8-0.3,0.6c0.1,0.3,0.1,0.6,0.2,0.8
				c1-0.3,2.3-0.8,2.3-2.1c0-0.5-0.2-0.9-0.6-1.2c-0.2-0.2-0.5-0.2-0.8-0.3c-0.4-0.2-1-0.7-1.4-0.5c-0.5,0.1-1,0.2-1.4,0.3
				c0.2-0.1,0.4-0.3,0.7-0.4c-0.3,0.2-0.6,0.4-0.9,0.6c0,0,0.1,0,0.1,0c-0.6,0.1-1.1,0.2-1.7,0.2c0.3,0.1,0.5,0.7,0.2,0.8
				c0.5-0.2,0.9-0.3,1.4-0.5c0.5-0.1-0.5-0.3-0.7-0.4c-0.8,0.4-1.5,0.7-2.3,1.1c1.5,0,3.1,0,4.6,0.1c0.6-0.4,1.3-0.8,1.9-1.1
				c-0.8,0-1.6,0-2.3,0c0.2,0.1,0.3,0.2,0.5,0.3c0,0,0.1-0.1,0.1-0.1c-0.4,0.2-0.9,0.5-1.3,0.7c0.1,0,0.1,0,0.2,0
				c-0.4,0-0.9,0.1-1.3,0.1c0.3,0.1,0.2,0.4,0.4,0.5c1.2,0.2,1.6,0,1.2-0.4c-0.1-0.2-0.2-0.2-0.4,0c0.1-0.2,0.7,0.6,0.7,0.8
				c0.1,0.5-0.6,0.8,0.4,0.6c0.4,0.1,0.8,0.2,1.1,0.2c0.4-1,1.1-1.9,2.1-2.4c-0.8,0.1-1.5,0.2-2.3,0.2c0.1,0.5,0,0.9-0.2,1.4
				c-0.2,0.5-1.1,0.9-0.2,0.7c0.4,0,0.8,0.1,1.2,0.1c0,0,0.1-0.7,0.1-0.7c-0.4-0.3-1.2,0.5-1.4,0.7c-0.2,0.4-0.8,0.9-1,1
				c0.5,0,1,0,1.6,0c0.1-0.9,0.5-1.5,1.2-2c-0.9,0.2-1.8,0.4-2.7,0.6c0.3,0.3,0.5,0.6,0.4,1.1c0,0.2-0.1,0.3-0.1,0.5
				c0,0.1-0.1,0.2-0.1,0.2c-0.4,0.5,0.1,0.4,1.3-0.3c-0.1-0.3-0.5-0.5-0.6-0.8c-0.1-0.3-0.2-1,0.2-1.2c-0.9,0.1-1.7,0.2-2.6,0.4
				c0.1,0.5-0.1,0.9-0.1,1.3c-0.4,0.5-0.1,0.5,1,0.1c-0.1,0-0.2-0.1-0.3-0.2c-0.1-0.4-0.5-1.2,0-1.5c-0.5,0.2-0.9,0.3-1.4,0.5
				c-0.5,0.1-1.1,1-0.1,0.8c0.4,0,0.9-0.1,1.3-0.1c-0.7-0.1,0.2-1.8,0.3-1.9c-0.8,0.2-1.7,0.4-2.5,0.7c0.9,0.2,1.2,1.7,0.5,2.3
				c0.9-0.2,1.8-0.3,2.8-0.5c-0.6-1.1-0.9-2.3-0.9-3.5c0-0.6-2.6,0.3-2.9,0.7c-0.5,0.8-0.4,1.7,0.4,2.3
				C323.6,233.1,326.1,231.9,325.8,231.6L325.8,231.6z"/>
		</g>
	</g>
	<g>
		<g>
			<path class="st2" d="M368.1,229.1c0.8,0.4,2.3,0,2.8-0.7c0.3-0.4,0.3-0.9,0-1.2c-0.7-0.7-2.1-0.2-2.8,0.2c-0.6,0.3-1.2,1-1.3,1.7
				c-0.1,0.7,1.2,0.8,1.7,0.8c0.9,0,2.1-0.4,2.6-1.2c0.4-0.5,0.2-1.2-0.3-1.6c-0.8-0.6-1.9-0.4-2.8,0c-0.4,0.1-0.9,0.4-0.9,0.9
				c0,0.6,0,1.2,0,1.8c0,0.5,1.4,0.3,1.6,0.2c1.3-0.4,2.6-1.2,3-2.6c0.1-0.3-0.3-0.5-0.5-0.5c-1.7-0.1-4.4,0.8-4.1,3
				c0.1,0.8,3,0.1,2.9-0.8c0-0.3,0-0.5,0.1-0.8c0-0.1,0.2-0.2,0.2-0.2c0,0,0,0,0,0c-0.3,0.1-0.6,0.2-0.9,0.2
				c-0.2-0.2-0.4-0.3-0.5-0.5c-0.1,0.3-0.2,0.6-0.3,0.8c-0.1,0.1-0.2,0.2-0.2,0.2c-0.1,0-0.1,0.1,0,0c0.1,0,0.1,0,0.2-0.1
				c0.5,0.1,1.1,0.1,1.6,0.2c0-0.6,0-1.2,0-1.8c-0.3,0.3-0.6,0.6-0.9,0.9c-0.1,0-1,0.1-1,0.2c0,0,0.1,0.1,0.1,0.1
				c0.1,0.1,0.2,0.3,0.2,0.5c0,0-0.1,0.1,0,0.1c0,0,1.1-0.4,1.2-0.4c0.1,0,0.2,0,0.3,0c0,0-0.1,0-0.1,0c0,0-0.1-0.1-0.1-0.2
				c0,0.1,0.1,0.2,0.1,0.3c0.1-0.2,0.1-0.4,0.2-0.6c0,0,0.1-0.1,0.1-0.1c0.2-0.3-0.1-0.2-0.9,0.1c-0.9-0.1-1.2,0-0.9,0.2
				c0,0,0,0.1,0,0.2c0,0.1,0,0.1,0,0.1c0,0.1-0.4,0.2,0.2-0.1c0.2-0.1,0.4-0.2,0.6-0.3c0,0,0,0-0.1,0c0.4-0.1,0.8-0.2,1.1-0.2
				c0,0,0,0-0.1,0c0.2,0,0.4,0,0.6,0.1c0,0-0.1,0-0.1-0.1c-0.6-0.3-1.5,0-2,0.3C368,228.3,367.5,228.8,368.1,229.1L368.1,229.1z"/>
		</g>
	</g>
	<g>
		<g>
			<path class="st2" d="M367.3,229.9c1,1.2,3.3,0.4,4.2-0.6c0.3-0.4,0.7-1,0.3-1.5c-0.4-0.6-1.6-0.6-2.2-0.5
				c-0.8,0.1-1.8,0.5-2.3,1.2c-0.3,0.5-0.2,1.1,0.3,1.5c0.7,0.6,1.7,0.5,2.5,0.2c0.6-0.2,1.5-1,1-1.7c-0.5-0.6-1.4-0.5-2-0.4
				c-0.8,0.2-1.9,0.6-1.8,1.6c0,0.2,0.4,0.4,0.6,0.4c0.3,0.1,0.7,0,1.1-0.1c0.5-0.1,1.3-0.5,1.3-1.1c0,0.3-0.5,0.4-0.7,0.5
				c-0.3,0.1-0.7,0.3-1.1,0.2c0.1,0.1,0,0,0,0c0-0.1,0-0.1,0,0c0.1,0.3,0.3,0.1,0.6-0.6c0.3-0.1,0.5-0.1,0.8-0.2c0,0,0.5,0,0.5,0.1
				c0,0-0.1,0-0.1-0.1c0,0-0.1-0.2-0.1-0.2c-0.1-0.1,0.2-0.1-0.1,0c-0.2,0.1-0.4,0.3-0.7,0.3c-0.2,0-0.3,0,0,0.1
				c-0.1-0.1-0.2-0.2-0.3-0.3c0,0.1,0.1,0.2,0,0.3c0,0-0.1,0.1,0,0.1c0,0.1,0,0.1,0,0.1c-0.1,0,0.1-0.1,0.1-0.1
				c0.2-0.1,0.5-0.2,0.7-0.2c0.1,0,0.2,0,0.2,0c0.1,0,0.1,0,0,0c0,0,0-0.1-0.1-0.1C369.4,228,366.6,229.1,367.3,229.9L367.3,229.9z"
				/>
		</g>
	</g>
	<g>
		<g>
			<path d="M370.9,227.7c-1.2-0.3-2.7,0.2-3.4,1.2c-0.5,0.7-0.6,1.8,0.2,2.4c0.9,0.6,2.8,0,3-1.1c0.2-1.5-1.9-1.1-2.7-0.6
				c-0.3,0.2-0.7,0.6-0.5,1c0.2,0.4,0.8,0.4,1.2,0.4c0.8,0,1.5-0.2,2.2-0.5c0.7-0.3,1.5-0.7,1.6-1.5c0.1-0.6-0.1-1.2-0.4-1.6
				c-0.5-0.7-1.2-0.7-1.9-0.5c-1.2,0.3-2.5,1-3,2.3c-0.4,1.1,0.4,2,1.5,2.1c1.2,0.1,2.6-0.5,3.3-1.5c0.6-1,0-2-1.1-2.3
				c-1.2-0.3-2.7,0-3.5,0.9c-0.8,0.8-0.8,2,0,2.8c2.2,2,6.5-0.5,4.9-3.4c-0.2-0.3-0.9-0.3-1.2-0.3c-1.5,0.1-4-0.2-4.3,1.8
				c-0.2,1.1,0.5,2.2,1.6,2.5c1.4,0.4,3.2-0.4,3.9-1.7c0.5-1.2-0.1-2.3-1.3-2.6c-1.3-0.3-3,0.2-3.8,1.3c-0.6,1-0.1,2.1,1,2.5
				c1.2,0.5,3.1,0.2,3.8-1c0.7-1.2-0.5-2.4-1.6-2.8c-1.4-0.4-3.5,0.2-3.9,1.8c-0.3,1.2,0.4,2.4,1.7,2.7c0.7,0.2,1.8-0.1,2.2-0.8
				c0.6-1,0.9-2.1,0.8-3.3c0-0.2-0.4-0.4-0.6-0.4c-1.1-0.3-2.4,0.1-3.1,1c-0.5,0.6-0.7,1.6,0,2.1c0.9,0.7,2.3,0.4,3.2-0.2
				c0.7-0.4,1.4-1.3,1-2.1c-0.2-0.5-0.8-0.5-1.3-0.5c-1.2,0.1-2.5,0.7-3.1,1.7c-0.2,0.4-0.5,0.9-0.3,1.3c0.2,0.4,0.7,0.5,1.1,0.6
				c1.4,0.2,4.6-1.1,3.3-3c-0.6-0.9-3.4,0.1-2.7,1.2c0.1,0.1,0,0.3,0,0.3c-0.1,0.1-0.1,0.1,0,0c0.1-0.1,0.3-0.1,0.4-0.1
				c0.2-0.1,0.4-0.1,0.6,0c0,0,0-0.1-0.1-0.1c0,0.1,0.1,0.3,0.1,0.4c0.1-0.2,0.1-0.4,0.2-0.6c0.2-0.3,0.3-0.1,0-0.1
				c-0.4-0.2-0.8-0.3-1.3-0.5c0,0.1,0,0.3,0.1,0.4c0.1,0.2,1.1,0.1,1.1-0.2c0-0.1-0.1-0.2-0.1-0.3c0-0.1,0-0.1,0.1-0.2
				c0.3-0.5,0-0.4-1.2,0.3c-0.2-0.1-0.4-0.3-0.6-0.4c0.1,0.9-0.1,1.7-0.6,2.4c0.7-0.3,1.5-0.5,2.2-0.8c-0.3-0.1-0.5-0.5-0.6-0.8
				c0-0.1,0.1-0.6,0.1-0.6c0,0.1-0.8,0.3-0.9,0.2c0.1,0.1,0.4,0.3,0.5,0.5c0,0.1,0.1,0.6,0.1,0.6c-0.2-0.1,1.1-0.6,1.1-0.4
				c0,0-0.1-0.1-0.1,0c-0.1-0.1-0.3-0.2-0.3-0.4c0-0.1,0-0.4,0-0.4c0.1,0.1-0.6,0.2-0.6,0.2c0,0,0.1,0.1,0.2,0.2
				c0.1,0.2,0.1,0.4,0,0.6c0,0.1-0.1,0.1-0.1,0.2c0,0-0.1,0.1-0.1,0.1c0.2-0.2,0.4-0.2,0.6-0.2c0.4-0.1,0.1,0-0.1-0.3
				c-0.3-0.4-0.3-0.9,0-1.3c-0.5,0.3-1,0.5-1.5,0.8c0.8,0,1.6-0.1,2.4-0.1c-0.4-0.1-0.8-0.2-1.2-0.3c0.2,0.3,0.2,0.7,0.1,1
				c0,0.1-0.2,0.3-0.2,0.4c0-0.3,0.9,0.1,0.7-0.3c-0.1-0.2-0.3-0.2-0.4-0.4c-0.1-0.2-0.1-0.3-0.1-0.5c0-0.4,0.1-0.1,0-0.2
				c0.2,0.1-0.6,0.2-0.6,0.2c0,0,0.2,0.3,0.2,0.4c0,0.1-0.1,0.2-0.1,0.3c0-0.4,0.9-0.1,1-0.2c0-0.1-0.1-0.3-0.1-0.4
				c0-0.1,0.1-0.2,0.1-0.4c0,0,0.3-0.4,0.3-0.4c0,0-0.5,0.1-0.1,0.1c-0.4-0.1-0.8-0.2-1.2-0.3c0.4,0.4,0.5,0.9,0.4,1.4
				c0.2-0.2,0.4-0.4,0.5-0.6c-0.4,0.2-0.6,0.3-1.1,0.3c0.2,0.4,0.5,0.9,0.7,1.3c0,0,0.1,0,0.1,0c-0.4,0.1-0.7,0.3-1.1,0.4
				c-0.2,0-0.4,0-0.6,0c-0.2-0.1-0.3-0.2-0.5-0.2c-0.1-0.1,0,0,0,0c0.1-0.1,0.3-0.3,0.4-0.4c0,0,0,0,0,0c0.4-0.1,0.7-0.3,1.1-0.4
				c0,0,0,0-0.1,0c0.3,0,0.6,0.1,1,0.1c0.2,0.1,0,0-0.1-0.1c-0.1-0.1-0.1-0.2-0.1-0.4c0-0.1,0.1-0.2,0.1-0.3c0-0.3,0.4,0.6-1,0.2
				c0.7,0.2,1.6-0.1,2-0.5C371.6,228.4,371.5,227.9,370.9,227.7L370.9,227.7z"/>
		</g>
	</g>
	<g>
		<g>
			<path d="M325.7,230c-0.2,0.7-0.1,1.4,0.6,1.8c0.8,0.5,2,0.3,2.7-0.2c0.5-0.4,0.9-1.1,0.7-1.8c0-0.1-0.1-0.3-0.2-0.4
				c-0.1-0.1-0.4-0.4-0.2-0.2c-0.3-0.3-0.7-0.5-1.2-0.4c-0.8,0-1.7,0.4-2,1.2c-0.2,0.5-0.2,1.1,0.2,1.4c0.7,0.6,1.8,0.4,2.5,0.1
				c0.7-0.3,1.2-1,1.5-1.7c0.2-0.5,0-0.9-0.5-1.1c-1.2-0.3-2.5-0.3-3.7,0c-0.5,0.1-1.1,0.5-1.2,1.1c-0.1,0.9,0.6,1.5,1.4,1.8
				c1.1,0.3,2.6,0,3.2-1.1c0.7-1.2-1-1.8-1.9-1.7c-1,0.1-2.4,0.7-2.5,1.9c0,0.7,0.7,0.9,1.3,0.9c0.5,0,1.6-0.4,1.6-1.1
				c0-0.2,0,0-0.1,0.1c-0.1,0.1-0.3,0.2-0.5,0.3c-0.2,0.1-0.6,0.1-0.7-0.2c0-0.2,0-0.3,0.1-0.5c-0.1,0.2,0,0,0,0
				c0.3-0.1,0.4-0.3,0.7-0.4c0.1,0,0.3,0,0.4,0c0.1,0,0,0-0.1,0c0.2,0.1,0,0,0,0c0,0,0.1,0.1,0,0c-0.1-0.1,0,0.1,0,0
				c0-0.1,0,0.2,0-0.1c-0.4,0.4-0.8,0.7-1.2,1.1c0.5-0.1,0.9-0.2,1.5,0c-0.2-0.4-0.4-0.7-0.5-1.1c-0.1,0.2-0.2,0.3-0.2,0.5
				c0-0.1,0,0-0.1,0.1c0.2-0.2,0.5-0.3,0.9-0.1c0.4-0.1,0.6-0.1,0.7,0.2c0,0.1,0,0.1,0,0c0-0.1,0-0.1,0,0c-0.2,0.3-0.5,0.5-0.8,0.5
				c-0.3,0-0.5,0-0.8,0.1c0,0,0,0,0.1,0c-0.2-0.1-0.4-0.1-0.6-0.2c0,0-0.1-0.1-0.1-0.1c0,0.1,0.1,0.1,0.1,0.2c0.2,0.2,0.1,0.1,0,0
				c0,0,0.1,0.2,0,0.1c0,0.1,0,0.1,0,0.1c0-0.3,0.3-0.5,0.7-0.5c0.3,0,0.5,0,0.8-0.1c0.1,0,0.3,0.2,0.2,0.1c-0.1-0.1,0,0,0,0.1
				C329,228.7,326.1,228.8,325.7,230L325.7,230z"/>
		</g>
	</g>
</g>
<g id="Слой_1">
	<g>
		<g>
			<path d="M348.2,354.7c0.6,0,3.3-1.2,1.9-1.2C349.4,353.5,346.8,354.7,348.2,354.7L348.2,354.7z"/>
		</g>
	</g>
	<g>
		<g>
			<path d="M297.4,234.3c0,0.1-0.1,0.2-0.1,0.3c0.7-0.3,1.4-0.6,2-1c2.7,0.1,6.5-1.7,9.1-2.3c3.5-0.8,7.1-1.6,10.6-2.2
				c6.4-1.2,13-2.1,19.5-2.7c13.8-1.3,27.6-1.2,41.4,0.1c0.8,0.1,3.4-1.3,1.8-1.5c-15.5-1.4-31.1-1.4-46.5,0.3
				c-7.6,0.8-15.1,2.1-22.6,3.7c-4,0.9-7.9,1.8-11.8,2.9c-1.6,0.4-3.2,0.7-4.1,2.1c-0.1,0.2-0.2,0.3,0,0.5c0.4,0.6,0.8,0.6,1.5,0.6
				c0.6,0,1.8-0.3,2-1c0-0.1,0.1-0.2,0.1-0.3C300.6,233.1,297.7,233.4,297.4,234.3L297.4,234.3z"/>
		</g>
	</g>
	<g>
		<g>
			<path d="M299.1,234.1c-1.2-0.8-1.3-0.7-2.8-0.6c-0.3,0-2.2,0.4-2.1,1c1.4,5.2,3.6,11,9.4,12.6c4.5,1.2,9.7-0.3,13.9-1.8
				c5-1.8,9.7-4.4,13.8-7.8c3.1-2.6,11-9.3,9.5-13.8c-0.2-0.6-3.1,0.2-2.9,0.8c1.3,3.8-4.6,9-7,11.3c-3.1,3-6.7,5.4-10.6,7.3
				c-5.2,2.5-12.9,5.1-17.9,1c-3.1-2.5-4.4-6.7-5.4-10.4c-0.7,0.3-1.4,0.6-2.1,1c0.4,0.1,0.9,0.3,1.3,0.4
				C297.1,235.5,299.5,234.4,299.1,234.1L299.1,234.1z"/>
		</g>
	</g>
	<g>
		<g>
			<path d="M337.8,227.2c1.8,10,9.3,21.3,20.6,21.1c10.5-0.1,20.2-8.6,26.4-16.4c0.7-0.9-2.1-0.7-2.7,0c-6,7.5-17.4,18.2-27.9,13.8
				c-7.6-3.2-12.1-11.5-13.5-19.3C340.6,225.5,337.6,226.2,337.8,227.2L337.8,227.2z"/>
		</g>
	</g>
	<g>
		<g>
			<path d="M324.9,281.6c0.5,0.3,1.1,0.6,1.6,0.8c1.6-0.3,3.1-0.7,4.7-1c1.8-0.3,3.7-0.2,5.5,0c2.9,0.3,5.6,1,8.3,2.1
				c0.8,0.3,2.9-0.9,2.7-1c-7.7-3.1-15.8-3-23.5-0.1c-1.9,0.7-0.1,0.9,1,0.5c1.5-0.5,1.8-0.5,2.7-1.9
				C327.9,280.9,325.4,280.9,324.9,281.6L324.9,281.6z"/>
		</g>
	</g>
	<g>
		<g>
			<path d="M325.5,283.4c-2.2-0.8,0.4-5.5,1.1-6.2c2.3-1,4.6-1.9,7-2.9c1.2,0.2,2.4,0.6,3.5,1.2c3.5,1.7,6.1,4.9,8.5,7.8
				c0.6,0.7,3.4-0.3,2.7-1.1c-4.2-4.9-9.2-10.1-16.2-9.5c-6.4,0.6-9.1,5.3-10.8,11c-0.1,0.2,0.1,0.4,0.3,0.5
				c0.5,0.2,1.1,0.4,1.6,0.6C324,285.1,326.7,283.8,325.5,283.4L325.5,283.4z"/>
		</g>
	</g>
	<g>
		<g>
			<path d="M361.5,227.2c0.2-1,0.1-1.4-0.6-2.2c-0.4-0.5-2.7,0.1-2.8,0.7c-0.7,4.2,1.2,8.5,5.2,10.2c3.6,1.5,7.7,0.6,10.8-1.4
				c1.2-0.8-1.7-0.5-2.2-0.2c-6.1,3.9-12-3.4-10.9-9.2c-0.9,0.2-1.9,0.5-2.8,0.7c0.1,0.5,0.3,1.1,0.4,1.6
				C358.5,228.4,361.4,227.9,361.5,227.2L361.5,227.2z"/>
		</g>
	</g>
	<g>
		<g>
			<path d="M319.7,230.9c-0.7,5.7,6.2,6.9,9.8,3.9c0.5-0.4,0.3-0.8-0.3-1c-0.6-0.2-1.6,0.1-2,0.5c-2.4,2-4.8-1.6-4.6-3.9
				C322.7,229.4,319.8,229.9,319.7,230.9L319.7,230.9z"/>
		</g>
	</g>
	<g>
		<g>
			<path d="M388,244.4c0.2-0.6,0.6-1,1.2-1.1c0.4-0.1,0.7-0.1,1.1,0c0.7,0.1,1.3,0.3,1.8,0.7c1.2,0.9,1.8,2.3,1.9,3.8
				c0.2,4.2-3.5,6.7-7.4,6.5c-1.1,0-3.1,1.6-1.1,1.7c3.3,0.1,6.8-0.8,9.1-3.1c2.2-2.2,3-5.9,1.3-8.6c-1.4-2.3-4.4-3-7-2.4
				c-1.2,0.3-2.4,0.9-3.3,1.8c-0.6,0.6-1.2,1.8-0.1,2.2c0.6,0.2,1.5,0.2,2.1-0.3C388,245.3,388.7,244.6,388,244.4L388,244.4z"/>
		</g>
	</g>
	<g>
		<g>
			<path d="M294.2,248.9c7.4,25.7,8.9,52.5,4.4,78.9c-0.2,1,2.5,0.1,2.9-0.5c0.8-1.3,1.5-2.6,2.3-3.9c0.3-0.5-2.4-0.3-2.9,0.5
				c-0.8,1.3-1.5,2.6-2.3,3.9c1-0.2,1.9-0.3,2.9-0.5c4.6-26.4,3.1-53.4-4.4-79.2C296.9,247.3,294,248.1,294.2,248.9L294.2,248.9z"/>
		</g>
	</g>
	<g>
		<g>
			<path d="M300.9,328.1c16.6-11.7,33.8-22.4,51.6-32.1c13.4-7.3,34.1-14.4,35-32.5c0.1-1.1-2.8-0.5-2.9,0.4
				c-0.5,10.2-8,17.1-16.3,22c-7.9,4.5-16.1,8.5-24,12.9c-15.7,8.8-30.9,18.5-45.7,28.9C297.3,328.7,300.2,328.6,300.9,328.1
				L300.9,328.1z"/>
		</g>
	</g>
	<g>
		<g>
			<path d="M296.1,250.8c-4.8-10.5-13-32.6-28.7-24.1c0.5,0.5,1.1,1,1.6,1.5c5.9-3.9,12.9-4.4,19.5-1.8c0.6-0.6,1.1-1.3,1.7-1.9
				c-9-2.5-18.1-5-27.1-7.5c-0.1,0.6-0.1,1.2-0.2,1.8c8.2-3.4,16.7-6,25.4-7.9c0.6-0.1,1.6-0.9,1.1-1.6c-0.1-0.1-0.2-0.3-0.3-0.4
				c-0.5-0.6-1.4-0.5-2-0.2c-1.1,0.5-1.4,0.7-1.7,1.9c-0.1,0.3,0.1,0.6,0.3,0.7c2.4,1.5,4.7,0.5,7.3-0.2c3.7-1,8.5-2.1,11.7-4.4
				c3.2-2.3,3.1-7.5-1.6-7.1c-1.6,0.2-2.3,2.2-0.3,2.1c4.9-0.2,9.9-0.1,14.7-0.5c2.6-0.2,5.8-0.7,7.6-2.9c2.6-3.1,0.6-7.5-3.4-7.5
				c-0.9,0-2.5,1.6-1,2c8.6,2.1,18.3,4.8,27.2,4.6c3.1-0.1,8.4-3.6,4.1-6.4c-0.7,0.6-1.3,1.2-2,1.8c3,1,5.2,2.8,6.5,5.8
				c0.5,1.3,0.7,2.6,1.4,3.7c1.3,2.2,3.6,3.6,6,4.4c7.6,2.8,16.5-0.9,23.3,4.1c0.5,0.4,1.6,0.2,2.1-0.2c1.4-1.3,2-2.1,1.9-4.1
				c-0.9,0.3-1.7,0.6-2.6,0.9c4.9,2.8,9.8,5.7,14.6,8.5c0.7,0.4,2.2,0.2,2.5-0.7c0-0.1,0.1-0.2,0.1-0.3c0.2-0.5,0-0.9-0.5-1.1
				c-1.2-0.4-1.8-0.3-2.8,0.5c-0.3,0.2-0.6,0.6-0.5,1c3.3,12.2,3.9,25.7,5.5,38.3c0.2,1.3,3,0.6,2.9-0.8c-0.3-3.9-4.5-5.1-7.5-3.4
				c-0.4,0.2-0.9,0.7-0.8,1.2c1.9,8.6,2.1,17.2,0.7,25.8c1-0.1,2-0.2,2.9-0.2c-0.1-2.9-4.1-1.9-5.4-0.3c-0.6,0.8-0.3,1.3-0.7,2.2
				c-1.1,2.1,0.9,1-1.7,0.9c-2.4-0.1-14,0.9-11.8-4.2c0.7-1.5-2.3-1.5-2.8-0.3c-3.7,8.5,12.3,5.6,14.9,7.5c0.5,0.4,1.3,0.2,1.8,0
				c2.1-1,2.8-3.2,2.7-5.5c0,1.5,2.7,1,2.9-0.2c1.5-8.9,1.2-17.6-0.7-26.4c-0.3,0.4-0.5,0.8-0.8,1.2c2.3-0.4,3.4,0.5,3.3,2.5
				c1-0.3,1.9-0.5,2.9-0.8c-0.9-6.7-1.8-13.3-2.7-20c-0.4-3.2-0.8-6.4-1.3-9.5c-0.2-1.6-0.3-3.2-0.6-4.8c0,0-1.8-6.6-2.9-3.6
				c0.8-0.2,1.7-0.4,2.5-0.7c-4.9-2.8-9.8-5.7-14.6-8.5c-0.7-0.4-2.7-0.2-2.6,0.9c-0.3,0.9-0.6,1.7-0.9,2.6c0.7-0.1,1.4-0.1,2.1-0.2
				c-6.9-5.1-15.1-1.7-22.7-4c-2-0.6-4.2-1.5-5.6-3.2c-1.3-1.6-1.5-3.7-2.4-5.4c-1.5-2.9-4.1-4.7-7.1-5.7c-0.9-0.3-3.3,0.9-2,1.8
				c-1,2.2-2.4,3-4.4,2.3c-1.2-0.1-2.4-0.3-3.6-0.4c-1.8-0.2-3.6-0.5-5.4-0.8c-4.7-0.8-9.3-1.8-13.9-2.9c-0.3,0.7-0.6,1.3-1,2
				c1.1,0.1,1.6,0.8,1.5,1.8c0.8,1.9-0.1,3.2-2.8,4c-1.5,0.6-4.1,0.4-5.8,0.5c-3.8,0.1-7.6,0.2-11.4,0.4c-0.1,0.7-0.2,1.4-0.3,2.1
				c0.7,2.6,0.1,4.1-1.9,4.6c-1.6,0.6-3.2,1.2-4.8,1.7c-2.5,0.8-5.3,1.1-7.8,2.2c-0.7-0.1-1.3-0.1-2-0.2c0.1,0.1,0.2,0.3,0.3,0.4
				c0.4-0.5,0.7-1.1,1.1-1.6c-9,2-17.7,4.7-26.1,8.2c-0.8,0.3-1.3,1.5-0.2,1.8c9,2.5,18.1,5,27.1,7.5c1.2,0.3,3.4-1.2,1.7-1.9
				c-7.8-3.2-16.1-2.2-23,2.4c-1.5,1,0.5,2.1,1.6,1.5c13.3-7.2,20.7,14.9,24.5,23.2C293.8,252.8,296.7,251.9,296.1,250.8
				L296.1,250.8z"/>
		</g>
	</g>
	<g>
		<g>
			<path d="M328.9,246.8c-2.2,3.3-4.1,6.7-5.7,10.3c-0.3,0.6,0.2,1,0.8,1.1c1.7,0.1,3,0.6,4.3,1.7c0.9,0.8,3.6-0.4,2.7-1.2
				c-1.7-1.5-3.6-2.3-5.9-2.4c0.3,0.4,0.6,0.7,0.8,1.1c1.6-3.6,3.5-7,5.7-10.3C332.4,245.8,329.5,245.8,328.9,246.8L328.9,246.8z"/>
		</g>
	</g>
	<g>
		<g>
			<path d="M351.9,296.1c0-0.1,0-0.2,0-0.3c-0.9,0.1-1.9,0.3-2.8,0.4c0.4,6.2,0.8,12.4,1.2,18.6c0.1,0.9,3,0.3,2.9-0.8
				c-0.4-6.2-0.8-12.4-1.2-18.6c-0.1-1-2.5-0.1-2.8,0.4c-0.6,1-0.2,1.6,0.9,1.8C351,297.8,353.5,296.4,351.9,296.1L351.9,296.1z"/>
		</g>
	</g>
	<g>
		<g>
			<path d="M364.7,292.5c-1.1-1.2-1.4-2-1.4-3.5c-1,0.3-1.9,0.5-2.9,0.8c0.9,6,1.7,11.9,2.6,17.9c0.1,0.9,3,0.2,2.9-0.8
				c-0.9-6-1.7-11.9-2.6-17.9c-0.1-0.9-2.9-0.2-2.9,0.8c0.1,1.6,0.5,2.7,1.6,3.8C362.7,294.3,365.4,293.3,364.7,292.5L364.7,292.5z"
				/>
		</g>
	</g>
	<g>
		<g>
			<path d="M370.4,308.2c-1.5-0.2-2.1-1.5-2.1-2.8c-0.9,0.4-1.7,0.8-2.6,1.2c4.6,3.6,10.7,4.4,16.2,2.5c1.7-0.6,1.3-2.4-0.5-1.8
				c-4.7,1.6-9.5,0.7-13.5-2.3c-0.8-0.6-2.6,0.1-2.6,1.2c0.1,2.3,1.8,3.6,4,3.9C370.6,310.3,372.3,308.5,370.4,308.2L370.4,308.2z"
				/>
		</g>
	</g>
	<g>
		<g>
			<path d="M332.8,322.1c4.8-0.2,9.3-1.2,13.7-2.9c1.8-0.7,0.2-2.4-1.3-1.8c-3.9,1.5-8,2.3-12.2,2.5
				C331.3,320,330.8,322.2,332.8,322.1L332.8,322.1z"/>
		</g>
	</g>
	<g>
		<g>
			<path d="M342.9,321.4c2.2,8,11.9,9.4,18.9,7.6c8.4-2.2,14.1-9.3,14.6-17.9c0.1-1.1-2.8-0.5-2.9,0.4c-0.4,6.1-3.1,11.5-8.4,14.6
				c-6.4,3.7-17.1,2.8-19.3-5.4C345.6,319.7,342.7,320.5,342.9,321.4L342.9,321.4z"/>
		</g>
	</g>
	<g>
		<g>
			<path d="M381.5,309.3c12.1-6,23.8-12.8,35.1-20.3c-0.6-0.4-1.3-0.8-1.9-1.3c-4.9,4.2-10.2,7.7-16,10.4c0.5,0.5,1.1,1,1.6,1.5
				c4.3-3.3,8.6-6.5,12.8-9.8c1.6-1.2-0.8-2.1-1.9-1.3c-4.3,3.3-8.6,6.5-12.8,9.8c-1.4,1.1,0.5,2,1.6,1.5c6-2.9,11.5-6.5,16.6-10.8
				c1.5-1.3-0.8-2-1.9-1.3c-11,7.4-22.5,14.1-34.4,19.9C378.4,308.5,380,310,381.5,309.3L381.5,309.3z"/>
		</g>
	</g>
	<g>
		<g>
			<path d="M409.4,266.1c-0.3-1-0.5-2-0.8-3c-1,0.3-1.9,0.5-2.9,0.8c1.8,6.7,5.7,12.2,11.4,16.1c0.7,0.5,3.3-0.3,2.5-1.4
				c-2.5-3.3-4.9-6.7-7.4-10c-0.6-0.8-3.2-0.1-2.8,1c2.5,5.9,5,11.8,7.5,17.7c0.5,1.1,3.2,0.4,2.9-0.8c-0.6-2.6-0.6-7.9-3-9.4
				c-0.7-0.4-1.8-0.1-2.3,0.4c-0.5,0.5-0.6,0.7-0.4,1.3c0.1,0.5,0.9,0.6,1.3,0.5c0.1,0,0.2,0,0.2,0c1.5-0.1,2.3-2,0.3-1.8
				c-0.1,0-0.2,0-0.2,0c0.4,0.2,0.9,0.4,1.3,0.5c0,0-0.1,0.1-0.1,0.1c-0.8,0.1-1.5,0.3-2.3,0.4c1.5,0.9,2,7,2.4,8.7
				c1-0.3,1.9-0.5,2.9-0.8c-2.5-5.9-5-11.8-7.5-17.7c-0.9,0.3-1.9,0.7-2.8,1c2.5,3.3,4.9,6.7,7.4,10c0.8-0.5,1.6-0.9,2.5-1.4
				c-5.4-3.8-9.1-9-10.7-15.4c-0.3-1.1-3.2-0.4-2.9,0.8c0.3,1,0.5,2,0.8,3C406.8,268,409.7,267.2,409.4,266.1L409.4,266.1z"/>
		</g>
	</g>
	<g>
		<g>
			<path d="M412.1,245.3c-0.3-0.7-0.5-1.5-0.8-2.2c-0.9,0.3-1.9,0.6-2.8,0.9c5.3,6.1,10.6,12.2,16,18.2c0.5,0.6,3.3-0.3,2.7-1.1
				c-3.7-5.3-7.4-10.6-11.1-15.8c-0.5-0.7-3.3,0.3-2.7,1.1c5.8,8.6,11.1,17.5,15.9,26.8c0.4,0.8,3.2,0,2.9-0.8
				c-2.4-6.1-5.2-12-8.3-17.8c-0.3-0.5-1.2-0.3-1.6-0.2c-4.9,1.4-0.3,6.4,1.4,9c2.1,3.3,4.2,6.5,6.4,9.8c1,1.6,1.7,3.7,3.7,4
				c0.7,0.1,2-0.2,2.4-0.9c0-0.1,0.1-0.2,0.1-0.3c0.3-0.7-2.5-0.4-2.9,0.4c0,0.1-0.1,0.2-0.1,0.3c0.8-0.3,1.6-0.6,2.4-0.9
				c-2-0.3-6.4-9.2-7.4-10.8c-0.3-0.5-5.9-9.4-5.5-9.5c-0.5-0.1-1.1-0.1-1.6-0.2c3.1,5.8,5.8,11.7,8.3,17.8c1-0.3,1.9-0.5,2.9-0.8
				c-4.8-9.3-10.2-18.4-16.1-27.1c-0.9,0.4-1.8,0.7-2.7,1.1c3.7,5.3,7.4,10.6,11.1,15.8c0.9-0.4,1.8-0.7,2.7-1.1
				c-5.3-6.1-10.6-12.2-16-18.2c-0.5-0.5-3.1,0.1-2.8,0.9c0.3,0.7,0.5,1.5,0.8,2.2C409.5,246.9,412.4,246.1,412.1,245.3L412.1,245.3
				z"/>
		</g>
	</g>
	<g>
		<g>
			<path d="M432.4,276.6c0.5,3.4,1.7,6.5,3.6,9.4c0.7,1.1,3.5,0,2.6-1.3c-1.3-2-2.3-4.2-3.1-6.4c-0.9,0.3-1.8,0.7-2.8,1
				c2,3.8,3.7,7.7,5.2,11.8c0.5,1.3,3.4,0.6,2.9-0.8c-0.5-1.5-1.2-2.7-2.2-3.9c-0.9-1-3.4-0.1-2.6,1.3c0.2,0.4,2.6,4.1,2.5,4.3
				c0.6-0.3,1.3-0.6,1.9-0.9c-0.1,0-0.2-0.1-0.4-0.1c0.3,0.3,0.6,0.6,1,1c0-0.1,0-0.2,0-0.2c0-1.5-2.9-1.1-2.9,0.2
				c0,0.1,0,0.2,0,0.2c0,0.6,0.4,0.9,1,1c0.1,0,0.2,0.1,0.4,0.1c0.7,0.1,1.6-0.3,1.9-0.9c0.7-1.5-1.9-4.7-2.6-6
				c-0.9,0.4-1.8,0.9-2.6,1.3c1,1.1,1.5,1.9,2,3.4c1-0.3,1.9-0.5,2.9-0.8c-1.6-4.2-3.4-8.3-5.4-12.3c-0.5-1.1-3.2-0.2-2.8,1
				c0.9,2.5,1.9,4.7,3.3,6.9c0.9-0.4,1.8-0.9,2.6-1.3c-1.8-2.7-2.9-5.7-3.4-8.9C435.1,274.4,432.2,275.2,432.4,276.6L432.4,276.6z"
				/>
		</g>
	</g>
	<g>
		<g>
			<path d="M439.3,295.1c-2.5-2.2-6-2.9-9.2-1.8c-0.9,0.3-2,1.7-0.3,1.8c1.3,0.1,2.6,0.1,4,0.2c0.9,0,3.1-1.2,1.4-1.8
				c-0.7-0.2-1.4-0.5-2.1-0.7c-1.1-0.4-3.4,1.2-1.7,1.8c0.7,0.2,1.4,0.5,2.1,0.7c0.5-0.6,0.9-1.2,1.4-1.8c-1.3-0.1-2.6-0.1-4-0.2
				c-0.1,0.6-0.2,1.2-0.3,1.8c2.1-0.7,4.4-0.2,6.1,1.3C437.5,297.1,440.3,295.9,439.3,295.1L439.3,295.1z"/>
		</g>
	</g>
	<g>
		<g>
			<path d="M432.9,292.9c-5.1,2.1-9.3,5.2-12.8,9.3c-1.2,1.4,1.3,1.8,2.2,1.2c2.9-2.1,5.9-4.1,8.8-6.2c1.5-1.1-0.5-2.1-1.6-1.6
				c-7.9,3.5-15.6,7.2-22.1,13c-1.5,1.4,0.8,2.2,1.9,1.4c4.7-2.9,9.4-5.9,14.1-8.8c-0.6-0.5-1.3-0.9-1.9-1.4
				c-7,5.2-13.5,10.9-19.7,17.1c-1.2,1.2,1.3,1.9,2.2,1.2c4.5-3.7,9.1-7.5,13.6-11.2c1.3-1.1-0.4-2.3-1.6-1.6
				c-6,3.5-11,7.9-15.2,13.4c0.9,0.2,1.7,0.4,2.6,0.7c1.3-2.4,2.8-4.6,4.5-6.8c1.1-1.4-1.3-1.9-2.2-1.2c-4.1,3.4-7.9,7-11.6,10.8
				c-1.2,1.2,1,1.7,1.9,1.4c1.1-0.5,1.4-0.7,1.8-1.9c0.6-1.6-2.3-1.7-2.8-0.4c-0.1,0.1-0.2,0.3-0.4,0.4c0.6,0.5,1.3,0.9,1.9,1.4
				c3.5-3.7,7.2-7.1,11.1-10.4c-0.7-0.4-1.5-0.8-2.2-1.2c-1.9,2.3-3.5,4.7-4.9,7.3c-0.8,1.5,2,1.5,2.6,0.7
				c3.9-5.1,8.5-9.3,14.1-12.5c-0.5-0.5-1.1-1.1-1.6-1.6c-4.5,3.7-9.1,7.5-13.6,11.2c0.7,0.4,1.5,0.8,2.2,1.2
				c6-6,12.4-11.5,19.2-16.6c1.6-1.2-0.8-2.2-1.9-1.4c-4.7,2.9-9.4,5.9-14.1,8.8c0.6,0.5,1.3,0.9,1.9,1.4
				c6.3-5.7,13.8-9.2,21.4-12.6c-0.5-0.5-1.1-1.1-1.6-1.6c-2.9,2.1-5.9,4.1-8.8,6.2c0.7,0.4,1.5,0.8,2.2,1.2
				c3.3-3.8,7.1-6.5,11.7-8.4C436.1,294,434.5,292.3,432.9,292.9L432.9,292.9z"/>
		</g>
	</g>
	<g>
		<g>
			<path d="M396.6,325.4c0.1-1.3,0.1-1.3-0.5-2.4c-0.5-1-2.7-0.3-2.8,0.7c-0.6,10-0.1,20,1.6,29.9c0.2,1.3,2.9,0.7,2.9-0.5
				c0.6-10.9-4-21.3-2.7-32.2c-1,0.2-1.9,0.3-2.9,0.5c0.8,9.8,1.9,19.6,2.3,29.4c0.2,4.5,0.3,8.9,0.3,13.4c0,2.2-0.5,4.6-0.2,6.8
				c0.1,1.3,0.7,2.6,0.8,3.9c0,1.5,3,1.1,2.9-0.2c0-1.2-0.5-2.1-0.6-3.3c-0.4-2.7,0.1-5.7,0.1-8.4c0-4.8-0.1-9.6-0.4-14.4
				c-0.5-9.4-1.5-18.7-2.3-28.1c-0.1-1.3-2.8-0.6-2.9,0.5c-1.3,10.9,3.3,21.3,2.7,32.2c1-0.2,1.9-0.3,2.9-0.5
				c-1.6-9.7-2.1-19.5-1.5-29.4c-0.9,0.2-1.9,0.5-2.8,0.7c0.1,0.4,0.2,0.9,0.2,1.3C393.6,327.1,396.5,326.7,396.6,325.4L396.6,325.4
				z"/>
		</g>
	</g>
	<g>
		<g>
			<path d="M378.9,174.5c-4-2.1-1.4-6.8,0.9-9.1c7.1-6.9,9.1,0.4,8.5,5.1c-0.7,5.4-2.3,10.7-3.5,16c-0.3,1.3,2.7,0.9,2.9-0.3
				c1.2-5.5,9-25.8-2.5-25.8c-6.1,0-16.6,11.4-8.6,15.6C377.7,176.6,380.2,175.2,378.9,174.5L378.9,174.5z"/>
		</g>
	</g>
	<g>
		<g>
			<path d="M390.2,195.1c-0.7-0.6-1.8-0.4-2.6,0.1c-0.7,0.4-1.3,1.2-0.8,2c0.9,1.4,3.6,0.6,3.8-0.9c0.2-1.5-2.8-1.1-2.9,0.2
				c0.1-0.6,1.4-1,1.8-0.5c0.5,0.7-1.2,1.1-1.6,0.8C389,197.5,391.5,196.1,390.2,195.1L390.2,195.1z"/>
		</g>
	</g>
	<g>
		<g>
			<path d="M385.3,144.9c-0.5-0.3-1-0.7-1.6-1c-0.1,0.4-0.3,0.8-0.4,1.1c5-3.9,12-9.4,18.5-5.2c4.5,2.9,5.2,8.8,4.6,13.6
				c-0.7,4.6-2.4,8.9-3.6,13.4c-1.2,4.6-2.1,9.3-2.7,14.1c-0.2,1.3,2.8,0.8,2.9-0.3c1-7.2,2.8-14.1,4.8-21.1
				c1.7-5.7,3-11.9-0.1-17.3c-6.2-10.7-19.2-3.6-26.1,1.9c-0.4,0.3-0.7,0.7-0.4,1.1c0.8,1.3,1.7,1.6,3.2,1.7
				C385.4,146.9,387.2,145,385.3,144.9L385.3,144.9z"/>
		</g>
	</g>
	<g>
		<g>
			<path d="M401.6,194.1c0.6,0,1.3,0,1.9,0c0.6,0,1.5-0.5,1.6-1.2c0.1-0.8-0.8-1-1.4-1c-0.6,0-1.3,0-1.9,0c-0.6,0-1.5,0.5-1.6,1.2
				C400.2,193.9,401,194.1,401.6,194.1L401.6,194.1z"/>
		</g>
	</g>
	<g>
		<g>
			<path d="M398.3,120.3c-1.2-0.7-2.3-1.4-3.5-2.1c-0.1,0.4-0.2,0.8-0.2,1.2c6-4.5,13.7-6.9,20.9-3.9c5.7,2.4,9.8,7.5,10.5,13.7
				c1.5,12.6-7.4,23.4-9.1,35.5c-0.2,1.2,2.8,0.7,2.9-0.3c2-13.9,16.2-31.1,5.6-44.5c-8.2-10.4-23.1-8.4-32.6-1.3
				c-0.4,0.3-0.9,0.8-0.2,1.2c1.2,0.7,2.3,1.4,3.5,2.1C396.8,122.2,399.5,121,398.3,120.3L398.3,120.3z"/>
		</g>
	</g>
	<g>
		<g>
			<path d="M417.1,188.1c-0.3,0.6-0.7,1.2-1,1.8c1-0.1,1.9-0.3,2.9-0.4c0.1-0.2,0.2-0.3,0.3-0.5c0-0.1,0-0.1,0-0.1
				c0,0.1-1.5,0.2-1.5,0.2c0,0,0,0.1,0,0.1c0,0.1-0.1,0.1-0.1,0.2c0-0.1,0.2-0.2,0.1-0.1c0.2-0.1,0.4-0.2,0.6-0.3c0,0,0,0-0.1,0
				c0.4-0.1,0.8-0.2,1.1-0.2c0.1,0,0.1,0,0.2,0c0.1,0.1,0.3,0.1,0.4,0.2c0,0-0.1,0,0,0c-0.5-0.9-3.3,0.2-2.9,0.8
				c0.6,0.9,2.2,0.4,2.9-0.1c0.4-0.3,0.7-0.9,0.5-1.4c-0.4-0.9-2.1-0.5-2.7-0.2c-0.9,0.4-1.5,1-1.9,1.9c-0.3,0.6,1,0.5,1.2,0.5
				c0.6-0.1,1.3-0.3,1.7-0.9c0.3-0.6,0.7-1.2,1-1.8c0.3-0.5-1-0.5-1.2-0.5C418.2,187.2,417.5,187.5,417.1,188.1L417.1,188.1z"/>
		</g>
	</g>
</g>
</svg>
